<svg xmlns="http://www.w3.org/2000/svg" width="1200" height="1200">
  <g fill="#FFF" fill-rule="evenodd" opacity=".3">
    <path d="M1175.475 1174.094c-3.314 0-6-2.687-6-6 0-3.314 2.686-6 6-6s6 2.686 6 6c0 3.313-2.686 6-6 6zm0-2c2.21 0 4-1.79 4-4s-1.79-4-4-4-4 1.79-4 4 1.79 4 4 4z" opacity=".76"/>
    <path d="M1161.33 1102.41c-3.313 0-6-2.687-6-6 0-3.315 2.687-6 6-6 3.315 0 6 2.685 6 6 0 3.313-2.685 6-6 6zm0-2c2.21 0 4-1.792 4-4 0-2.21-1.79-4-4-4-2.208 0-4 1.79-4 4 0 2.208 1.792 4 4 4z"/>
    <path d="M1160.273 1067.94c-3.313 0-6-2.686-6-6s2.687-6 6-6c3.314 0 6 2.686 6 6s-2.686 6-6 6zm0-2c2.21 0 4-1.79 4-4s-1.79-4-4-4-4 1.79-4 4 1.79 4 4 4z" opacity=".8"/>
    <path d="M1175.333 981.212c-3.314 0-6-2.686-6-6s2.686-6 6-6 6 2.686 6 6-2.686 6-6 6zm0-2c2.21 0 4-1.79 4-4s-1.79-4-4-4-4 1.79-4 4 1.79 4 4 4z" opacity=".83"/>
    <path d="M1169.535 928.204c-3.314 0-6-2.686-6-6 0-3.313 2.686-6 6-6 3.313 0 6 2.687 6 6 0 3.314-2.687 6-6 6zm0-2c2.21 0 4-1.79 4-4s-1.79-4-4-4-4 1.79-4 4 1.79 4 4 4z" opacity=".91"/>
    <path d="M1181.785 862.138c-3.314 0-6-2.686-6-6s2.686-6 6-6c3.313 0 6 2.686 6 6s-2.687 6-6 6zm0-2c2.21 0 4-1.79 4-4s-1.79-4-4-4-4 1.79-4 4 1.79 4 4 4z" opacity=".95"/>
    <path d="M1177.883 813.423c-3.314 0-6-2.687-6-6 0-3.314 2.686-6 6-6 3.313 0 6 2.686 6 6 0 3.313-2.687 6-6 6zm0-2c2.21 0 4-1.79 4-4s-1.79-4-4-4-4 1.79-4 4 1.79 4 4 4z" opacity=".9"/>
    <path d="M1174.49 756.462c-3.315 0-6-2.686-6-6s2.685-6 6-6c3.312 0 6 2.686 6 6s-2.688 6-6 6zm0-2c2.208 0 4-1.79 4-4s-1.792-4-4-4c-2.21 0-4 1.79-4 4s1.79 4 4 4z" opacity=".74"/>
    <path d="M1160.997 686.388c-3.314 0-6-2.687-6-6 0-3.314 2.686-6 6-6s6 2.686 6 6c0 3.313-2.686 6-6 6zm0-2c2.21 0 4-1.79 4-4s-1.79-4-4-4-4 1.79-4 4 1.79 4 4 4z" opacity=".85"/>
    <path d="M1161.932 616.068c-3.313 0-6-2.686-6-6 0-3.313 2.687-6 6-6 3.314 0 6 2.687 6 6 0 3.314-2.686 6-6 6zm0-2c2.21 0 4-1.79 4-4s-1.79-4-4-4-4 1.79-4 4 1.79 4 4 4z" opacity=".83"/>
    <path d="M1173.47 566.215c-3.313 0-6-2.686-6-6 0-3.313 2.687-6 6-6 3.315 0 6 2.687 6 6 0 3.314-2.685 6-6 6zm0-2c2.21 0 4-1.79 4-4s-1.79-4-4-4c-2.208 0-4 1.79-4 4s1.792 4 4 4z" opacity=".95"/>
    <path d="M1156.55 530.5c-3.312 0-6-2.686-6-6 0-3.313 2.688-6 6-6 3.315 0 6 2.687 6 6 0 3.314-2.685 6-6 6zm0-2c2.21 0 4-1.79 4-4s-1.79-4-4-4c-2.208 0-4 1.79-4 4s1.792 4 4 4z" opacity=".85"/>
    <path d="M1168.575 448.694c-3.314 0-6-2.686-6-6s2.686-6 6-6c3.313 0 6 2.686 6 6s-2.687 6-6 6zm0-2c2.21 0 4-1.79 4-4s-1.79-4-4-4-4 1.79-4 4 1.79 4 4 4z" opacity=".82"/>
    <path d="M1158.988 372.886c-3.313 0-6-2.686-6-6s2.687-6 6-6c3.314 0 6 2.686 6 6s-2.686 6-6 6zm0-2c2.21 0 4-1.79 4-4s-1.79-4-4-4-4 1.79-4 4 1.79 4 4 4z" opacity=".74"/>
    <path d="M1178.03 344.027c-3.315 0-6-2.686-6-6 0-3.313 2.685-6 6-6 3.312 0 6 2.687 6 6 0 3.314-2.688 6-6 6zm0-2c2.208 0 4-1.79 4-4s-1.792-4-4-4c-2.21 0-4 1.79-4 4s1.79 4 4 4z" opacity=".71"/>
    <path d="M1163.982 290.438c-3.314 0-6-2.687-6-6 0-3.314 2.686-6 6-6 3.313 0 6 2.686 6 6 0 3.313-2.687 6-6 6zm0-2c2.21 0 4-1.79 4-4s-1.79-4-4-4-4 1.79-4 4 1.79 4 4 4z" opacity=".9"/>
    <path d="M1183.847 228.11c-3.314 0-6-2.686-6-6 0-3.313 2.686-6 6-6 3.313 0 6 2.687 6 6 0 3.314-2.687 6-6 6zm0-2c2.21 0 4-1.79 4-4s-1.79-4-4-4-4 1.79-4 4 1.79 4 4 4z" opacity=".89"/>
    <path d="M1166.622 142.358c-3.314 0-6-2.686-6-6s2.686-6 6-6 6 2.686 6 6-2.686 6-6 6zm0-2c2.21 0 4-1.79 4-4s-1.79-4-4-4-4 1.79-4 4 1.79 4 4 4z" opacity=".95"/>
    <path d="M1173.21 88.11c-3.314 0-6-2.687-6-6 0-3.314 2.686-6 6-6s6 2.686 6 6c0 3.313-2.686 6-6 6zm0-2c2.21 0 4-1.792 4-4 0-2.21-1.79-4-4-4s-4 1.79-4 4c0 2.208 1.79 4 4 4z" opacity=".72"/>
    <path d="M1181.72 33.67c-3.315 0-6-2.686-6-6s2.685-6 6-6c3.313 0 6 2.686 6 6s-2.687 6-6 6zm0-2c2.208 0 4-1.79 4-4s-1.792-4-4-4c-2.21 0-4 1.79-4 4s1.79 4 4 4z" opacity=".88"/>
    <path d="M1121.34 1185.128c-3.313 0-6-2.687-6-6 0-3.314 2.687-6 6-6 3.314 0 6 2.686 6 6 0 3.313-2.686 6-6 6zm0-2c2.21 0 4-1.79 4-4s-1.79-4-4-4-4 1.79-4 4 1.79 4 4 4z" opacity=".78"/>
    <path d="M1123.805 1110.115c-3.314 0-6-2.687-6-6 0-3.314 2.686-6 6-6s6 2.686 6 6c0 3.313-2.686 6-6 6zm0-2c2.21 0 4-1.79 4-4s-1.79-4-4-4-4 1.79-4 4 1.79 4 4 4z" opacity=".97"/>
    <path d="M1134.584 1069.37c-3.314 0-6-2.685-6-6 0-3.313 2.686-6 6-6s6 2.687 6 6c0 3.315-2.686 6-6 6zm0-2c2.21 0 4-1.79 4-4 0-2.208-1.79-4-4-4s-4 1.792-4 4c0 2.21 1.79 4 4 4z" opacity=".98"/>
    <path d="M1117.494 985.373c-3.314 0-6-2.687-6-6 0-3.314 2.686-6 6-6s6 2.686 6 6c0 3.313-2.686 6-6 6zm0-2c2.21 0 4-1.79 4-4s-1.79-4-4-4-4 1.79-4 4 1.79 4 4 4z" opacity=".83"/>
    <path d="M1120.137 925.28c-3.314 0-6-2.686-6-6s2.686-6 6-6 6 2.686 6 6-2.686 6-6 6zm0-2c2.21 0 4-1.79 4-4s-1.79-4-4-4-4 1.79-4 4 1.79 4 4 4z" opacity=".72"/>
    <path d="M1122.47 866.59c-3.315 0-6-2.686-6-6s2.685-6 6-6c3.313 0 6 2.686 6 6s-2.687 6-6 6zm0-2c2.208 0 4-1.79 4-4s-1.792-4-4-4c-2.21 0-4 1.79-4 4s1.79 4 4 4z" opacity=".95"/>
    <path d="M1122.67 827.64c-3.312 0-6-2.687-6-6 0-3.314 2.688-6 6-6 3.315 0 6 2.686 6 6 0 3.313-2.685 6-6 6zm0-2c2.21 0 4-1.79 4-4s-1.79-4-4-4c-2.208 0-4 1.79-4 4s1.792 4 4 4z" opacity=".92"/>
    <path d="M1124.277 757.47c-3.314 0-6-2.685-6-6 0-3.312 2.686-6 6-6s6 2.688 6 6c0 3.315-2.686 6-6 6zm0-2c2.21 0 4-1.79 4-4 0-2.208-1.79-4-4-4s-4 1.792-4 4c0 2.21 1.79 4 4 4z" opacity=".74"/>
    <path d="M1110.192 704.407c-3.314 0-6-2.686-6-6s2.686-6 6-6 6 2.686 6 6-2.686 6-6 6zm0-2c2.21 0 4-1.79 4-4s-1.79-4-4-4-4 1.79-4 4 1.79 4 4 4z"/>
    <path d="M1115.518 647.45c-3.313 0-6-2.687-6-6 0-3.315 2.687-6 6-6 3.314 0 6 2.685 6 6 0 3.313-2.686 6-6 6zm0-2c2.21 0 4-1.792 4-4 0-2.21-1.79-4-4-4s-4 1.79-4 4c0 2.208 1.79 4 4 4z" opacity=".94"/>
    <path d="M1112.85 552.124c-3.313 0-6-2.686-6-6s2.687-6 6-6c3.314 0 6 2.686 6 6s-2.686 6-6 6zm0-2c2.21 0 4-1.79 4-4s-1.79-4-4-4-4 1.79-4 4 1.79 4 4 4z" opacity=".82"/>
    <path d="M1120.023 520.61c-3.314 0-6-2.686-6-6s2.686-6 6-6 6 2.686 6 6-2.686 6-6 6zm0-2c2.21 0 4-1.79 4-4s-1.79-4-4-4-4 1.79-4 4 1.79 4 4 4z" opacity=".72"/>
    <path d="M1126.87 466.575c-3.315 0-6-2.687-6-6 0-3.314 2.685-6 6-6 3.312 0 6 2.686 6 6 0 3.313-2.688 6-6 6zm0-2c2.208 0 4-1.79 4-4s-1.792-4-4-4c-2.21 0-4 1.79-4 4s1.79 4 4 4z" opacity=".84"/>
    <path d="M1121.873 378.037c-3.314 0-6-2.686-6-6s2.686-6 6-6 6 2.686 6 6-2.686 6-6 6zm0-2c2.21 0 4-1.79 4-4s-1.79-4-4-4-4 1.79-4 4 1.79 4 4 4z" opacity=".77"/>
    <path d="M1112.024 328.34c-3.314 0-6-2.686-6-6 0-3.313 2.686-6 6-6 3.313 0 6 2.687 6 6 0 3.314-2.687 6-6 6zm0-2c2.21 0 4-1.79 4-4 0-2.208-1.79-4-4-4s-4 1.792-4 4c0 2.21 1.79 4 4 4z" opacity=".73"/>
    <path d="M1135.83 274.322c-3.314 0-6-2.686-6-6 0-3.313 2.686-6 6-6 3.313 0 6 2.687 6 6 0 3.314-2.687 6-6 6zm0-2c2.21 0 4-1.79 4-4s-1.79-4-4-4-4 1.79-4 4 1.79 4 4 4z" opacity=".79"/>
    <path d="M1110.093 216.98c-3.314 0-6-2.687-6-6 0-3.315 2.686-6 6-6 3.313 0 6 2.685 6 6 0 3.313-2.687 6-6 6zm0-2c2.21 0 4-1.792 4-4 0-2.21-1.79-4-4-4s-4 1.79-4 4c0 2.208 1.79 4 4 4z" opacity=".7"/>
    <path d="M1110.728 164.84c-3.313 0-6-2.686-6-6 0-3.313 2.687-6 6-6 3.314 0 6 2.687 6 6 0 3.314-2.686 6-6 6zm0-2c2.21 0 4-1.79 4-4s-1.79-4-4-4-4 1.79-4 4 1.79 4 4 4z" opacity=".86"/>
    <path d="M1134.15 88.597c-3.314 0-6-2.686-6-6 0-3.313 2.686-6 6-6 3.313 0 6 2.687 6 6 0 3.314-2.687 6-6 6zm0-2c2.208 0 4-1.79 4-4s-1.792-4-4-4c-2.21 0-4 1.79-4 4s1.79 4 4 4z" opacity=".92"/>
    <path d="M1112.19 48.068c-3.314 0-6-2.686-6-6s2.686-6 6-6c3.313 0 6 2.686 6 6s-2.687 6-6 6zm0-2c2.208 0 4-1.79 4-4s-1.792-4-4-4c-2.21 0-4 1.79-4 4s1.79 4 4 4z" opacity=".88"/>
    <path d="M1063.035 1183.988c-3.313 0-6-2.686-6-6s2.687-6 6-6c3.314 0 6 2.686 6 6s-2.686 6-6 6zm0-2c2.21 0 4-1.79 4-4s-1.79-4-4-4-4 1.79-4 4 1.79 4 4 4z" opacity=".78"/>
    <path d="M1067.398 1093.91c-3.314 0-6-2.685-6-6 0-3.312 2.686-6 6-6 3.313 0 6 2.688 6 6 0 3.315-2.687 6-6 6zm0-2c2.21 0 4-1.79 4-4 0-2.208-1.79-4-4-4s-4 1.792-4 4c0 2.21 1.79 4 4 4z" opacity=".95"/>
    <path d="M1070.366 1066.194c-3.313 0-6-2.687-6-6 0-3.314 2.687-6 6-6 3.314 0 6 2.686 6 6 0 3.313-2.686 6-6 6zm0-2c2.21 0 4-1.79 4-4s-1.79-4-4-4-4 1.79-4 4 1.79 4 4 4zm8.562-54.52c-3.313 0-6-2.687-6-6 0-3.315 2.687-6 6-6 3.314 0 6 2.685 6 6 0 3.313-2.686 6-6 6zm0-2c2.21 0 4-1.792 4-4 0-2.21-1.79-4-4-4s-4 1.79-4 4c0 2.208 1.79 4 4 4z" opacity=".81"/>
    <path d="M1082.793 949.227c-3.314 0-6-2.686-6-6 0-3.313 2.686-6 6-6s6 2.687 6 6c0 3.314-2.686 6-6 6zm0-2c2.21 0 4-1.79 4-4s-1.79-4-4-4-4 1.79-4 4 1.79 4 4 4z" opacity=".71"/>
    <path d="M1058.497 865.977c-3.314 0-6-2.687-6-6 0-3.314 2.686-6 6-6s6 2.686 6 6c0 3.313-2.686 6-6 6zm0-2c2.21 0 4-1.79 4-4s-1.79-4-4-4-4 1.79-4 4 1.79 4 4 4z" opacity=".84"/>
    <path d="M1058.837 809.576c-3.314 0-6-2.686-6-6s2.686-6 6-6 6 2.686 6 6-2.686 6-6 6zm0-2c2.21 0 4-1.79 4-4s-1.79-4-4-4-4 1.79-4 4 1.79 4 4 4z" opacity=".94"/>
    <path d="M1069.773 755.025c-3.314 0-6-2.686-6-6 0-3.313 2.686-6 6-6s6 2.687 6 6c0 3.314-2.686 6-6 6zm0-2c2.21 0 4-1.79 4-4s-1.79-4-4-4-4 1.79-4 4 1.79 4 4 4z" opacity=".82"/>
    <path d="M1063.208 672.184c-3.314 0-6-2.686-6-6s2.686-6 6-6c3.313 0 6 2.686 6 6s-2.687 6-6 6zm0-2c2.21 0 4-1.79 4-4s-1.79-4-4-4-4 1.79-4 4 1.79 4 4 4z" opacity=".87"/>
    <path d="M1083.23 637.69c-3.314 0-6-2.687-6-6 0-3.315 2.686-6 6-6 3.313 0 6 2.685 6 6 0 3.313-2.687 6-6 6zm0-2c2.21 0 4-1.792 4-4 0-2.21-1.79-4-4-4s-4 1.79-4 4c0 2.208 1.79 4 4 4z" opacity=".95"/>
    <path d="M1085.587 557.905c-3.314 0-6-2.686-6-6 0-3.313 2.686-6 6-6 3.313 0 6 2.687 6 6 0 3.314-2.687 6-6 6zm0-2c2.21 0 4-1.79 4-4s-1.79-4-4-4-4 1.79-4 4 1.79 4 4 4z" opacity=".72"/>
    <path d="M1056.314 505.2c-3.313 0-6-2.686-6-6s2.687-6 6-6c3.314 0 6 2.686 6 6s-2.686 6-6 6zm0-2c2.21 0 4-1.79 4-4s-1.79-4-4-4-4 1.79-4 4 1.79 4 4 4z" opacity=".87"/>
    <path d="M1070.756 460.9c-3.314 0-6-2.686-6-6s2.686-6 6-6 6 2.686 6 6-2.686 6-6 6zm0-2c2.21 0 4-1.79 4-4s-1.79-4-4-4-4 1.79-4 4 1.79 4 4 4z"/>
    <path d="M1058.14 405.303c-3.314 0-6-2.686-6-6s2.686-6 6-6 6 2.686 6 6-2.686 6-6 6zm0-2c2.21 0 4-1.79 4-4s-1.79-4-4-4-4 1.79-4 4 1.79 4 4 4z" opacity=".73"/>
    <path d="M1073.09 317.96c-3.315 0-6-2.685-6-6 0-3.313 2.685-6 6-6 3.313 0 6 2.687 6 6 0 3.315-2.687 6-6 6zm0-2c2.208 0 4-1.79 4-4 0-2.208-1.792-4-4-4-2.21 0-4 1.792-4 4 0 2.21 1.79 4 4 4z" opacity=".78"/>
    <path d="M1066.707 267.533c-3.314 0-6-2.686-6-6 0-3.313 2.686-6 6-6s6 2.687 6 6c0 3.314-2.686 6-6 6zm0-2c2.21 0 4-1.79 4-4s-1.79-4-4-4-4 1.79-4 4 1.79 4 4 4z" opacity=".94"/>
    <path d="M1057.377 229.71c-3.314 0-6-2.686-6-6s2.686-6 6-6c3.313 0 6 2.686 6 6s-2.687 6-6 6zm0-2c2.21 0 4-1.79 4-4s-1.79-4-4-4-4 1.79-4 4 1.79 4 4 4z" opacity=".97"/>
    <path d="M1060.57 169.698c-3.313 0-6-2.686-6-6s2.687-6 6-6c3.314 0 6 2.686 6 6s-2.686 6-6 6zm0-2c2.21 0 4-1.79 4-4s-1.79-4-4-4-4 1.79-4 4 1.79 4 4 4z" opacity=".73"/>
    <path d="M1056.588 95.803c-3.314 0-6-2.686-6-6s2.686-6 6-6c3.313 0 6 2.686 6 6s-2.687 6-6 6zm0-2c2.21 0 4-1.79 4-4s-1.79-4-4-4-4 1.79-4 4 1.79 4 4 4z" opacity=".88"/>
    <path d="M1067.687 20.544c-3.314 0-6-2.687-6-6 0-3.314 2.686-6 6-6s6 2.686 6 6c0 3.313-2.686 6-6 6zm0-2c2.21 0 4-1.79 4-4s-1.79-4-4-4-4 1.79-4 4 1.79 4 4 4z" opacity=".95"/>
    <path d="M1014.99 1168.495c-3.314 0-6-2.687-6-6 0-3.314 2.686-6 6-6s6 2.686 6 6c0 3.313-2.686 6-6 6zm0-2c2.21 0 4-1.79 4-4s-1.79-4-4-4-4 1.79-4 4 1.79 4 4 4z" opacity=".84"/>
    <path d="M1024.53 1123.67c-3.313 0-6-2.685-6-6 0-3.312 2.687-6 6-6 3.314 0 6 2.688 6 6 0 3.315-2.686 6-6 6zm0-2c2.21 0 4-1.79 4-4 0-2.208-1.79-4-4-4-2.208 0-4 1.792-4 4 0 2.21 1.792 4 4 4z" opacity=".73"/>
    <path d="M1035.12 1070.554c-3.313 0-6-2.686-6-6 0-3.313 2.687-6 6-6 3.315 0 6 2.687 6 6 0 3.314-2.685 6-6 6zm0-2c2.21 0 4-1.79 4-4s-1.79-4-4-4c-2.208 0-4 1.79-4 4s1.792 4 4 4z" opacity=".71"/>
    <path d="M1022.358 991.94c-3.313 0-6-2.685-6-6 0-3.313 2.687-6 6-6 3.314 0 6 2.687 6 6 0 3.315-2.686 6-6 6zm0-2c2.21 0 4-1.79 4-4 0-2.208-1.79-4-4-4s-4 1.792-4 4c0 2.21 1.79 4 4 4z" opacity=".99"/>
    <path d="M1026.286 946.92c-3.314 0-6-2.687-6-6 0-3.314 2.686-6 6-6s6 2.686 6 6c0 3.313-2.686 6-6 6zm0-2c2.21 0 4-1.79 4-4s-1.79-4-4-4-4 1.79-4 4 1.79 4 4 4z" opacity=".97"/>
    <path d="M1028.202 883.095c-3.314 0-6-2.686-6-6s2.686-6 6-6c3.313 0 6 2.686 6 6s-2.687 6-6 6zm0-2c2.21 0 4-1.79 4-4s-1.79-4-4-4-4 1.79-4 4 1.79 4 4 4z" opacity=".94"/>
    <path d="M1031.148 805.843c-3.313 0-6-2.687-6-6 0-3.314 2.687-6 6-6 3.314 0 6 2.686 6 6 0 3.313-2.686 6-6 6zm0-2c2.21 0 4-1.79 4-4s-1.79-4-4-4-4 1.79-4 4 1.79 4 4 4z" opacity=".88"/>
    <path d="M1025.518 762.847c-3.314 0-6-2.686-6-6 0-3.313 2.686-6 6-6 3.313 0 6 2.687 6 6 0 3.314-2.687 6-6 6zm0-2c2.21 0 4-1.79 4-4s-1.79-4-4-4-4 1.79-4 4 1.79 4 4 4z" opacity=".85"/>
    <path d="M1013.673 677.86c-3.314 0-6-2.685-6-6 0-3.313 2.686-6 6-6s6 2.687 6 6c0 3.315-2.686 6-6 6zm0-2c2.21 0 4-1.79 4-4 0-2.208-1.79-4-4-4s-4 1.792-4 4c0 2.21 1.79 4 4 4z" opacity=".8"/>
    <path d="M1009.965 648.785c-3.314 0-6-2.686-6-6 0-3.313 2.686-6 6-6s6 2.687 6 6c0 3.314-2.686 6-6 6zm0-2c2.21 0 4-1.79 4-4s-1.79-4-4-4-4 1.79-4 4 1.79 4 4 4z" opacity=".73"/>
    <path d="M1030.688 578.287c-3.313 0-6-2.686-6-6 0-3.313 2.687-6 6-6 3.314 0 6 2.687 6 6 0 3.314-2.686 6-6 6zm0-2c2.21 0 4-1.79 4-4s-1.79-4-4-4-4 1.79-4 4 1.79 4 4 4z" opacity=".7"/>
    <path d="M1017.636 520.45c-3.314 0-6-2.688-6-6 0-3.315 2.686-6 6-6s6 2.685 6 6c0 3.312-2.686 6-6 6zm0-2c2.21 0 4-1.792 4-4 0-2.21-1.79-4-4-4s-4 1.79-4 4c0 2.208 1.79 4 4 4z" opacity=".81"/>
    <path d="M1006.63 445.44c-3.315 0-6-2.686-6-6 0-3.313 2.685-6 6-6 3.312 0 6 2.687 6 6 0 3.314-2.688 6-6 6zm0-2c2.208 0 4-1.79 4-4 0-2.208-1.792-4-4-4-2.21 0-4 1.792-4 4 0 2.21 1.79 4 4 4z" opacity=".76"/>
    <path d="M1034.82 380.596c-3.313 0-6-2.686-6-6 0-3.313 2.687-6 6-6 3.314 0 6 2.687 6 6 0 3.314-2.686 6-6 6zm0-2c2.21 0 4-1.79 4-4s-1.79-4-4-4-4 1.79-4 4 1.79 4 4 4z" opacity=".91"/>
    <path d="M1017.743 336.122c-3.314 0-6-2.686-6-6s2.686-6 6-6c3.313 0 6 2.686 6 6s-2.687 6-6 6zm0-2c2.21 0 4-1.79 4-4s-1.79-4-4-4-4 1.79-4 4 1.79 4 4 4z" opacity=".84"/>
    <path d="M1016.205 286.728c-3.314 0-6-2.687-6-6 0-3.314 2.686-6 6-6s6 2.686 6 6c0 3.313-2.686 6-6 6zm0-2c2.21 0 4-1.79 4-4s-1.79-4-4-4-4 1.79-4 4 1.79 4 4 4zm19.06-68.18c-3.315 0-6-2.685-6-6 0-3.312 2.685-6 6-6 3.313 0 6 2.688 6 6 0 3.315-2.687 6-6 6zm0-2c2.208 0 4-1.79 4-4 0-2.208-1.792-4-4-4-2.21 0-4 1.792-4 4 0 2.21 1.79 4 4 4z" opacity=".88"/>
    <path d="M1008.358 142.84c-3.314 0-6-2.686-6-6s2.686-6 6-6 6 2.686 6 6-2.686 6-6 6zm0-2c2.21 0 4-1.79 4-4s-1.79-4-4-4-4 1.79-4 4 1.79 4 4 4z" opacity=".78"/>
    <path d="M1019.43 94.376c-3.315 0-6-2.686-6-6 0-3.313 2.685-6 6-6 3.313 0 6 2.687 6 6 0 3.314-2.687 6-6 6zm0-2c2.208 0 4-1.79 4-4s-1.792-4-4-4c-2.21 0-4 1.79-4 4s1.79 4 4 4z" opacity=".75"/>
    <path d="M1028.275 35.335c-3.314 0-6-2.687-6-6 0-3.314 2.686-6 6-6 3.313 0 6 2.686 6 6 0 3.313-2.687 6-6 6zm0-2c2.21 0 4-1.79 4-4s-1.79-4-4-4-4 1.79-4 4 1.79 4 4 4z" opacity=".83"/>
    <path d="M960.467 1153.237c-3.314 0-6-2.686-6-6s2.686-6 6-6 6 2.686 6 6-2.686 6-6 6zm0-2c2.21 0 4-1.79 4-4s-1.79-4-4-4-4 1.79-4 4 1.79 4 4 4z" opacity=".79"/>
    <path d="M983.372 1126.46c-3.313 0-6-2.686-6-6 0-3.313 2.687-6 6-6 3.314 0 6 2.687 6 6 0 3.314-2.686 6-6 6zm0-2c2.21 0 4-1.79 4-4s-1.79-4-4-4-4 1.79-4 4 1.79 4 4 4z" opacity=".77"/>
    <path d="M982.033 1068.7c-3.314 0-6-2.687-6-6 0-3.315 2.686-6 6-6s6 2.685 6 6c0 3.313-2.686 6-6 6zm0-2c2.21 0 4-1.792 4-4 0-2.21-1.79-4-4-4s-4 1.79-4 4c0 2.208 1.79 4 4 4z" opacity=".92"/>
    <path d="M964.117 976.673c-3.314 0-6-2.687-6-6 0-3.314 2.686-6 6-6s6 2.686 6 6c0 3.313-2.686 6-6 6zm0-2c2.21 0 4-1.79 4-4s-1.79-4-4-4-4 1.79-4 4 1.79 4 4 4z" opacity=".97"/>
    <path d="M975.804 928.186c-3.313 0-6-2.687-6-6 0-3.314 2.687-6 6-6 3.314 0 6 2.686 6 6 0 3.313-2.686 6-6 6zm0-2c2.21 0 4-1.79 4-4s-1.79-4-4-4-4 1.79-4 4 1.79 4 4 4z" opacity=".83"/>
    <path d="M982.204 868.768c-3.314 0-6-2.686-6-6 0-3.313 2.686-6 6-6s6 2.687 6 6c0 3.314-2.686 6-6 6zm0-2c2.21 0 4-1.79 4-4s-1.79-4-4-4-4 1.79-4 4 1.79 4 4 4z" opacity=".9"/>
    <path d="M962.26 810.843c-3.315 0-6-2.687-6-6 0-3.314 2.685-6 6-6 3.313 0 6 2.686 6 6 0 3.313-2.687 6-6 6zm0-2c2.208 0 4-1.79 4-4s-1.792-4-4-4c-2.21 0-4 1.79-4 4s1.79 4 4 4z" opacity=".98"/>
    <path d="M983.59 742.277c-3.315 0-6-2.686-6-6 0-3.313 2.685-6 6-6 3.312 0 6 2.687 6 6 0 3.314-2.688 6-6 6zm0-2c2.208 0 4-1.79 4-4s-1.792-4-4-4c-2.21 0-4 1.79-4 4s1.79 4 4 4z" opacity=".78"/>
    <path d="M968.244 698.71c-3.314 0-6-2.687-6-6 0-3.314 2.686-6 6-6s6 2.686 6 6c0 3.313-2.686 6-6 6zm0-2c2.21 0 4-1.79 4-4s-1.79-4-4-4-4 1.79-4 4 1.79 4 4 4z" opacity=".83"/>
    <path d="M956.642 621.864c-3.313 0-6-2.686-6-6s2.687-6 6-6c3.314 0 6 2.686 6 6s-2.686 6-6 6zm0-2c2.21 0 4-1.79 4-4s-1.79-4-4-4-4 1.79-4 4 1.79 4 4 4z" opacity=".86"/>
    <path d="M985.79 572.235c-3.314 0-6-2.686-6-6 0-3.313 2.686-6 6-6s6 2.687 6 6c0 3.314-2.686 6-6 6zm0-2c2.21 0 4-1.79 4-4s-1.79-4-4-4-4 1.79-4 4 1.79 4 4 4z" opacity=".96"/>
    <path d="M982.434 508.262c-3.314 0-6-2.686-6-6s2.686-6 6-6c3.313 0 6 2.686 6 6s-2.687 6-6 6zm0-2c2.21 0 4-1.79 4-4s-1.79-4-4-4-4 1.79-4 4 1.79 4 4 4z" opacity=".91"/>
    <path d="M962.594 451.416c-3.314 0-6-2.687-6-6 0-3.314 2.686-6 6-6s6 2.686 6 6c0 3.313-2.686 6-6 6zm0-2c2.21 0 4-1.79 4-4s-1.79-4-4-4-4 1.79-4 4 1.79 4 4 4z" opacity=".74"/>
    <path d="M977.377 407.932c-3.314 0-6-2.686-6-6s2.686-6 6-6 6 2.686 6 6-2.686 6-6 6zm0-2c2.21 0 4-1.79 4-4s-1.79-4-4-4-4 1.79-4 4 1.79 4 4 4zm4.377-69.152c-3.314 0-6-2.687-6-6 0-3.314 2.686-6 6-6 3.313 0 6 2.686 6 6 0 3.313-2.687 6-6 6zm0-2c2.21 0 4-1.79 4-4s-1.79-4-4-4-4 1.79-4 4 1.79 4 4 4z" opacity=".88"/>
    <path d="M983.292 277.6c-3.313 0-6-2.687-6-6 0-3.315 2.687-6 6-6 3.314 0 6 2.685 6 6 0 3.313-2.686 6-6 6zm0-2c2.21 0 4-1.792 4-4 0-2.21-1.79-4-4-4s-4 1.79-4 4c0 2.208 1.79 4 4 4z" opacity=".8"/>
    <path d="M974.67 192.845c-3.314 0-6-2.686-6-6 0-3.313 2.686-6 6-6 3.313 0 6 2.687 6 6 0 3.314-2.687 6-6 6zm0-2c2.21 0 4-1.79 4-4s-1.79-4-4-4-4 1.79-4 4 1.79 4 4 4z" opacity=".95"/>
    <path d="M967.073 155.218c-3.314 0-6-2.687-6-6 0-3.314 2.686-6 6-6 3.313 0 6 2.686 6 6 0 3.313-2.687 6-6 6zm0-2c2.21 0 4-1.79 4-4s-1.79-4-4-4-4 1.79-4 4 1.79 4 4 4z" opacity=".81"/>
    <path d="M978.71 84.952c-3.313 0-6-2.686-6-6 0-3.313 2.687-6 6-6 3.315 0 6 2.687 6 6 0 3.314-2.685 6-6 6zm0-2c2.21 0 4-1.79 4-4s-1.79-4-4-4c-2.208 0-4 1.79-4 4s1.792 4 4 4z" opacity=".75"/>
    <path d="M970.805 49.53c-3.314 0-6-2.688-6-6 0-3.315 2.686-6 6-6 3.313 0 6 2.685 6 6 0 3.312-2.687 6-6 6zm0-2c2.21 0 4-1.792 4-4 0-2.21-1.79-4-4-4s-4 1.79-4 4c0 2.208 1.79 4 4 4z" opacity=".8"/>
    <path d="M919.43 1178.376c-3.314 0-6-2.686-6-6s2.686-6 6-6c3.313 0 6 2.686 6 6s-2.687 6-6 6zm0-2c2.208 0 4-1.79 4-4s-1.792-4-4-4c-2.21 0-4 1.79-4 4s1.79 4 4 4z" opacity=".79"/>
    <path d="M908.466 1098.923c-3.314 0-6-2.686-6-6s2.686-6 6-6 6 2.686 6 6-2.686 6-6 6zm0-2c2.21 0 4-1.79 4-4s-1.79-4-4-4-4 1.79-4 4 1.79 4 4 4z" opacity=".93"/>
    <path d="M926.6 1043.79c-3.312 0-6-2.687-6-6 0-3.315 2.688-6 6-6 3.315 0 6 2.685 6 6 0 3.313-2.685 6-6 6zm0-2c2.21 0 4-1.792 4-4 0-2.21-1.79-4-4-4-2.208 0-4 1.79-4 4 0 2.208 1.792 4 4 4z" opacity=".98"/>
    <path d="M934.646 985.39c-3.313 0-6-2.687-6-6 0-3.315 2.687-6 6-6 3.314 0 6 2.685 6 6 0 3.313-2.686 6-6 6zm0-2c2.21 0 4-1.792 4-4 0-2.21-1.79-4-4-4s-4 1.79-4 4c0 2.208 1.79 4 4 4z" opacity=".89"/>
    <path d="M918.524 912.56c-3.314 0-6-2.686-6-6 0-3.313 2.686-6 6-6 3.313 0 6 2.687 6 6 0 3.314-2.687 6-6 6zm0-2c2.21 0 4-1.79 4-4s-1.79-4-4-4-4 1.79-4 4 1.79 4 4 4z" opacity=".95"/>
    <path d="M922.208 869.77c-3.314 0-6-2.687-6-6 0-3.314 2.686-6 6-6s6 2.686 6 6c0 3.313-2.686 6-6 6zm0-2c2.21 0 4-1.792 4-4 0-2.21-1.79-4-4-4s-4 1.79-4 4c0 2.208 1.79 4 4 4z" opacity=".86"/>
    <path d="M917.606 802.99c-3.314 0-6-2.686-6-6 0-3.313 2.686-6 6-6s6 2.687 6 6c0 3.314-2.686 6-6 6zm0-2c2.21 0 4-1.79 4-4s-1.79-4-4-4-4 1.79-4 4 1.79 4 4 4z" opacity=".82"/>
    <path d="M935.563 765.126c-3.314 0-6-2.687-6-6 0-3.314 2.686-6 6-6 3.313 0 6 2.686 6 6 0 3.313-2.687 6-6 6zm0-2c2.21 0 4-1.79 4-4s-1.79-4-4-4-4 1.79-4 4 1.79 4 4 4z" opacity=".75"/>
    <path d="M914.814 704.408c-3.313 0-6-2.686-6-6s2.687-6 6-6c3.314 0 6 2.686 6 6s-2.686 6-6 6zm0-2c2.21 0 4-1.79 4-4s-1.79-4-4-4-4 1.79-4 4 1.79 4 4 4z" opacity=".89"/>
    <path d="M923.32 621.22c-3.313 0-6-2.685-6-6 0-3.312 2.687-6 6-6 3.315 0 6 2.688 6 6 0 3.315-2.685 6-6 6zm0-2c2.21 0 4-1.79 4-4 0-2.208-1.79-4-4-4-2.208 0-4 1.792-4 4 0 2.21 1.792 4 4 4zm10.82-60.423c-3.315 0-6-2.686-6-6s2.685-6 6-6c3.313 0 6 2.686 6 6s-2.687 6-6 6zm0-2c2.208 0 4-1.79 4-4s-1.792-4-4-4c-2.21 0-4 1.79-4 4s1.79 4 4 4z" opacity=".91"/>
    <path d="M924.648 518.576c-3.314 0-6-2.686-6-6s2.686-6 6-6 6 2.686 6 6-2.686 6-6 6zm0-2c2.21 0 4-1.79 4-4s-1.79-4-4-4-4 1.79-4 4 1.79 4 4 4z" opacity=".71"/>
    <path d="M918.643 457.38c-3.314 0-6-2.687-6-6 0-3.314 2.686-6 6-6s6 2.686 6 6c0 3.313-2.686 6-6 6zm0-2c2.21 0 4-1.79 4-4s-1.79-4-4-4-4 1.79-4 4 1.79 4 4 4z" opacity=".97"/>
    <path d="M929.51 398.344c-3.313 0-6-2.687-6-6 0-3.314 2.687-6 6-6 3.314 0 6 2.686 6 6 0 3.313-2.686 6-6 6zm0-2c2.21 0 4-1.79 4-4s-1.79-4-4-4-4 1.79-4 4 1.79 4 4 4zm-1.323-49.832c-3.314 0-6-2.686-6-6 0-3.313 2.686-6 6-6 3.313 0 6 2.687 6 6 0 3.314-2.687 6-6 6zm0-2c2.21 0 4-1.79 4-4s-1.79-4-4-4-4 1.79-4 4 1.79 4 4 4z" opacity=".83"/>
    <path d="M925.52 272.283c-3.313 0-6-2.686-6-6s2.687-6 6-6c3.315 0 6 2.686 6 6s-2.685 6-6 6zm0-2c2.21 0 4-1.79 4-4s-1.79-4-4-4c-2.208 0-4 1.79-4 4s1.792 4 4 4z"/>
    <path d="M933.403 212.584c-3.314 0-6-2.687-6-6 0-3.314 2.686-6 6-6s6 2.686 6 6c0 3.313-2.686 6-6 6zm0-2c2.21 0 4-1.79 4-4s-1.79-4-4-4-4 1.79-4 4 1.79 4 4 4z" opacity=".78"/>
    <path d="M908.733 136.5c-3.314 0-6-2.686-6-6 0-3.313 2.686-6 6-6s6 2.687 6 6c0 3.314-2.686 6-6 6zm0-2c2.21 0 4-1.79 4-4s-1.79-4-4-4-4 1.79-4 4 1.79 4 4 4z" opacity=".81"/>
    <path d="M907.084 107.146c-3.314 0-6-2.687-6-6 0-3.314 2.686-6 6-6s6 2.686 6 6c0 3.313-2.686 6-6 6zm0-2c2.21 0 4-1.79 4-4s-1.79-4-4-4-4 1.79-4 4 1.79 4 4 4z" opacity=".87"/>
    <path d="M913.726 50.293c-3.314 0-6-2.686-6-6s2.686-6 6-6c3.313 0 6 2.686 6 6s-2.687 6-6 6zm0-2c2.21 0 4-1.79 4-4s-1.79-4-4-4-4 1.79-4 4 1.79 4 4 4z" opacity=".84"/>
    <path d="M873.486 1169.9c-3.313 0-6-2.686-6-6s2.687-6 6-6c3.314 0 6 2.686 6 6s-2.686 6-6 6zm0-2c2.21 0 4-1.79 4-4s-1.79-4-4-4-4 1.79-4 4 1.79 4 4 4z" opacity=".81"/>
    <path d="M876.51 1098.57c-3.315 0-6-2.685-6-6 0-3.313 2.685-6 6-6 3.312 0 6 2.687 6 6 0 3.315-2.688 6-6 6zm0-2c2.208 0 4-1.79 4-4 0-2.208-1.792-4-4-4-2.21 0-4 1.792-4 4 0 2.21 1.79 4 4 4z" opacity=".7"/>
    <path d="M858.708 1034.777c-3.314 0-6-2.687-6-6 0-3.314 2.686-6 6-6s6 2.686 6 6c0 3.313-2.686 6-6 6zm0-2c2.21 0 4-1.79 4-4s-1.79-4-4-4-4 1.79-4 4 1.79 4 4 4z" opacity=".72"/>
    <path d="M878.104 992.274c-3.314 0-6-2.686-6-6s2.686-6 6-6 6 2.686 6 6-2.686 6-6 6zm0-2c2.21 0 4-1.79 4-4s-1.79-4-4-4-4 1.79-4 4 1.79 4 4 4z" opacity=".94"/>
    <path d="M871.425 933.643c-3.313 0-6-2.686-6-6 0-3.313 2.687-6 6-6 3.314 0 6 2.687 6 6 0 3.314-2.686 6-6 6zm0-2c2.21 0 4-1.79 4-4s-1.79-4-4-4-4 1.79-4 4 1.79 4 4 4z" opacity=".7"/>
    <path d="M863.515 876.103c-3.314 0-6-2.686-6-6 0-3.313 2.686-6 6-6 3.313 0 6 2.687 6 6 0 3.314-2.687 6-6 6zm0-2c2.21 0 4-1.79 4-4s-1.79-4-4-4-4 1.79-4 4 1.79 4 4 4z" opacity=".93"/>
    <path d="M874.787 817.454c-3.314 0-6-2.686-6-6s2.686-6 6-6 6 2.686 6 6-2.686 6-6 6zm0-2c2.21 0 4-1.79 4-4s-1.79-4-4-4-4 1.79-4 4 1.79 4 4 4z" opacity=".9"/>
    <path d="M879.707 734.365c-3.314 0-6-2.686-6-6 0-3.313 2.686-6 6-6s6 2.687 6 6c0 3.314-2.686 6-6 6zm0-2c2.21 0 4-1.79 4-4s-1.79-4-4-4-4 1.79-4 4 1.79 4 4 4z" opacity=".86"/>
    <path d="M862.086 687.18c-3.313 0-6-2.687-6-6 0-3.315 2.687-6 6-6 3.314 0 6 2.685 6 6 0 3.313-2.686 6-6 6zm0-2c2.21 0 4-1.792 4-4 0-2.21-1.79-4-4-4s-4 1.79-4 4c0 2.208 1.79 4 4 4z" opacity=".8"/>
    <path d="M856.902 613.985c-3.314 0-6-2.686-6-6 0-3.313 2.686-6 6-6s6 2.687 6 6c0 3.314-2.686 6-6 6zm0-2c2.21 0 4-1.79 4-4s-1.79-4-4-4-4 1.79-4 4 1.79 4 4 4z" opacity=".75"/>
    <path d="M862.784 573.22c-3.314 0-6-2.687-6-6 0-3.314 2.686-6 6-6s6 2.686 6 6c0 3.313-2.686 6-6 6zm0-2c2.21 0 4-1.79 4-4s-1.79-4-4-4-4 1.79-4 4 1.79 4 4 4z" opacity=".89"/>
    <path d="M865.294 531.87c-3.314 0-6-2.685-6-6 0-3.312 2.686-6 6-6s6 2.688 6 6c0 3.315-2.686 6-6 6zm0-2c2.21 0 4-1.79 4-4 0-2.208-1.79-4-4-4s-4 1.792-4 4c0 2.21 1.79 4 4 4z" opacity=".98"/>
    <path d="M856.005 462.212c-3.314 0-6-2.686-6-6 0-3.313 2.686-6 6-6s6 2.687 6 6c0 3.314-2.686 6-6 6zm0-2c2.21 0 4-1.79 4-4s-1.79-4-4-4-4 1.79-4 4 1.79 4 4 4z" opacity=".9"/>
    <path d="M867.314 406.448c-3.313 0-6-2.687-6-6 0-3.314 2.687-6 6-6 3.314 0 6 2.686 6 6 0 3.313-2.686 6-6 6zm0-2c2.21 0 4-1.79 4-4s-1.79-4-4-4-4 1.79-4 4 1.79 4 4 4z" opacity=".72"/>
    <path d="M861.484 335.027c-3.313 0-6-2.686-6-6s2.687-6 6-6c3.314 0 6 2.686 6 6s-2.686 6-6 6zm0-2c2.21 0 4-1.79 4-4s-1.79-4-4-4-4 1.79-4 4 1.79 4 4 4z" opacity=".79"/>
    <path d="M861.022 259.882c-3.313 0-6-2.687-6-6 0-3.314 2.687-6 6-6 3.314 0 6 2.686 6 6 0 3.313-2.686 6-6 6zm0-2c2.21 0 4-1.79 4-4s-1.79-4-4-4-4 1.79-4 4 1.79 4 4 4z" opacity=".77"/>
    <path d="M881.236 212.827c-3.314 0-6-2.686-6-6s2.686-6 6-6 6 2.686 6 6-2.686 6-6 6zm0-2c2.21 0 4-1.79 4-4s-1.79-4-4-4-4 1.79-4 4 1.79 4 4 4z" opacity=".95"/>
    <path d="M882.076 167.5c-3.314 0-6-2.685-6-6 0-3.313 2.686-6 6-6s6 2.687 6 6c0 3.315-2.686 6-6 6zm0-2c2.21 0 4-1.79 4-4 0-2.208-1.79-4-4-4s-4 1.792-4 4c0 2.21 1.79 4 4 4z" opacity=".74"/>
    <path d="M875.28 81.45c-3.315 0-6-2.685-6-6 0-3.312 2.685-6 6-6 3.313 0 6 2.688 6 6 0 3.315-2.687 6-6 6zm0-2c2.208 0 4-1.79 4-4 0-2.208-1.792-4-4-4-2.21 0-4 1.792-4 4 0 2.21 1.79 4 4 4z" opacity=".92"/>
    <path d="M876.322 33.17c-3.314 0-6-2.686-6-6s2.686-6 6-6 6 2.686 6 6-2.686 6-6 6zm0-2c2.21 0 4-1.79 4-4s-1.79-4-4-4-4 1.79-4 4 1.79 4 4 4zm-69.71 1124.704c-3.313 0-6-2.687-6-6 0-3.314 2.687-6 6-6 3.314 0 6 2.686 6 6 0 3.313-2.686 6-6 6zm0-2c2.21 0 4-1.79 4-4s-1.79-4-4-4c-2.208 0-4 1.79-4 4s1.792 4 4 4z" opacity=".72"/>
    <path d="M835.677 1131.256c-3.313 0-6-2.686-6-6 0-3.313 2.687-6 6-6 3.314 0 6 2.687 6 6 0 3.314-2.686 6-6 6zm0-2c2.21 0 4-1.79 4-4s-1.79-4-4-4-4 1.79-4 4 1.79 4 4 4z" opacity=".94"/>
    <path d="M818.61 1048.927c-3.315 0-6-2.686-6-6s2.685-6 6-6c3.313 0 6 2.686 6 6s-2.687 6-6 6zm0-2c2.208 0 4-1.79 4-4s-1.792-4-4-4c-2.21 0-4 1.79-4 4s1.79 4 4 4z" opacity=".87"/>
    <path d="M828.51 984.3c-3.313 0-6-2.685-6-6 0-3.312 2.687-6 6-6 3.314 0 6 2.688 6 6 0 3.315-2.686 6-6 6zm0-2c2.21 0 4-1.79 4-4 0-2.208-1.79-4-4-4s-4 1.792-4 4c0 2.21 1.79 4 4 4z" opacity=".84"/>
    <path d="M808.093 925.04c-3.313 0-6-2.685-6-6 0-3.313 2.687-6 6-6 3.314 0 6 2.687 6 6 0 3.315-2.686 6-6 6zm0-2c2.21 0 4-1.79 4-4 0-2.208-1.79-4-4-4s-4 1.792-4 4c0 2.21 1.79 4 4 4z" opacity=".71"/>
    <path d="M827.488 864.287c-3.314 0-6-2.686-6-6s2.686-6 6-6 6 2.686 6 6-2.686 6-6 6zm0-2c2.21 0 4-1.79 4-4s-1.79-4-4-4-4 1.79-4 4 1.79 4 4 4z" opacity=".92"/>
    <path d="M809.957 800.683c-3.314 0-6-2.687-6-6 0-3.314 2.686-6 6-6 3.313 0 6 2.686 6 6 0 3.313-2.687 6-6 6zm0-2c2.21 0 4-1.79 4-4s-1.79-4-4-4-4 1.79-4 4 1.79 4 4 4z" opacity=".9"/>
    <path d="M806.933 770.905c-3.314 0-6-2.686-6-6s2.686-6 6-6 6 2.686 6 6-2.686 6-6 6zm0-2c2.21 0 4-1.79 4-4s-1.79-4-4-4-4 1.79-4 4 1.79 4 4 4z" opacity=".99"/>
    <path d="M820.7 674.342c-3.313 0-6-2.687-6-6 0-3.314 2.687-6 6-6 3.314 0 6 2.686 6 6 0 3.313-2.686 6-6 6zm0-2c2.21 0 4-1.79 4-4s-1.79-4-4-4-4 1.79-4 4 1.79 4 4 4z" opacity=".98"/>
    <path d="M822.223 617.9c-3.314 0-6-2.687-6-6 0-3.314 2.686-6 6-6s6 2.686 6 6c0 3.313-2.686 6-6 6zm0-2c2.21 0 4-1.792 4-4 0-2.21-1.79-4-4-4s-4 1.79-4 4c0 2.208 1.79 4 4 4z" opacity=".94"/>
    <path d="M814.013 583.565c-3.314 0-6-2.686-6-6s2.686-6 6-6c3.313 0 6 2.686 6 6s-2.687 6-6 6zm0-2c2.21 0 4-1.79 4-4s-1.79-4-4-4-4 1.79-4 4 1.79 4 4 4z" opacity=".77"/>
    <path d="M814.605 521.43c-3.314 0-6-2.686-6-6s2.686-6 6-6 6 2.686 6 6-2.686 6-6 6zm0-2c2.21 0 4-1.79 4-4s-1.79-4-4-4-4 1.79-4 4 1.79 4 4 4z" opacity=".87"/>
    <path d="M825.313 443.022c-3.314 0-6-2.686-6-6s2.686-6 6-6c3.313 0 6 2.686 6 6s-2.687 6-6 6zm0-2c2.21 0 4-1.79 4-4s-1.79-4-4-4-4 1.79-4 4 1.79 4 4 4z" opacity=".96"/>
    <path d="M832.327 384.137c-3.314 0-6-2.686-6-6s2.686-6 6-6c3.313 0 6 2.686 6 6s-2.687 6-6 6zm0-2c2.21 0 4-1.79 4-4s-1.79-4-4-4-4 1.79-4 4 1.79 4 4 4z" opacity=".86"/>
    <path d="M817.465 327.467c-3.313 0-6-2.686-6-6s2.687-6 6-6c3.314 0 6 2.686 6 6s-2.686 6-6 6zm0-2c2.21 0 4-1.79 4-4s-1.79-4-4-4-4 1.79-4 4 1.79 4 4 4z" opacity=".75"/>
    <path d="M829.96 269.76c-3.313 0-6-2.685-6-6 0-3.312 2.687-6 6-6 3.314 0 6 2.688 6 6 0 3.315-2.686 6-6 6zm0-2c2.21 0 4-1.79 4-4 0-2.208-1.79-4-4-4s-4 1.792-4 4c0 2.21 1.79 4 4 4z" opacity=".91"/>
    <path d="M825.32 197.684c-3.313 0-6-2.686-6-6 0-3.313 2.687-6 6-6 3.314 0 6 2.687 6 6 0 3.314-2.686 6-6 6zm0-2c2.21 0 4-1.79 4-4s-1.79-4-4-4c-2.208 0-4 1.79-4 4s1.792 4 4 4z" opacity=".76"/>
    <path d="M812.886 162.772c-3.314 0-6-2.686-6-6s2.686-6 6-6c3.313 0 6 2.686 6 6s-2.687 6-6 6zm0-2c2.21 0 4-1.79 4-4s-1.79-4-4-4-4 1.79-4 4 1.79 4 4 4z" opacity=".88"/>
    <path d="M833.15 85.13c-3.314 0-6-2.686-6-6 0-3.313 2.686-6 6-6 3.313 0 6 2.687 6 6 0 3.314-2.687 6-6 6zm0-2c2.21 0 4-1.79 4-4 0-2.208-1.79-4-4-4s-4 1.792-4 4c0 2.21 1.79 4 4 4z" opacity=".96"/>
    <path d="M831.71 40.552c-3.313 0-6-2.686-6-6 0-3.313 2.687-6 6-6 3.315 0 6 2.687 6 6 0 3.314-2.685 6-6 6zm0-2c2.21 0 4-1.79 4-4s-1.79-4-4-4c-2.208 0-4 1.79-4 4s1.792 4 4 4z" opacity=".91"/>
    <path d="M757.925 1159.39c-3.313 0-6-2.688-6-6 0-3.315 2.687-6 6-6 3.314 0 6 2.685 6 6 0 3.312-2.686 6-6 6zm0-2c2.21 0 4-1.792 4-4 0-2.21-1.79-4-4-4s-4 1.79-4 4c0 2.208 1.79 4 4 4zm23-28.714c-3.315 0-6-2.686-6-6s2.685-6 6-6c3.313 0 6 2.686 6 6s-2.687 6-6 6zm0-2c2.208 0 4-1.79 4-4s-1.792-4-4-4c-2.21 0-4 1.79-4 4s1.79 4 4 4z" opacity=".87"/>
    <path d="M759.313 1032.888c-3.314 0-6-2.686-6-6s2.686-6 6-6 6 2.686 6 6-2.686 6-6 6zm0-2c2.21 0 4-1.79 4-4s-1.79-4-4-4-4 1.79-4 4 1.79 4 4 4z" opacity=".81"/>
    <path d="M763.393 984.218c-3.314 0-6-2.686-6-6s2.686-6 6-6c3.313 0 6 2.686 6 6s-2.687 6-6 6zm0-2c2.21 0 4-1.79 4-4s-1.79-4-4-4-4 1.79-4 4 1.79 4 4 4z" opacity=".89"/>
    <path d="M784.835 937.854c-3.314 0-6-2.687-6-6 0-3.314 2.686-6 6-6 3.313 0 6 2.686 6 6 0 3.313-2.687 6-6 6zm0-2c2.21 0 4-1.79 4-4s-1.79-4-4-4-4 1.79-4 4 1.79 4 4 4z" opacity=".87"/>
    <path d="M764.547 883.327c-3.314 0-6-2.686-6-6 0-3.313 2.686-6 6-6s6 2.687 6 6c0 3.314-2.686 6-6 6zm0-2c2.21 0 4-1.79 4-4s-1.79-4-4-4-4 1.79-4 4 1.79 4 4 4z" opacity=".74"/>
    <path d="M768.07 823.51c-3.315 0-6-2.686-6-6 0-3.313 2.685-6 6-6 3.313 0 6 2.687 6 6 0 3.314-2.687 6-6 6zm0-2c2.208 0 4-1.79 4-4s-1.792-4-4-4c-2.21 0-4 1.79-4 4s1.79 4 4 4z" opacity=".89"/>
    <path d="M784.745 758.435c-3.313 0-6-2.686-6-6s2.687-6 6-6c3.314 0 6 2.686 6 6s-2.686 6-6 6zm0-2c2.21 0 4-1.79 4-4s-1.79-4-4-4-4 1.79-4 4 1.79 4 4 4z" opacity=".96"/>
    <path d="M778.155 699.542c-3.314 0-6-2.686-6-6 0-3.313 2.686-6 6-6s6 2.687 6 6c0 3.314-2.686 6-6 6zm0-2c2.21 0 4-1.79 4-4s-1.79-4-4-4-4 1.79-4 4 1.79 4 4 4z" opacity=".88"/>
    <path d="M765.31 639.562c-3.314 0-6-2.687-6-6 0-3.314 2.686-6 6-6 3.313 0 6 2.686 6 6 0 3.313-2.687 6-6 6zm0-2c2.208 0 4-1.79 4-4s-1.792-4-4-4c-2.21 0-4 1.79-4 4s1.79 4 4 4z" opacity=".97"/>
    <path d="M784.882 557.837c-3.314 0-6-2.687-6-6 0-3.314 2.686-6 6-6 3.313 0 6 2.686 6 6 0 3.313-2.687 6-6 6zm0-2c2.21 0 4-1.79 4-4s-1.79-4-4-4-4 1.79-4 4 1.79 4 4 4z" opacity=".76"/>
    <path d="M759.76 500.86c-3.313 0-6-2.688-6-6 0-3.315 2.687-6 6-6 3.314 0 6 2.685 6 6 0 3.312-2.686 6-6 6zm0-2c2.21 0 4-1.792 4-4 0-2.21-1.79-4-4-4s-4 1.79-4 4c0 2.208 1.79 4 4 4z" opacity=".89"/>
    <path d="M763.153 462.4c-3.314 0-6-2.687-6-6 0-3.314 2.686-6 6-6 3.313 0 6 2.686 6 6 0 3.313-2.687 6-6 6zm0-2c2.21 0 4-1.79 4-4s-1.79-4-4-4-4 1.79-4 4 1.79 4 4 4z" opacity=".82"/>
    <path d="M777.566 385.244c-3.313 0-6-2.687-6-6 0-3.314 2.687-6 6-6 3.314 0 6 2.686 6 6 0 3.313-2.686 6-6 6zm0-2c2.21 0 4-1.79 4-4s-1.79-4-4-4-4 1.79-4 4 1.79 4 4 4z" opacity=".84"/>
    <path d="M780.333 347.655c-3.314 0-6-2.687-6-6 0-3.314 2.686-6 6-6s6 2.686 6 6c0 3.313-2.686 6-6 6zm0-2c2.21 0 4-1.79 4-4s-1.79-4-4-4-4 1.79-4 4 1.79 4 4 4z" opacity=".99"/>
    <path d="M782.028 259.344c-3.314 0-6-2.687-6-6 0-3.314 2.686-6 6-6s6 2.686 6 6c0 3.313-2.686 6-6 6zm0-2c2.21 0 4-1.79 4-4s-1.79-4-4-4-4 1.79-4 4 1.79 4 4 4z" opacity=".7"/>
    <path d="M766.642 212.343c-3.314 0-6-2.687-6-6 0-3.314 2.686-6 6-6s6 2.686 6 6c0 3.313-2.686 6-6 6zm0-2c2.21 0 4-1.79 4-4s-1.79-4-4-4-4 1.79-4 4 1.79 4 4 4z" opacity=".83"/>
    <path d="M762.304 139.88c-3.314 0-6-2.685-6-6 0-3.312 2.686-6 6-6s6 2.688 6 6c0 3.315-2.686 6-6 6zm0-2c2.21 0 4-1.79 4-4 0-2.208-1.79-4-4-4s-4 1.792-4 4c0 2.21 1.79 4 4 4z" opacity=".76"/>
    <path d="M775.72 105.042c-3.313 0-6-2.687-6-6 0-3.314 2.687-6 6-6 3.314 0 6 2.686 6 6 0 3.313-2.686 6-6 6zm0-2c2.21 0 4-1.79 4-4s-1.79-4-4-4-4 1.79-4 4 1.79 4 4 4z" opacity=".99"/>
    <path d="M763.86 29.403c-3.312 0-6-2.686-6-6 0-3.313 2.688-6 6-6 3.315 0 6 2.687 6 6 0 3.314-2.685 6-6 6zm0-2c2.21 0 4-1.79 4-4s-1.79-4-4-4c-2.208 0-4 1.79-4 4s1.792 4 4 4z" opacity=".73"/>
    <path d="M730.412 1154.572c-3.314 0-6-2.686-6-6 0-3.313 2.686-6 6-6s6 2.687 6 6c0 3.314-2.686 6-6 6zm0-2c2.21 0 4-1.79 4-4s-1.79-4-4-4-4 1.79-4 4 1.79 4 4 4z" opacity=".88"/>
    <path d="M735.976 1094.113c-3.313 0-6-2.687-6-6 0-3.314 2.687-6 6-6 3.314 0 6 2.686 6 6 0 3.313-2.686 6-6 6zm0-2c2.21 0 4-1.79 4-4s-1.79-4-4-4-4 1.79-4 4 1.79 4 4 4z" opacity=".81"/>
    <path d="M727.34 1068.64c-3.313 0-6-2.688-6-6 0-3.315 2.687-6 6-6 3.315 0 6 2.685 6 6 0 3.312-2.685 6-6 6zm0-2c2.21 0 4-1.792 4-4 0-2.21-1.79-4-4-4-2.208 0-4 1.79-4 4 0 2.208 1.792 4 4 4z" opacity=".9"/>
    <path d="M728.85 977.653c-3.315 0-6-2.687-6-6 0-3.314 2.685-6 6-6 3.313 0 6 2.686 6 6 0 3.313-2.687 6-6 6zm0-2c2.208 0 4-1.79 4-4s-1.792-4-4-4c-2.21 0-4 1.79-4 4s1.79 4 4 4z" opacity=".95"/>
    <path d="M731.26 951.17c-3.313 0-6-2.687-6-6 0-3.314 2.687-6 6-6 3.314 0 6 2.686 6 6 0 3.313-2.686 6-6 6zm0-2c2.21 0 4-1.79 4-4s-1.79-4-4-4-4 1.79-4 4 1.79 4 4 4z" opacity=".93"/>
    <path d="M718.736 865.743c-3.313 0-6-2.687-6-6 0-3.314 2.687-6 6-6 3.314 0 6 2.686 6 6 0 3.313-2.686 6-6 6zm0-2c2.21 0 4-1.79 4-4s-1.79-4-4-4-4 1.79-4 4 1.79 4 4 4z" opacity=".94"/>
    <path d="M726.064 829.412c-3.314 0-6-2.687-6-6 0-3.314 2.686-6 6-6s6 2.686 6 6c0 3.313-2.686 6-6 6zm0-2c2.21 0 4-1.79 4-4s-1.79-4-4-4-4 1.79-4 4 1.79 4 4 4z" opacity=".78"/>
    <path d="M709.646 732.404c-3.314 0-6-2.686-6-6 0-3.313 2.686-6 6-6 3.313 0 6 2.687 6 6 0 3.314-2.687 6-6 6zm0-2c2.21 0 4-1.79 4-4s-1.79-4-4-4-4 1.79-4 4 1.79 4 4 4z" opacity=".73"/>
    <path d="M711.887 704.41c-3.314 0-6-2.687-6-6 0-3.315 2.686-6 6-6 3.313 0 6 2.685 6 6 0 3.313-2.687 6-6 6zm0-2c2.21 0 4-1.792 4-4 0-2.21-1.79-4-4-4s-4 1.79-4 4c0 2.208 1.79 4 4 4z" opacity=".99"/>
    <path d="M735.112 619.927c-3.314 0-6-2.686-6-6s2.686-6 6-6 6 2.686 6 6-2.686 6-6 6zm0-2c2.21 0 4-1.79 4-4s-1.79-4-4-4-4 1.79-4 4 1.79 4 4 4z" opacity=".86"/>
    <path d="M735.392 589.744c-3.314 0-6-2.686-6-6 0-3.313 2.686-6 6-6 3.313 0 6 2.687 6 6 0 3.314-2.687 6-6 6zm0-2c2.21 0 4-1.79 4-4s-1.79-4-4-4-4 1.79-4 4 1.79 4 4 4z" opacity=".75"/>
    <path d="M720.61 494.56c-3.315 0-6-2.685-6-6 0-3.313 2.685-6 6-6 3.313 0 6 2.687 6 6 0 3.315-2.687 6-6 6zm0-2c2.208 0 4-1.79 4-4 0-2.208-1.792-4-4-4-2.21 0-4 1.792-4 4 0 2.21 1.79 4 4 4z" opacity=".7"/>
    <path d="M707.502 468.882c-3.314 0-6-2.686-6-6s2.686-6 6-6c3.313 0 6 2.686 6 6s-2.687 6-6 6zm0-2c2.21 0 4-1.79 4-4s-1.79-4-4-4-4 1.79-4 4 1.79 4 4 4z" opacity=".92"/>
    <path d="M719.32 406.964c-3.315 0-6-2.686-6-6s2.685-6 6-6c3.313 0 6 2.686 6 6s-2.687 6-6 6zm0-2c2.208 0 4-1.79 4-4s-1.792-4-4-4c-2.21 0-4 1.79-4 4s1.79 4 4 4z" opacity=".87"/>
    <path d="M717.686 330.09c-3.314 0-6-2.685-6-6 0-3.313 2.686-6 6-6s6 2.687 6 6c0 3.315-2.686 6-6 6zm0-2c2.21 0 4-1.79 4-4 0-2.208-1.79-4-4-4s-4 1.792-4 4c0 2.21 1.79 4 4 4z" opacity=".85"/>
    <path d="M728.58 288.37c-3.313 0-6-2.686-6-6 0-3.313 2.687-6 6-6 3.315 0 6 2.687 6 6 0 3.314-2.685 6-6 6zm0-2c2.21 0 4-1.79 4-4 0-2.208-1.79-4-4-4-2.208 0-4 1.792-4 4 0 2.21 1.792 4 4 4z" opacity=".94"/>
    <path d="M730.525 209.52c-3.314 0-6-2.686-6-6 0-3.313 2.686-6 6-6s6 2.687 6 6c0 3.314-2.686 6-6 6zm0-2c2.21 0 4-1.79 4-4s-1.79-4-4-4-4 1.79-4 4 1.79 4 4 4z" opacity=".92"/>
    <path d="M715.413 147.404c-3.314 0-6-2.686-6-6s2.686-6 6-6c3.313 0 6 2.686 6 6s-2.687 6-6 6zm0-2c2.21 0 4-1.79 4-4s-1.79-4-4-4-4 1.79-4 4 1.79 4 4 4z" opacity=".89"/>
    <path d="M723.836 90.55c-3.314 0-6-2.686-6-6 0-3.313 2.686-6 6-6s6 2.687 6 6c0 3.314-2.686 6-6 6zm0-2c2.21 0 4-1.79 4-4s-1.79-4-4-4-4 1.79-4 4 1.79 4 4 4z" opacity=".94"/>
    <path d="M734.68 39.544c-3.314 0-6-2.687-6-6 0-3.314 2.686-6 6-6 3.313 0 6 2.686 6 6 0 3.313-2.687 6-6 6zm0-2c2.21 0 4-1.79 4-4s-1.79-4-4-4-4 1.79-4 4 1.79 4 4 4z" opacity=".82"/>
    <path d="M680.76 1191.475c-3.314 0-6-2.686-6-6s2.686-6 6-6c3.313 0 6 2.686 6 6s-2.687 6-6 6zm0-2c2.21 0 4-1.79 4-4s-1.79-4-4-4-4 1.79-4 4 1.79 4 4 4z" opacity=".9"/>
    <path d="M684.882 1098.967c-3.314 0-6-2.686-6-6 0-3.313 2.686-6 6-6s6 2.687 6 6c0 3.314-2.686 6-6 6zm0-2c2.21 0 4-1.79 4-4s-1.79-4-4-4-4 1.79-4 4 1.79 4 4 4z" opacity=".7"/>
    <path d="M682.682 1048.784c-3.314 0-6-2.687-6-6 0-3.314 2.686-6 6-6s6 2.686 6 6c0 3.313-2.686 6-6 6zm0-2c2.21 0 4-1.79 4-4s-1.79-4-4-4-4 1.79-4 4 1.79 4 4 4z" opacity=".77"/>
    <path d="M661.88 1006.797c-3.315 0-6-2.686-6-6s2.685-6 6-6c3.313 0 6 2.686 6 6s-2.687 6-6 6zm0-2c2.208 0 4-1.79 4-4s-1.792-4-4-4c-2.21 0-4 1.79-4 4s1.79 4 4 4z" opacity=".75"/>
    <path d="M672.838 925.242c-3.313 0-6-2.686-6-6s2.687-6 6-6c3.314 0 6 2.686 6 6s-2.686 6-6 6zm0-2c2.21 0 4-1.79 4-4s-1.79-4-4-4-4 1.79-4 4 1.79 4 4 4z" opacity=".97"/>
    <path d="M664.67 869.123c-3.313 0-6-2.686-6-6s2.687-6 6-6c3.314 0 6 2.686 6 6s-2.686 6-6 6zm0-2c2.21 0 4-1.79 4-4s-1.79-4-4-4-4 1.79-4 4 1.79 4 4 4z" opacity=".99"/>
    <path d="M670.555 816.577c-3.313 0-6-2.686-6-6 0-3.313 2.687-6 6-6 3.314 0 6 2.687 6 6 0 3.314-2.686 6-6 6zm0-2c2.21 0 4-1.79 4-4s-1.79-4-4-4-4 1.79-4 4 1.79 4 4 4z" opacity=".83"/>
    <path d="M679.132 748.303c-3.314 0-6-2.686-6-6s2.686-6 6-6 6 2.686 6 6-2.686 6-6 6zm0-2c2.21 0 4-1.79 4-4s-1.79-4-4-4-4 1.79-4 4 1.79 4 4 4z"/>
    <path d="M682.402 699.948c-3.313 0-6-2.686-6-6s2.687-6 6-6c3.314 0 6 2.686 6 6s-2.686 6-6 6zm0-2c2.21 0 4-1.79 4-4s-1.79-4-4-4-4 1.79-4 4 1.79 4 4 4z" opacity=".79"/>
    <path d="M665.91 622.517c-3.314 0-6-2.687-6-6 0-3.314 2.686-6 6-6 3.313 0 6 2.686 6 6 0 3.313-2.687 6-6 6zm0-2c2.21 0 4-1.79 4-4s-1.79-4-4-4-4 1.79-4 4 1.79 4 4 4z" opacity=".82"/>
    <path d="M681.477 568.815c-3.313 0-6-2.686-6-6s2.687-6 6-6c3.314 0 6 2.686 6 6s-2.686 6-6 6zm0-2c2.21 0 4-1.79 4-4s-1.79-4-4-4-4 1.79-4 4 1.79 4 4 4z" opacity=".95"/>
    <path d="M671.003 495.566c-3.314 0-6-2.686-6-6s2.686-6 6-6c3.313 0 6 2.686 6 6s-2.687 6-6 6zm0-2c2.21 0 4-1.79 4-4s-1.79-4-4-4-4 1.79-4 4 1.79 4 4 4z" opacity=".76"/>
    <path d="M671.133 457.752c-3.313 0-6-2.687-6-6 0-3.314 2.687-6 6-6 3.314 0 6 2.686 6 6 0 3.313-2.686 6-6 6zm0-2c2.21 0 4-1.79 4-4s-1.79-4-4-4-4 1.79-4 4 1.79 4 4 4z" opacity=".86"/>
    <path d="M659.184 406.73c-3.314 0-6-2.686-6-6s2.686-6 6-6c3.313 0 6 2.686 6 6s-2.687 6-6 6zm0-2c2.21 0 4-1.79 4-4s-1.79-4-4-4-4 1.79-4 4 1.79 4 4 4z" opacity=".94"/>
    <path d="M680.804 314.83c-3.314 0-6-2.688-6-6 0-3.315 2.686-6 6-6 3.313 0 6 2.685 6 6 0 3.312-2.687 6-6 6zm0-2c2.21 0 4-1.792 4-4 0-2.21-1.79-4-4-4s-4 1.79-4 4c0 2.208 1.79 4 4 4z" opacity=".87"/>
    <path d="M676.26 267.486c-3.315 0-6-2.687-6-6 0-3.314 2.685-6 6-6 3.313 0 6 2.686 6 6 0 3.313-2.687 6-6 6zm0-2c2.208 0 4-1.79 4-4s-1.792-4-4-4c-2.21 0-4 1.79-4 4s1.79 4 4 4zm1.135-44.14c-3.314 0-6-2.686-6-6s2.686-6 6-6c3.313 0 6 2.686 6 6s-2.687 6-6 6zm0-2c2.21 0 4-1.79 4-4s-1.79-4-4-4-4 1.79-4 4 1.79 4 4 4z" opacity=".86"/>
    <path d="M656.893 143.93c-3.314 0-6-2.686-6-6s2.686-6 6-6 6 2.686 6 6-2.686 6-6 6zm0-2c2.21 0 4-1.79 4-4s-1.79-4-4-4-4 1.79-4 4 1.79 4 4 4z" opacity=".73"/>
    <path d="M672.108 82.81c-3.313 0-6-2.686-6-6 0-3.313 2.687-6 6-6 3.314 0 6 2.687 6 6 0 3.314-2.686 6-6 6zm0-2c2.21 0 4-1.79 4-4s-1.79-4-4-4-4 1.79-4 4 1.79 4 4 4z" opacity=".82"/>
    <path d="M668.203 19.27c-3.314 0-6-2.686-6-6 0-3.313 2.686-6 6-6s6 2.687 6 6c0 3.314-2.686 6-6 6zm0-2c2.21 0 4-1.79 4-4s-1.79-4-4-4-4 1.79-4 4 1.79 4 4 4z" opacity=".86"/>
    <path d="M617.156 1173.742c-3.314 0-6-2.686-6-6 0-3.313 2.686-6 6-6s6 2.687 6 6c0 3.314-2.686 6-6 6zm0-2c2.21 0 4-1.79 4-4s-1.79-4-4-4-4 1.79-4 4 1.79 4 4 4z" opacity=".76"/>
    <path d="M632.973 1100.082c-3.314 0-6-2.686-6-6 0-3.313 2.686-6 6-6 3.313 0 6 2.687 6 6 0 3.314-2.687 6-6 6zm0-2c2.21 0 4-1.79 4-4s-1.79-4-4-4-4 1.79-4 4 1.79 4 4 4z" opacity=".75"/>
    <path d="M634.567 1032.254c-3.314 0-6-2.686-6-6s2.686-6 6-6c3.313 0 6 2.686 6 6s-2.687 6-6 6zm0-2c2.21 0 4-1.79 4-4s-1.79-4-4-4-4 1.79-4 4 1.79 4 4 4z" opacity=".73"/>
    <path d="M623.707 1008.857c-3.313 0-6-2.687-6-6 0-3.314 2.687-6 6-6 3.314 0 6 2.686 6 6 0 3.313-2.686 6-6 6zm0-2c2.21 0 4-1.79 4-4s-1.79-4-4-4-4 1.79-4 4 1.79 4 4 4z" opacity=".82"/>
    <path d="M634.508 948.234c-3.314 0-6-2.686-6-6s2.686-6 6-6 6 2.686 6 6-2.686 6-6 6zm0-2c2.21 0 4-1.79 4-4s-1.79-4-4-4-4 1.79-4 4 1.79 4 4 4z" opacity=".87"/>
    <path d="M635.026 857.502c-3.314 0-6-2.687-6-6 0-3.314 2.686-6 6-6s6 2.686 6 6c0 3.313-2.686 6-6 6zm0-2c2.21 0 4-1.79 4-4s-1.79-4-4-4-4 1.79-4 4 1.79 4 4 4z" opacity=".78"/>
    <path d="M609.83 820.24c-3.314 0-6-2.686-6-6s2.686-6 6-6c3.313 0 6 2.686 6 6s-2.687 6-6 6zm0-2c2.208 0 4-1.79 4-4s-1.792-4-4-4c-2.21 0-4 1.79-4 4s1.79 4 4 4z" opacity=".86"/>
    <path d="M618.402 763.702c-3.314 0-6-2.686-6-6s2.686-6 6-6c3.313 0 6 2.686 6 6s-2.687 6-6 6zm0-2c2.21 0 4-1.79 4-4s-1.79-4-4-4-4 1.79-4 4 1.79 4 4 4z" opacity=".93"/>
    <path d="M618.743 682.6c-3.313 0-6-2.685-6-6 0-3.312 2.687-6 6-6 3.314 0 6 2.688 6 6 0 3.315-2.686 6-6 6zm0-2c2.21 0 4-1.79 4-4 0-2.208-1.79-4-4-4s-4 1.792-4 4c0 2.21 1.79 4 4 4z" opacity=".87"/>
    <path d="M606.408 621.118c-3.314 0-6-2.686-6-6s2.686-6 6-6 6 2.686 6 6-2.686 6-6 6zm0-2c2.21 0 4-1.79 4-4s-1.79-4-4-4-4 1.79-4 4 1.79 4 4 4z" opacity=".97"/>
    <path d="M618.755 590.647c-3.314 0-6-2.686-6-6 0-3.313 2.686-6 6-6 3.313 0 6 2.687 6 6 0 3.314-2.687 6-6 6zm0-2c2.21 0 4-1.79 4-4s-1.79-4-4-4-4 1.79-4 4 1.79 4 4 4z" opacity=".83"/>
    <path d="M635.585 503.824c-3.314 0-6-2.686-6-6s2.686-6 6-6 6 2.686 6 6-2.686 6-6 6zm0-2c2.21 0 4-1.79 4-4s-1.79-4-4-4-4 1.79-4 4 1.79 4 4 4z" opacity=".74"/>
    <path d="M611.754 455.737c-3.314 0-6-2.686-6-6s2.686-6 6-6 6 2.686 6 6-2.686 6-6 6zm0-2c2.21 0 4-1.79 4-4s-1.79-4-4-4-4 1.79-4 4 1.79 4 4 4zm2.973-72.602c-3.314 0-6-2.686-6-6s2.686-6 6-6c3.313 0 6 2.686 6 6s-2.687 6-6 6zm0-2c2.21 0 4-1.79 4-4s-1.79-4-4-4-4 1.79-4 4 1.79 4 4 4z" opacity=".7"/>
    <path d="M629.548 324.22c-3.314 0-6-2.688-6-6 0-3.315 2.686-6 6-6 3.313 0 6 2.685 6 6 0 3.312-2.687 6-6 6zm0-2c2.21 0 4-1.792 4-4 0-2.21-1.79-4-4-4s-4 1.79-4 4c0 2.208 1.79 4 4 4z" opacity=".98"/>
    <path d="M635.587 267.266c-3.313 0-6-2.686-6-6 0-3.313 2.687-6 6-6 3.314 0 6 2.687 6 6 0 3.314-2.686 6-6 6zm0-2c2.21 0 4-1.79 4-4s-1.79-4-4-4-4 1.79-4 4 1.79 4 4 4z" opacity=".89"/>
    <path d="M624.933 195.673c-3.314 0-6-2.687-6-6 0-3.314 2.686-6 6-6s6 2.686 6 6c0 3.313-2.686 6-6 6zm0-2c2.21 0 4-1.79 4-4s-1.79-4-4-4-4 1.79-4 4 1.79 4 4 4z" opacity=".96"/>
    <path d="M618.597 137.086c-3.314 0-6-2.686-6-6s2.686-6 6-6 6 2.686 6 6-2.686 6-6 6zm0-2c2.21 0 4-1.79 4-4s-1.79-4-4-4-4 1.79-4 4 1.79 4 4 4z" opacity=".72"/>
    <path d="M617.868 81.626c-3.313 0-6-2.686-6-6s2.687-6 6-6c3.314 0 6 2.686 6 6s-2.686 6-6 6zm0-2c2.21 0 4-1.79 4-4s-1.79-4-4-4-4 1.79-4 4 1.79 4 4 4z" opacity=".79"/>
    <path d="M624.213 25.213c-3.314 0-6-2.686-6-6s2.686-6 6-6 6 2.686 6 6-2.686 6-6 6zm0-2c2.21 0 4-1.79 4-4s-1.79-4-4-4-4 1.79-4 4 1.79 4 4 4z" opacity=".95"/>
    <path d="M566.96 1164.716c-3.314 0-6-2.686-6-6 0-3.313 2.686-6 6-6 3.313 0 6 2.687 6 6 0 3.314-2.687 6-6 6zm0-2c2.21 0 4-1.79 4-4s-1.79-4-4-4-4 1.79-4 4 1.79 4 4 4z" opacity=".78"/>
    <path d="M560.76 1131.543c-3.312 0-6-2.686-6-6s2.688-6 6-6c3.315 0 6 2.686 6 6s-2.685 6-6 6zm0-2c2.21 0 4-1.79 4-4s-1.79-4-4-4c-2.208 0-4 1.79-4 4s1.792 4 4 4z" opacity=".79"/>
    <path d="M567.518 1032.987c-3.314 0-6-2.687-6-6 0-3.314 2.686-6 6-6 3.313 0 6 2.686 6 6 0 3.313-2.687 6-6 6zm0-2c2.21 0 4-1.79 4-4s-1.79-4-4-4-4 1.79-4 4 1.79 4 4 4z" opacity=".89"/>
    <path d="M565.082 978.64c-3.314 0-6-2.687-6-6 0-3.314 2.686-6 6-6 3.313 0 6 2.686 6 6 0 3.313-2.687 6-6 6zm0-2c2.21 0 4-1.79 4-4s-1.79-4-4-4-4 1.79-4 4 1.79 4 4 4z" opacity=".91"/>
    <path d="M567.785 919.58c-3.313 0-6-2.685-6-6 0-3.313 2.687-6 6-6 3.314 0 6 2.687 6 6 0 3.315-2.686 6-6 6zm0-2c2.21 0 4-1.79 4-4 0-2.208-1.79-4-4-4s-4 1.792-4 4c0 2.21 1.79 4 4 4z" opacity=".98"/>
    <path d="M572.57 889.45c-3.314 0-6-2.687-6-6 0-3.314 2.686-6 6-6s6 2.686 6 6c0 3.313-2.686 6-6 6zm0-2c2.21 0 4-1.79 4-4s-1.79-4-4-4-4 1.79-4 4 1.79 4 4 4z" opacity=".76"/>
    <path d="M572.676 795.925c-3.313 0-6-2.687-6-6 0-3.314 2.687-6 6-6 3.314 0 6 2.686 6 6 0 3.313-2.686 6-6 6zm0-2c2.21 0 4-1.79 4-4s-1.79-4-4-4-4 1.79-4 4 1.79 4 4 4z" opacity=".96"/>
    <path d="M579.6 764.687c-3.314 0-6-2.686-6-6s2.686-6 6-6c3.313 0 6 2.686 6 6s-2.687 6-6 6zm0-2c2.21 0 4-1.79 4-4s-1.79-4-4-4-4 1.79-4 4 1.79 4 4 4z" opacity=".91"/>
    <path d="M564.462 682.644c-3.314 0-6-2.686-6-6s2.686-6 6-6c3.313 0 6 2.686 6 6s-2.687 6-6 6zm0-2c2.21 0 4-1.79 4-4s-1.79-4-4-4-4 1.79-4 4 1.79 4 4 4zm2.063-50.693c-3.313 0-6-2.685-6-6 0-3.313 2.687-6 6-6 3.314 0 6 2.687 6 6 0 3.315-2.686 6-6 6zm0-2c2.21 0 4-1.79 4-4 0-2.208-1.79-4-4-4s-4 1.792-4 4c0 2.21 1.79 4 4 4z" opacity=".85"/>
    <path d="M582.534 567.68c-3.314 0-6-2.686-6-6s2.686-6 6-6c3.313 0 6 2.686 6 6s-2.687 6-6 6zm0-2c2.21 0 4-1.79 4-4s-1.79-4-4-4-4 1.79-4 4 1.79 4 4 4z" opacity=".7"/>
    <path d="M580.003 523.867c-3.314 0-6-2.687-6-6 0-3.314 2.686-6 6-6 3.313 0 6 2.686 6 6 0 3.313-2.687 6-6 6zm0-2c2.21 0 4-1.79 4-4s-1.79-4-4-4-4 1.79-4 4 1.79 4 4 4z" opacity=".96"/>
    <path d="M557.48 468.085c-3.315 0-6-2.686-6-6s2.685-6 6-6c3.313 0 6 2.686 6 6s-2.687 6-6 6zm0-2c2.208 0 4-1.79 4-4s-1.792-4-4-4c-2.21 0-4 1.79-4 4s1.79 4 4 4z" opacity=".71"/>
    <path d="M566.09 377.8c-3.313 0-6-2.685-6-6 0-3.313 2.687-6 6-6 3.314 0 6 2.687 6 6 0 3.315-2.686 6-6 6zm0-2c2.21 0 4-1.79 4-4 0-2.208-1.79-4-4-4s-4 1.792-4 4c0 2.21 1.79 4 4 4z" opacity=".99"/>
    <path d="M560.072 339.36c-3.314 0-6-2.685-6-6 0-3.313 2.686-6 6-6 3.313 0 6 2.687 6 6 0 3.315-2.687 6-6 6zm0-2c2.21 0 4-1.79 4-4 0-2.208-1.79-4-4-4s-4 1.792-4 4c0 2.21 1.79 4 4 4z" opacity=".76"/>
    <path d="M568.81 277.124c-3.314 0-6-2.686-6-6s2.686-6 6-6 6 2.686 6 6-2.686 6-6 6zm0-2c2.21 0 4-1.79 4-4s-1.79-4-4-4-4 1.79-4 4 1.79 4 4 4z" opacity=".89"/>
    <path d="M578.688 225.88c-3.314 0-6-2.687-6-6 0-3.314 2.686-6 6-6 3.313 0 6 2.686 6 6 0 3.313-2.687 6-6 6zm0-2c2.21 0 4-1.79 4-4s-1.79-4-4-4-4 1.79-4 4 1.79 4 4 4z" opacity=".77"/>
    <path d="M568.98 134.32c-3.313 0-6-2.686-6-6 0-3.313 2.687-6 6-6 3.315 0 6 2.687 6 6 0 3.314-2.685 6-6 6zm0-2c2.21 0 4-1.79 4-4s-1.79-4-4-4c-2.208 0-4 1.79-4 4s1.792 4 4 4z" opacity=".92"/>
    <path d="M571.94 90.056c-3.315 0-6-2.686-6-6s2.685-6 6-6c3.313 0 6 2.686 6 6s-2.687 6-6 6zm0-2c2.208 0 4-1.79 4-4s-1.792-4-4-4c-2.21 0-4 1.79-4 4s1.79 4 4 4z" opacity=".85"/>
    <path d="M568.134 41.235c-3.313 0-6-2.687-6-6 0-3.314 2.687-6 6-6 3.314 0 6 2.686 6 6 0 3.313-2.686 6-6 6zm0-2c2.21 0 4-1.79 4-4s-1.79-4-4-4-4 1.79-4 4 1.79 4 4 4z" opacity=".99"/>
    <path d="M525.048 1168.995c-3.314 0-6-2.686-6-6 0-3.313 2.686-6 6-6 3.313 0 6 2.687 6 6 0 3.314-2.687 6-6 6zm0-2c2.21 0 4-1.79 4-4s-1.79-4-4-4-4 1.79-4 4 1.79 4 4 4z" opacity=".88"/>
    <path d="M512.573 1131c-3.314 0-6-2.685-6-6 0-3.313 2.686-6 6-6 3.313 0 6 2.687 6 6 0 3.315-2.687 6-6 6zm0-2c2.21 0 4-1.79 4-4 0-2.208-1.79-4-4-4s-4 1.792-4 4c0 2.21 1.79 4 4 4z" opacity=".89"/>
    <path d="M507.115 1040.42c-3.314 0-6-2.686-6-6s2.686-6 6-6 6 2.686 6 6-2.686 6-6 6zm0-2c2.21 0 4-1.79 4-4s-1.79-4-4-4-4 1.79-4 4 1.79 4 4 4z" opacity=".84"/>
    <path d="M507.08 996.132c-3.314 0-6-2.686-6-6 0-3.313 2.686-6 6-6 3.313 0 6 2.687 6 6 0 3.314-2.687 6-6 6zm0-2c2.21 0 4-1.79 4-4s-1.79-4-4-4-4 1.79-4 4 1.79 4 4 4z" opacity=".86"/>
    <path d="M508.94 951.265c-3.315 0-6-2.687-6-6 0-3.314 2.685-6 6-6 3.312 0 6 2.686 6 6 0 3.313-2.688 6-6 6zm0-2c2.208 0 4-1.79 4-4s-1.792-4-4-4c-2.21 0-4 1.79-4 4s1.79 4 4 4z" opacity=".8"/>
    <path d="M513.61 885.945c-3.313 0-6-2.686-6-6s2.687-6 6-6c3.314 0 6 2.686 6 6s-2.686 6-6 6zm0-2c2.21 0 4-1.79 4-4s-1.79-4-4-4-4 1.79-4 4 1.79 4 4 4z" opacity=".72"/>
    <path d="M510.21 826.095c-3.313 0-6-2.686-6-6 0-3.313 2.687-6 6-6 3.314 0 6 2.687 6 6 0 3.314-2.686 6-6 6zm0-2c2.21 0 4-1.79 4-4s-1.79-4-4-4-4 1.79-4 4 1.79 4 4 4z" opacity=".75"/>
    <path d="M509.797 743.888c-3.314 0-6-2.687-6-6 0-3.314 2.686-6 6-6 3.313 0 6 2.686 6 6 0 3.313-2.687 6-6 6zm0-2c2.21 0 4-1.79 4-4s-1.79-4-4-4-4 1.79-4 4 1.79 4 4 4z" opacity=".94"/>
    <path d="M524.76 706.536c-3.315 0-6-2.686-6-6s2.685-6 6-6c3.312 0 6 2.686 6 6s-2.688 6-6 6zm0-2c2.208 0 4-1.79 4-4s-1.792-4-4-4c-2.21 0-4 1.79-4 4s1.79 4 4 4z" opacity=".78"/>
    <path d="M509.595 623.48c-3.314 0-6-2.687-6-6 0-3.315 2.686-6 6-6s6 2.685 6 6c0 3.313-2.686 6-6 6zm0-2c2.21 0 4-1.792 4-4 0-2.21-1.79-4-4-4s-4 1.79-4 4c0 2.208 1.79 4 4 4z" opacity=".73"/>
    <path d="M513.79 579.6c-3.313 0-6-2.685-6-6 0-3.313 2.687-6 6-6 3.314 0 6 2.687 6 6 0 3.315-2.686 6-6 6zm0-2c2.21 0 4-1.79 4-4 0-2.208-1.79-4-4-4s-4 1.792-4 4c0 2.21 1.79 4 4 4z" opacity=".92"/>
    <path d="M510.157 492.776c-3.314 0-6-2.687-6-6 0-3.314 2.686-6 6-6s6 2.686 6 6c0 3.313-2.686 6-6 6zm0-2c2.21 0 4-1.79 4-4s-1.79-4-4-4-4 1.79-4 4 1.79 4 4 4z" opacity=".83"/>
    <path d="M524.63 448.804c-3.315 0-6-2.686-6-6s2.685-6 6-6c3.312 0 6 2.686 6 6s-2.688 6-6 6zm0-2c2.208 0 4-1.79 4-4s-1.792-4-4-4c-2.21 0-4 1.79-4 4s1.79 4 4 4z" opacity=".73"/>
    <path d="M517.157 395.597c-3.314 0-6-2.687-6-6 0-3.314 2.686-6 6-6 3.313 0 6 2.686 6 6 0 3.313-2.687 6-6 6zm0-2c2.21 0 4-1.79 4-4s-1.79-4-4-4-4 1.79-4 4 1.79 4 4 4z" opacity=".81"/>
    <path d="M526.774 332.712c-3.314 0-6-2.686-6-6s2.686-6 6-6c3.313 0 6 2.686 6 6s-2.687 6-6 6zm0-2c2.21 0 4-1.79 4-4s-1.79-4-4-4-4 1.79-4 4 1.79 4 4 4z" opacity=".83"/>
    <path d="M518.827 283.792c-3.313 0-6-2.686-6-6 0-3.313 2.687-6 6-6 3.314 0 6 2.687 6 6 0 3.314-2.686 6-6 6zm0-2c2.21 0 4-1.79 4-4s-1.79-4-4-4-4 1.79-4 4 1.79 4 4 4z" opacity=".92"/>
    <path d="M531.928 206.378c-3.314 0-6-2.686-6-6s2.686-6 6-6c3.313 0 6 2.686 6 6s-2.687 6-6 6zm0-2c2.21 0 4-1.79 4-4s-1.79-4-4-4-4 1.79-4 4 1.79 4 4 4z"/>
    <path d="M508.032 133.765c-3.313 0-6-2.686-6-6s2.687-6 6-6c3.314 0 6 2.686 6 6s-2.686 6-6 6zm0-2c2.21 0 4-1.79 4-4s-1.79-4-4-4-4 1.79-4 4 1.79 4 4 4z" opacity=".72"/>
    <path d="M509.88 93.54c-3.314 0-6-2.687-6-6 0-3.315 2.686-6 6-6s6 2.685 6 6c0 3.313-2.686 6-6 6zm0-2c2.21 0 4-1.792 4-4 0-2.21-1.79-4-4-4s-4 1.79-4 4c0 2.208 1.79 4 4 4z" opacity=".78"/>
    <path d="M514.238 30.956c-3.313 0-6-2.687-6-6 0-3.314 2.687-6 6-6 3.314 0 6 2.686 6 6 0 3.313-2.686 6-6 6zm0-2c2.21 0 4-1.79 4-4s-1.79-4-4-4-4 1.79-4 4 1.79 4 4 4z" opacity=".85"/>
    <path d="M474.25 1181.137c-3.314 0-6-2.686-6-6 0-3.313 2.686-6 6-6s6 2.687 6 6c0 3.314-2.686 6-6 6zm0-2c2.21 0 4-1.79 4-4s-1.79-4-4-4-4 1.79-4 4 1.79 4 4 4z" opacity=".88"/>
    <path d="M461.775 1131.328c-3.313 0-6-2.686-6-6s2.687-6 6-6c3.314 0 6 2.686 6 6s-2.686 6-6 6zm0-2c2.21 0 4-1.79 4-4s-1.79-4-4-4-4 1.79-4 4 1.79 4 4 4z" opacity=".73"/>
    <path d="M485.958 1063.284c-3.313 0-6-2.687-6-6 0-3.314 2.687-6 6-6 3.314 0 6 2.686 6 6 0 3.313-2.686 6-6 6zm0-2c2.21 0 4-1.79 4-4s-1.79-4-4-4-4 1.79-4 4 1.79 4 4 4z" opacity=".93"/>
    <path d="M457.346 1004.144c-3.314 0-6-2.687-6-6 0-3.314 2.686-6 6-6 3.313 0 6 2.686 6 6 0 3.313-2.687 6-6 6zm0-2c2.21 0 4-1.79 4-4s-1.79-4-4-4-4 1.79-4 4 1.79 4 4 4z" opacity=".71"/>
    <path d="M464.397 918.52c-3.314 0-6-2.687-6-6 0-3.315 2.686-6 6-6s6 2.685 6 6c0 3.313-2.686 6-6 6zm0-2c2.21 0 4-1.792 4-4 0-2.21-1.79-4-4-4s-4 1.79-4 4c0 2.208 1.79 4 4 4z" opacity=".98"/>
    <path d="M461.085 859.038c-3.314 0-6-2.686-6-6s2.686-6 6-6c3.313 0 6 2.686 6 6s-2.687 6-6 6zm0-2c2.21 0 4-1.79 4-4s-1.79-4-4-4-4 1.79-4 4 1.79 4 4 4z" opacity=".82"/>
    <path d="M480.216 793.712c-3.314 0-6-2.686-6-6 0-3.313 2.686-6 6-6s6 2.687 6 6c0 3.314-2.686 6-6 6zm0-2c2.21 0 4-1.79 4-4s-1.79-4-4-4-4 1.79-4 4 1.79 4 4 4z" opacity=".98"/>
    <path d="M470.413 747.81c-3.313 0-6-2.687-6-6 0-3.314 2.687-6 6-6 3.314 0 6 2.686 6 6 0 3.313-2.686 6-6 6zm0-2c2.21 0 4-1.79 4-4s-1.79-4-4-4-4 1.79-4 4 1.79 4 4 4z" opacity=".99"/>
    <path d="M462.012 678.626c-3.314 0-6-2.686-6-6 0-3.313 2.686-6 6-6s6 2.687 6 6c0 3.314-2.686 6-6 6zm0-2c2.21 0 4-1.79 4-4s-1.79-4-4-4-4 1.79-4 4 1.79 4 4 4z" opacity=".92"/>
    <path d="M461.22 642.09c-3.313 0-6-2.685-6-6 0-3.313 2.687-6 6-6 3.315 0 6 2.687 6 6 0 3.315-2.685 6-6 6zm0-2c2.21 0 4-1.79 4-4 0-2.208-1.79-4-4-4-2.208 0-4 1.792-4 4 0 2.21 1.792 4 4 4z" opacity=".79"/>
    <path d="M468.15 575.266c-3.314 0-6-2.687-6-6 0-3.314 2.686-6 6-6s6 2.686 6 6c0 3.313-2.686 6-6 6zm0-2c2.21 0 4-1.79 4-4s-1.79-4-4-4-4 1.79-4 4 1.79 4 4 4zm-3.74-71.26c-3.313 0-6-2.686-6-6 0-3.313 2.687-6 6-6 3.315 0 6 2.687 6 6 0 3.314-2.685 6-6 6zm0-2c2.21 0 4-1.79 4-4s-1.79-4-4-4c-2.208 0-4 1.79-4 4s1.792 4 4 4z" opacity=".98"/>
    <path d="M481.032 461.553c-3.314 0-6-2.686-6-6 0-3.313 2.686-6 6-6s6 2.687 6 6c0 3.314-2.686 6-6 6zm0-2c2.21 0 4-1.79 4-4s-1.79-4-4-4-4 1.79-4 4 1.79 4 4 4z" opacity=".86"/>
    <path d="M457.94 372.197c-3.313 0-6-2.686-6-6s2.687-6 6-6c3.314 0 6 2.686 6 6s-2.686 6-6 6zm0-2c2.21 0 4-1.79 4-4s-1.79-4-4-4-4 1.79-4 4 1.79 4 4 4zm14.503-36.29c-3.313 0-6-2.688-6-6 0-3.315 2.687-6 6-6 3.314 0 6 2.685 6 6 0 3.312-2.686 6-6 6zm0-2c2.21 0 4-1.792 4-4 0-2.21-1.79-4-4-4s-4 1.79-4 4c0 2.208 1.79 4 4 4z" opacity=".71"/>
    <path d="M467.465 267.165c-3.314 0-6-2.686-6-6 0-3.313 2.686-6 6-6 3.313 0 6 2.687 6 6 0 3.314-2.687 6-6 6zm0-2c2.21 0 4-1.79 4-4s-1.79-4-4-4-4 1.79-4 4 1.79 4 4 4z" opacity=".8"/>
    <path d="M456.597 198.548c-3.314 0-6-2.686-6-6 0-3.313 2.686-6 6-6 3.313 0 6 2.687 6 6 0 3.314-2.687 6-6 6zm0-2c2.21 0 4-1.79 4-4s-1.79-4-4-4-4 1.79-4 4 1.79 4 4 4z" opacity=".94"/>
    <path d="M467.142 155.8c-3.313 0-6-2.688-6-6 0-3.315 2.687-6 6-6 3.314 0 6 2.685 6 6 0 3.312-2.686 6-6 6zm0-2c2.21 0 4-1.792 4-4 0-2.21-1.79-4-4-4s-4 1.79-4 4c0 2.208 1.79 4 4 4z" opacity=".71"/>
    <path d="M476.877 105c-3.314 0-6-2.687-6-6 0-3.315 2.686-6 6-6 3.313 0 6 2.685 6 6 0 3.313-2.687 6-6 6zm0-2c2.21 0 4-1.792 4-4 0-2.21-1.79-4-4-4s-4 1.79-4 4c0 2.208 1.79 4 4 4z" opacity=".98"/>
    <path d="M466.13 46.23c-3.314 0-6-2.687-6-6 0-3.315 2.686-6 6-6s6 2.685 6 6c0 3.313-2.686 6-6 6zm0-2c2.21 0 4-1.792 4-4 0-2.21-1.79-4-4-4s-4 1.79-4 4c0 2.208 1.79 4 4 4z" opacity=".94"/>
    <path d="M435.257 1171.71c-3.314 0-6-2.686-6-6 0-3.313 2.686-6 6-6s6 2.687 6 6c0 3.314-2.686 6-6 6zm0-2c2.21 0 4-1.79 4-4s-1.79-4-4-4-4 1.79-4 4 1.79 4 4 4z" opacity=".87"/>
    <path d="M425.106 1106.616c-3.314 0-6-2.686-6-6s2.686-6 6-6 6 2.686 6 6-2.686 6-6 6zm0-2c2.21 0 4-1.79 4-4s-1.79-4-4-4-4 1.79-4 4 1.79 4 4 4zm7.213-45.278c-3.315 0-6-2.686-6-6s2.685-6 6-6c3.312 0 6 2.686 6 6s-2.688 6-6 6zm0-2c2.208 0 4-1.79 4-4s-1.792-4-4-4c-2.21 0-4 1.79-4 4s1.79 4 4 4z" opacity=".76"/>
    <path d="M409.598 985.1c-3.313 0-6-2.685-6-6 0-3.313 2.687-6 6-6 3.314 0 6 2.687 6 6 0 3.315-2.686 6-6 6zm0-2c2.21 0 4-1.79 4-4 0-2.208-1.79-4-4-4s-4 1.792-4 4c0 2.21 1.79 4 4 4z" opacity=".83"/>
    <path d="M433.832 917.795c-3.314 0-6-2.686-6-6s2.686-6 6-6c3.313 0 6 2.686 6 6s-2.687 6-6 6zm0-2c2.21 0 4-1.79 4-4s-1.79-4-4-4-4 1.79-4 4 1.79 4 4 4z" opacity=".9"/>
    <path d="M425.82 874.15c-3.312 0-6-2.688-6-6 0-3.315 2.688-6 6-6 3.315 0 6 2.685 6 6 0 3.312-2.685 6-6 6zm0-2c2.21 0 4-1.792 4-4 0-2.21-1.79-4-4-4-2.208 0-4 1.79-4 4 0 2.208 1.792 4 4 4z" opacity=".77"/>
    <path d="M415.52 811.862c-3.315 0-6-2.686-6-6s2.685-6 6-6c3.313 0 6 2.686 6 6s-2.687 6-6 6zm0-2c2.208 0 4-1.79 4-4s-1.792-4-4-4c-2.21 0-4 1.79-4 4s1.79 4 4 4z" opacity=".95"/>
    <path d="M414.26 744.353c-3.314 0-6-2.686-6-6s2.686-6 6-6c3.313 0 6 2.686 6 6s-2.687 6-6 6zm0-2c2.21 0 4-1.79 4-4s-1.79-4-4-4-4 1.79-4 4 1.79 4 4 4z" opacity=".83"/>
    <path d="M429.092 687.958c-3.314 0-6-2.686-6-6 0-3.313 2.686-6 6-6s6 2.687 6 6c0 3.314-2.686 6-6 6zm0-2c2.21 0 4-1.79 4-4s-1.79-4-4-4-4 1.79-4 4 1.79 4 4 4z" opacity=".82"/>
    <path d="M430.03 650.91c-3.313 0-6-2.686-6-6 0-3.313 2.687-6 6-6 3.314 0 6 2.687 6 6 0 3.314-2.686 6-6 6zm0-2c2.21 0 4-1.79 4-4s-1.79-4-4-4-4 1.79-4 4 1.79 4 4 4z" opacity=".83"/>
    <path d="M435.012 556.234c-3.314 0-6-2.686-6-6 0-3.313 2.686-6 6-6 3.313 0 6 2.687 6 6 0 3.314-2.687 6-6 6zm0-2c2.21 0 4-1.79 4-4s-1.79-4-4-4-4 1.79-4 4 1.79 4 4 4zm-11.275-27.33c-3.314 0-6-2.686-6-6 0-3.313 2.686-6 6-6s6 2.687 6 6c0 3.314-2.686 6-6 6zm0-2c2.21 0 4-1.79 4-4s-1.79-4-4-4-4 1.79-4 4 1.79 4 4 4z" opacity=".82"/>
    <path d="M409.037 468.805c-3.314 0-6-2.686-6-6s2.686-6 6-6 6 2.686 6 6-2.686 6-6 6zm0-2c2.21 0 4-1.79 4-4s-1.79-4-4-4-4 1.79-4 4 1.79 4 4 4z" opacity=".96"/>
    <path d="M418.12 395.575c-3.314 0-6-2.686-6-6s2.686-6 6-6 6 2.686 6 6-2.686 6-6 6zm0-2c2.21 0 4-1.79 4-4s-1.79-4-4-4-4 1.79-4 4 1.79 4 4 4z" opacity=".77"/>
    <path d="M423.412 339.515c-3.314 0-6-2.686-6-6 0-3.313 2.686-6 6-6 3.313 0 6 2.687 6 6 0 3.314-2.687 6-6 6zm0-2c2.21 0 4-1.79 4-4s-1.79-4-4-4-4 1.79-4 4 1.79 4 4 4z" opacity=".8"/>
    <path d="M427.105 262.084c-3.314 0-6-2.686-6-6 0-3.313 2.686-6 6-6 3.313 0 6 2.687 6 6 0 3.314-2.687 6-6 6zm0-2c2.21 0 4-1.79 4-4s-1.79-4-4-4-4 1.79-4 4 1.79 4 4 4z" opacity=".78"/>
    <path d="M430.377 231.61c-3.314 0-6-2.686-6-6s2.686-6 6-6 6 2.686 6 6-2.686 6-6 6zm0-2c2.21 0 4-1.79 4-4s-1.79-4-4-4-4 1.79-4 4 1.79 4 4 4z" opacity=".75"/>
    <path d="M432.983 159.316c-3.313 0-6-2.686-6-6 0-3.313 2.687-6 6-6 3.314 0 6 2.687 6 6 0 3.314-2.686 6-6 6zm0-2c2.21 0 4-1.79 4-4s-1.79-4-4-4-4 1.79-4 4 1.79 4 4 4z" opacity=".82"/>
    <path d="M433.204 88.5c-3.313 0-6-2.685-6-6 0-3.312 2.687-6 6-6 3.314 0 6 2.688 6 6 0 3.315-2.686 6-6 6zm0-2c2.21 0 4-1.79 4-4 0-2.208-1.79-4-4-4s-4 1.792-4 4c0 2.21 1.79 4 4 4z" opacity=".8"/>
    <path d="M418.54 22.556c-3.313 0-6-2.687-6-6 0-3.314 2.687-6 6-6 3.314 0 6 2.686 6 6 0 3.313-2.686 6-6 6zm0-2c2.21 0 4-1.79 4-4s-1.79-4-4-4c-2.208 0-4 1.79-4 4s1.792 4 4 4z" opacity=".96"/>
    <path d="M363.255 1188.017c-3.314 0-6-2.686-6-6s2.686-6 6-6 6 2.686 6 6-2.686 6-6 6zm0-2c2.21 0 4-1.79 4-4s-1.79-4-4-4-4 1.79-4 4 1.79 4 4 4z" opacity=".93"/>
    <path d="M378.886 1123.118c-3.314 0-6-2.687-6-6 0-3.314 2.686-6 6-6s6 2.686 6 6c0 3.313-2.686 6-6 6zm0-2c2.21 0 4-1.79 4-4s-1.79-4-4-4-4 1.79-4 4 1.79 4 4 4z" opacity=".77"/>
    <path d="M378.694 1069.71c-3.313 0-6-2.686-6-6 0-3.313 2.687-6 6-6 3.314 0 6 2.687 6 6 0 3.314-2.686 6-6 6zm0-2c2.21 0 4-1.79 4-4s-1.79-4-4-4-4 1.79-4 4 1.79 4 4 4z" opacity=".83"/>
    <path d="M377.884 979.4c-3.314 0-6-2.688-6-6 0-3.315 2.686-6 6-6 3.313 0 6 2.685 6 6 0 3.312-2.687 6-6 6zm0-2c2.21 0 4-1.792 4-4 0-2.21-1.79-4-4-4s-4 1.79-4 4c0 2.208 1.79 4 4 4z" opacity=".92"/>
    <path d="M364.32 938.582c-3.313 0-6-2.686-6-6s2.687-6 6-6c3.315 0 6 2.686 6 6s-2.685 6-6 6zm0-2c2.21 0 4-1.79 4-4s-1.79-4-4-4c-2.208 0-4 1.79-4 4s1.792 4 4 4z" opacity=".9"/>
    <path d="M385.08 861.46c-3.314 0-6-2.687-6-6 0-3.315 2.686-6 6-6 3.313 0 6 2.685 6 6 0 3.313-2.687 6-6 6zm0-2c2.21 0 4-1.792 4-4 0-2.21-1.79-4-4-4s-4 1.79-4 4c0 2.208 1.79 4 4 4z" opacity=".91"/>
    <path d="M360.12 801.664c-3.313 0-6-2.687-6-6 0-3.314 2.687-6 6-6 3.314 0 6 2.686 6 6 0 3.313-2.686 6-6 6zm0-2c2.21 0 4-1.79 4-4s-1.79-4-4-4-4 1.79-4 4 1.79 4 4 4z" opacity=".81"/>
    <path d="M374.543 750.38c-3.313 0-6-2.685-6-6 0-3.312 2.687-6 6-6 3.314 0 6 2.688 6 6 0 3.315-2.686 6-6 6zm0-2c2.21 0 4-1.79 4-4 0-2.208-1.79-4-4-4s-4 1.792-4 4c0 2.21 1.79 4 4 4z" opacity=".91"/>
    <path d="M359.916 707.445c-3.314 0-6-2.686-6-6s2.686-6 6-6 6 2.686 6 6-2.686 6-6 6zm0-2c2.21 0 4-1.79 4-4s-1.79-4-4-4-4 1.79-4 4 1.79 4 4 4z" opacity=".78"/>
    <path d="M383.792 640.36c-3.314 0-6-2.686-6-6s2.686-6 6-6 6 2.686 6 6-2.686 6-6 6zm0-2c2.21 0 4-1.79 4-4s-1.79-4-4-4-4 1.79-4 4 1.79 4 4 4z" opacity=".94"/>
    <path d="M377.594 569.73c-3.314 0-6-2.686-6-6 0-3.313 2.686-6 6-6s6 2.687 6 6c0 3.314-2.686 6-6 6zm0-2c2.21 0 4-1.79 4-4s-1.79-4-4-4-4 1.79-4 4 1.79 4 4 4z" opacity=".73"/>
    <path d="M367.65 492.257c-3.314 0-6-2.686-6-6s2.686-6 6-6c3.313 0 6 2.686 6 6s-2.687 6-6 6zm0-2c2.208 0 4-1.79 4-4s-1.792-4-4-4c-2.21 0-4 1.79-4 4s1.79 4 4 4z" opacity=".84"/>
    <path d="M371.134 442.024c-3.314 0-6-2.687-6-6 0-3.314 2.686-6 6-6 3.313 0 6 2.686 6 6 0 3.313-2.687 6-6 6zm0-2c2.21 0 4-1.79 4-4s-1.79-4-4-4-4 1.79-4 4 1.79 4 4 4z" opacity=".92"/>
    <path d="M381.658 385.7c-3.314 0-6-2.687-6-6 0-3.314 2.686-6 6-6 3.313 0 6 2.686 6 6 0 3.313-2.687 6-6 6zm0-2c2.21 0 4-1.79 4-4s-1.79-4-4-4-4 1.79-4 4 1.79 4 4 4z" opacity=".78"/>
    <path d="M383.842 348.628c-3.314 0-6-2.686-6-6s2.686-6 6-6 6 2.686 6 6-2.686 6-6 6zm0-2c2.21 0 4-1.79 4-4s-1.79-4-4-4-4 1.79-4 4 1.79 4 4 4z" opacity=".72"/>
    <path d="M360.41 265.753c-3.312 0-6-2.686-6-6s2.688-6 6-6c3.315 0 6 2.686 6 6s-2.685 6-6 6zm0-2c2.21 0 4-1.79 4-4s-1.79-4-4-4c-2.208 0-4 1.79-4 4s1.792 4 4 4zm6.827-55.85c-3.313 0-6-2.686-6-6s2.687-6 6-6c3.314 0 6 2.686 6 6s-2.686 6-6 6zm0-2c2.21 0 4-1.79 4-4s-1.79-4-4-4-4 1.79-4 4 1.79 4 4 4zm11.573-61.997c-3.314 0-6-2.686-6-6 0-3.313 2.686-6 6-6s6 2.687 6 6c0 3.314-2.686 6-6 6zm0-2c2.21 0 4-1.79 4-4s-1.79-4-4-4-4 1.79-4 4 1.79 4 4 4z" opacity=".99"/>
    <path d="M376.095 100.825c-3.313 0-6-2.686-6-6 0-3.313 2.687-6 6-6 3.314 0 6 2.687 6 6 0 3.314-2.686 6-6 6zm0-2c2.21 0 4-1.79 4-4s-1.79-4-4-4-4 1.79-4 4 1.79 4 4 4z" opacity=".83"/>
    <path d="M357.186 47.65c-3.314 0-6-2.686-6-6s2.686-6 6-6c3.313 0 6 2.686 6 6s-2.687 6-6 6zm0-2c2.21 0 4-1.79 4-4s-1.79-4-4-4-4 1.79-4 4 1.79 4 4 4z" opacity=".92"/>
    <path d="M315.646 1174.5c-3.313 0-6-2.686-6-6s2.687-6 6-6c3.314 0 6 2.686 6 6s-2.686 6-6 6zm0-2c2.21 0 4-1.79 4-4s-1.79-4-4-4-4 1.79-4 4 1.79 4 4 4z" opacity=".86"/>
    <path d="M309.087 1106.006c-3.314 0-6-2.686-6-6 0-3.313 2.686-6 6-6 3.313 0 6 2.687 6 6 0 3.314-2.687 6-6 6zm0-2c2.21 0 4-1.79 4-4s-1.79-4-4-4-4 1.79-4 4 1.79 4 4 4z" opacity=".77"/>
    <path d="M319.76 1056.192c-3.315 0-6-2.686-6-6s2.685-6 6-6c3.313 0 6 2.686 6 6s-2.687 6-6 6zm0-2c2.208 0 4-1.79 4-4s-1.792-4-4-4c-2.21 0-4 1.79-4 4s1.79 4 4 4z" opacity=".75"/>
    <path d="M316.708 1000.713c-3.313 0-6-2.686-6-6s2.687-6 6-6c3.314 0 6 2.686 6 6s-2.686 6-6 6zm0-2c2.21 0 4-1.79 4-4s-1.79-4-4-4-4 1.79-4 4 1.79 4 4 4z" opacity=".89"/>
    <path d="M328.43 924.784c-3.312 0-6-2.686-6-6s2.688-6 6-6c3.315 0 6 2.686 6 6s-2.685 6-6 6zm0-2c2.21 0 4-1.79 4-4s-1.79-4-4-4c-2.208 0-4 1.79-4 4s1.792 4 4 4z" opacity=".92"/>
    <path d="M308.494 883.02c-3.314 0-6-2.686-6-6 0-3.313 2.686-6 6-6s6 2.687 6 6c0 3.314-2.686 6-6 6zm0-2c2.21 0 4-1.79 4-4s-1.79-4-4-4-4 1.79-4 4 1.79 4 4 4z" opacity=".89"/>
    <path d="M333.52 814.877c-3.315 0-6-2.687-6-6 0-3.314 2.685-6 6-6 3.313 0 6 2.686 6 6 0 3.313-2.687 6-6 6zm0-2c2.208 0 4-1.79 4-4s-1.792-4-4-4c-2.21 0-4 1.79-4 4s1.79 4 4 4z" opacity=".81"/>
    <path d="M319.205 766.335c-3.314 0-6-2.686-6-6s2.686-6 6-6 6 2.686 6 6-2.686 6-6 6zm0-2c2.21 0 4-1.79 4-4s-1.79-4-4-4-4 1.79-4 4 1.79 4 4 4z" opacity=".84"/>
    <path d="M332.605 696.71c-3.314 0-6-2.687-6-6 0-3.314 2.686-6 6-6s6 2.686 6 6c0 3.313-2.686 6-6 6zm0-2c2.21 0 4-1.79 4-4s-1.79-4-4-4-4 1.79-4 4 1.79 4 4 4z" opacity=".82"/>
    <path d="M316.842 627.813c-3.313 0-6-2.686-6-6 0-3.313 2.687-6 6-6 3.314 0 6 2.687 6 6 0 3.314-2.686 6-6 6zm0-2c2.21 0 4-1.79 4-4s-1.79-4-4-4-4 1.79-4 4 1.79 4 4 4z" opacity=".78"/>
    <path d="M335.095 578.99c-3.314 0-6-2.687-6-6 0-3.314 2.686-6 6-6 3.313 0 6 2.686 6 6 0 3.313-2.687 6-6 6zm0-2c2.21 0 4-1.79 4-4s-1.79-4-4-4-4 1.79-4 4 1.79 4 4 4z" opacity=".82"/>
    <path d="M306.01 520.183c-3.314 0-6-2.687-6-6 0-3.314 2.686-6 6-6 3.313 0 6 2.686 6 6 0 3.313-2.687 6-6 6zm0-2c2.208 0 4-1.79 4-4s-1.792-4-4-4c-2.21 0-4 1.79-4 4s1.79 4 4 4z" opacity=".92"/>
    <path d="M330.266 440.615c-3.314 0-6-2.686-6-6s2.686-6 6-6c3.313 0 6 2.686 6 6s-2.687 6-6 6zm0-2c2.21 0 4-1.79 4-4s-1.79-4-4-4-4 1.79-4 4 1.79 4 4 4z" opacity=".9"/>
    <path d="M335.23 407.74c-3.314 0-6-2.686-6-6 0-3.313 2.686-6 6-6 3.313 0 6 2.687 6 6 0 3.314-2.687 6-6 6zm0-2c2.21 0 4-1.79 4-4 0-2.208-1.79-4-4-4s-4 1.792-4 4c0 2.21 1.79 4 4 4z" opacity=".79"/>
    <path d="M316.18 317.01c-3.314 0-6-2.686-6-6s2.686-6 6-6c3.313 0 6 2.686 6 6s-2.687 6-6 6zm0-2c2.208 0 4-1.79 4-4s-1.792-4-4-4c-2.21 0-4 1.79-4 4s1.79 4 4 4z" opacity=".73"/>
    <path d="M333.126 282.108c-3.314 0-6-2.686-6-6 0-3.313 2.686-6 6-6s6 2.687 6 6c0 3.314-2.686 6-6 6zm0-2c2.21 0 4-1.79 4-4s-1.79-4-4-4-4 1.79-4 4 1.79 4 4 4z" opacity=".92"/>
    <path d="M324.493 201.383c-3.314 0-6-2.686-6-6 0-3.313 2.686-6 6-6s6 2.687 6 6c0 3.314-2.686 6-6 6zm0-2c2.21 0 4-1.79 4-4s-1.79-4-4-4-4 1.79-4 4 1.79 4 4 4z" opacity=".91"/>
    <path d="M325.048 171.59c-3.314 0-6-2.687-6-6 0-3.314 2.686-6 6-6 3.313 0 6 2.686 6 6 0 3.313-2.687 6-6 6zm0-2c2.21 0 4-1.79 4-4s-1.79-4-4-4-4 1.79-4 4 1.79 4 4 4z" opacity=".96"/>
    <path d="M316.264 106.523c-3.314 0-6-2.687-6-6 0-3.314 2.686-6 6-6s6 2.686 6 6c0 3.313-2.686 6-6 6zm0-2c2.21 0 4-1.79 4-4s-1.79-4-4-4-4 1.79-4 4 1.79 4 4 4z" opacity=".85"/>
    <path d="M324.36 23.898c-3.313 0-6-2.687-6-6 0-3.314 2.687-6 6-6 3.314 0 6 2.686 6 6 0 3.313-2.686 6-6 6zm0-2c2.21 0 4-1.79 4-4s-1.79-4-4-4-4 1.79-4 4 1.79 4 4 4z" opacity=".73"/>
    <path d="M258.034 1152.136c-3.313 0-6-2.687-6-6 0-3.314 2.687-6 6-6 3.314 0 6 2.686 6 6 0 3.313-2.686 6-6 6zm0-2c2.21 0 4-1.79 4-4s-1.79-4-4-4-4 1.79-4 4 1.79 4 4 4z" opacity=".93"/>
    <path d="M283.778 1118.304c-3.314 0-6-2.686-6-6s2.686-6 6-6 6 2.686 6 6-2.686 6-6 6zm0-2c2.21 0 4-1.79 4-4s-1.79-4-4-4-4 1.79-4 4 1.79 4 4 4z" opacity=".73"/>
    <path d="M275.825 1045.527c-3.314 0-6-2.686-6-6 0-3.313 2.686-6 6-6s6 2.687 6 6c0 3.314-2.686 6-6 6zm0-2c2.21 0 4-1.79 4-4s-1.79-4-4-4-4 1.79-4 4 1.79 4 4 4z" opacity=".8"/>
    <path d="M278.607 984.045c-3.314 0-6-2.686-6-6s2.686-6 6-6c3.313 0 6 2.686 6 6s-2.687 6-6 6zm0-2c2.21 0 4-1.79 4-4s-1.79-4-4-4-4 1.79-4 4 1.79 4 4 4z" opacity=".71"/>
    <path d="M264.444 923.912c-3.314 0-6-2.686-6-6s2.686-6 6-6 6 2.686 6 6-2.686 6-6 6zm0-2c2.21 0 4-1.79 4-4s-1.79-4-4-4-4 1.79-4 4 1.79 4 4 4zm5.97-48.654c-3.314 0-6-2.686-6-6 0-3.313 2.686-6 6-6 3.313 0 6 2.687 6 6 0 3.314-2.687 6-6 6zm0-2c2.21 0 4-1.79 4-4s-1.79-4-4-4-4 1.79-4 4 1.79 4 4 4z" opacity=".7"/>
    <path d="M280.248 830.61c-3.314 0-6-2.686-6-6s2.686-6 6-6c3.313 0 6 2.686 6 6s-2.687 6-6 6zm0-2c2.21 0 4-1.79 4-4s-1.79-4-4-4-4 1.79-4 4 1.79 4 4 4z" opacity=".92"/>
    <path d="M284.08 762.164c-3.314 0-6-2.687-6-6 0-3.314 2.686-6 6-6 3.313 0 6 2.686 6 6 0 3.313-2.687 6-6 6zm0-2c2.21 0 4-1.79 4-4s-1.79-4-4-4-4 1.79-4 4 1.79 4 4 4z" opacity=".8"/>
    <path d="M285.907 678.346c-3.314 0-6-2.687-6-6 0-3.314 2.686-6 6-6s6 2.686 6 6c0 3.313-2.686 6-6 6zm0-2c2.21 0 4-1.79 4-4s-1.79-4-4-4-4 1.79-4 4 1.79 4 4 4z" opacity=".73"/>
    <path d="M256.45 644.522c-3.313 0-6-2.687-6-6 0-3.314 2.687-6 6-6 3.315 0 6 2.686 6 6 0 3.313-2.685 6-6 6zm0-2c2.21 0 4-1.79 4-4s-1.79-4-4-4c-2.208 0-4 1.79-4 4s1.792 4 4 4z" opacity=".75"/>
    <path d="M280.07 574.52c-3.313 0-6-2.686-6-6 0-3.313 2.687-6 6-6 3.314 0 6 2.687 6 6 0 3.314-2.686 6-6 6zm0-2c2.21 0 4-1.79 4-4s-1.79-4-4-4c-2.208 0-4 1.79-4 4s1.792 4 4 4z" opacity=".95"/>
    <path d="M280.398 512.802c-3.313 0-6-2.687-6-6 0-3.314 2.687-6 6-6 3.314 0 6 2.686 6 6 0 3.313-2.686 6-6 6zm0-2c2.21 0 4-1.79 4-4s-1.79-4-4-4-4 1.79-4 4 1.79 4 4 4z" opacity=".71"/>
    <path d="M259.058 453.32c-3.313 0-6-2.685-6-6 0-3.312 2.687-6 6-6 3.314 0 6 2.688 6 6 0 3.315-2.686 6-6 6zm0-2c2.21 0 4-1.79 4-4 0-2.208-1.79-4-4-4s-4 1.792-4 4c0 2.21 1.79 4 4 4z" opacity=".7"/>
    <path d="M262.767 385.467c-3.313 0-6-2.686-6-6s2.687-6 6-6c3.314 0 6 2.686 6 6s-2.686 6-6 6zm0-2c2.21 0 4-1.79 4-4s-1.79-4-4-4-4 1.79-4 4 1.79 4 4 4z" opacity=".88"/>
    <path d="M280.92 315.228c-3.313 0-6-2.686-6-6s2.687-6 6-6c3.315 0 6 2.686 6 6s-2.685 6-6 6zm0-2c2.21 0 4-1.79 4-4s-1.79-4-4-4c-2.208 0-4 1.79-4 4s1.792 4 4 4z" opacity=".89"/>
    <path d="M256.674 276.09c-3.313 0-6-2.686-6-6 0-3.313 2.687-6 6-6 3.314 0 6 2.687 6 6 0 3.314-2.686 6-6 6zm0-2c2.21 0 4-1.79 4-4 0-2.208-1.79-4-4-4s-4 1.792-4 4c0 2.21 1.79 4 4 4z" opacity=".77"/>
    <path d="M272.515 195.368c-3.313 0-6-2.686-6-6 0-3.313 2.687-6 6-6 3.314 0 6 2.687 6 6 0 3.314-2.686 6-6 6zm0-2c2.21 0 4-1.79 4-4s-1.79-4-4-4-4 1.79-4 4 1.79 4 4 4z" opacity=".94"/>
    <path d="M258.927 147.427c-3.314 0-6-2.687-6-6 0-3.314 2.686-6 6-6s6 2.686 6 6c0 3.313-2.686 6-6 6zm0-2c2.21 0 4-1.79 4-4s-1.79-4-4-4-4 1.79-4 4 1.79 4 4 4z" opacity=".96"/>
    <path d="M260.012 75.696c-3.314 0-6-2.686-6-6s2.686-6 6-6c3.313 0 6 2.686 6 6s-2.687 6-6 6zm0-2c2.21 0 4-1.79 4-4s-1.79-4-4-4-4 1.79-4 4 1.79 4 4 4z" opacity=".71"/>
    <path d="M266.135 27.6c-3.314 0-6-2.688-6-6 0-3.315 2.686-6 6-6s6 2.685 6 6c0 3.312-2.686 6-6 6zm0-2c2.21 0 4-1.792 4-4 0-2.21-1.79-4-4-4s-4 1.79-4 4c0 2.208 1.79 4 4 4z" opacity=".95"/>
    <path d="M231.888 1152.85c-3.313 0-6-2.686-6-6s2.687-6 6-6c3.314 0 6 2.686 6 6s-2.686 6-6 6zm0-2c2.21 0 4-1.79 4-4s-1.79-4-4-4-4 1.79-4 4 1.79 4 4 4z" opacity=".8"/>
    <path d="M231.117 1093.172c-3.313 0-6-2.686-6-6s2.687-6 6-6c3.314 0 6 2.686 6 6s-2.686 6-6 6zm0-2c2.21 0 4-1.79 4-4s-1.79-4-4-4-4 1.79-4 4 1.79 4 4 4z" opacity=".86"/>
    <path d="M228.76 1050.256c-3.312 0-6-2.686-6-6 0-3.313 2.688-6 6-6 3.315 0 6 2.687 6 6 0 3.314-2.685 6-6 6zm0-2c2.21 0 4-1.79 4-4s-1.79-4-4-4c-2.208 0-4 1.79-4 4s1.792 4 4 4z" opacity=".84"/>
    <path d="M209.347 983.18c-3.314 0-6-2.687-6-6 0-3.314 2.686-6 6-6 3.313 0 6 2.686 6 6 0 3.313-2.687 6-6 6zm0-2c2.21 0 4-1.79 4-4s-1.79-4-4-4-4 1.79-4 4 1.79 4 4 4z" opacity=".88"/>
    <path d="M212.735 919.082c-3.314 0-6-2.687-6-6 0-3.314 2.686-6 6-6s6 2.686 6 6c0 3.313-2.686 6-6 6zm0-2c2.21 0 4-1.79 4-4s-1.79-4-4-4-4 1.79-4 4 1.79 4 4 4z" opacity=".98"/>
    <path d="M223.596 862.75c-3.314 0-6-2.686-6-6s2.686-6 6-6c3.313 0 6 2.686 6 6s-2.687 6-6 6zm0-2c2.21 0 4-1.79 4-4s-1.79-4-4-4-4 1.79-4 4 1.79 4 4 4z" opacity=".81"/>
    <path d="M229.23 800.852c-3.313 0-6-2.686-6-6s2.687-6 6-6c3.314 0 6 2.686 6 6s-2.686 6-6 6zm0-2c2.21 0 4-1.79 4-4s-1.79-4-4-4-4 1.79-4 4 1.79 4 4 4z" opacity=".85"/>
    <path d="M222.43 754.757c-3.313 0-6-2.687-6-6 0-3.314 2.687-6 6-6 3.314 0 6 2.686 6 6 0 3.313-2.686 6-6 6zm0-2c2.21 0 4-1.79 4-4s-1.79-4-4-4-4 1.79-4 4 1.79 4 4 4zm6.913-80.618c-3.314 0-6-2.687-6-6 0-3.314 2.686-6 6-6s6 2.686 6 6c0 3.313-2.686 6-6 6zm0-2c2.21 0 4-1.79 4-4s-1.79-4-4-4-4 1.79-4 4 1.79 4 4 4z" opacity=".77"/>
    <path d="M215.07 644.837c-3.313 0-6-2.686-6-6s2.687-6 6-6c3.314 0 6 2.686 6 6s-2.686 6-6 6zm0-2c2.21 0 4-1.79 4-4s-1.79-4-4-4-4 1.79-4 4 1.79 4 4 4z" opacity=".95"/>
    <path d="M226.895 591.42c-3.314 0-6-2.686-6-6 0-3.313 2.686-6 6-6 3.313 0 6 2.687 6 6 0 3.314-2.687 6-6 6zm0-2c2.21 0 4-1.79 4-4 0-2.208-1.79-4-4-4s-4 1.792-4 4c0 2.21 1.79 4 4 4z" opacity=".71"/>
    <path d="M220.232 522.486c-3.314 0-6-2.686-6-6s2.686-6 6-6 6 2.686 6 6-2.686 6-6 6zm0-2c2.21 0 4-1.79 4-4s-1.79-4-4-4-4 1.79-4 4 1.79 4 4 4z" opacity=".81"/>
    <path d="M233.5 459.96c-3.314 0-6-2.685-6-6 0-3.312 2.686-6 6-6s6 2.688 6 6c0 3.315-2.686 6-6 6zm0-2c2.21 0 4-1.79 4-4 0-2.208-1.79-4-4-4s-4 1.792-4 4c0 2.21 1.79 4 4 4z" opacity=".85"/>
    <path d="M206.65 375.61c-3.313 0-6-2.687-6-6 0-3.315 2.687-6 6-6 3.314 0 6 2.685 6 6 0 3.313-2.686 6-6 6zm0-2c2.21 0 4-1.792 4-4 0-2.21-1.79-4-4-4-2.208 0-4 1.79-4 4 0 2.208 1.792 4 4 4z" opacity=".72"/>
    <path d="M229.65 313.136c-3.313 0-6-2.686-6-6 0-3.313 2.687-6 6-6 3.315 0 6 2.687 6 6 0 3.314-2.685 6-6 6zm0-2c2.21 0 4-1.79 4-4s-1.79-4-4-4c-2.208 0-4 1.79-4 4s1.792 4 4 4z" opacity=".82"/>
    <path d="M208.042 257.732c-3.314 0-6-2.687-6-6 0-3.314 2.686-6 6-6 3.313 0 6 2.686 6 6 0 3.313-2.687 6-6 6zm0-2c2.21 0 4-1.79 4-4s-1.79-4-4-4-4 1.79-4 4 1.79 4 4 4z" opacity=".84"/>
    <path d="M207.755 227.63c-3.314 0-6-2.686-6-6 0-3.313 2.686-6 6-6s6 2.687 6 6c0 3.314-2.686 6-6 6zm0-2c2.21 0 4-1.79 4-4s-1.79-4-4-4-4 1.79-4 4 1.79 4 4 4z" opacity=".76"/>
    <path d="M223.136 134.383c-3.314 0-6-2.687-6-6 0-3.314 2.686-6 6-6 3.313 0 6 2.686 6 6 0 3.313-2.687 6-6 6zm0-2c2.21 0 4-1.79 4-4s-1.79-4-4-4-4 1.79-4 4 1.79 4 4 4z" opacity=".94"/>
    <path d="M215.776 75.59c-3.314 0-6-2.687-6-6 0-3.314 2.686-6 6-6 3.313 0 6 2.686 6 6 0 3.313-2.687 6-6 6zm0-2c2.21 0 4-1.792 4-4 0-2.21-1.79-4-4-4s-4 1.79-4 4c0 2.208 1.79 4 4 4z" opacity=".77"/>
    <path d="M207.146 48.04c-3.313 0-6-2.687-6-6 0-3.315 2.687-6 6-6 3.314 0 6 2.685 6 6 0 3.313-2.686 6-6 6zm0-2c2.21 0 4-1.792 4-4 0-2.21-1.79-4-4-4s-4 1.79-4 4c0 2.208 1.79 4 4 4z" opacity=".79"/>
    <path d="M172.485 1163.268c-3.314 0-6-2.687-6-6 0-3.314 2.686-6 6-6 3.313 0 6 2.686 6 6 0 3.313-2.687 6-6 6zm0-2c2.21 0 4-1.79 4-4s-1.79-4-4-4-4 1.79-4 4 1.79 4 4 4z" opacity=".84"/>
    <path d="M176.394 1100.836c-3.314 0-6-2.686-6-6 0-3.313 2.686-6 6-6s6 2.687 6 6c0 3.314-2.686 6-6 6zm0-2c2.21 0 4-1.79 4-4s-1.79-4-4-4-4 1.79-4 4 1.79 4 4 4z" opacity=".81"/>
    <path d="M166.485 1036.98c-3.314 0-6-2.688-6-6 0-3.315 2.686-6 6-6 3.313 0 6 2.685 6 6 0 3.312-2.687 6-6 6zm0-2c2.21 0 4-1.792 4-4 0-2.21-1.79-4-4-4s-4 1.79-4 4c0 2.208 1.79 4 4 4z" opacity=".9"/>
    <path d="M175.973 977.755c-3.313 0-6-2.687-6-6 0-3.314 2.687-6 6-6 3.314 0 6 2.686 6 6 0 3.313-2.686 6-6 6zm0-2c2.21 0 4-1.79 4-4s-1.79-4-4-4-4 1.79-4 4 1.79 4 4 4z" opacity=".88"/>
    <path d="M183.27 949.422c-3.313 0-6-2.686-6-6s2.687-6 6-6c3.315 0 6 2.686 6 6s-2.685 6-6 6zm0-2c2.21 0 4-1.79 4-4s-1.79-4-4-4c-2.208 0-4 1.79-4 4s1.792 4 4 4z" opacity=".7"/>
    <path d="M164.188 891.067c-3.313 0-6-2.686-6-6s2.687-6 6-6c3.314 0 6 2.686 6 6s-2.686 6-6 6zm0-2c2.21 0 4-1.79 4-4s-1.79-4-4-4-4 1.79-4 4 1.79 4 4 4z"/>
    <path d="M181.85 806.645c-3.314 0-6-2.687-6-6 0-3.314 2.686-6 6-6 3.313 0 6 2.686 6 6 0 3.313-2.687 6-6 6zm0-2c2.21 0 4-1.79 4-4s-1.79-4-4-4-4 1.79-4 4 1.79 4 4 4z" opacity=".81"/>
    <path d="M159.616 759.393c-3.313 0-6-2.686-6-6s2.687-6 6-6c3.314 0 6 2.686 6 6s-2.686 6-6 6zm0-2c2.21 0 4-1.79 4-4s-1.79-4-4-4-4 1.79-4 4 1.79 4 4 4z" opacity=".92"/>
    <path d="M184.658 694.615c-3.314 0-6-2.686-6-6s2.686-6 6-6 6 2.686 6 6-2.686 6-6 6zm0-2c2.21 0 4-1.79 4-4s-1.79-4-4-4-4 1.79-4 4 1.79 4 4 4z" opacity=".94"/>
    <path d="M167.577 617.402c-3.314 0-6-2.686-6-6s2.686-6 6-6c3.313 0 6 2.686 6 6s-2.687 6-6 6zm0-2c2.21 0 4-1.79 4-4s-1.79-4-4-4-4 1.79-4 4 1.79 4 4 4z" opacity=".7"/>
    <path d="M169.56 561.342c-3.312 0-6-2.686-6-6 0-3.313 2.688-6 6-6 3.315 0 6 2.687 6 6 0 3.314-2.685 6-6 6zm0-2c2.21 0 4-1.79 4-4s-1.79-4-4-4c-2.208 0-4 1.79-4 4s1.792 4 4 4z" opacity=".99"/>
    <path d="M163.618 502.532c-3.314 0-6-2.686-6-6s2.686-6 6-6 6 2.686 6 6-2.686 6-6 6zm0-2c2.21 0 4-1.79 4-4s-1.79-4-4-4-4 1.79-4 4 1.79 4 4 4z" opacity=".94"/>
    <path d="M163.117 444.602c-3.314 0-6-2.686-6-6 0-3.313 2.686-6 6-6 3.313 0 6 2.687 6 6 0 3.314-2.687 6-6 6zm0-2c2.21 0 4-1.79 4-4s-1.79-4-4-4-4 1.79-4 4 1.79 4 4 4z" opacity=".97"/>
    <path d="M161.74 373.444c-3.314 0-6-2.686-6-6 0-3.313 2.686-6 6-6s6 2.687 6 6c0 3.314-2.686 6-6 6zm0-2c2.21 0 4-1.79 4-4s-1.79-4-4-4-4 1.79-4 4 1.79 4 4 4z" opacity=".95"/>
    <path d="M179.51 331.94c-3.314 0-6-2.687-6-6 0-3.315 2.686-6 6-6s6 2.685 6 6c0 3.313-2.686 6-6 6zm0-2c2.21 0 4-1.792 4-4 0-2.21-1.79-4-4-4s-4 1.79-4 4c0 2.208 1.79 4 4 4z" opacity=".81"/>
    <path d="M176.824 281.478c-3.313 0-6-2.686-6-6 0-3.313 2.687-6 6-6 3.314 0 6 2.687 6 6 0 3.314-2.686 6-6 6zm0-2c2.21 0 4-1.79 4-4s-1.79-4-4-4-4 1.79-4 4 1.79 4 4 4z" opacity=".89"/>
    <path d="M168.725 208.182c-3.314 0-6-2.686-6-6 0-3.313 2.686-6 6-6 3.313 0 6 2.687 6 6 0 3.314-2.687 6-6 6zm0-2c2.21 0 4-1.79 4-4s-1.79-4-4-4-4 1.79-4 4 1.79 4 4 4zm-9.412-53.76c-3.313 0-6-2.687-6-6 0-3.314 2.687-6 6-6 3.314 0 6 2.686 6 6 0 3.313-2.686 6-6 6zm0-2c2.21 0 4-1.79 4-4s-1.79-4-4-4-4 1.79-4 4 1.79 4 4 4z" opacity=".91"/>
    <path d="M164.802 79.94c-3.314 0-6-2.686-6-6s2.686-6 6-6 6 2.686 6 6-2.686 6-6 6zm0-2c2.21 0 4-1.79 4-4s-1.79-4-4-4-4 1.79-4 4 1.79 4 4 4z" opacity=".75"/>
    <path d="M161.12 34.695c-3.314 0-6-2.686-6-6 0-3.313 2.686-6 6-6s6 2.687 6 6c0 3.314-2.686 6-6 6zm0-2c2.21 0 4-1.79 4-4s-1.79-4-4-4-4 1.79-4 4 1.79 4 4 4z" opacity=".72"/>
    <path d="M132.7 1186.575c-3.313 0-6-2.686-6-6s2.687-6 6-6c3.314 0 6 2.686 6 6s-2.686 6-6 6zm0-2c2.21 0 4-1.79 4-4s-1.79-4-4-4-4 1.79-4 4 1.79 4 4 4z" opacity=".7"/>
    <path d="M106.727 1123.947c-3.314 0-6-2.686-6-6s2.686-6 6-6c3.313 0 6 2.686 6 6s-2.687 6-6 6zm0-2c2.21 0 4-1.79 4-4s-1.79-4-4-4-4 1.79-4 4 1.79 4 4 4z" opacity=".85"/>
    <path d="M122.805 1058.076c-3.314 0-6-2.686-6-6 0-3.313 2.686-6 6-6s6 2.687 6 6c0 3.314-2.686 6-6 6zm0-2c2.21 0 4-1.79 4-4s-1.79-4-4-4-4 1.79-4 4 1.79 4 4 4z" opacity=".73"/>
    <path d="M109.096 997.51c-3.314 0-6-2.687-6-6 0-3.314 2.686-6 6-6s6 2.686 6 6c0 3.313-2.686 6-6 6zm0-2c2.21 0 4-1.79 4-4s-1.79-4-4-4-4 1.79-4 4 1.79 4 4 4z" opacity=".7"/>
    <path d="M128.06 923.898c-3.315 0-6-2.686-6-6 0-3.313 2.685-6 6-6 3.312 0 6 2.687 6 6 0 3.314-2.688 6-6 6zm0-2c2.208 0 4-1.79 4-4s-1.792-4-4-4c-2.21 0-4 1.79-4 4s1.79 4 4 4z" opacity=".86"/>
    <path d="M117.002 875.16c-3.314 0-6-2.685-6-6 0-3.313 2.686-6 6-6 3.313 0 6 2.687 6 6 0 3.315-2.687 6-6 6zm0-2c2.21 0 4-1.79 4-4 0-2.208-1.79-4-4-4s-4 1.792-4 4c0 2.21 1.79 4 4 4z" opacity=".84"/>
    <path d="M121.7 829.4c-3.314 0-6-2.687-6-6 0-3.314 2.686-6 6-6 3.313 0 6 2.686 6 6 0 3.313-2.687 6-6 6zm0-2c2.208 0 4-1.79 4-4s-1.792-4-4-4c-2.21 0-4 1.79-4 4s1.79 4 4 4z" opacity=".99"/>
    <path d="M129.05 765.073c-3.315 0-6-2.686-6-6s2.685-6 6-6c3.312 0 6 2.686 6 6s-2.688 6-6 6zm0-2c2.208 0 4-1.79 4-4s-1.792-4-4-4c-2.21 0-4 1.79-4 4s1.79 4 4 4z" opacity=".95"/>
    <path d="M118.6 683.023c-3.314 0-6-2.686-6-6 0-3.313 2.686-6 6-6 3.313 0 6 2.687 6 6 0 3.314-2.687 6-6 6zm0-2c2.21 0 4-1.79 4-4s-1.79-4-4-4-4 1.79-4 4 1.79 4 4 4z" opacity=".98"/>
    <path d="M109.628 622.652c-3.314 0-6-2.686-6-6s2.686-6 6-6 6 2.686 6 6-2.686 6-6 6zm0-2c2.21 0 4-1.79 4-4s-1.79-4-4-4-4 1.79-4 4 1.79 4 4 4z" opacity=".9"/>
    <path d="M122.196 562.612c-3.314 0-6-2.687-6-6 0-3.314 2.686-6 6-6s6 2.686 6 6c0 3.313-2.686 6-6 6zm0-2c2.21 0 4-1.79 4-4s-1.79-4-4-4-4 1.79-4 4 1.79 4 4 4z" opacity=".97"/>
    <path d="M108.158 498.47c-3.313 0-6-2.685-6-6 0-3.312 2.687-6 6-6 3.314 0 6 2.688 6 6 0 3.315-2.686 6-6 6zm0-2c2.21 0 4-1.79 4-4 0-2.208-1.79-4-4-4s-4 1.792-4 4c0 2.21 1.79 4 4 4z" opacity=".72"/>
    <path d="M119.38 459.55c-3.314 0-6-2.686-6-6s2.686-6 6-6c3.313 0 6 2.686 6 6s-2.687 6-6 6zm0-2c2.21 0 4-1.79 4-4s-1.79-4-4-4-4 1.79-4 4 1.79 4 4 4z" opacity=".76"/>
    <path d="M107.953 389.892c-3.314 0-6-2.686-6-6s2.686-6 6-6c3.313 0 6 2.686 6 6s-2.687 6-6 6zm0-2c2.21 0 4-1.79 4-4s-1.79-4-4-4-4 1.79-4 4 1.79 4 4 4z" opacity=".82"/>
    <path d="M134.64 338.915c-3.314 0-6-2.686-6-6 0-3.313 2.686-6 6-6 3.313 0 6 2.687 6 6 0 3.314-2.687 6-6 6zm0-2c2.21 0 4-1.79 4-4s-1.79-4-4-4-4 1.79-4 4 1.79 4 4 4z" opacity=".77"/>
    <path d="M132.605 288.818c-3.313 0-6-2.687-6-6 0-3.314 2.687-6 6-6 3.314 0 6 2.686 6 6 0 3.313-2.686 6-6 6zm0-2c2.21 0 4-1.79 4-4s-1.79-4-4-4-4 1.79-4 4 1.79 4 4 4zm-1.102-82.434c-3.314 0-6-2.687-6-6 0-3.314 2.686-6 6-6s6 2.686 6 6c0 3.313-2.686 6-6 6zm0-2c2.21 0 4-1.79 4-4s-1.79-4-4-4-4 1.79-4 4 1.79 4 4 4z" opacity=".8"/>
    <path d="M131.675 165.21c-3.313 0-6-2.686-6-6s2.687-6 6-6c3.314 0 6 2.686 6 6s-2.686 6-6 6zm0-2c2.21 0 4-1.79 4-4s-1.79-4-4-4-4 1.79-4 4 1.79 4 4 4z" opacity=".86"/>
    <path d="M122.385 93.527c-3.313 0-6-2.686-6-6 0-3.313 2.687-6 6-6 3.314 0 6 2.687 6 6 0 3.314-2.686 6-6 6zm0-2c2.21 0 4-1.79 4-4s-1.79-4-4-4-4 1.79-4 4 1.79 4 4 4z" opacity=".73"/>
    <path d="M122.524 40.38c-3.313 0-6-2.686-6-6 0-3.313 2.687-6 6-6 3.314 0 6 2.687 6 6 0 3.314-2.686 6-6 6zm0-2c2.21 0 4-1.79 4-4s-1.79-4-4-4-4 1.79-4 4 1.79 4 4 4z" opacity=".89"/>
    <path d="M65.715 1166.36c-3.314 0-6-2.688-6-6 0-3.315 2.686-6 6-6s6 2.685 6 6c0 3.312-2.686 6-6 6zm0-2c2.21 0 4-1.792 4-4 0-2.21-1.79-4-4-4s-4 1.79-4 4c0 2.208 1.79 4 4 4z" opacity=".93"/>
    <path d="M69.798 1119.822c-3.314 0-6-2.686-6-6s2.686-6 6-6 6 2.686 6 6-2.686 6-6 6zm0-2c2.21 0 4-1.79 4-4s-1.79-4-4-4-4 1.79-4 4 1.79 4 4 4z" opacity=".85"/>
    <path d="M59.194 1045.678c-3.313 0-6-2.686-6-6s2.687-6 6-6c3.314 0 6 2.686 6 6s-2.686 6-6 6zm0-2c2.21 0 4-1.79 4-4s-1.79-4-4-4-4 1.79-4 4 1.79 4 4 4z" opacity=".91"/>
    <path d="M76.992 1004.908c-3.313 0-6-2.687-6-6 0-3.314 2.687-6 6-6 3.314 0 6 2.686 6 6 0 3.313-2.686 6-6 6zm0-2c2.21 0 4-1.79 4-4s-1.79-4-4-4-4 1.79-4 4 1.79 4 4 4z" opacity=".72"/>
    <path d="M59.37 915.205c-3.314 0-6-2.687-6-6 0-3.314 2.686-6 6-6 3.313 0 6 2.686 6 6 0 3.313-2.687 6-6 6zm0-2c2.21 0 4-1.79 4-4s-1.79-4-4-4-4 1.79-4 4 1.79 4 4 4z" opacity=".85"/>
    <path d="M65.276 853.89c-3.314 0-6-2.686-6-6 0-3.313 2.686-6 6-6 3.313 0 6 2.687 6 6 0 3.314-2.687 6-6 6zm0-2c2.21 0 4-1.79 4-4 0-2.208-1.79-4-4-4s-4 1.792-4 4c0 2.21 1.79 4 4 4z" opacity=".89"/>
    <path d="M56.524 800.936c-3.314 0-6-2.686-6-6 0-3.313 2.686-6 6-6s6 2.687 6 6c0 3.314-2.686 6-6 6zm0-2c2.21 0 4-1.79 4-4s-1.79-4-4-4-4 1.79-4 4 1.79 4 4 4z" opacity=".71"/>
    <path d="M76.25 749.276c-3.313 0-6-2.686-6-6s2.687-6 6-6c3.315 0 6 2.686 6 6s-2.685 6-6 6zm0-2c2.21 0 4-1.79 4-4s-1.79-4-4-4c-2.208 0-4 1.79-4 4s1.792 4 4 4z" opacity=".81"/>
    <path d="M73.545 708.02c-3.313 0-6-2.686-6-6 0-3.313 2.687-6 6-6 3.314 0 6 2.687 6 6 0 3.314-2.686 6-6 6zm0-2c2.21 0 4-1.79 4-4s-1.79-4-4-4-4 1.79-4 4 1.79 4 4 4z" opacity=".89"/>
    <path d="M76.365 629.13c-3.314 0-6-2.687-6-6 0-3.314 2.686-6 6-6 3.313 0 6 2.686 6 6 0 3.313-2.687 6-6 6zm0-2c2.21 0 4-1.79 4-4s-1.79-4-4-4-4 1.79-4 4 1.79 4 4 4z" opacity=".98"/>
    <path d="M56.097 554.648c-3.314 0-6-2.686-6-6s2.686-6 6-6c3.313 0 6 2.686 6 6s-2.687 6-6 6zm0-2c2.21 0 4-1.79 4-4s-1.79-4-4-4-4 1.79-4 4 1.79 4 4 4z" opacity=".99"/>
    <path d="M64.22 518.204c-3.313 0-6-2.686-6-6s2.687-6 6-6c3.314 0 6 2.686 6 6s-2.686 6-6 6zm0-2c2.21 0 4-1.79 4-4s-1.79-4-4-4c-2.208 0-4 1.79-4 4s1.792 4 4 4z" opacity=".88"/>
    <path d="M56.4 444.152c-3.313 0-6-2.686-6-6s2.687-6 6-6c3.315 0 6 2.686 6 6s-2.685 6-6 6zm0-2c2.21 0 4-1.79 4-4s-1.79-4-4-4c-2.208 0-4 1.79-4 4s1.792 4 4 4z" opacity=".97"/>
    <path d="M61.516 377.836c-3.314 0-6-2.687-6-6 0-3.314 2.686-6 6-6 3.313 0 6 2.686 6 6 0 3.313-2.687 6-6 6zm0-2c2.21 0 4-1.79 4-4s-1.79-4-4-4-4 1.79-4 4 1.79 4 4 4z" opacity=".95"/>
    <path d="M70.876 332.298c-3.314 0-6-2.687-6-6 0-3.314 2.686-6 6-6 3.313 0 6 2.686 6 6 0 3.313-2.687 6-6 6zm0-2c2.21 0 4-1.79 4-4s-1.79-4-4-4-4 1.79-4 4 1.79 4 4 4zm-3.39-73.852c-3.312 0-6-2.686-6-6s2.688-6 6-6c3.315 0 6 2.686 6 6s-2.685 6-6 6zm0-2c2.21 0 4-1.79 4-4s-1.79-4-4-4c-2.208 0-4 1.79-4 4s1.792 4 4 4z" opacity=".76"/>
    <path d="M74.392 223.683c-3.314 0-6-2.686-6-6s2.686-6 6-6 6 2.686 6 6-2.686 6-6 6zm0-2c2.21 0 4-1.79 4-4s-1.79-4-4-4-4 1.79-4 4 1.79 4 4 4z" opacity=".79"/>
    <path d="M73.092 136.05c-3.313 0-6-2.685-6-6 0-3.312 2.687-6 6-6 3.314 0 6 2.688 6 6 0 3.315-2.686 6-6 6zm0-2c2.21 0 4-1.79 4-4 0-2.208-1.79-4-4-4s-4 1.792-4 4c0 2.21 1.79 4 4 4z" opacity=".96"/>
    <path d="M74.62 80.1c-3.315 0-6-2.685-6-6 0-3.312 2.685-6 6-6 3.313 0 6 2.688 6 6 0 3.315-2.687 6-6 6zm0-2c2.208 0 4-1.79 4-4 0-2.208-1.792-4-4-4-2.21 0-4 1.792-4 4 0 2.21 1.79 4 4 4z" opacity=".78"/>
    <path d="M65.373 43.443c-3.313 0-6-2.686-6-6 0-3.313 2.687-6 6-6 3.314 0 6 2.687 6 6 0 3.314-2.686 6-6 6zm0-2c2.21 0 4-1.79 4-4s-1.79-4-4-4-4 1.79-4 4 1.79 4 4 4z" opacity=".7"/>
    <path d="M27.19 1188.1c-3.315 0-6-2.687-6-6 0-3.314 2.685-6 6-6 3.313 0 6 2.686 6 6 0 3.313-2.687 6-6 6zm0-2c2.208 0 4-1.792 4-4 0-2.21-1.792-4-4-4-2.21 0-4 1.79-4 4 0 2.208 1.79 4 4 4z" opacity=".77"/>
    <path d="M13.447 1105.853c-3.314 0-6-2.686-6-6s2.686-6 6-6c3.313 0 6 2.686 6 6s-2.687 6-6 6zm0-2c2.21 0 4-1.79 4-4s-1.79-4-4-4-4 1.79-4 4 1.79 4 4 4z"/>
    <path d="M12.28 1068.342c-3.315 0-6-2.686-6-6s2.685-6 6-6c3.313 0 6 2.686 6 6s-2.687 6-6 6zm0-2c2.208 0 4-1.79 4-4s-1.792-4-4-4c-2.21 0-4 1.79-4 4s1.79 4 4 4z" opacity=".82"/>
    <path d="M14.205 976.873c-3.314 0-6-2.686-6-6s2.686-6 6-6 6 2.686 6 6-2.686 6-6 6zm0-2c2.21 0 4-1.79 4-4s-1.79-4-4-4-4 1.79-4 4 1.79 4 4 4z" opacity=".91"/>
    <path d="M20.47 938.535c-3.313 0-6-2.686-6-6s2.687-6 6-6c3.315 0 6 2.686 6 6s-2.685 6-6 6zm0-2c2.21 0 4-1.79 4-4s-1.79-4-4-4c-2.208 0-4 1.79-4 4s1.792 4 4 4z" opacity=".97"/>
    <path d="M30.765 891.406c-3.313 0-6-2.686-6-6 0-3.313 2.687-6 6-6 3.314 0 6 2.687 6 6 0 3.314-2.686 6-6 6zm0-2c2.21 0 4-1.79 4-4s-1.79-4-4-4-4 1.79-4 4 1.79 4 4 4z" opacity=".95"/>
    <path d="M18.123 826.852c-3.313 0-6-2.686-6-6 0-3.313 2.687-6 6-6 3.314 0 6 2.687 6 6 0 3.314-2.686 6-6 6zm0-2c2.21 0 4-1.79 4-4s-1.79-4-4-4-4 1.79-4 4 1.79 4 4 4z" opacity=".96"/>
    <path d="M33.12 738.85c-3.315 0-6-2.686-6-6s2.685-6 6-6c3.312 0 6 2.686 6 6s-2.688 6-6 6zm0-2c2.208 0 4-1.79 4-4s-1.792-4-4-4c-2.21 0-4 1.79-4 4s1.79 4 4 4z" opacity=".97"/>
    <path d="M21.986 682.376c-3.314 0-6-2.686-6-6 0-3.313 2.686-6 6-6s6 2.687 6 6c0 3.314-2.686 6-6 6zm0-2c2.21 0 4-1.79 4-4s-1.79-4-4-4-4 1.79-4 4 1.79 4 4 4z" opacity=".95"/>
    <path d="M21.295 649.298c-3.314 0-6-2.686-6-6s2.686-6 6-6 6 2.686 6 6-2.686 6-6 6zm0-2c2.21 0 4-1.79 4-4s-1.79-4-4-4-4 1.79-4 4 1.79 4 4 4zm-11.154-58.55c-3.313 0-6-2.687-6-6 0-3.315 2.687-6 6-6 3.315 0 6 2.685 6 6 0 3.313-2.685 6-6 6zm0-2c2.21 0 4-1.792 4-4 0-2.21-1.79-4-4-4-2.208 0-4 1.79-4 4 0 2.208 1.792 4 4 4z" opacity=".71"/>
    <path d="M20.56 492.88c-3.314 0-6-2.688-6-6 0-3.315 2.686-6 6-6 3.313 0 6 2.685 6 6 0 3.312-2.687 6-6 6zm0-2c2.208 0 4-1.792 4-4 0-2.21-1.792-4-4-4-2.21 0-4 1.79-4 4 0 2.208 1.79 4 4 4z" opacity=".73"/>
    <path d="M7.888 445.838c-3.313 0-6-2.687-6-6 0-3.314 2.687-6 6-6 3.314 0 6 2.686 6 6 0 3.313-2.686 6-6 6zm0-2c2.21 0 4-1.79 4-4s-1.79-4-4-4-4 1.79-4 4 1.79 4 4 4z" opacity=".78"/>
    <path d="M9.496 384.35c-3.314 0-6-2.687-6-6 0-3.314 2.686-6 6-6 3.313 0 6 2.686 6 6 0 3.313-2.687 6-6 6zm0-2c2.21 0 4-1.792 4-4 0-2.21-1.79-4-4-4s-4 1.79-4 4c0 2.208 1.79 4 4 4z" opacity=".81"/>
    <path d="M16.252 322.452c-3.314 0-6-2.686-6-6 0-3.313 2.686-6 6-6 3.313 0 6 2.687 6 6 0 3.314-2.687 6-6 6zm0-2c2.21 0 4-1.79 4-4s-1.79-4-4-4-4 1.79-4 4 1.79 4 4 4z" opacity=".83"/>
    <path d="M29.006 283.976c-3.314 0-6-2.687-6-6 0-3.314 2.686-6 6-6s6 2.686 6 6c0 3.313-2.686 6-6 6zm0-2c2.21 0 4-1.79 4-4s-1.79-4-4-4-4 1.79-4 4 1.79 4 4 4zm2.767-77.873c-3.314 0-6-2.686-6-6s2.686-6 6-6c3.313 0 6 2.686 6 6s-2.687 6-6 6zm0-2c2.21 0 4-1.79 4-4s-1.79-4-4-4-4 1.79-4 4 1.79 4 4 4z" opacity=".71"/>
    <path d="M24.606 168.068c-3.314 0-6-2.686-6-6 0-3.313 2.686-6 6-6s6 2.687 6 6c0 3.314-2.686 6-6 6zm0-2c2.21 0 4-1.79 4-4s-1.79-4-4-4-4 1.79-4 4 1.79 4 4 4z" opacity=".98"/>
    <path d="M6.1 96.97c-3.314 0-6-2.687-6-6 0-3.314 2.686-6 6-6 3.313 0 6 2.686 6 6 0 3.313-2.687 6-6 6zm0-2c2.21 0 4-1.79 4-4s-1.79-4-4-4-4 1.79-4 4 1.79 4 4 4z" opacity=".79"/>
    <path d="M27.896 23.088c-3.313 0-6-2.686-6-6 0-3.313 2.687-6 6-6 3.314 0 6 2.687 6 6 0 3.314-2.686 6-6 6zm0-2c2.21 0 4-1.79 4-4s-1.79-4-4-4-4 1.79-4 4 1.79 4 4 4z" opacity=".71"/>
  </g>
</svg>
