<svg width="1200" height="1200" xmlns="http://www.w3.org/2000/svg">
  <g fill="#EBA32F" fill-rule="evenodd" opacity=".5">
    <path d="M1175.475 1174.094c-3.314 0-6-2.687-6-6 0-3.314 2.686-6 6-6s6 2.686 6 6c0 3.313-2.686 6-6 6zm0-2c2.21 0 4-1.79 4-4s-1.79-4-4-4-4 1.79-4 4 1.79 4 4 4zM1161.33 1102.41c-3.313 0-6-2.687-6-6 0-3.315 2.687-6 6-6 3.315 0 6 2.685 6 6 0 3.313-2.685 6-6 6zm0-2c2.21 0 4-1.792 4-4 0-2.21-1.79-4-4-4-2.208 0-4 1.79-4 4 0 2.208 1.792 4 4 4zM1160.273 1067.94c-3.313 0-6-2.686-6-6s2.687-6 6-6c3.314 0 6 2.686 6 6s-2.686 6-6 6zm0-2c2.21 0 4-1.79 4-4s-1.79-4-4-4-4 1.79-4 4 1.79 4 4 4zM1175.333 981.212c-3.314 0-6-2.686-6-6s2.686-6 6-6 6 2.686 6 6-2.686 6-6 6zm0-2c2.21 0 4-1.79 4-4s-1.79-4-4-4-4 1.79-4 4 1.79 4 4 4zM1169.535 928.204c-3.314 0-6-2.686-6-6 0-3.313 2.686-6 6-6 3.313 0 6 2.687 6 6 0 3.314-2.687 6-6 6zm0-2c2.21 0 4-1.79 4-4s-1.79-4-4-4-4 1.79-4 4 1.79 4 4 4zM1181.785 862.138c-3.314 0-6-2.686-6-6s2.686-6 6-6c3.313 0 6 2.686 6 6s-2.687 6-6 6zm0-2c2.21 0 4-1.79 4-4s-1.79-4-4-4-4 1.79-4 4 1.79 4 4 4zM1177.883 813.423c-3.314 0-6-2.687-6-6 0-3.314 2.686-6 6-6 3.313 0 6 2.686 6 6 0 3.313-2.687 6-6 6zm0-2c2.21 0 4-1.79 4-4s-1.79-4-4-4-4 1.79-4 4 1.79 4 4 4zM1174.49 756.462c-3.315 0-6-2.686-6-6s2.685-6 6-6c3.312 0 6 2.686 6 6s-2.688 6-6 6zm0-2c2.208 0 4-1.79 4-4s-1.792-4-4-4c-2.21 0-4 1.79-4 4s1.79 4 4 4zM1160.997 686.388c-3.314 0-6-2.687-6-6 0-3.314 2.686-6 6-6s6 2.686 6 6c0 3.313-2.686 6-6 6zm0-2c2.21 0 4-1.79 4-4s-1.79-4-4-4-4 1.79-4 4 1.79 4 4 4zM1161.932 616.068c-3.313 0-6-2.686-6-6 0-3.313 2.687-6 6-6 3.314 0 6 2.687 6 6 0 3.314-2.686 6-6 6zm0-2c2.21 0 4-1.79 4-4s-1.79-4-4-4-4 1.79-4 4 1.79 4 4 4zM1173.47 566.215c-3.313 0-6-2.686-6-6 0-3.313 2.687-6 6-6 3.315 0 6 2.687 6 6 0 3.314-2.685 6-6 6zm0-2c2.21 0 4-1.79 4-4s-1.79-4-4-4c-2.208 0-4 1.79-4 4s1.792 4 4 4zM1156.55 530.5c-3.312 0-6-2.686-6-6 0-3.313 2.688-6 6-6 3.315 0 6 2.687 6 6 0 3.314-2.685 6-6 6zm0-2c2.21 0 4-1.79 4-4s-1.79-4-4-4c-2.208 0-4 1.79-4 4s1.792 4 4 4zM1168.575 448.694c-3.314 0-6-2.686-6-6s2.686-6 6-6c3.313 0 6 2.686 6 6s-2.687 6-6 6zm0-2c2.21 0 4-1.79 4-4s-1.79-4-4-4-4 1.79-4 4 1.79 4 4 4zM1158.988 372.886c-3.313 0-6-2.686-6-6s2.687-6 6-6c3.314 0 6 2.686 6 6s-2.686 6-6 6zm0-2c2.21 0 4-1.79 4-4s-1.79-4-4-4-4 1.79-4 4 1.79 4 4 4zM1178.03 344.027c-3.315 0-6-2.686-6-6 0-3.313 2.685-6 6-6 3.312 0 6 2.687 6 6 0 3.314-2.688 6-6 6zm0-2c2.208 0 4-1.79 4-4s-1.792-4-4-4c-2.21 0-4 1.79-4 4s1.79 4 4 4zM1163.982 290.438c-3.314 0-6-2.687-6-6 0-3.314 2.686-6 6-6 3.313 0 6 2.686 6 6 0 3.313-2.687 6-6 6zm0-2c2.21 0 4-1.79 4-4s-1.79-4-4-4-4 1.79-4 4 1.79 4 4 4zM1183.847 228.11c-3.314 0-6-2.686-6-6 0-3.313 2.686-6 6-6 3.313 0 6 2.687 6 6 0 3.314-2.687 6-6 6zm0-2c2.21 0 4-1.79 4-4s-1.79-4-4-4-4 1.79-4 4 1.79 4 4 4zM1166.622 142.358c-3.314 0-6-2.686-6-6s2.686-6 6-6 6 2.686 6 6-2.686 6-6 6zm0-2c2.21 0 4-1.79 4-4s-1.79-4-4-4-4 1.79-4 4 1.79 4 4 4zM1173.21 88.11c-3.314 0-6-2.687-6-6 0-3.314 2.686-6 6-6s6 2.686 6 6c0 3.313-2.686 6-6 6zm0-2c2.21 0 4-1.792 4-4 0-2.21-1.79-4-4-4s-4 1.79-4 4c0 2.208 1.79 4 4 4zM1181.72 33.67c-3.315 0-6-2.686-6-6s2.685-6 6-6c3.313 0 6 2.686 6 6s-2.687 6-6 6zm0-2c2.208 0 4-1.79 4-4s-1.792-4-4-4c-2.21 0-4 1.79-4 4s1.79 4 4 4zM1121.34 1185.128c-3.313 0-6-2.687-6-6 0-3.314 2.687-6 6-6 3.314 0 6 2.686 6 6 0 3.313-2.686 6-6 6zm0-2c2.21 0 4-1.79 4-4s-1.79-4-4-4-4 1.79-4 4 1.79 4 4 4zM1123.805 1110.115c-3.314 0-6-2.687-6-6 0-3.314 2.686-6 6-6s6 2.686 6 6c0 3.313-2.686 6-6 6zm0-2c2.21 0 4-1.79 4-4s-1.79-4-4-4-4 1.79-4 4 1.79 4 4 4zM1134.584 1069.37c-3.314 0-6-2.685-6-6 0-3.313 2.686-6 6-6s6 2.687 6 6c0 3.315-2.686 6-6 6zm0-2c2.21 0 4-1.79 4-4 0-2.208-1.79-4-4-4s-4 1.792-4 4c0 2.21 1.79 4 4 4zM1117.494 985.373c-3.314 0-6-2.687-6-6 0-3.314 2.686-6 6-6s6 2.686 6 6c0 3.313-2.686 6-6 6zm0-2c2.21 0 4-1.79 4-4s-1.79-4-4-4-4 1.79-4 4 1.79 4 4 4zM1120.137 925.28c-3.314 0-6-2.686-6-6s2.686-6 6-6 6 2.686 6 6-2.686 6-6 6zm0-2c2.21 0 4-1.79 4-4s-1.79-4-4-4-4 1.79-4 4 1.79 4 4 4zM1122.47 866.59c-3.315 0-6-2.686-6-6s2.685-6 6-6c3.313 0 6 2.686 6 6s-2.687 6-6 6zm0-2c2.208 0 4-1.79 4-4s-1.792-4-4-4c-2.21 0-4 1.79-4 4s1.79 4 4 4zM1122.67 827.64c-3.312 0-6-2.687-6-6 0-3.314 2.688-6 6-6 3.315 0 6 2.686 6 6 0 3.313-2.685 6-6 6zm0-2c2.21 0 4-1.79 4-4s-1.79-4-4-4c-2.208 0-4 1.79-4 4s1.792 4 4 4zM1124.277 757.47c-3.314 0-6-2.685-6-6 0-3.312 2.686-6 6-6s6 2.688 6 6c0 3.315-2.686 6-6 6zm0-2c2.21 0 4-1.79 4-4 0-2.208-1.79-4-4-4s-4 1.792-4 4c0 2.21 1.79 4 4 4zM1110.192 704.407c-3.314 0-6-2.686-6-6s2.686-6 6-6 6 2.686 6 6-2.686 6-6 6zm0-2c2.21 0 4-1.79 4-4s-1.79-4-4-4-4 1.79-4 4 1.79 4 4 4zM1115.518 647.45c-3.313 0-6-2.687-6-6 0-3.315 2.687-6 6-6 3.314 0 6 2.685 6 6 0 3.313-2.686 6-6 6zm0-2c2.21 0 4-1.792 4-4 0-2.21-1.79-4-4-4s-4 1.79-4 4c0 2.208 1.79 4 4 4zM1112.85 552.124c-3.313 0-6-2.686-6-6s2.687-6 6-6c3.314 0 6 2.686 6 6s-2.686 6-6 6zm0-2c2.21 0 4-1.79 4-4s-1.79-4-4-4-4 1.79-4 4 1.79 4 4 4zM1120.023 520.61c-3.314 0-6-2.686-6-6s2.686-6 6-6 6 2.686 6 6-2.686 6-6 6zm0-2c2.21 0 4-1.79 4-4s-1.79-4-4-4-4 1.79-4 4 1.79 4 4 4zM1126.87 466.575c-3.315 0-6-2.687-6-6 0-3.314 2.685-6 6-6 3.312 0 6 2.686 6 6 0 3.313-2.688 6-6 6zm0-2c2.208 0 4-1.79 4-4s-1.792-4-4-4c-2.21 0-4 1.79-4 4s1.79 4 4 4zM1121.873 378.037c-3.314 0-6-2.686-6-6s2.686-6 6-6 6 2.686 6 6-2.686 6-6 6zm0-2c2.21 0 4-1.79 4-4s-1.79-4-4-4-4 1.79-4 4 1.79 4 4 4zM1112.024 328.34c-3.314 0-6-2.686-6-6 0-3.313 2.686-6 6-6 3.313 0 6 2.687 6 6 0 3.314-2.687 6-6 6zm0-2c2.21 0 4-1.79 4-4 0-2.208-1.79-4-4-4s-4 1.792-4 4c0 2.21 1.79 4 4 4zM1135.83 274.322c-3.314 0-6-2.686-6-6 0-3.313 2.686-6 6-6 3.313 0 6 2.687 6 6 0 3.314-2.687 6-6 6zm0-2c2.21 0 4-1.79 4-4s-1.79-4-4-4-4 1.79-4 4 1.79 4 4 4zM1110.093 216.98c-3.314 0-6-2.687-6-6 0-3.315 2.686-6 6-6 3.313 0 6 2.685 6 6 0 3.313-2.687 6-6 6zm0-2c2.21 0 4-1.792 4-4 0-2.21-1.79-4-4-4s-4 1.79-4 4c0 2.208 1.79 4 4 4zM1110.728 164.84c-3.313 0-6-2.686-6-6 0-3.313 2.687-6 6-6 3.314 0 6 2.687 6 6 0 3.314-2.686 6-6 6zm0-2c2.21 0 4-1.79 4-4s-1.79-4-4-4-4 1.79-4 4 1.79 4 4 4zM1134.15 88.597c-3.314 0-6-2.686-6-6 0-3.313 2.686-6 6-6 3.313 0 6 2.687 6 6 0 3.314-2.687 6-6 6zm0-2c2.208 0 4-1.79 4-4s-1.792-4-4-4c-2.21 0-4 1.79-4 4s1.79 4 4 4zM1112.19 48.068c-3.314 0-6-2.686-6-6s2.686-6 6-6c3.313 0 6 2.686 6 6s-2.687 6-6 6zm0-2c2.208 0 4-1.79 4-4s-1.792-4-4-4c-2.21 0-4 1.79-4 4s1.79 4 4 4zM1063.035 1183.988c-3.313 0-6-2.686-6-6s2.687-6 6-6c3.314 0 6 2.686 6 6s-2.686 6-6 6zm0-2c2.21 0 4-1.79 4-4s-1.79-4-4-4-4 1.79-4 4 1.79 4 4 4zM1067.398 1093.91c-3.314 0-6-2.685-6-6 0-3.312 2.686-6 6-6 3.313 0 6 2.688 6 6 0 3.315-2.687 6-6 6zm0-2c2.21 0 4-1.79 4-4 0-2.208-1.79-4-4-4s-4 1.792-4 4c0 2.21 1.79 4 4 4zM1070.366 1066.194c-3.313 0-6-2.687-6-6 0-3.314 2.687-6 6-6 3.314 0 6 2.686 6 6 0 3.313-2.686 6-6 6zm0-2c2.21 0 4-1.79 4-4s-1.79-4-4-4-4 1.79-4 4 1.79 4 4 4zM1078.928 1009.673c-3.313 0-6-2.686-6-6s2.687-6 6-6c3.314 0 6 2.686 6 6s-2.686 6-6 6zm0-2c2.21 0 4-1.79 4-4s-1.79-4-4-4-4 1.79-4 4 1.79 4 4 4zM1082.793 949.227c-3.314 0-6-2.686-6-6 0-3.313 2.686-6 6-6s6 2.687 6 6c0 3.314-2.686 6-6 6zm0-2c2.21 0 4-1.79 4-4s-1.79-4-4-4-4 1.79-4 4 1.79 4 4 4zM1058.497 865.977c-3.314 0-6-2.687-6-6 0-3.314 2.686-6 6-6s6 2.686 6 6c0 3.313-2.686 6-6 6zm0-2c2.21 0 4-1.79 4-4s-1.79-4-4-4-4 1.79-4 4 1.79 4 4 4zM1058.837 809.576c-3.314 0-6-2.686-6-6s2.686-6 6-6 6 2.686 6 6-2.686 6-6 6zm0-2c2.21 0 4-1.79 4-4s-1.79-4-4-4-4 1.79-4 4 1.79 4 4 4zM1069.773 755.025c-3.314 0-6-2.686-6-6 0-3.313 2.686-6 6-6s6 2.687 6 6c0 3.314-2.686 6-6 6zm0-2c2.21 0 4-1.79 4-4s-1.79-4-4-4-4 1.79-4 4 1.79 4 4 4zM1063.208 672.184c-3.314 0-6-2.686-6-6s2.686-6 6-6c3.313 0 6 2.686 6 6s-2.687 6-6 6zm0-2c2.21 0 4-1.79 4-4s-1.79-4-4-4-4 1.79-4 4 1.79 4 4 4zM1083.23 637.69c-3.314 0-6-2.687-6-6 0-3.315 2.686-6 6-6 3.313 0 6 2.685 6 6 0 3.313-2.687 6-6 6zm0-2c2.21 0 4-1.792 4-4 0-2.21-1.79-4-4-4s-4 1.79-4 4c0 2.208 1.79 4 4 4zM1085.587 557.905c-3.314 0-6-2.686-6-6 0-3.313 2.686-6 6-6 3.313 0 6 2.687 6 6 0 3.314-2.687 6-6 6zm0-2c2.21 0 4-1.79 4-4s-1.79-4-4-4-4 1.79-4 4 1.79 4 4 4zM1056.314 505.2c-3.313 0-6-2.686-6-6s2.687-6 6-6c3.314 0 6 2.686 6 6s-2.686 6-6 6zm0-2c2.21 0 4-1.79 4-4s-1.79-4-4-4-4 1.79-4 4 1.79 4 4 4zM1070.756 460.9c-3.314 0-6-2.686-6-6s2.686-6 6-6 6 2.686 6 6-2.686 6-6 6zm0-2c2.21 0 4-1.79 4-4s-1.79-4-4-4-4 1.79-4 4 1.79 4 4 4zM1058.14 405.303c-3.314 0-6-2.686-6-6s2.686-6 6-6 6 2.686 6 6-2.686 6-6 6zm0-2c2.21 0 4-1.79 4-4s-1.79-4-4-4-4 1.79-4 4 1.79 4 4 4zM1073.09 317.96c-3.315 0-6-2.685-6-6 0-3.313 2.685-6 6-6 3.313 0 6 2.687 6 6 0 3.315-2.687 6-6 6zm0-2c2.208 0 4-1.79 4-4 0-2.208-1.792-4-4-4-2.21 0-4 1.792-4 4 0 2.21 1.79 4 4 4zM1066.707 267.533c-3.314 0-6-2.686-6-6 0-3.313 2.686-6 6-6s6 2.687 6 6c0 3.314-2.686 6-6 6zm0-2c2.21 0 4-1.79 4-4s-1.79-4-4-4-4 1.79-4 4 1.79 4 4 4zM1057.377 229.71c-3.314 0-6-2.686-6-6s2.686-6 6-6c3.313 0 6 2.686 6 6s-2.687 6-6 6zm0-2c2.21 0 4-1.79 4-4s-1.79-4-4-4-4 1.79-4 4 1.79 4 4 4zM1060.57 169.698c-3.313 0-6-2.686-6-6s2.687-6 6-6c3.314 0 6 2.686 6 6s-2.686 6-6 6zm0-2c2.21 0 4-1.79 4-4s-1.79-4-4-4-4 1.79-4 4 1.79 4 4 4zM1056.588 95.803c-3.314 0-6-2.686-6-6s2.686-6 6-6c3.313 0 6 2.686 6 6s-2.687 6-6 6zm0-2c2.21 0 4-1.79 4-4s-1.79-4-4-4-4 1.79-4 4 1.79 4 4 4zM1067.687 20.544c-3.314 0-6-2.687-6-6 0-3.314 2.686-6 6-6s6 2.686 6 6c0 3.313-2.686 6-6 6zm0-2c2.21 0 4-1.79 4-4s-1.79-4-4-4-4 1.79-4 4 1.79 4 4 4zM1014.99 1168.495c-3.314 0-6-2.687-6-6 0-3.314 2.686-6 6-6s6 2.686 6 6c0 3.313-2.686 6-6 6zm0-2c2.21 0 4-1.79 4-4s-1.79-4-4-4-4 1.79-4 4 1.79 4 4 4zM1024.53 1123.67c-3.313 0-6-2.685-6-6 0-3.312 2.687-6 6-6 3.314 0 6 2.688 6 6 0 3.315-2.686 6-6 6zm0-2c2.21 0 4-1.79 4-4 0-2.208-1.79-4-4-4-2.208 0-4 1.792-4 4 0 2.21 1.792 4 4 4zM1035.12 1070.554c-3.313 0-6-2.686-6-6 0-3.313 2.687-6 6-6 3.315 0 6 2.687 6 6 0 3.314-2.685 6-6 6zm0-2c2.21 0 4-1.79 4-4s-1.79-4-4-4c-2.208 0-4 1.79-4 4s1.792 4 4 4zM1022.358 991.94c-3.313 0-6-2.685-6-6 0-3.313 2.687-6 6-6 3.314 0 6 2.687 6 6 0 3.315-2.686 6-6 6zm0-2c2.21 0 4-1.79 4-4 0-2.208-1.79-4-4-4s-4 1.792-4 4c0 2.21 1.79 4 4 4zM1026.286 946.92c-3.314 0-6-2.687-6-6 0-3.314 2.686-6 6-6s6 2.686 6 6c0 3.313-2.686 6-6 6zm0-2c2.21 0 4-1.79 4-4s-1.79-4-4-4-4 1.79-4 4 1.79 4 4 4zM1028.202 883.095c-3.314 0-6-2.686-6-6s2.686-6 6-6c3.313 0 6 2.686 6 6s-2.687 6-6 6zm0-2c2.21 0 4-1.79 4-4s-1.79-4-4-4-4 1.79-4 4 1.79 4 4 4zM1031.148 805.843c-3.313 0-6-2.687-6-6 0-3.314 2.687-6 6-6 3.314 0 6 2.686 6 6 0 3.313-2.686 6-6 6zm0-2c2.21 0 4-1.79 4-4s-1.79-4-4-4-4 1.79-4 4 1.79 4 4 4zM1025.518 762.847c-3.314 0-6-2.686-6-6 0-3.313 2.686-6 6-6 3.313 0 6 2.687 6 6 0 3.314-2.687 6-6 6zm0-2c2.21 0 4-1.79 4-4s-1.79-4-4-4-4 1.79-4 4 1.79 4 4 4zM1013.673 677.86c-3.314 0-6-2.685-6-6 0-3.313 2.686-6 6-6s6 2.687 6 6c0 3.315-2.686 6-6 6zm0-2c2.21 0 4-1.79 4-4 0-2.208-1.79-4-4-4s-4 1.792-4 4c0 2.21 1.79 4 4 4zM1009.965 648.785c-3.314 0-6-2.686-6-6 0-3.313 2.686-6 6-6s6 2.687 6 6c0 3.314-2.686 6-6 6zm0-2c2.21 0 4-1.79 4-4s-1.79-4-4-4-4 1.79-4 4 1.79 4 4 4zM1030.688 578.287c-3.313 0-6-2.686-6-6 0-3.313 2.687-6 6-6 3.314 0 6 2.687 6 6 0 3.314-2.686 6-6 6zm0-2c2.21 0 4-1.79 4-4s-1.79-4-4-4-4 1.79-4 4 1.79 4 4 4zM1017.636 520.45c-3.314 0-6-2.688-6-6 0-3.315 2.686-6 6-6s6 2.685 6 6c0 3.312-2.686 6-6 6zm0-2c2.21 0 4-1.792 4-4 0-2.21-1.79-4-4-4s-4 1.79-4 4c0 2.208 1.79 4 4 4zM1006.63 445.44c-3.315 0-6-2.686-6-6 0-3.313 2.685-6 6-6 3.312 0 6 2.687 6 6 0 3.314-2.688 6-6 6zm0-2c2.208 0 4-1.79 4-4 0-2.208-1.792-4-4-4-2.21 0-4 1.792-4 4 0 2.21 1.79 4 4 4zM1034.82 380.596c-3.313 0-6-2.686-6-6 0-3.313 2.687-6 6-6 3.314 0 6 2.687 6 6 0 3.314-2.686 6-6 6zm0-2c2.21 0 4-1.79 4-4s-1.79-4-4-4-4 1.79-4 4 1.79 4 4 4zM1017.743 336.122c-3.314 0-6-2.686-6-6s2.686-6 6-6c3.313 0 6 2.686 6 6s-2.687 6-6 6zm0-2c2.21 0 4-1.79 4-4s-1.79-4-4-4-4 1.79-4 4 1.79 4 4 4zM1016.205 286.728c-3.314 0-6-2.687-6-6 0-3.314 2.686-6 6-6s6 2.686 6 6c0 3.313-2.686 6-6 6zm0-2c2.21 0 4-1.79 4-4s-1.79-4-4-4-4 1.79-4 4 1.79 4 4 4zM1035.264 216.55c-3.314 0-6-2.687-6-6 0-3.314 2.686-6 6-6s6 2.686 6 6c0 3.313-2.686 6-6 6zm0-2c2.21 0 4-1.79 4-4s-1.79-4-4-4-4 1.79-4 4 1.79 4 4 4zM1008.358 142.84c-3.314 0-6-2.686-6-6s2.686-6 6-6 6 2.686 6 6-2.686 6-6 6zm0-2c2.21 0 4-1.79 4-4s-1.79-4-4-4-4 1.79-4 4 1.79 4 4 4zM1019.43 94.376c-3.315 0-6-2.686-6-6 0-3.313 2.685-6 6-6 3.313 0 6 2.687 6 6 0 3.314-2.687 6-6 6zm0-2c2.208 0 4-1.79 4-4s-1.792-4-4-4c-2.21 0-4 1.79-4 4s1.79 4 4 4zM1028.275 35.335c-3.314 0-6-2.687-6-6 0-3.314 2.686-6 6-6 3.313 0 6 2.686 6 6 0 3.313-2.687 6-6 6zm0-2c2.21 0 4-1.79 4-4s-1.79-4-4-4-4 1.79-4 4 1.79 4 4 4zM960.467 1153.237c-3.314 0-6-2.686-6-6s2.686-6 6-6 6 2.686 6 6-2.686 6-6 6zm0-2c2.21 0 4-1.79 4-4s-1.79-4-4-4-4 1.79-4 4 1.79 4 4 4zM983.372 1126.46c-3.313 0-6-2.686-6-6 0-3.313 2.687-6 6-6 3.314 0 6 2.687 6 6 0 3.314-2.686 6-6 6zm0-2c2.21 0 4-1.79 4-4s-1.79-4-4-4-4 1.79-4 4 1.79 4 4 4zM982.033 1068.7c-3.314 0-6-2.687-6-6 0-3.315 2.686-6 6-6s6 2.685 6 6c0 3.313-2.686 6-6 6zm0-2c2.21 0 4-1.792 4-4 0-2.21-1.79-4-4-4s-4 1.79-4 4c0 2.208 1.79 4 4 4zM964.117 976.673c-3.314 0-6-2.687-6-6 0-3.314 2.686-6 6-6s6 2.686 6 6c0 3.313-2.686 6-6 6zm0-2c2.21 0 4-1.79 4-4s-1.79-4-4-4-4 1.79-4 4 1.79 4 4 4zM975.804 928.186c-3.313 0-6-2.687-6-6 0-3.314 2.687-6 6-6 3.314 0 6 2.686 6 6 0 3.313-2.686 6-6 6zm0-2c2.21 0 4-1.79 4-4s-1.79-4-4-4-4 1.79-4 4 1.79 4 4 4zM982.204 868.768c-3.314 0-6-2.686-6-6 0-3.313 2.686-6 6-6s6 2.687 6 6c0 3.314-2.686 6-6 6zm0-2c2.21 0 4-1.79 4-4s-1.79-4-4-4-4 1.79-4 4 1.79 4 4 4zM962.26 810.843c-3.315 0-6-2.687-6-6 0-3.314 2.685-6 6-6 3.313 0 6 2.686 6 6 0 3.313-2.687 6-6 6zm0-2c2.208 0 4-1.79 4-4s-1.792-4-4-4c-2.21 0-4 1.79-4 4s1.79 4 4 4zM983.59 742.277c-3.315 0-6-2.686-6-6 0-3.313 2.685-6 6-6 3.312 0 6 2.687 6 6 0 3.314-2.688 6-6 6zm0-2c2.208 0 4-1.79 4-4s-1.792-4-4-4c-2.21 0-4 1.79-4 4s1.79 4 4 4zM968.244 698.71c-3.314 0-6-2.687-6-6 0-3.314 2.686-6 6-6s6 2.686 6 6c0 3.313-2.686 6-6 6zm0-2c2.21 0 4-1.79 4-4s-1.79-4-4-4-4 1.79-4 4 1.79 4 4 4zM956.642 621.864c-3.313 0-6-2.686-6-6s2.687-6 6-6c3.314 0 6 2.686 6 6s-2.686 6-6 6zm0-2c2.21 0 4-1.79 4-4s-1.79-4-4-4-4 1.79-4 4 1.79 4 4 4zM985.79 572.235c-3.314 0-6-2.686-6-6 0-3.313 2.686-6 6-6s6 2.687 6 6c0 3.314-2.686 6-6 6zm0-2c2.21 0 4-1.79 4-4s-1.79-4-4-4-4 1.79-4 4 1.79 4 4 4zM982.434 508.262c-3.314 0-6-2.686-6-6s2.686-6 6-6c3.313 0 6 2.686 6 6s-2.687 6-6 6zm0-2c2.21 0 4-1.79 4-4s-1.79-4-4-4-4 1.79-4 4 1.79 4 4 4zM962.594 451.416c-3.314 0-6-2.687-6-6 0-3.314 2.686-6 6-6s6 2.686 6 6c0 3.313-2.686 6-6 6zm0-2c2.21 0 4-1.79 4-4s-1.79-4-4-4-4 1.79-4 4 1.79 4 4 4zM977.377 407.932c-3.314 0-6-2.686-6-6s2.686-6 6-6 6 2.686 6 6-2.686 6-6 6zm0-2c2.21 0 4-1.79 4-4s-1.79-4-4-4-4 1.79-4 4 1.79 4 4 4zM981.754 336.78c-3.314 0-6-2.687-6-6 0-3.314 2.686-6 6-6 3.313 0 6 2.686 6 6 0 3.313-2.687 6-6 6zm0-2c2.21 0 4-1.79 4-4s-1.79-4-4-4-4 1.79-4 4 1.79 4 4 4zM983.292 277.6c-3.313 0-6-2.687-6-6 0-3.315 2.687-6 6-6 3.314 0 6 2.685 6 6 0 3.313-2.686 6-6 6zm0-2c2.21 0 4-1.792 4-4 0-2.21-1.79-4-4-4s-4 1.79-4 4c0 2.208 1.79 4 4 4zM974.67 192.845c-3.314 0-6-2.686-6-6 0-3.313 2.686-6 6-6 3.313 0 6 2.687 6 6 0 3.314-2.687 6-6 6zm0-2c2.21 0 4-1.79 4-4s-1.79-4-4-4-4 1.79-4 4 1.79 4 4 4zM967.073 155.218c-3.314 0-6-2.687-6-6 0-3.314 2.686-6 6-6 3.313 0 6 2.686 6 6 0 3.313-2.687 6-6 6zm0-2c2.21 0 4-1.79 4-4s-1.79-4-4-4-4 1.79-4 4 1.79 4 4 4zM978.71 84.952c-3.313 0-6-2.686-6-6 0-3.313 2.687-6 6-6 3.315 0 6 2.687 6 6 0 3.314-2.685 6-6 6zm0-2c2.21 0 4-1.79 4-4s-1.79-4-4-4c-2.208 0-4 1.79-4 4s1.792 4 4 4zM970.805 49.53c-3.314 0-6-2.688-6-6 0-3.315 2.686-6 6-6 3.313 0 6 2.685 6 6 0 3.312-2.687 6-6 6zm0-2c2.21 0 4-1.792 4-4 0-2.21-1.79-4-4-4s-4 1.79-4 4c0 2.208 1.79 4 4 4zM919.43 1178.376c-3.314 0-6-2.686-6-6s2.686-6 6-6c3.313 0 6 2.686 6 6s-2.687 6-6 6zm0-2c2.208 0 4-1.79 4-4s-1.792-4-4-4c-2.21 0-4 1.79-4 4s1.79 4 4 4zM908.466 1098.923c-3.314 0-6-2.686-6-6s2.686-6 6-6 6 2.686 6 6-2.686 6-6 6zm0-2c2.21 0 4-1.79 4-4s-1.79-4-4-4-4 1.79-4 4 1.79 4 4 4zM926.6 1043.79c-3.312 0-6-2.687-6-6 0-3.315 2.688-6 6-6 3.315 0 6 2.685 6 6 0 3.313-2.685 6-6 6zm0-2c2.21 0 4-1.792 4-4 0-2.21-1.79-4-4-4-2.208 0-4 1.79-4 4 0 2.208 1.792 4 4 4zM934.646 985.39c-3.313 0-6-2.687-6-6 0-3.315 2.687-6 6-6 3.314 0 6 2.685 6 6 0 3.313-2.686 6-6 6zm0-2c2.21 0 4-1.792 4-4 0-2.21-1.79-4-4-4s-4 1.79-4 4c0 2.208 1.79 4 4 4zM918.524 912.56c-3.314 0-6-2.686-6-6 0-3.313 2.686-6 6-6 3.313 0 6 2.687 6 6 0 3.314-2.687 6-6 6zm0-2c2.21 0 4-1.79 4-4s-1.79-4-4-4-4 1.79-4 4 1.79 4 4 4zM922.208 869.77c-3.314 0-6-2.687-6-6 0-3.314 2.686-6 6-6s6 2.686 6 6c0 3.313-2.686 6-6 6zm0-2c2.21 0 4-1.792 4-4 0-2.21-1.79-4-4-4s-4 1.79-4 4c0 2.208 1.79 4 4 4zM917.606 802.99c-3.314 0-6-2.686-6-6 0-3.313 2.686-6 6-6s6 2.687 6 6c0 3.314-2.686 6-6 6zm0-2c2.21 0 4-1.79 4-4s-1.79-4-4-4-4 1.79-4 4 1.79 4 4 4zM935.563 765.126c-3.314 0-6-2.687-6-6 0-3.314 2.686-6 6-6 3.313 0 6 2.686 6 6 0 3.313-2.687 6-6 6zm0-2c2.21 0 4-1.79 4-4s-1.79-4-4-4-4 1.79-4 4 1.79 4 4 4zM914.814 704.408c-3.313 0-6-2.686-6-6s2.687-6 6-6c3.314 0 6 2.686 6 6s-2.686 6-6 6zm0-2c2.21 0 4-1.79 4-4s-1.79-4-4-4-4 1.79-4 4 1.79 4 4 4zM923.32 621.22c-3.313 0-6-2.685-6-6 0-3.312 2.687-6 6-6 3.315 0 6 2.688 6 6 0 3.315-2.685 6-6 6zm0-2c2.21 0 4-1.79 4-4 0-2.208-1.79-4-4-4-2.208 0-4 1.792-4 4 0 2.21 1.792 4 4 4zM934.14 558.797c-3.315 0-6-2.686-6-6s2.685-6 6-6c3.313 0 6 2.686 6 6s-2.687 6-6 6zm0-2c2.208 0 4-1.79 4-4s-1.792-4-4-4c-2.21 0-4 1.79-4 4s1.79 4 4 4zM924.648 518.576c-3.314 0-6-2.686-6-6s2.686-6 6-6 6 2.686 6 6-2.686 6-6 6zm0-2c2.21 0 4-1.79 4-4s-1.79-4-4-4-4 1.79-4 4 1.79 4 4 4zM918.643 457.38c-3.314 0-6-2.687-6-6 0-3.314 2.686-6 6-6s6 2.686 6 6c0 3.313-2.686 6-6 6zm0-2c2.21 0 4-1.79 4-4s-1.79-4-4-4-4 1.79-4 4 1.79 4 4 4zM929.51 398.344c-3.313 0-6-2.687-6-6 0-3.314 2.687-6 6-6 3.314 0 6 2.686 6 6 0 3.313-2.686 6-6 6zm0-2c2.21 0 4-1.79 4-4s-1.79-4-4-4-4 1.79-4 4 1.79 4 4 4zM928.187 346.512c-3.314 0-6-2.686-6-6 0-3.313 2.686-6 6-6 3.313 0 6 2.687 6 6 0 3.314-2.687 6-6 6zm0-2c2.21 0 4-1.79 4-4s-1.79-4-4-4-4 1.79-4 4 1.79 4 4 4zM925.52 272.283c-3.313 0-6-2.686-6-6s2.687-6 6-6c3.315 0 6 2.686 6 6s-2.685 6-6 6zm0-2c2.21 0 4-1.79 4-4s-1.79-4-4-4c-2.208 0-4 1.79-4 4s1.792 4 4 4zM933.403 212.584c-3.314 0-6-2.687-6-6 0-3.314 2.686-6 6-6s6 2.686 6 6c0 3.313-2.686 6-6 6zm0-2c2.21 0 4-1.79 4-4s-1.79-4-4-4-4 1.79-4 4 1.79 4 4 4zM908.733 136.5c-3.314 0-6-2.686-6-6 0-3.313 2.686-6 6-6s6 2.687 6 6c0 3.314-2.686 6-6 6zm0-2c2.21 0 4-1.79 4-4s-1.79-4-4-4-4 1.79-4 4 1.79 4 4 4zM907.084 107.146c-3.314 0-6-2.687-6-6 0-3.314 2.686-6 6-6s6 2.686 6 6c0 3.313-2.686 6-6 6zm0-2c2.21 0 4-1.79 4-4s-1.79-4-4-4-4 1.79-4 4 1.79 4 4 4zM913.726 50.293c-3.314 0-6-2.686-6-6s2.686-6 6-6c3.313 0 6 2.686 6 6s-2.687 6-6 6zm0-2c2.21 0 4-1.79 4-4s-1.79-4-4-4-4 1.79-4 4 1.79 4 4 4zM873.486 1169.9c-3.313 0-6-2.686-6-6s2.687-6 6-6c3.314 0 6 2.686 6 6s-2.686 6-6 6zm0-2c2.21 0 4-1.79 4-4s-1.79-4-4-4-4 1.79-4 4 1.79 4 4 4zM876.51 1098.57c-3.315 0-6-2.685-6-6 0-3.313 2.685-6 6-6 3.312 0 6 2.687 6 6 0 3.315-2.688 6-6 6zm0-2c2.208 0 4-1.79 4-4 0-2.208-1.792-4-4-4-2.21 0-4 1.792-4 4 0 2.21 1.79 4 4 4zM858.708 1034.777c-3.314 0-6-2.687-6-6 0-3.314 2.686-6 6-6s6 2.686 6 6c0 3.313-2.686 6-6 6zm0-2c2.21 0 4-1.79 4-4s-1.79-4-4-4-4 1.79-4 4 1.79 4 4 4zM878.104 992.274c-3.314 0-6-2.686-6-6s2.686-6 6-6 6 2.686 6 6-2.686 6-6 6zm0-2c2.21 0 4-1.79 4-4s-1.79-4-4-4-4 1.79-4 4 1.79 4 4 4zM871.425 933.643c-3.313 0-6-2.686-6-6 0-3.313 2.687-6 6-6 3.314 0 6 2.687 6 6 0 3.314-2.686 6-6 6zm0-2c2.21 0 4-1.79 4-4s-1.79-4-4-4-4 1.79-4 4 1.79 4 4 4zM863.515 876.103c-3.314 0-6-2.686-6-6 0-3.313 2.686-6 6-6 3.313 0 6 2.687 6 6 0 3.314-2.687 6-6 6zm0-2c2.21 0 4-1.79 4-4s-1.79-4-4-4-4 1.79-4 4 1.79 4 4 4zM874.787 817.454c-3.314 0-6-2.686-6-6s2.686-6 6-6 6 2.686 6 6-2.686 6-6 6zm0-2c2.21 0 4-1.79 4-4s-1.79-4-4-4-4 1.79-4 4 1.79 4 4 4zM879.707 734.365c-3.314 0-6-2.686-6-6 0-3.313 2.686-6 6-6s6 2.687 6 6c0 3.314-2.686 6-6 6zm0-2c2.21 0 4-1.79 4-4s-1.79-4-4-4-4 1.79-4 4 1.79 4 4 4zM862.086 687.18c-3.313 0-6-2.687-6-6 0-3.315 2.687-6 6-6 3.314 0 6 2.685 6 6 0 3.313-2.686 6-6 6zm0-2c2.21 0 4-1.792 4-4 0-2.21-1.79-4-4-4s-4 1.79-4 4c0 2.208 1.79 4 4 4zM856.902 613.985c-3.314 0-6-2.686-6-6 0-3.313 2.686-6 6-6s6 2.687 6 6c0 3.314-2.686 6-6 6zm0-2c2.21 0 4-1.79 4-4s-1.79-4-4-4-4 1.79-4 4 1.79 4 4 4zM862.784 573.22c-3.314 0-6-2.687-6-6 0-3.314 2.686-6 6-6s6 2.686 6 6c0 3.313-2.686 6-6 6zm0-2c2.21 0 4-1.79 4-4s-1.79-4-4-4-4 1.79-4 4 1.79 4 4 4zM865.294 531.87c-3.314 0-6-2.685-6-6 0-3.312 2.686-6 6-6s6 2.688 6 6c0 3.315-2.686 6-6 6zm0-2c2.21 0 4-1.79 4-4 0-2.208-1.79-4-4-4s-4 1.792-4 4c0 2.21 1.79 4 4 4zM856.005 462.212c-3.314 0-6-2.686-6-6 0-3.313 2.686-6 6-6s6 2.687 6 6c0 3.314-2.686 6-6 6zm0-2c2.21 0 4-1.79 4-4s-1.79-4-4-4-4 1.79-4 4 1.79 4 4 4zM867.314 406.448c-3.313 0-6-2.687-6-6 0-3.314 2.687-6 6-6 3.314 0 6 2.686 6 6 0 3.313-2.686 6-6 6zm0-2c2.21 0 4-1.79 4-4s-1.79-4-4-4-4 1.79-4 4 1.79 4 4 4zM861.484 335.027c-3.313 0-6-2.686-6-6s2.687-6 6-6c3.314 0 6 2.686 6 6s-2.686 6-6 6zm0-2c2.21 0 4-1.79 4-4s-1.79-4-4-4-4 1.79-4 4 1.79 4 4 4zM861.022 259.882c-3.313 0-6-2.687-6-6 0-3.314 2.687-6 6-6 3.314 0 6 2.686 6 6 0 3.313-2.686 6-6 6zm0-2c2.21 0 4-1.79 4-4s-1.79-4-4-4-4 1.79-4 4 1.79 4 4 4zM881.236 212.827c-3.314 0-6-2.686-6-6s2.686-6 6-6 6 2.686 6 6-2.686 6-6 6zm0-2c2.21 0 4-1.79 4-4s-1.79-4-4-4-4 1.79-4 4 1.79 4 4 4zM882.076 167.5c-3.314 0-6-2.685-6-6 0-3.313 2.686-6 6-6s6 2.687 6 6c0 3.315-2.686 6-6 6zm0-2c2.21 0 4-1.79 4-4 0-2.208-1.79-4-4-4s-4 1.792-4 4c0 2.21 1.79 4 4 4zM875.28 81.45c-3.315 0-6-2.685-6-6 0-3.312 2.685-6 6-6 3.313 0 6 2.688 6 6 0 3.315-2.687 6-6 6zm0-2c2.208 0 4-1.79 4-4 0-2.208-1.792-4-4-4-2.21 0-4 1.792-4 4 0 2.21 1.79 4 4 4zM876.322 33.17c-3.314 0-6-2.686-6-6s2.686-6 6-6 6 2.686 6 6-2.686 6-6 6zm0-2c2.21 0 4-1.79 4-4s-1.79-4-4-4-4 1.79-4 4 1.79 4 4 4zM806.613 1155.874c-3.314 0-6-2.687-6-6 0-3.314 2.686-6 6-6 3.313 0 6 2.686 6 6 0 3.313-2.687 6-6 6zm0-2c2.21 0 4-1.79 4-4s-1.79-4-4-4-4 1.79-4 4 1.79 4 4 4zM835.677 1131.256c-3.313 0-6-2.686-6-6 0-3.313 2.687-6 6-6 3.314 0 6 2.687 6 6 0 3.314-2.686 6-6 6zm0-2c2.21 0 4-1.79 4-4s-1.79-4-4-4-4 1.79-4 4 1.79 4 4 4zM818.61 1048.927c-3.315 0-6-2.686-6-6s2.685-6 6-6c3.313 0 6 2.686 6 6s-2.687 6-6 6zm0-2c2.208 0 4-1.79 4-4s-1.792-4-4-4c-2.21 0-4 1.79-4 4s1.79 4 4 4zM828.51 984.3c-3.313 0-6-2.685-6-6 0-3.312 2.687-6 6-6 3.314 0 6 2.688 6 6 0 3.315-2.686 6-6 6zm0-2c2.21 0 4-1.79 4-4 0-2.208-1.79-4-4-4s-4 1.792-4 4c0 2.21 1.79 4 4 4zM808.093 925.04c-3.313 0-6-2.685-6-6 0-3.313 2.687-6 6-6 3.314 0 6 2.687 6 6 0 3.315-2.686 6-6 6zm0-2c2.21 0 4-1.79 4-4 0-2.208-1.79-4-4-4s-4 1.792-4 4c0 2.21 1.79 4 4 4zM827.488 864.287c-3.314 0-6-2.686-6-6s2.686-6 6-6 6 2.686 6 6-2.686 6-6 6zm0-2c2.21 0 4-1.79 4-4s-1.79-4-4-4-4 1.79-4 4 1.79 4 4 4zM809.957 800.683c-3.314 0-6-2.687-6-6 0-3.314 2.686-6 6-6 3.313 0 6 2.686 6 6 0 3.313-2.687 6-6 6zm0-2c2.21 0 4-1.79 4-4s-1.79-4-4-4-4 1.79-4 4 1.79 4 4 4zM806.933 770.905c-3.314 0-6-2.686-6-6s2.686-6 6-6 6 2.686 6 6-2.686 6-6 6zm0-2c2.21 0 4-1.79 4-4s-1.79-4-4-4-4 1.79-4 4 1.79 4 4 4zM820.7 674.342c-3.313 0-6-2.687-6-6 0-3.314 2.687-6 6-6 3.314 0 6 2.686 6 6 0 3.313-2.686 6-6 6zm0-2c2.21 0 4-1.79 4-4s-1.79-4-4-4-4 1.79-4 4 1.79 4 4 4zM822.223 617.9c-3.314 0-6-2.687-6-6 0-3.314 2.686-6 6-6s6 2.686 6 6c0 3.313-2.686 6-6 6zm0-2c2.21 0 4-1.792 4-4 0-2.21-1.79-4-4-4s-4 1.79-4 4c0 2.208 1.79 4 4 4zM814.013 583.565c-3.314 0-6-2.686-6-6s2.686-6 6-6c3.313 0 6 2.686 6 6s-2.687 6-6 6zm0-2c2.21 0 4-1.79 4-4s-1.79-4-4-4-4 1.79-4 4 1.79 4 4 4zM814.605 521.43c-3.314 0-6-2.686-6-6s2.686-6 6-6 6 2.686 6 6-2.686 6-6 6zm0-2c2.21 0 4-1.79 4-4s-1.79-4-4-4-4 1.79-4 4 1.79 4 4 4zM825.313 443.022c-3.314 0-6-2.686-6-6s2.686-6 6-6c3.313 0 6 2.686 6 6s-2.687 6-6 6zm0-2c2.21 0 4-1.79 4-4s-1.79-4-4-4-4 1.79-4 4 1.79 4 4 4zM832.327 384.137c-3.314 0-6-2.686-6-6s2.686-6 6-6c3.313 0 6 2.686 6 6s-2.687 6-6 6zm0-2c2.21 0 4-1.79 4-4s-1.79-4-4-4-4 1.79-4 4 1.79 4 4 4zM817.465 327.467c-3.313 0-6-2.686-6-6s2.687-6 6-6c3.314 0 6 2.686 6 6s-2.686 6-6 6zm0-2c2.21 0 4-1.79 4-4s-1.79-4-4-4-4 1.79-4 4 1.79 4 4 4zM829.96 269.76c-3.313 0-6-2.685-6-6 0-3.312 2.687-6 6-6 3.314 0 6 2.688 6 6 0 3.315-2.686 6-6 6zm0-2c2.21 0 4-1.79 4-4 0-2.208-1.79-4-4-4s-4 1.792-4 4c0 2.21 1.79 4 4 4zM825.32 197.684c-3.313 0-6-2.686-6-6 0-3.313 2.687-6 6-6 3.314 0 6 2.687 6 6 0 3.314-2.686 6-6 6zm0-2c2.21 0 4-1.79 4-4s-1.79-4-4-4c-2.208 0-4 1.79-4 4s1.792 4 4 4zM812.886 162.772c-3.314 0-6-2.686-6-6s2.686-6 6-6c3.313 0 6 2.686 6 6s-2.687 6-6 6zm0-2c2.21 0 4-1.79 4-4s-1.79-4-4-4-4 1.79-4 4 1.79 4 4 4zM833.15 85.13c-3.314 0-6-2.686-6-6 0-3.313 2.686-6 6-6 3.313 0 6 2.687 6 6 0 3.314-2.687 6-6 6zm0-2c2.21 0 4-1.79 4-4 0-2.208-1.79-4-4-4s-4 1.792-4 4c0 2.21 1.79 4 4 4zM831.71 40.552c-3.313 0-6-2.686-6-6 0-3.313 2.687-6 6-6 3.315 0 6 2.687 6 6 0 3.314-2.685 6-6 6zm0-2c2.21 0 4-1.79 4-4s-1.79-4-4-4c-2.208 0-4 1.79-4 4s1.792 4 4 4zM757.925 1159.39c-3.313 0-6-2.688-6-6 0-3.315 2.687-6 6-6 3.314 0 6 2.685 6 6 0 3.312-2.686 6-6 6zm0-2c2.21 0 4-1.792 4-4 0-2.21-1.79-4-4-4s-4 1.79-4 4c0 2.208 1.79 4 4 4zM780.924 1128.676c-3.314 0-6-2.686-6-6s2.686-6 6-6 6 2.686 6 6-2.686 6-6 6zm0-2c2.21 0 4-1.79 4-4s-1.79-4-4-4-4 1.79-4 4 1.79 4 4 4zM759.313 1032.888c-3.314 0-6-2.686-6-6s2.686-6 6-6 6 2.686 6 6-2.686 6-6 6zm0-2c2.21 0 4-1.79 4-4s-1.79-4-4-4-4 1.79-4 4 1.79 4 4 4zM763.393 984.218c-3.314 0-6-2.686-6-6s2.686-6 6-6c3.313 0 6 2.686 6 6s-2.687 6-6 6zm0-2c2.21 0 4-1.79 4-4s-1.79-4-4-4-4 1.79-4 4 1.79 4 4 4zM784.835 937.854c-3.314 0-6-2.687-6-6 0-3.314 2.686-6 6-6 3.313 0 6 2.686 6 6 0 3.313-2.687 6-6 6zm0-2c2.21 0 4-1.79 4-4s-1.79-4-4-4-4 1.79-4 4 1.79 4 4 4zM764.547 883.327c-3.314 0-6-2.686-6-6 0-3.313 2.686-6 6-6s6 2.687 6 6c0 3.314-2.686 6-6 6zm0-2c2.21 0 4-1.79 4-4s-1.79-4-4-4-4 1.79-4 4 1.79 4 4 4zM768.07 823.51c-3.315 0-6-2.686-6-6 0-3.313 2.685-6 6-6 3.313 0 6 2.687 6 6 0 3.314-2.687 6-6 6zm0-2c2.208 0 4-1.79 4-4s-1.792-4-4-4c-2.21 0-4 1.79-4 4s1.79 4 4 4zM784.745 758.435c-3.313 0-6-2.686-6-6s2.687-6 6-6c3.314 0 6 2.686 6 6s-2.686 6-6 6zm0-2c2.21 0 4-1.79 4-4s-1.79-4-4-4-4 1.79-4 4 1.79 4 4 4zM778.155 699.542c-3.314 0-6-2.686-6-6 0-3.313 2.686-6 6-6s6 2.687 6 6c0 3.314-2.686 6-6 6zm0-2c2.21 0 4-1.79 4-4s-1.79-4-4-4-4 1.79-4 4 1.79 4 4 4zM765.31 639.562c-3.314 0-6-2.687-6-6 0-3.314 2.686-6 6-6 3.313 0 6 2.686 6 6 0 3.313-2.687 6-6 6zm0-2c2.208 0 4-1.79 4-4s-1.792-4-4-4c-2.21 0-4 1.79-4 4s1.79 4 4 4zM784.882 557.837c-3.314 0-6-2.687-6-6 0-3.314 2.686-6 6-6 3.313 0 6 2.686 6 6 0 3.313-2.687 6-6 6zm0-2c2.21 0 4-1.79 4-4s-1.79-4-4-4-4 1.79-4 4 1.79 4 4 4zM759.76 500.86c-3.313 0-6-2.688-6-6 0-3.315 2.687-6 6-6 3.314 0 6 2.685 6 6 0 3.312-2.686 6-6 6zm0-2c2.21 0 4-1.792 4-4 0-2.21-1.79-4-4-4s-4 1.79-4 4c0 2.208 1.79 4 4 4zM763.153 462.4c-3.314 0-6-2.687-6-6 0-3.314 2.686-6 6-6 3.313 0 6 2.686 6 6 0 3.313-2.687 6-6 6zm0-2c2.21 0 4-1.79 4-4s-1.79-4-4-4-4 1.79-4 4 1.79 4 4 4zM777.566 385.244c-3.313 0-6-2.687-6-6 0-3.314 2.687-6 6-6 3.314 0 6 2.686 6 6 0 3.313-2.686 6-6 6zm0-2c2.21 0 4-1.79 4-4s-1.79-4-4-4-4 1.79-4 4 1.79 4 4 4zM780.333 347.655c-3.314 0-6-2.687-6-6 0-3.314 2.686-6 6-6s6 2.686 6 6c0 3.313-2.686 6-6 6zm0-2c2.21 0 4-1.79 4-4s-1.79-4-4-4-4 1.79-4 4 1.79 4 4 4zM782.028 259.344c-3.314 0-6-2.687-6-6 0-3.314 2.686-6 6-6s6 2.686 6 6c0 3.313-2.686 6-6 6zm0-2c2.21 0 4-1.79 4-4s-1.79-4-4-4-4 1.79-4 4 1.79 4 4 4zM766.642 212.343c-3.314 0-6-2.687-6-6 0-3.314 2.686-6 6-6s6 2.686 6 6c0 3.313-2.686 6-6 6zm0-2c2.21 0 4-1.79 4-4s-1.79-4-4-4-4 1.79-4 4 1.79 4 4 4zM762.304 139.88c-3.314 0-6-2.685-6-6 0-3.312 2.686-6 6-6s6 2.688 6 6c0 3.315-2.686 6-6 6zm0-2c2.21 0 4-1.79 4-4 0-2.208-1.79-4-4-4s-4 1.792-4 4c0 2.21 1.79 4 4 4zM775.72 105.042c-3.313 0-6-2.687-6-6 0-3.314 2.687-6 6-6 3.314 0 6 2.686 6 6 0 3.313-2.686 6-6 6zm0-2c2.21 0 4-1.79 4-4s-1.79-4-4-4-4 1.79-4 4 1.79 4 4 4zM763.86 29.403c-3.312 0-6-2.686-6-6 0-3.313 2.688-6 6-6 3.315 0 6 2.687 6 6 0 3.314-2.685 6-6 6zm0-2c2.21 0 4-1.79 4-4s-1.79-4-4-4c-2.208 0-4 1.79-4 4s1.792 4 4 4zM730.412 1154.572c-3.314 0-6-2.686-6-6 0-3.313 2.686-6 6-6s6 2.687 6 6c0 3.314-2.686 6-6 6zm0-2c2.21 0 4-1.79 4-4s-1.79-4-4-4-4 1.79-4 4 1.79 4 4 4zM735.976 1094.113c-3.313 0-6-2.687-6-6 0-3.314 2.687-6 6-6 3.314 0 6 2.686 6 6 0 3.313-2.686 6-6 6zm0-2c2.21 0 4-1.79 4-4s-1.79-4-4-4-4 1.79-4 4 1.79 4 4 4zM727.34 1068.64c-3.313 0-6-2.688-6-6 0-3.315 2.687-6 6-6 3.315 0 6 2.685 6 6 0 3.312-2.685 6-6 6zm0-2c2.21 0 4-1.792 4-4 0-2.21-1.79-4-4-4-2.208 0-4 1.79-4 4 0 2.208 1.792 4 4 4zM728.85 977.653c-3.315 0-6-2.687-6-6 0-3.314 2.685-6 6-6 3.313 0 6 2.686 6 6 0 3.313-2.687 6-6 6zm0-2c2.208 0 4-1.79 4-4s-1.792-4-4-4c-2.21 0-4 1.79-4 4s1.79 4 4 4zM731.26 951.17c-3.313 0-6-2.687-6-6 0-3.314 2.687-6 6-6 3.314 0 6 2.686 6 6 0 3.313-2.686 6-6 6zm0-2c2.21 0 4-1.79 4-4s-1.79-4-4-4-4 1.79-4 4 1.79 4 4 4zM718.736 865.743c-3.313 0-6-2.687-6-6 0-3.314 2.687-6 6-6 3.314 0 6 2.686 6 6 0 3.313-2.686 6-6 6zm0-2c2.21 0 4-1.79 4-4s-1.79-4-4-4-4 1.79-4 4 1.79 4 4 4zM726.064 829.412c-3.314 0-6-2.687-6-6 0-3.314 2.686-6 6-6s6 2.686 6 6c0 3.313-2.686 6-6 6zm0-2c2.21 0 4-1.79 4-4s-1.79-4-4-4-4 1.79-4 4 1.79 4 4 4zM709.646 732.404c-3.314 0-6-2.686-6-6 0-3.313 2.686-6 6-6 3.313 0 6 2.687 6 6 0 3.314-2.687 6-6 6zm0-2c2.21 0 4-1.79 4-4s-1.79-4-4-4-4 1.79-4 4 1.79 4 4 4zM711.887 704.41c-3.314 0-6-2.687-6-6 0-3.315 2.686-6 6-6 3.313 0 6 2.685 6 6 0 3.313-2.687 6-6 6zm0-2c2.21 0 4-1.792 4-4 0-2.21-1.79-4-4-4s-4 1.79-4 4c0 2.208 1.79 4 4 4zM735.112 619.927c-3.314 0-6-2.686-6-6s2.686-6 6-6 6 2.686 6 6-2.686 6-6 6zm0-2c2.21 0 4-1.79 4-4s-1.79-4-4-4-4 1.79-4 4 1.79 4 4 4zM735.392 589.744c-3.314 0-6-2.686-6-6 0-3.313 2.686-6 6-6 3.313 0 6 2.687 6 6 0 3.314-2.687 6-6 6zm0-2c2.21 0 4-1.79 4-4s-1.79-4-4-4-4 1.79-4 4 1.79 4 4 4zM720.61 494.56c-3.315 0-6-2.685-6-6 0-3.313 2.685-6 6-6 3.313 0 6 2.687 6 6 0 3.315-2.687 6-6 6zm0-2c2.208 0 4-1.79 4-4 0-2.208-1.792-4-4-4-2.21 0-4 1.792-4 4 0 2.21 1.79 4 4 4zM707.502 468.882c-3.314 0-6-2.686-6-6s2.686-6 6-6c3.313 0 6 2.686 6 6s-2.687 6-6 6zm0-2c2.21 0 4-1.79 4-4s-1.79-4-4-4-4 1.79-4 4 1.79 4 4 4zM719.32 406.964c-3.315 0-6-2.686-6-6s2.685-6 6-6c3.313 0 6 2.686 6 6s-2.687 6-6 6zm0-2c2.208 0 4-1.79 4-4s-1.792-4-4-4c-2.21 0-4 1.79-4 4s1.79 4 4 4zM717.686 330.09c-3.314 0-6-2.685-6-6 0-3.313 2.686-6 6-6s6 2.687 6 6c0 3.315-2.686 6-6 6zm0-2c2.21 0 4-1.79 4-4 0-2.208-1.79-4-4-4s-4 1.792-4 4c0 2.21 1.79 4 4 4zM728.58 288.37c-3.313 0-6-2.686-6-6 0-3.313 2.687-6 6-6 3.315 0 6 2.687 6 6 0 3.314-2.685 6-6 6zm0-2c2.21 0 4-1.79 4-4 0-2.208-1.79-4-4-4-2.208 0-4 1.792-4 4 0 2.21 1.792 4 4 4zM730.525 209.52c-3.314 0-6-2.686-6-6 0-3.313 2.686-6 6-6s6 2.687 6 6c0 3.314-2.686 6-6 6zm0-2c2.21 0 4-1.79 4-4s-1.79-4-4-4-4 1.79-4 4 1.79 4 4 4zM715.413 147.404c-3.314 0-6-2.686-6-6s2.686-6 6-6c3.313 0 6 2.686 6 6s-2.687 6-6 6zm0-2c2.21 0 4-1.79 4-4s-1.79-4-4-4-4 1.79-4 4 1.79 4 4 4zM723.836 90.55c-3.314 0-6-2.686-6-6 0-3.313 2.686-6 6-6s6 2.687 6 6c0 3.314-2.686 6-6 6zm0-2c2.21 0 4-1.79 4-4s-1.79-4-4-4-4 1.79-4 4 1.79 4 4 4zM734.68 39.544c-3.314 0-6-2.687-6-6 0-3.314 2.686-6 6-6 3.313 0 6 2.686 6 6 0 3.313-2.687 6-6 6zm0-2c2.21 0 4-1.79 4-4s-1.79-4-4-4-4 1.79-4 4 1.79 4 4 4zM680.76 1191.475c-3.314 0-6-2.686-6-6s2.686-6 6-6c3.313 0 6 2.686 6 6s-2.687 6-6 6zm0-2c2.21 0 4-1.79 4-4s-1.79-4-4-4-4 1.79-4 4 1.79 4 4 4zM684.882 1098.967c-3.314 0-6-2.686-6-6 0-3.313 2.686-6 6-6s6 2.687 6 6c0 3.314-2.686 6-6 6zm0-2c2.21 0 4-1.79 4-4s-1.79-4-4-4-4 1.79-4 4 1.79 4 4 4zM682.682 1048.784c-3.314 0-6-2.687-6-6 0-3.314 2.686-6 6-6s6 2.686 6 6c0 3.313-2.686 6-6 6zm0-2c2.21 0 4-1.79 4-4s-1.79-4-4-4-4 1.79-4 4 1.79 4 4 4zM661.88 1006.797c-3.315 0-6-2.686-6-6s2.685-6 6-6c3.313 0 6 2.686 6 6s-2.687 6-6 6zm0-2c2.208 0 4-1.79 4-4s-1.792-4-4-4c-2.21 0-4 1.79-4 4s1.79 4 4 4zM672.838 925.242c-3.313 0-6-2.686-6-6s2.687-6 6-6c3.314 0 6 2.686 6 6s-2.686 6-6 6zm0-2c2.21 0 4-1.79 4-4s-1.79-4-4-4-4 1.79-4 4 1.79 4 4 4zM664.67 869.123c-3.313 0-6-2.686-6-6s2.687-6 6-6c3.314 0 6 2.686 6 6s-2.686 6-6 6zm0-2c2.21 0 4-1.79 4-4s-1.79-4-4-4-4 1.79-4 4 1.79 4 4 4zM670.555 816.577c-3.313 0-6-2.686-6-6 0-3.313 2.687-6 6-6 3.314 0 6 2.687 6 6 0 3.314-2.686 6-6 6zm0-2c2.21 0 4-1.79 4-4s-1.79-4-4-4-4 1.79-4 4 1.79 4 4 4zM679.132 748.303c-3.314 0-6-2.686-6-6s2.686-6 6-6 6 2.686 6 6-2.686 6-6 6zm0-2c2.21 0 4-1.79 4-4s-1.79-4-4-4-4 1.79-4 4 1.79 4 4 4zM682.402 699.948c-3.313 0-6-2.686-6-6s2.687-6 6-6c3.314 0 6 2.686 6 6s-2.686 6-6 6zm0-2c2.21 0 4-1.79 4-4s-1.79-4-4-4-4 1.79-4 4 1.79 4 4 4zM665.91 622.517c-3.314 0-6-2.687-6-6 0-3.314 2.686-6 6-6 3.313 0 6 2.686 6 6 0 3.313-2.687 6-6 6zm0-2c2.21 0 4-1.79 4-4s-1.79-4-4-4-4 1.79-4 4 1.79 4 4 4zM681.477 568.815c-3.313 0-6-2.686-6-6s2.687-6 6-6c3.314 0 6 2.686 6 6s-2.686 6-6 6zm0-2c2.21 0 4-1.79 4-4s-1.79-4-4-4-4 1.79-4 4 1.79 4 4 4zM671.003 495.566c-3.314 0-6-2.686-6-6s2.686-6 6-6c3.313 0 6 2.686 6 6s-2.687 6-6 6zm0-2c2.21 0 4-1.79 4-4s-1.79-4-4-4-4 1.79-4 4 1.79 4 4 4zM671.133 457.752c-3.313 0-6-2.687-6-6 0-3.314 2.687-6 6-6 3.314 0 6 2.686 6 6 0 3.313-2.686 6-6 6zm0-2c2.21 0 4-1.79 4-4s-1.79-4-4-4-4 1.79-4 4 1.79 4 4 4zM659.184 406.73c-3.314 0-6-2.686-6-6s2.686-6 6-6c3.313 0 6 2.686 6 6s-2.687 6-6 6zm0-2c2.21 0 4-1.79 4-4s-1.79-4-4-4-4 1.79-4 4 1.79 4 4 4zM680.804 314.83c-3.314 0-6-2.688-6-6 0-3.315 2.686-6 6-6 3.313 0 6 2.685 6 6 0 3.312-2.687 6-6 6zm0-2c2.21 0 4-1.792 4-4 0-2.21-1.79-4-4-4s-4 1.79-4 4c0 2.208 1.79 4 4 4zM676.26 267.486c-3.315 0-6-2.687-6-6 0-3.314 2.685-6 6-6 3.313 0 6 2.686 6 6 0 3.313-2.687 6-6 6zm0-2c2.208 0 4-1.79 4-4s-1.792-4-4-4c-2.21 0-4 1.79-4 4s1.79 4 4 4zM677.395 221.346c-3.314 0-6-2.686-6-6s2.686-6 6-6c3.313 0 6 2.686 6 6s-2.687 6-6 6zm0-2c2.21 0 4-1.79 4-4s-1.79-4-4-4-4 1.79-4 4 1.79 4 4 4zM656.893 143.93c-3.314 0-6-2.686-6-6s2.686-6 6-6 6 2.686 6 6-2.686 6-6 6zm0-2c2.21 0 4-1.79 4-4s-1.79-4-4-4-4 1.79-4 4 1.79 4 4 4zM672.108 82.81c-3.313 0-6-2.686-6-6 0-3.313 2.687-6 6-6 3.314 0 6 2.687 6 6 0 3.314-2.686 6-6 6zm0-2c2.21 0 4-1.79 4-4s-1.79-4-4-4-4 1.79-4 4 1.79 4 4 4zM668.203 19.27c-3.314 0-6-2.686-6-6 0-3.313 2.686-6 6-6s6 2.687 6 6c0 3.314-2.686 6-6 6zm0-2c2.21 0 4-1.79 4-4s-1.79-4-4-4-4 1.79-4 4 1.79 4 4 4zM617.156 1173.742c-3.314 0-6-2.686-6-6 0-3.313 2.686-6 6-6s6 2.687 6 6c0 3.314-2.686 6-6 6zm0-2c2.21 0 4-1.79 4-4s-1.79-4-4-4-4 1.79-4 4 1.79 4 4 4zM632.973 1100.082c-3.314 0-6-2.686-6-6 0-3.313 2.686-6 6-6 3.313 0 6 2.687 6 6 0 3.314-2.687 6-6 6zm0-2c2.21 0 4-1.79 4-4s-1.79-4-4-4-4 1.79-4 4 1.79 4 4 4zM634.567 1032.254c-3.314 0-6-2.686-6-6s2.686-6 6-6c3.313 0 6 2.686 6 6s-2.687 6-6 6zm0-2c2.21 0 4-1.79 4-4s-1.79-4-4-4-4 1.79-4 4 1.79 4 4 4zM623.707 1008.857c-3.313 0-6-2.687-6-6 0-3.314 2.687-6 6-6 3.314 0 6 2.686 6 6 0 3.313-2.686 6-6 6zm0-2c2.21 0 4-1.79 4-4s-1.79-4-4-4-4 1.79-4 4 1.79 4 4 4zM634.508 948.234c-3.314 0-6-2.686-6-6s2.686-6 6-6 6 2.686 6 6-2.686 6-6 6zm0-2c2.21 0 4-1.79 4-4s-1.79-4-4-4-4 1.79-4 4 1.79 4 4 4zM635.026 857.502c-3.314 0-6-2.687-6-6 0-3.314 2.686-6 6-6s6 2.686 6 6c0 3.313-2.686 6-6 6zm0-2c2.21 0 4-1.79 4-4s-1.79-4-4-4-4 1.79-4 4 1.79 4 4 4zM609.83 820.24c-3.314 0-6-2.686-6-6s2.686-6 6-6c3.313 0 6 2.686 6 6s-2.687 6-6 6zm0-2c2.208 0 4-1.79 4-4s-1.792-4-4-4c-2.21 0-4 1.79-4 4s1.79 4 4 4zM618.402 763.702c-3.314 0-6-2.686-6-6s2.686-6 6-6c3.313 0 6 2.686 6 6s-2.687 6-6 6zm0-2c2.21 0 4-1.79 4-4s-1.79-4-4-4-4 1.79-4 4 1.79 4 4 4zM618.743 682.6c-3.313 0-6-2.685-6-6 0-3.312 2.687-6 6-6 3.314 0 6 2.688 6 6 0 3.315-2.686 6-6 6zm0-2c2.21 0 4-1.79 4-4 0-2.208-1.79-4-4-4s-4 1.792-4 4c0 2.21 1.79 4 4 4zM606.408 621.118c-3.314 0-6-2.686-6-6s2.686-6 6-6 6 2.686 6 6-2.686 6-6 6zm0-2c2.21 0 4-1.79 4-4s-1.79-4-4-4-4 1.79-4 4 1.79 4 4 4zM618.755 590.647c-3.314 0-6-2.686-6-6 0-3.313 2.686-6 6-6 3.313 0 6 2.687 6 6 0 3.314-2.687 6-6 6zm0-2c2.21 0 4-1.79 4-4s-1.79-4-4-4-4 1.79-4 4 1.79 4 4 4zM635.585 503.824c-3.314 0-6-2.686-6-6s2.686-6 6-6 6 2.686 6 6-2.686 6-6 6zm0-2c2.21 0 4-1.79 4-4s-1.79-4-4-4-4 1.79-4 4 1.79 4 4 4zM611.754 455.737c-3.314 0-6-2.686-6-6s2.686-6 6-6 6 2.686 6 6-2.686 6-6 6zm0-2c2.21 0 4-1.79 4-4s-1.79-4-4-4-4 1.79-4 4 1.79 4 4 4zM614.727 381.135c-3.314 0-6-2.686-6-6s2.686-6 6-6c3.313 0 6 2.686 6 6s-2.687 6-6 6zm0-2c2.21 0 4-1.79 4-4s-1.79-4-4-4-4 1.79-4 4 1.79 4 4 4zM629.548 324.22c-3.314 0-6-2.688-6-6 0-3.315 2.686-6 6-6 3.313 0 6 2.685 6 6 0 3.312-2.687 6-6 6zm0-2c2.21 0 4-1.792 4-4 0-2.21-1.79-4-4-4s-4 1.79-4 4c0 2.208 1.79 4 4 4zM635.587 267.266c-3.313 0-6-2.686-6-6 0-3.313 2.687-6 6-6 3.314 0 6 2.687 6 6 0 3.314-2.686 6-6 6zm0-2c2.21 0 4-1.79 4-4s-1.79-4-4-4-4 1.79-4 4 1.79 4 4 4zM624.933 195.673c-3.314 0-6-2.687-6-6 0-3.314 2.686-6 6-6s6 2.686 6 6c0 3.313-2.686 6-6 6zm0-2c2.21 0 4-1.79 4-4s-1.79-4-4-4-4 1.79-4 4 1.79 4 4 4zM618.597 137.086c-3.314 0-6-2.686-6-6s2.686-6 6-6 6 2.686 6 6-2.686 6-6 6zm0-2c2.21 0 4-1.79 4-4s-1.79-4-4-4-4 1.79-4 4 1.79 4 4 4zM617.868 81.626c-3.313 0-6-2.686-6-6s2.687-6 6-6c3.314 0 6 2.686 6 6s-2.686 6-6 6zm0-2c2.21 0 4-1.79 4-4s-1.79-4-4-4-4 1.79-4 4 1.79 4 4 4zM624.213 25.213c-3.314 0-6-2.686-6-6s2.686-6 6-6 6 2.686 6 6-2.686 6-6 6zm0-2c2.21 0 4-1.79 4-4s-1.79-4-4-4-4 1.79-4 4 1.79 4 4 4zM566.96 1164.716c-3.314 0-6-2.686-6-6 0-3.313 2.686-6 6-6 3.313 0 6 2.687 6 6 0 3.314-2.687 6-6 6zm0-2c2.21 0 4-1.79 4-4s-1.79-4-4-4-4 1.79-4 4 1.79 4 4 4zM560.76 1131.543c-3.312 0-6-2.686-6-6s2.688-6 6-6c3.315 0 6 2.686 6 6s-2.685 6-6 6zm0-2c2.21 0 4-1.79 4-4s-1.79-4-4-4c-2.208 0-4 1.79-4 4s1.792 4 4 4zM567.518 1032.987c-3.314 0-6-2.687-6-6 0-3.314 2.686-6 6-6 3.313 0 6 2.686 6 6 0 3.313-2.687 6-6 6zm0-2c2.21 0 4-1.79 4-4s-1.79-4-4-4-4 1.79-4 4 1.79 4 4 4zM565.082 978.64c-3.314 0-6-2.687-6-6 0-3.314 2.686-6 6-6 3.313 0 6 2.686 6 6 0 3.313-2.687 6-6 6zm0-2c2.21 0 4-1.79 4-4s-1.79-4-4-4-4 1.79-4 4 1.79 4 4 4zM567.785 919.58c-3.313 0-6-2.685-6-6 0-3.313 2.687-6 6-6 3.314 0 6 2.687 6 6 0 3.315-2.686 6-6 6zm0-2c2.21 0 4-1.79 4-4 0-2.208-1.79-4-4-4s-4 1.792-4 4c0 2.21 1.79 4 4 4zM572.57 889.45c-3.314 0-6-2.687-6-6 0-3.314 2.686-6 6-6s6 2.686 6 6c0 3.313-2.686 6-6 6zm0-2c2.21 0 4-1.79 4-4s-1.79-4-4-4-4 1.79-4 4 1.79 4 4 4zM572.676 795.925c-3.313 0-6-2.687-6-6 0-3.314 2.687-6 6-6 3.314 0 6 2.686 6 6 0 3.313-2.686 6-6 6zm0-2c2.21 0 4-1.79 4-4s-1.79-4-4-4-4 1.79-4 4 1.79 4 4 4zM579.6 764.687c-3.314 0-6-2.686-6-6s2.686-6 6-6c3.313 0 6 2.686 6 6s-2.687 6-6 6zm0-2c2.21 0 4-1.79 4-4s-1.79-4-4-4-4 1.79-4 4 1.79 4 4 4zM564.462 682.644c-3.314 0-6-2.686-6-6s2.686-6 6-6c3.313 0 6 2.686 6 6s-2.687 6-6 6zm0-2c2.21 0 4-1.79 4-4s-1.79-4-4-4-4 1.79-4 4 1.79 4 4 4zM566.525 629.95c-3.313 0-6-2.685-6-6 0-3.313 2.687-6 6-6 3.314 0 6 2.687 6 6 0 3.315-2.686 6-6 6zm0-2c2.21 0 4-1.79 4-4 0-2.208-1.79-4-4-4s-4 1.792-4 4c0 2.21 1.79 4 4 4zM582.534 567.68c-3.314 0-6-2.686-6-6s2.686-6 6-6c3.313 0 6 2.686 6 6s-2.687 6-6 6zm0-2c2.21 0 4-1.79 4-4s-1.79-4-4-4-4 1.79-4 4 1.79 4 4 4zM580.003 523.867c-3.314 0-6-2.687-6-6 0-3.314 2.686-6 6-6 3.313 0 6 2.686 6 6 0 3.313-2.687 6-6 6zm0-2c2.21 0 4-1.79 4-4s-1.79-4-4-4-4 1.79-4 4 1.79 4 4 4zM557.48 468.085c-3.315 0-6-2.686-6-6s2.685-6 6-6c3.313 0 6 2.686 6 6s-2.687 6-6 6zm0-2c2.208 0 4-1.79 4-4s-1.792-4-4-4c-2.21 0-4 1.79-4 4s1.79 4 4 4zM566.09 377.8c-3.313 0-6-2.685-6-6 0-3.313 2.687-6 6-6 3.314 0 6 2.687 6 6 0 3.315-2.686 6-6 6zm0-2c2.21 0 4-1.79 4-4 0-2.208-1.79-4-4-4s-4 1.792-4 4c0 2.21 1.79 4 4 4zM560.072 339.36c-3.314 0-6-2.685-6-6 0-3.313 2.686-6 6-6 3.313 0 6 2.687 6 6 0 3.315-2.687 6-6 6zm0-2c2.21 0 4-1.79 4-4 0-2.208-1.79-4-4-4s-4 1.792-4 4c0 2.21 1.79 4 4 4zM568.81 277.124c-3.314 0-6-2.686-6-6s2.686-6 6-6 6 2.686 6 6-2.686 6-6 6zm0-2c2.21 0 4-1.79 4-4s-1.79-4-4-4-4 1.79-4 4 1.79 4 4 4zM578.688 225.88c-3.314 0-6-2.687-6-6 0-3.314 2.686-6 6-6 3.313 0 6 2.686 6 6 0 3.313-2.687 6-6 6zm0-2c2.21 0 4-1.79 4-4s-1.79-4-4-4-4 1.79-4 4 1.79 4 4 4zM568.98 134.32c-3.313 0-6-2.686-6-6 0-3.313 2.687-6 6-6 3.315 0 6 2.687 6 6 0 3.314-2.685 6-6 6zm0-2c2.21 0 4-1.79 4-4s-1.79-4-4-4c-2.208 0-4 1.79-4 4s1.792 4 4 4zM571.94 90.056c-3.315 0-6-2.686-6-6s2.685-6 6-6c3.313 0 6 2.686 6 6s-2.687 6-6 6zm0-2c2.208 0 4-1.79 4-4s-1.792-4-4-4c-2.21 0-4 1.79-4 4s1.79 4 4 4zM568.134 41.235c-3.313 0-6-2.687-6-6 0-3.314 2.687-6 6-6 3.314 0 6 2.686 6 6 0 3.313-2.686 6-6 6zm0-2c2.21 0 4-1.79 4-4s-1.79-4-4-4-4 1.79-4 4 1.79 4 4 4zM525.048 1168.995c-3.314 0-6-2.686-6-6 0-3.313 2.686-6 6-6 3.313 0 6 2.687 6 6 0 3.314-2.687 6-6 6zm0-2c2.21 0 4-1.79 4-4s-1.79-4-4-4-4 1.79-4 4 1.79 4 4 4zM512.573 1131c-3.314 0-6-2.685-6-6 0-3.313 2.686-6 6-6 3.313 0 6 2.687 6 6 0 3.315-2.687 6-6 6zm0-2c2.21 0 4-1.79 4-4 0-2.208-1.79-4-4-4s-4 1.792-4 4c0 2.21 1.79 4 4 4zM507.115 1040.42c-3.314 0-6-2.686-6-6s2.686-6 6-6 6 2.686 6 6-2.686 6-6 6zm0-2c2.21 0 4-1.79 4-4s-1.79-4-4-4-4 1.79-4 4 1.79 4 4 4zM507.08 996.132c-3.314 0-6-2.686-6-6 0-3.313 2.686-6 6-6 3.313 0 6 2.687 6 6 0 3.314-2.687 6-6 6zm0-2c2.21 0 4-1.79 4-4s-1.79-4-4-4-4 1.79-4 4 1.79 4 4 4zM508.94 951.265c-3.315 0-6-2.687-6-6 0-3.314 2.685-6 6-6 3.312 0 6 2.686 6 6 0 3.313-2.688 6-6 6zm0-2c2.208 0 4-1.79 4-4s-1.792-4-4-4c-2.21 0-4 1.79-4 4s1.79 4 4 4zM513.61 885.945c-3.313 0-6-2.686-6-6s2.687-6 6-6c3.314 0 6 2.686 6 6s-2.686 6-6 6zm0-2c2.21 0 4-1.79 4-4s-1.79-4-4-4-4 1.79-4 4 1.79 4 4 4zM510.21 826.095c-3.313 0-6-2.686-6-6 0-3.313 2.687-6 6-6 3.314 0 6 2.687 6 6 0 3.314-2.686 6-6 6zm0-2c2.21 0 4-1.79 4-4s-1.79-4-4-4-4 1.79-4 4 1.79 4 4 4zM509.797 743.888c-3.314 0-6-2.687-6-6 0-3.314 2.686-6 6-6 3.313 0 6 2.686 6 6 0 3.313-2.687 6-6 6zm0-2c2.21 0 4-1.79 4-4s-1.79-4-4-4-4 1.79-4 4 1.79 4 4 4zM524.76 706.536c-3.315 0-6-2.686-6-6s2.685-6 6-6c3.312 0 6 2.686 6 6s-2.688 6-6 6zm0-2c2.208 0 4-1.79 4-4s-1.792-4-4-4c-2.21 0-4 1.79-4 4s1.79 4 4 4zM509.595 623.48c-3.314 0-6-2.687-6-6 0-3.315 2.686-6 6-6s6 2.685 6 6c0 3.313-2.686 6-6 6zm0-2c2.21 0 4-1.792 4-4 0-2.21-1.79-4-4-4s-4 1.79-4 4c0 2.208 1.79 4 4 4zM513.79 579.6c-3.313 0-6-2.685-6-6 0-3.313 2.687-6 6-6 3.314 0 6 2.687 6 6 0 3.315-2.686 6-6 6zm0-2c2.21 0 4-1.79 4-4 0-2.208-1.79-4-4-4s-4 1.792-4 4c0 2.21 1.79 4 4 4zM510.157 492.776c-3.314 0-6-2.687-6-6 0-3.314 2.686-6 6-6s6 2.686 6 6c0 3.313-2.686 6-6 6zm0-2c2.21 0 4-1.79 4-4s-1.79-4-4-4-4 1.79-4 4 1.79 4 4 4zM524.63 448.804c-3.315 0-6-2.686-6-6s2.685-6 6-6c3.312 0 6 2.686 6 6s-2.688 6-6 6zm0-2c2.208 0 4-1.79 4-4s-1.792-4-4-4c-2.21 0-4 1.79-4 4s1.79 4 4 4zM517.157 395.597c-3.314 0-6-2.687-6-6 0-3.314 2.686-6 6-6 3.313 0 6 2.686 6 6 0 3.313-2.687 6-6 6zm0-2c2.21 0 4-1.79 4-4s-1.79-4-4-4-4 1.79-4 4 1.79 4 4 4zM526.774 332.712c-3.314 0-6-2.686-6-6s2.686-6 6-6c3.313 0 6 2.686 6 6s-2.687 6-6 6zm0-2c2.21 0 4-1.79 4-4s-1.79-4-4-4-4 1.79-4 4 1.79 4 4 4zM518.827 283.792c-3.313 0-6-2.686-6-6 0-3.313 2.687-6 6-6 3.314 0 6 2.687 6 6 0 3.314-2.686 6-6 6zm0-2c2.21 0 4-1.79 4-4s-1.79-4-4-4-4 1.79-4 4 1.79 4 4 4zM531.928 206.378c-3.314 0-6-2.686-6-6s2.686-6 6-6c3.313 0 6 2.686 6 6s-2.687 6-6 6zm0-2c2.21 0 4-1.79 4-4s-1.79-4-4-4-4 1.79-4 4 1.79 4 4 4zM508.032 133.765c-3.313 0-6-2.686-6-6s2.687-6 6-6c3.314 0 6 2.686 6 6s-2.686 6-6 6zm0-2c2.21 0 4-1.79 4-4s-1.79-4-4-4-4 1.79-4 4 1.79 4 4 4zM509.88 93.54c-3.314 0-6-2.687-6-6 0-3.315 2.686-6 6-6s6 2.685 6 6c0 3.313-2.686 6-6 6zm0-2c2.21 0 4-1.792 4-4 0-2.21-1.79-4-4-4s-4 1.79-4 4c0 2.208 1.79 4 4 4zM514.238 30.956c-3.313 0-6-2.687-6-6 0-3.314 2.687-6 6-6 3.314 0 6 2.686 6 6 0 3.313-2.686 6-6 6zm0-2c2.21 0 4-1.79 4-4s-1.79-4-4-4-4 1.79-4 4 1.79 4 4 4zM474.25 1181.137c-3.314 0-6-2.686-6-6 0-3.313 2.686-6 6-6s6 2.687 6 6c0 3.314-2.686 6-6 6zm0-2c2.21 0 4-1.79 4-4s-1.79-4-4-4-4 1.79-4 4 1.79 4 4 4zM461.775 1131.328c-3.313 0-6-2.686-6-6s2.687-6 6-6c3.314 0 6 2.686 6 6s-2.686 6-6 6zm0-2c2.21 0 4-1.79 4-4s-1.79-4-4-4-4 1.79-4 4 1.79 4 4 4zM485.958 1063.284c-3.313 0-6-2.687-6-6 0-3.314 2.687-6 6-6 3.314 0 6 2.686 6 6 0 3.313-2.686 6-6 6zm0-2c2.21 0 4-1.79 4-4s-1.79-4-4-4-4 1.79-4 4 1.79 4 4 4zM457.346 1004.144c-3.314 0-6-2.687-6-6 0-3.314 2.686-6 6-6 3.313 0 6 2.686 6 6 0 3.313-2.687 6-6 6zm0-2c2.21 0 4-1.79 4-4s-1.79-4-4-4-4 1.79-4 4 1.79 4 4 4zM464.397 918.52c-3.314 0-6-2.687-6-6 0-3.315 2.686-6 6-6s6 2.685 6 6c0 3.313-2.686 6-6 6zm0-2c2.21 0 4-1.792 4-4 0-2.21-1.79-4-4-4s-4 1.79-4 4c0 2.208 1.79 4 4 4zM461.085 859.038c-3.314 0-6-2.686-6-6s2.686-6 6-6c3.313 0 6 2.686 6 6s-2.687 6-6 6zm0-2c2.21 0 4-1.79 4-4s-1.79-4-4-4-4 1.79-4 4 1.79 4 4 4zM480.216 793.712c-3.314 0-6-2.686-6-6 0-3.313 2.686-6 6-6s6 2.687 6 6c0 3.314-2.686 6-6 6zm0-2c2.21 0 4-1.79 4-4s-1.79-4-4-4-4 1.79-4 4 1.79 4 4 4zM470.413 747.81c-3.313 0-6-2.687-6-6 0-3.314 2.687-6 6-6 3.314 0 6 2.686 6 6 0 3.313-2.686 6-6 6zm0-2c2.21 0 4-1.79 4-4s-1.79-4-4-4-4 1.79-4 4 1.79 4 4 4zM462.012 678.626c-3.314 0-6-2.686-6-6 0-3.313 2.686-6 6-6s6 2.687 6 6c0 3.314-2.686 6-6 6zm0-2c2.21 0 4-1.79 4-4s-1.79-4-4-4-4 1.79-4 4 1.79 4 4 4zM461.22 642.09c-3.313 0-6-2.685-6-6 0-3.313 2.687-6 6-6 3.315 0 6 2.687 6 6 0 3.315-2.685 6-6 6zm0-2c2.21 0 4-1.79 4-4 0-2.208-1.79-4-4-4-2.208 0-4 1.792-4 4 0 2.21 1.792 4 4 4zM468.15 575.266c-3.314 0-6-2.687-6-6 0-3.314 2.686-6 6-6s6 2.686 6 6c0 3.313-2.686 6-6 6zm0-2c2.21 0 4-1.79 4-4s-1.79-4-4-4-4 1.79-4 4 1.79 4 4 4zM464.41 502.007c-3.313 0-6-2.687-6-6 0-3.314 2.687-6 6-6 3.315 0 6 2.686 6 6 0 3.313-2.685 6-6 6zm0-2c2.21 0 4-1.79 4-4s-1.79-4-4-4c-2.208 0-4 1.79-4 4s1.792 4 4 4zM481.032 461.553c-3.314 0-6-2.686-6-6 0-3.313 2.686-6 6-6s6 2.687 6 6c0 3.314-2.686 6-6 6zm0-2c2.21 0 4-1.79 4-4s-1.79-4-4-4-4 1.79-4 4 1.79 4 4 4zM457.94 372.197c-3.313 0-6-2.686-6-6s2.687-6 6-6c3.314 0 6 2.686 6 6s-2.686 6-6 6zm0-2c2.21 0 4-1.79 4-4s-1.79-4-4-4-4 1.79-4 4 1.79 4 4 4zM472.443 333.906c-3.313 0-6-2.687-6-6 0-3.314 2.687-6 6-6 3.314 0 6 2.686 6 6 0 3.313-2.686 6-6 6zm0-2c2.21 0 4-1.79 4-4s-1.79-4-4-4-4 1.79-4 4 1.79 4 4 4zM467.465 267.165c-3.314 0-6-2.686-6-6 0-3.313 2.686-6 6-6 3.313 0 6 2.687 6 6 0 3.314-2.687 6-6 6zm0-2c2.21 0 4-1.79 4-4s-1.79-4-4-4-4 1.79-4 4 1.79 4 4 4zM456.597 198.548c-3.314 0-6-2.686-6-6 0-3.313 2.686-6 6-6 3.313 0 6 2.687 6 6 0 3.314-2.687 6-6 6zm0-2c2.21 0 4-1.79 4-4s-1.79-4-4-4-4 1.79-4 4 1.79 4 4 4zM467.142 155.8c-3.313 0-6-2.688-6-6 0-3.315 2.687-6 6-6 3.314 0 6 2.685 6 6 0 3.312-2.686 6-6 6zm0-2c2.21 0 4-1.792 4-4 0-2.21-1.79-4-4-4s-4 1.79-4 4c0 2.208 1.79 4 4 4zM476.877 105c-3.314 0-6-2.687-6-6 0-3.315 2.686-6 6-6 3.313 0 6 2.685 6 6 0 3.313-2.687 6-6 6zm0-2c2.21 0 4-1.792 4-4 0-2.21-1.79-4-4-4s-4 1.79-4 4c0 2.208 1.79 4 4 4zM466.13 46.23c-3.314 0-6-2.687-6-6 0-3.315 2.686-6 6-6s6 2.685 6 6c0 3.313-2.686 6-6 6zm0-2c2.21 0 4-1.792 4-4 0-2.21-1.79-4-4-4s-4 1.79-4 4c0 2.208 1.79 4 4 4zM435.257 1171.71c-3.314 0-6-2.686-6-6 0-3.313 2.686-6 6-6s6 2.687 6 6c0 3.314-2.686 6-6 6zm0-2c2.21 0 4-1.79 4-4s-1.79-4-4-4-4 1.79-4 4 1.79 4 4 4zM425.106 1106.616c-3.314 0-6-2.686-6-6s2.686-6 6-6 6 2.686 6 6-2.686 6-6 6zm0-2c2.21 0 4-1.79 4-4s-1.79-4-4-4-4 1.79-4 4 1.79 4 4 4zM432.32 1059.338c-3.315 0-6-2.686-6-6s2.685-6 6-6c3.312 0 6 2.686 6 6s-2.688 6-6 6zm0-2c2.208 0 4-1.79 4-4s-1.792-4-4-4c-2.21 0-4 1.79-4 4s1.79 4 4 4zM409.598 985.1c-3.313 0-6-2.685-6-6 0-3.313 2.687-6 6-6 3.314 0 6 2.687 6 6 0 3.315-2.686 6-6 6zm0-2c2.21 0 4-1.79 4-4 0-2.208-1.79-4-4-4s-4 1.792-4 4c0 2.21 1.79 4 4 4zM433.832 917.795c-3.314 0-6-2.686-6-6s2.686-6 6-6c3.313 0 6 2.686 6 6s-2.687 6-6 6zm0-2c2.21 0 4-1.79 4-4s-1.79-4-4-4-4 1.79-4 4 1.79 4 4 4zM425.82 874.15c-3.312 0-6-2.688-6-6 0-3.315 2.688-6 6-6 3.315 0 6 2.685 6 6 0 3.312-2.685 6-6 6zm0-2c2.21 0 4-1.792 4-4 0-2.21-1.79-4-4-4-2.208 0-4 1.79-4 4 0 2.208 1.792 4 4 4zM415.52 811.862c-3.315 0-6-2.686-6-6s2.685-6 6-6c3.313 0 6 2.686 6 6s-2.687 6-6 6zm0-2c2.208 0 4-1.79 4-4s-1.792-4-4-4c-2.21 0-4 1.79-4 4s1.79 4 4 4zM414.26 744.353c-3.314 0-6-2.686-6-6s2.686-6 6-6c3.313 0 6 2.686 6 6s-2.687 6-6 6zm0-2c2.21 0 4-1.79 4-4s-1.79-4-4-4-4 1.79-4 4 1.79 4 4 4zM429.092 687.958c-3.314 0-6-2.686-6-6 0-3.313 2.686-6 6-6s6 2.687 6 6c0 3.314-2.686 6-6 6zm0-2c2.21 0 4-1.79 4-4s-1.79-4-4-4-4 1.79-4 4 1.79 4 4 4zM430.03 650.91c-3.313 0-6-2.686-6-6 0-3.313 2.687-6 6-6 3.314 0 6 2.687 6 6 0 3.314-2.686 6-6 6zm0-2c2.21 0 4-1.79 4-4s-1.79-4-4-4-4 1.79-4 4 1.79 4 4 4zM435.012 556.234c-3.314 0-6-2.686-6-6 0-3.313 2.686-6 6-6 3.313 0 6 2.687 6 6 0 3.314-2.687 6-6 6zm0-2c2.21 0 4-1.79 4-4s-1.79-4-4-4-4 1.79-4 4 1.79 4 4 4zM423.737 526.904c-3.314 0-6-2.686-6-6 0-3.313 2.686-6 6-6s6 2.687 6 6c0 3.314-2.686 6-6 6zm0-2c2.21 0 4-1.79 4-4s-1.79-4-4-4-4 1.79-4 4 1.79 4 4 4zM409.037 468.805c-3.314 0-6-2.686-6-6s2.686-6 6-6 6 2.686 6 6-2.686 6-6 6zm0-2c2.21 0 4-1.79 4-4s-1.79-4-4-4-4 1.79-4 4 1.79 4 4 4zM418.12 395.575c-3.314 0-6-2.686-6-6s2.686-6 6-6 6 2.686 6 6-2.686 6-6 6zm0-2c2.21 0 4-1.79 4-4s-1.79-4-4-4-4 1.79-4 4 1.79 4 4 4zM423.412 339.515c-3.314 0-6-2.686-6-6 0-3.313 2.686-6 6-6 3.313 0 6 2.687 6 6 0 3.314-2.687 6-6 6zm0-2c2.21 0 4-1.79 4-4s-1.79-4-4-4-4 1.79-4 4 1.79 4 4 4zM427.105 262.084c-3.314 0-6-2.686-6-6 0-3.313 2.686-6 6-6 3.313 0 6 2.687 6 6 0 3.314-2.687 6-6 6zm0-2c2.21 0 4-1.79 4-4s-1.79-4-4-4-4 1.79-4 4 1.79 4 4 4zM430.377 231.61c-3.314 0-6-2.686-6-6s2.686-6 6-6 6 2.686 6 6-2.686 6-6 6zm0-2c2.21 0 4-1.79 4-4s-1.79-4-4-4-4 1.79-4 4 1.79 4 4 4zM432.983 159.316c-3.313 0-6-2.686-6-6 0-3.313 2.687-6 6-6 3.314 0 6 2.687 6 6 0 3.314-2.686 6-6 6zm0-2c2.21 0 4-1.79 4-4s-1.79-4-4-4-4 1.79-4 4 1.79 4 4 4zM433.204 88.5c-3.313 0-6-2.685-6-6 0-3.312 2.687-6 6-6 3.314 0 6 2.688 6 6 0 3.315-2.686 6-6 6zm0-2c2.21 0 4-1.79 4-4 0-2.208-1.79-4-4-4s-4 1.792-4 4c0 2.21 1.79 4 4 4zM418.54 22.556c-3.313 0-6-2.687-6-6 0-3.314 2.687-6 6-6 3.314 0 6 2.686 6 6 0 3.313-2.686 6-6 6zm0-2c2.21 0 4-1.79 4-4s-1.79-4-4-4c-2.208 0-4 1.79-4 4s1.792 4 4 4zM363.255 1188.017c-3.314 0-6-2.686-6-6s2.686-6 6-6 6 2.686 6 6-2.686 6-6 6zm0-2c2.21 0 4-1.79 4-4s-1.79-4-4-4-4 1.79-4 4 1.79 4 4 4zM378.886 1123.118c-3.314 0-6-2.687-6-6 0-3.314 2.686-6 6-6s6 2.686 6 6c0 3.313-2.686 6-6 6zm0-2c2.21 0 4-1.79 4-4s-1.79-4-4-4-4 1.79-4 4 1.79 4 4 4zM378.694 1069.71c-3.313 0-6-2.686-6-6 0-3.313 2.687-6 6-6 3.314 0 6 2.687 6 6 0 3.314-2.686 6-6 6zm0-2c2.21 0 4-1.79 4-4s-1.79-4-4-4-4 1.79-4 4 1.79 4 4 4zM377.884 979.4c-3.314 0-6-2.688-6-6 0-3.315 2.686-6 6-6 3.313 0 6 2.685 6 6 0 3.312-2.687 6-6 6zm0-2c2.21 0 4-1.792 4-4 0-2.21-1.79-4-4-4s-4 1.79-4 4c0 2.208 1.79 4 4 4zM364.32 938.582c-3.313 0-6-2.686-6-6s2.687-6 6-6c3.315 0 6 2.686 6 6s-2.685 6-6 6zm0-2c2.21 0 4-1.79 4-4s-1.79-4-4-4c-2.208 0-4 1.79-4 4s1.792 4 4 4zM385.08 861.46c-3.314 0-6-2.687-6-6 0-3.315 2.686-6 6-6 3.313 0 6 2.685 6 6 0 3.313-2.687 6-6 6zm0-2c2.21 0 4-1.792 4-4 0-2.21-1.79-4-4-4s-4 1.79-4 4c0 2.208 1.79 4 4 4zM360.12 801.664c-3.313 0-6-2.687-6-6 0-3.314 2.687-6 6-6 3.314 0 6 2.686 6 6 0 3.313-2.686 6-6 6zm0-2c2.21 0 4-1.79 4-4s-1.79-4-4-4-4 1.79-4 4 1.79 4 4 4zM374.543 750.38c-3.313 0-6-2.685-6-6 0-3.312 2.687-6 6-6 3.314 0 6 2.688 6 6 0 3.315-2.686 6-6 6zm0-2c2.21 0 4-1.79 4-4 0-2.208-1.79-4-4-4s-4 1.792-4 4c0 2.21 1.79 4 4 4zM359.916 707.445c-3.314 0-6-2.686-6-6s2.686-6 6-6 6 2.686 6 6-2.686 6-6 6zm0-2c2.21 0 4-1.79 4-4s-1.79-4-4-4-4 1.79-4 4 1.79 4 4 4zM383.792 640.36c-3.314 0-6-2.686-6-6s2.686-6 6-6 6 2.686 6 6-2.686 6-6 6zm0-2c2.21 0 4-1.79 4-4s-1.79-4-4-4-4 1.79-4 4 1.79 4 4 4zM377.594 569.73c-3.314 0-6-2.686-6-6 0-3.313 2.686-6 6-6s6 2.687 6 6c0 3.314-2.686 6-6 6zm0-2c2.21 0 4-1.79 4-4s-1.79-4-4-4-4 1.79-4 4 1.79 4 4 4zM367.65 492.257c-3.314 0-6-2.686-6-6s2.686-6 6-6c3.313 0 6 2.686 6 6s-2.687 6-6 6zm0-2c2.208 0 4-1.79 4-4s-1.792-4-4-4c-2.21 0-4 1.79-4 4s1.79 4 4 4zM371.134 442.024c-3.314 0-6-2.687-6-6 0-3.314 2.686-6 6-6 3.313 0 6 2.686 6 6 0 3.313-2.687 6-6 6zm0-2c2.21 0 4-1.79 4-4s-1.79-4-4-4-4 1.79-4 4 1.79 4 4 4zM381.658 385.7c-3.314 0-6-2.687-6-6 0-3.314 2.686-6 6-6 3.313 0 6 2.686 6 6 0 3.313-2.687 6-6 6zm0-2c2.21 0 4-1.79 4-4s-1.79-4-4-4-4 1.79-4 4 1.79 4 4 4zM383.842 348.628c-3.314 0-6-2.686-6-6s2.686-6 6-6 6 2.686 6 6-2.686 6-6 6zm0-2c2.21 0 4-1.79 4-4s-1.79-4-4-4-4 1.79-4 4 1.79 4 4 4zM360.41 265.753c-3.312 0-6-2.686-6-6s2.688-6 6-6c3.315 0 6 2.686 6 6s-2.685 6-6 6zm0-2c2.21 0 4-1.79 4-4s-1.79-4-4-4c-2.208 0-4 1.79-4 4s1.792 4 4 4zM367.237 207.903c-3.313 0-6-2.686-6-6s2.687-6 6-6c3.314 0 6 2.686 6 6s-2.686 6-6 6zm0-2c2.21 0 4-1.79 4-4s-1.79-4-4-4-4 1.79-4 4 1.79 4 4 4zM378.81 143.906c-3.314 0-6-2.686-6-6 0-3.313 2.686-6 6-6s6 2.687 6 6c0 3.314-2.686 6-6 6zm0-2c2.21 0 4-1.79 4-4s-1.79-4-4-4-4 1.79-4 4 1.79 4 4 4zM376.095 100.825c-3.313 0-6-2.686-6-6 0-3.313 2.687-6 6-6 3.314 0 6 2.687 6 6 0 3.314-2.686 6-6 6zm0-2c2.21 0 4-1.79 4-4s-1.79-4-4-4-4 1.79-4 4 1.79 4 4 4zM357.186 47.65c-3.314 0-6-2.686-6-6s2.686-6 6-6c3.313 0 6 2.686 6 6s-2.687 6-6 6zm0-2c2.21 0 4-1.79 4-4s-1.79-4-4-4-4 1.79-4 4 1.79 4 4 4zM315.646 1174.5c-3.313 0-6-2.686-6-6s2.687-6 6-6c3.314 0 6 2.686 6 6s-2.686 6-6 6zm0-2c2.21 0 4-1.79 4-4s-1.79-4-4-4-4 1.79-4 4 1.79 4 4 4zM309.087 1106.006c-3.314 0-6-2.686-6-6 0-3.313 2.686-6 6-6 3.313 0 6 2.687 6 6 0 3.314-2.687 6-6 6zm0-2c2.21 0 4-1.79 4-4s-1.79-4-4-4-4 1.79-4 4 1.79 4 4 4zM319.76 1056.192c-3.315 0-6-2.686-6-6s2.685-6 6-6c3.313 0 6 2.686 6 6s-2.687 6-6 6zm0-2c2.208 0 4-1.79 4-4s-1.792-4-4-4c-2.21 0-4 1.79-4 4s1.79 4 4 4zM316.708 1000.713c-3.313 0-6-2.686-6-6s2.687-6 6-6c3.314 0 6 2.686 6 6s-2.686 6-6 6zm0-2c2.21 0 4-1.79 4-4s-1.79-4-4-4-4 1.79-4 4 1.79 4 4 4zM328.43 924.784c-3.312 0-6-2.686-6-6s2.688-6 6-6c3.315 0 6 2.686 6 6s-2.685 6-6 6zm0-2c2.21 0 4-1.79 4-4s-1.79-4-4-4c-2.208 0-4 1.79-4 4s1.792 4 4 4zM308.494 883.02c-3.314 0-6-2.686-6-6 0-3.313 2.686-6 6-6s6 2.687 6 6c0 3.314-2.686 6-6 6zm0-2c2.21 0 4-1.79 4-4s-1.79-4-4-4-4 1.79-4 4 1.79 4 4 4zM333.52 814.877c-3.315 0-6-2.687-6-6 0-3.314 2.685-6 6-6 3.313 0 6 2.686 6 6 0 3.313-2.687 6-6 6zm0-2c2.208 0 4-1.79 4-4s-1.792-4-4-4c-2.21 0-4 1.79-4 4s1.79 4 4 4zM319.205 766.335c-3.314 0-6-2.686-6-6s2.686-6 6-6 6 2.686 6 6-2.686 6-6 6zm0-2c2.21 0 4-1.79 4-4s-1.79-4-4-4-4 1.79-4 4 1.79 4 4 4zM332.605 696.71c-3.314 0-6-2.687-6-6 0-3.314 2.686-6 6-6s6 2.686 6 6c0 3.313-2.686 6-6 6zm0-2c2.21 0 4-1.79 4-4s-1.79-4-4-4-4 1.79-4 4 1.79 4 4 4zM316.842 627.813c-3.313 0-6-2.686-6-6 0-3.313 2.687-6 6-6 3.314 0 6 2.687 6 6 0 3.314-2.686 6-6 6zm0-2c2.21 0 4-1.79 4-4s-1.79-4-4-4-4 1.79-4 4 1.79 4 4 4zM335.095 578.99c-3.314 0-6-2.687-6-6 0-3.314 2.686-6 6-6 3.313 0 6 2.686 6 6 0 3.313-2.687 6-6 6zm0-2c2.21 0 4-1.79 4-4s-1.79-4-4-4-4 1.79-4 4 1.79 4 4 4zM306.01 520.183c-3.314 0-6-2.687-6-6 0-3.314 2.686-6 6-6 3.313 0 6 2.686 6 6 0 3.313-2.687 6-6 6zm0-2c2.208 0 4-1.79 4-4s-1.792-4-4-4c-2.21 0-4 1.79-4 4s1.79 4 4 4zM330.266 440.615c-3.314 0-6-2.686-6-6s2.686-6 6-6c3.313 0 6 2.686 6 6s-2.687 6-6 6zm0-2c2.21 0 4-1.79 4-4s-1.79-4-4-4-4 1.79-4 4 1.79 4 4 4zM335.23 407.74c-3.314 0-6-2.686-6-6 0-3.313 2.686-6 6-6 3.313 0 6 2.687 6 6 0 3.314-2.687 6-6 6zm0-2c2.21 0 4-1.79 4-4 0-2.208-1.79-4-4-4s-4 1.792-4 4c0 2.21 1.79 4 4 4zM316.18 317.01c-3.314 0-6-2.686-6-6s2.686-6 6-6c3.313 0 6 2.686 6 6s-2.687 6-6 6zm0-2c2.208 0 4-1.79 4-4s-1.792-4-4-4c-2.21 0-4 1.79-4 4s1.79 4 4 4zM333.126 282.108c-3.314 0-6-2.686-6-6 0-3.313 2.686-6 6-6s6 2.687 6 6c0 3.314-2.686 6-6 6zm0-2c2.21 0 4-1.79 4-4s-1.79-4-4-4-4 1.79-4 4 1.79 4 4 4zM324.493 201.383c-3.314 0-6-2.686-6-6 0-3.313 2.686-6 6-6s6 2.687 6 6c0 3.314-2.686 6-6 6zm0-2c2.21 0 4-1.79 4-4s-1.79-4-4-4-4 1.79-4 4 1.79 4 4 4zM325.048 171.59c-3.314 0-6-2.687-6-6 0-3.314 2.686-6 6-6 3.313 0 6 2.686 6 6 0 3.313-2.687 6-6 6zm0-2c2.21 0 4-1.79 4-4s-1.79-4-4-4-4 1.79-4 4 1.79 4 4 4zM316.264 106.523c-3.314 0-6-2.687-6-6 0-3.314 2.686-6 6-6s6 2.686 6 6c0 3.313-2.686 6-6 6zm0-2c2.21 0 4-1.79 4-4s-1.79-4-4-4-4 1.79-4 4 1.79 4 4 4zM324.36 23.898c-3.313 0-6-2.687-6-6 0-3.314 2.687-6 6-6 3.314 0 6 2.686 6 6 0 3.313-2.686 6-6 6zm0-2c2.21 0 4-1.79 4-4s-1.79-4-4-4-4 1.79-4 4 1.79 4 4 4zM258.034 1152.136c-3.313 0-6-2.687-6-6 0-3.314 2.687-6 6-6 3.314 0 6 2.686 6 6 0 3.313-2.686 6-6 6zm0-2c2.21 0 4-1.79 4-4s-1.79-4-4-4-4 1.79-4 4 1.79 4 4 4zM283.778 1118.304c-3.314 0-6-2.686-6-6s2.686-6 6-6 6 2.686 6 6-2.686 6-6 6zm0-2c2.21 0 4-1.79 4-4s-1.79-4-4-4-4 1.79-4 4 1.79 4 4 4zM275.825 1045.527c-3.314 0-6-2.686-6-6 0-3.313 2.686-6 6-6s6 2.687 6 6c0 3.314-2.686 6-6 6zm0-2c2.21 0 4-1.79 4-4s-1.79-4-4-4-4 1.79-4 4 1.79 4 4 4zM278.607 984.045c-3.314 0-6-2.686-6-6s2.686-6 6-6c3.313 0 6 2.686 6 6s-2.687 6-6 6zm0-2c2.21 0 4-1.79 4-4s-1.79-4-4-4-4 1.79-4 4 1.79 4 4 4zM264.444 923.912c-3.314 0-6-2.686-6-6s2.686-6 6-6 6 2.686 6 6-2.686 6-6 6zm0-2c2.21 0 4-1.79 4-4s-1.79-4-4-4-4 1.79-4 4 1.79 4 4 4zM270.414 873.258c-3.314 0-6-2.686-6-6 0-3.313 2.686-6 6-6 3.313 0 6 2.687 6 6 0 3.314-2.687 6-6 6zm0-2c2.21 0 4-1.79 4-4s-1.79-4-4-4-4 1.79-4 4 1.79 4 4 4zM280.248 830.61c-3.314 0-6-2.686-6-6s2.686-6 6-6c3.313 0 6 2.686 6 6s-2.687 6-6 6zm0-2c2.21 0 4-1.79 4-4s-1.79-4-4-4-4 1.79-4 4 1.79 4 4 4zM284.08 762.164c-3.314 0-6-2.687-6-6 0-3.314 2.686-6 6-6 3.313 0 6 2.686 6 6 0 3.313-2.687 6-6 6zm0-2c2.21 0 4-1.79 4-4s-1.79-4-4-4-4 1.79-4 4 1.79 4 4 4zM285.907 678.346c-3.314 0-6-2.687-6-6 0-3.314 2.686-6 6-6s6 2.686 6 6c0 3.313-2.686 6-6 6zm0-2c2.21 0 4-1.79 4-4s-1.79-4-4-4-4 1.79-4 4 1.79 4 4 4zM256.45 644.522c-3.313 0-6-2.687-6-6 0-3.314 2.687-6 6-6 3.315 0 6 2.686 6 6 0 3.313-2.685 6-6 6zm0-2c2.21 0 4-1.79 4-4s-1.79-4-4-4c-2.208 0-4 1.79-4 4s1.792 4 4 4zM280.07 574.52c-3.313 0-6-2.686-6-6 0-3.313 2.687-6 6-6 3.314 0 6 2.687 6 6 0 3.314-2.686 6-6 6zm0-2c2.21 0 4-1.79 4-4s-1.79-4-4-4c-2.208 0-4 1.79-4 4s1.792 4 4 4zM280.398 512.802c-3.313 0-6-2.687-6-6 0-3.314 2.687-6 6-6 3.314 0 6 2.686 6 6 0 3.313-2.686 6-6 6zm0-2c2.21 0 4-1.79 4-4s-1.79-4-4-4-4 1.79-4 4 1.79 4 4 4zM259.058 453.32c-3.313 0-6-2.685-6-6 0-3.312 2.687-6 6-6 3.314 0 6 2.688 6 6 0 3.315-2.686 6-6 6zm0-2c2.21 0 4-1.79 4-4 0-2.208-1.79-4-4-4s-4 1.792-4 4c0 2.21 1.79 4 4 4zM262.767 385.467c-3.313 0-6-2.686-6-6s2.687-6 6-6c3.314 0 6 2.686 6 6s-2.686 6-6 6zm0-2c2.21 0 4-1.79 4-4s-1.79-4-4-4-4 1.79-4 4 1.79 4 4 4zM280.92 315.228c-3.313 0-6-2.686-6-6s2.687-6 6-6c3.315 0 6 2.686 6 6s-2.685 6-6 6zm0-2c2.21 0 4-1.79 4-4s-1.79-4-4-4c-2.208 0-4 1.79-4 4s1.792 4 4 4zM256.674 276.09c-3.313 0-6-2.686-6-6 0-3.313 2.687-6 6-6 3.314 0 6 2.687 6 6 0 3.314-2.686 6-6 6zm0-2c2.21 0 4-1.79 4-4 0-2.208-1.79-4-4-4s-4 1.792-4 4c0 2.21 1.79 4 4 4zM272.515 195.368c-3.313 0-6-2.686-6-6 0-3.313 2.687-6 6-6 3.314 0 6 2.687 6 6 0 3.314-2.686 6-6 6zm0-2c2.21 0 4-1.79 4-4s-1.79-4-4-4-4 1.79-4 4 1.79 4 4 4zM258.927 147.427c-3.314 0-6-2.687-6-6 0-3.314 2.686-6 6-6s6 2.686 6 6c0 3.313-2.686 6-6 6zm0-2c2.21 0 4-1.79 4-4s-1.79-4-4-4-4 1.79-4 4 1.79 4 4 4zM260.012 75.696c-3.314 0-6-2.686-6-6s2.686-6 6-6c3.313 0 6 2.686 6 6s-2.687 6-6 6zm0-2c2.21 0 4-1.79 4-4s-1.79-4-4-4-4 1.79-4 4 1.79 4 4 4zM266.135 27.6c-3.314 0-6-2.688-6-6 0-3.315 2.686-6 6-6s6 2.685 6 6c0 3.312-2.686 6-6 6zm0-2c2.21 0 4-1.792 4-4 0-2.21-1.79-4-4-4s-4 1.79-4 4c0 2.208 1.79 4 4 4zM231.888 1152.85c-3.313 0-6-2.686-6-6s2.687-6 6-6c3.314 0 6 2.686 6 6s-2.686 6-6 6zm0-2c2.21 0 4-1.79 4-4s-1.79-4-4-4-4 1.79-4 4 1.79 4 4 4zM231.117 1093.172c-3.313 0-6-2.686-6-6s2.687-6 6-6c3.314 0 6 2.686 6 6s-2.686 6-6 6zm0-2c2.21 0 4-1.79 4-4s-1.79-4-4-4-4 1.79-4 4 1.79 4 4 4zM228.76 1050.256c-3.312 0-6-2.686-6-6 0-3.313 2.688-6 6-6 3.315 0 6 2.687 6 6 0 3.314-2.685 6-6 6zm0-2c2.21 0 4-1.79 4-4s-1.79-4-4-4c-2.208 0-4 1.79-4 4s1.792 4 4 4zM209.347 983.18c-3.314 0-6-2.687-6-6 0-3.314 2.686-6 6-6 3.313 0 6 2.686 6 6 0 3.313-2.687 6-6 6zm0-2c2.21 0 4-1.79 4-4s-1.79-4-4-4-4 1.79-4 4 1.79 4 4 4zM212.735 919.082c-3.314 0-6-2.687-6-6 0-3.314 2.686-6 6-6s6 2.686 6 6c0 3.313-2.686 6-6 6zm0-2c2.21 0 4-1.79 4-4s-1.79-4-4-4-4 1.79-4 4 1.79 4 4 4zM223.596 862.75c-3.314 0-6-2.686-6-6s2.686-6 6-6c3.313 0 6 2.686 6 6s-2.687 6-6 6zm0-2c2.21 0 4-1.79 4-4s-1.79-4-4-4-4 1.79-4 4 1.79 4 4 4zM229.23 800.852c-3.313 0-6-2.686-6-6s2.687-6 6-6c3.314 0 6 2.686 6 6s-2.686 6-6 6zm0-2c2.21 0 4-1.79 4-4s-1.79-4-4-4-4 1.79-4 4 1.79 4 4 4zM222.43 754.757c-3.313 0-6-2.687-6-6 0-3.314 2.687-6 6-6 3.314 0 6 2.686 6 6 0 3.313-2.686 6-6 6zm0-2c2.21 0 4-1.79 4-4s-1.79-4-4-4-4 1.79-4 4 1.79 4 4 4zM229.343 672.14c-3.314 0-6-2.687-6-6 0-3.314 2.686-6 6-6s6 2.686 6 6c0 3.313-2.686 6-6 6zm0-2c2.21 0 4-1.79 4-4s-1.79-4-4-4-4 1.79-4 4 1.79 4 4 4zM215.07 644.837c-3.313 0-6-2.686-6-6s2.687-6 6-6c3.314 0 6 2.686 6 6s-2.686 6-6 6zm0-2c2.21 0 4-1.79 4-4s-1.79-4-4-4-4 1.79-4 4 1.79 4 4 4zM226.895 591.42c-3.314 0-6-2.686-6-6 0-3.313 2.686-6 6-6 3.313 0 6 2.687 6 6 0 3.314-2.687 6-6 6zm0-2c2.21 0 4-1.79 4-4 0-2.208-1.79-4-4-4s-4 1.792-4 4c0 2.21 1.79 4 4 4zM220.232 522.486c-3.314 0-6-2.686-6-6s2.686-6 6-6 6 2.686 6 6-2.686 6-6 6zm0-2c2.21 0 4-1.79 4-4s-1.79-4-4-4-4 1.79-4 4 1.79 4 4 4zM233.5 459.96c-3.314 0-6-2.685-6-6 0-3.312 2.686-6 6-6s6 2.688 6 6c0 3.315-2.686 6-6 6zm0-2c2.21 0 4-1.79 4-4 0-2.208-1.79-4-4-4s-4 1.792-4 4c0 2.21 1.79 4 4 4zM206.65 375.61c-3.313 0-6-2.687-6-6 0-3.315 2.687-6 6-6 3.314 0 6 2.685 6 6 0 3.313-2.686 6-6 6zm0-2c2.21 0 4-1.792 4-4 0-2.21-1.79-4-4-4-2.208 0-4 1.79-4 4 0 2.208 1.792 4 4 4zM229.65 313.136c-3.313 0-6-2.686-6-6 0-3.313 2.687-6 6-6 3.315 0 6 2.687 6 6 0 3.314-2.685 6-6 6zm0-2c2.21 0 4-1.79 4-4s-1.79-4-4-4c-2.208 0-4 1.79-4 4s1.792 4 4 4zM208.042 257.732c-3.314 0-6-2.687-6-6 0-3.314 2.686-6 6-6 3.313 0 6 2.686 6 6 0 3.313-2.687 6-6 6zm0-2c2.21 0 4-1.79 4-4s-1.79-4-4-4-4 1.79-4 4 1.79 4 4 4zM207.755 227.63c-3.314 0-6-2.686-6-6 0-3.313 2.686-6 6-6s6 2.687 6 6c0 3.314-2.686 6-6 6zm0-2c2.21 0 4-1.79 4-4s-1.79-4-4-4-4 1.79-4 4 1.79 4 4 4zM223.136 134.383c-3.314 0-6-2.687-6-6 0-3.314 2.686-6 6-6 3.313 0 6 2.686 6 6 0 3.313-2.687 6-6 6zm0-2c2.21 0 4-1.79 4-4s-1.79-4-4-4-4 1.79-4 4 1.79 4 4 4zM215.776 75.59c-3.314 0-6-2.687-6-6 0-3.314 2.686-6 6-6 3.313 0 6 2.686 6 6 0 3.313-2.687 6-6 6zm0-2c2.21 0 4-1.792 4-4 0-2.21-1.79-4-4-4s-4 1.79-4 4c0 2.208 1.79 4 4 4zM207.146 48.04c-3.313 0-6-2.687-6-6 0-3.315 2.687-6 6-6 3.314 0 6 2.685 6 6 0 3.313-2.686 6-6 6zm0-2c2.21 0 4-1.792 4-4 0-2.21-1.79-4-4-4s-4 1.79-4 4c0 2.208 1.79 4 4 4zM172.485 1163.268c-3.314 0-6-2.687-6-6 0-3.314 2.686-6 6-6 3.313 0 6 2.686 6 6 0 3.313-2.687 6-6 6zm0-2c2.21 0 4-1.79 4-4s-1.79-4-4-4-4 1.79-4 4 1.79 4 4 4zM176.394 1100.836c-3.314 0-6-2.686-6-6 0-3.313 2.686-6 6-6s6 2.687 6 6c0 3.314-2.686 6-6 6zm0-2c2.21 0 4-1.79 4-4s-1.79-4-4-4-4 1.79-4 4 1.79 4 4 4zM166.485 1036.98c-3.314 0-6-2.688-6-6 0-3.315 2.686-6 6-6 3.313 0 6 2.685 6 6 0 3.312-2.687 6-6 6zm0-2c2.21 0 4-1.792 4-4 0-2.21-1.79-4-4-4s-4 1.79-4 4c0 2.208 1.79 4 4 4zM175.973 977.755c-3.313 0-6-2.687-6-6 0-3.314 2.687-6 6-6 3.314 0 6 2.686 6 6 0 3.313-2.686 6-6 6zm0-2c2.21 0 4-1.79 4-4s-1.79-4-4-4-4 1.79-4 4 1.79 4 4 4zM183.27 949.422c-3.313 0-6-2.686-6-6s2.687-6 6-6c3.315 0 6 2.686 6 6s-2.685 6-6 6zm0-2c2.21 0 4-1.79 4-4s-1.79-4-4-4c-2.208 0-4 1.79-4 4s1.792 4 4 4zM164.188 891.067c-3.313 0-6-2.686-6-6s2.687-6 6-6c3.314 0 6 2.686 6 6s-2.686 6-6 6zm0-2c2.21 0 4-1.79 4-4s-1.79-4-4-4-4 1.79-4 4 1.79 4 4 4zM181.85 806.645c-3.314 0-6-2.687-6-6 0-3.314 2.686-6 6-6 3.313 0 6 2.686 6 6 0 3.313-2.687 6-6 6zm0-2c2.21 0 4-1.79 4-4s-1.79-4-4-4-4 1.79-4 4 1.79 4 4 4zM159.616 759.393c-3.313 0-6-2.686-6-6s2.687-6 6-6c3.314 0 6 2.686 6 6s-2.686 6-6 6zm0-2c2.21 0 4-1.79 4-4s-1.79-4-4-4-4 1.79-4 4 1.79 4 4 4zM184.658 694.615c-3.314 0-6-2.686-6-6s2.686-6 6-6 6 2.686 6 6-2.686 6-6 6zm0-2c2.21 0 4-1.79 4-4s-1.79-4-4-4-4 1.79-4 4 1.79 4 4 4zM167.577 617.402c-3.314 0-6-2.686-6-6s2.686-6 6-6c3.313 0 6 2.686 6 6s-2.687 6-6 6zm0-2c2.21 0 4-1.79 4-4s-1.79-4-4-4-4 1.79-4 4 1.79 4 4 4zM169.56 561.342c-3.312 0-6-2.686-6-6 0-3.313 2.688-6 6-6 3.315 0 6 2.687 6 6 0 3.314-2.685 6-6 6zm0-2c2.21 0 4-1.79 4-4s-1.79-4-4-4c-2.208 0-4 1.79-4 4s1.792 4 4 4zM163.618 502.532c-3.314 0-6-2.686-6-6s2.686-6 6-6 6 2.686 6 6-2.686 6-6 6zm0-2c2.21 0 4-1.79 4-4s-1.79-4-4-4-4 1.79-4 4 1.79 4 4 4zM163.117 444.602c-3.314 0-6-2.686-6-6 0-3.313 2.686-6 6-6 3.313 0 6 2.687 6 6 0 3.314-2.687 6-6 6zm0-2c2.21 0 4-1.79 4-4s-1.79-4-4-4-4 1.79-4 4 1.79 4 4 4zM161.74 373.444c-3.314 0-6-2.686-6-6 0-3.313 2.686-6 6-6s6 2.687 6 6c0 3.314-2.686 6-6 6zm0-2c2.21 0 4-1.79 4-4s-1.79-4-4-4-4 1.79-4 4 1.79 4 4 4zM179.51 331.94c-3.314 0-6-2.687-6-6 0-3.315 2.686-6 6-6s6 2.685 6 6c0 3.313-2.686 6-6 6zm0-2c2.21 0 4-1.792 4-4 0-2.21-1.79-4-4-4s-4 1.79-4 4c0 2.208 1.79 4 4 4zM176.824 281.478c-3.313 0-6-2.686-6-6 0-3.313 2.687-6 6-6 3.314 0 6 2.687 6 6 0 3.314-2.686 6-6 6zm0-2c2.21 0 4-1.79 4-4s-1.79-4-4-4-4 1.79-4 4 1.79 4 4 4zM168.725 208.182c-3.314 0-6-2.686-6-6 0-3.313 2.686-6 6-6 3.313 0 6 2.687 6 6 0 3.314-2.687 6-6 6zm0-2c2.21 0 4-1.79 4-4s-1.79-4-4-4-4 1.79-4 4 1.79 4 4 4zM159.313 152.422c-3.313 0-6-2.687-6-6 0-3.314 2.687-6 6-6 3.314 0 6 2.686 6 6 0 3.313-2.686 6-6 6zm0-2c2.21 0 4-1.79 4-4s-1.79-4-4-4-4 1.79-4 4 1.79 4 4 4zM164.802 79.94c-3.314 0-6-2.686-6-6s2.686-6 6-6 6 2.686 6 6-2.686 6-6 6zm0-2c2.21 0 4-1.79 4-4s-1.79-4-4-4-4 1.79-4 4 1.79 4 4 4zM161.12 34.695c-3.314 0-6-2.686-6-6 0-3.313 2.686-6 6-6s6 2.687 6 6c0 3.314-2.686 6-6 6zm0-2c2.21 0 4-1.79 4-4s-1.79-4-4-4-4 1.79-4 4 1.79 4 4 4zM132.7 1186.575c-3.313 0-6-2.686-6-6s2.687-6 6-6c3.314 0 6 2.686 6 6s-2.686 6-6 6zm0-2c2.21 0 4-1.79 4-4s-1.79-4-4-4-4 1.79-4 4 1.79 4 4 4zM106.727 1123.947c-3.314 0-6-2.686-6-6s2.686-6 6-6c3.313 0 6 2.686 6 6s-2.687 6-6 6zm0-2c2.21 0 4-1.79 4-4s-1.79-4-4-4-4 1.79-4 4 1.79 4 4 4zM122.805 1058.076c-3.314 0-6-2.686-6-6 0-3.313 2.686-6 6-6s6 2.687 6 6c0 3.314-2.686 6-6 6zm0-2c2.21 0 4-1.79 4-4s-1.79-4-4-4-4 1.79-4 4 1.79 4 4 4zM109.096 997.51c-3.314 0-6-2.687-6-6 0-3.314 2.686-6 6-6s6 2.686 6 6c0 3.313-2.686 6-6 6zm0-2c2.21 0 4-1.79 4-4s-1.79-4-4-4-4 1.79-4 4 1.79 4 4 4zM128.06 923.898c-3.315 0-6-2.686-6-6 0-3.313 2.685-6 6-6 3.312 0 6 2.687 6 6 0 3.314-2.688 6-6 6zm0-2c2.208 0 4-1.79 4-4s-1.792-4-4-4c-2.21 0-4 1.79-4 4s1.79 4 4 4zM117.002 875.16c-3.314 0-6-2.685-6-6 0-3.313 2.686-6 6-6 3.313 0 6 2.687 6 6 0 3.315-2.687 6-6 6zm0-2c2.21 0 4-1.79 4-4 0-2.208-1.79-4-4-4s-4 1.792-4 4c0 2.21 1.79 4 4 4zM121.7 829.4c-3.314 0-6-2.687-6-6 0-3.314 2.686-6 6-6 3.313 0 6 2.686 6 6 0 3.313-2.687 6-6 6zm0-2c2.208 0 4-1.79 4-4s-1.792-4-4-4c-2.21 0-4 1.79-4 4s1.79 4 4 4zM129.05 765.073c-3.315 0-6-2.686-6-6s2.685-6 6-6c3.312 0 6 2.686 6 6s-2.688 6-6 6zm0-2c2.208 0 4-1.79 4-4s-1.792-4-4-4c-2.21 0-4 1.79-4 4s1.79 4 4 4zM118.6 683.023c-3.314 0-6-2.686-6-6 0-3.313 2.686-6 6-6 3.313 0 6 2.687 6 6 0 3.314-2.687 6-6 6zm0-2c2.21 0 4-1.79 4-4s-1.79-4-4-4-4 1.79-4 4 1.79 4 4 4zM109.628 622.652c-3.314 0-6-2.686-6-6s2.686-6 6-6 6 2.686 6 6-2.686 6-6 6zm0-2c2.21 0 4-1.79 4-4s-1.79-4-4-4-4 1.79-4 4 1.79 4 4 4zM122.196 562.612c-3.314 0-6-2.687-6-6 0-3.314 2.686-6 6-6s6 2.686 6 6c0 3.313-2.686 6-6 6zm0-2c2.21 0 4-1.79 4-4s-1.79-4-4-4-4 1.79-4 4 1.79 4 4 4zM108.158 498.47c-3.313 0-6-2.685-6-6 0-3.312 2.687-6 6-6 3.314 0 6 2.688 6 6 0 3.315-2.686 6-6 6zm0-2c2.21 0 4-1.79 4-4 0-2.208-1.79-4-4-4s-4 1.792-4 4c0 2.21 1.79 4 4 4zM119.38 459.55c-3.314 0-6-2.686-6-6s2.686-6 6-6c3.313 0 6 2.686 6 6s-2.687 6-6 6zm0-2c2.21 0 4-1.79 4-4s-1.79-4-4-4-4 1.79-4 4 1.79 4 4 4zM107.953 389.892c-3.314 0-6-2.686-6-6s2.686-6 6-6c3.313 0 6 2.686 6 6s-2.687 6-6 6zm0-2c2.21 0 4-1.79 4-4s-1.79-4-4-4-4 1.79-4 4 1.79 4 4 4zM134.64 338.915c-3.314 0-6-2.686-6-6 0-3.313 2.686-6 6-6 3.313 0 6 2.687 6 6 0 3.314-2.687 6-6 6zm0-2c2.21 0 4-1.79 4-4s-1.79-4-4-4-4 1.79-4 4 1.79 4 4 4zM132.605 288.818c-3.313 0-6-2.687-6-6 0-3.314 2.687-6 6-6 3.314 0 6 2.686 6 6 0 3.313-2.686 6-6 6zm0-2c2.21 0 4-1.79 4-4s-1.79-4-4-4-4 1.79-4 4 1.79 4 4 4zM131.503 204.384c-3.314 0-6-2.687-6-6 0-3.314 2.686-6 6-6s6 2.686 6 6c0 3.313-2.686 6-6 6zm0-2c2.21 0 4-1.79 4-4s-1.79-4-4-4-4 1.79-4 4 1.79 4 4 4zM131.675 165.21c-3.313 0-6-2.686-6-6s2.687-6 6-6c3.314 0 6 2.686 6 6s-2.686 6-6 6zm0-2c2.21 0 4-1.79 4-4s-1.79-4-4-4-4 1.79-4 4 1.79 4 4 4zM122.385 93.527c-3.313 0-6-2.686-6-6 0-3.313 2.687-6 6-6 3.314 0 6 2.687 6 6 0 3.314-2.686 6-6 6zm0-2c2.21 0 4-1.79 4-4s-1.79-4-4-4-4 1.79-4 4 1.79 4 4 4zM122.524 40.38c-3.313 0-6-2.686-6-6 0-3.313 2.687-6 6-6 3.314 0 6 2.687 6 6 0 3.314-2.686 6-6 6zm0-2c2.21 0 4-1.79 4-4s-1.79-4-4-4-4 1.79-4 4 1.79 4 4 4zM65.715 1166.36c-3.314 0-6-2.688-6-6 0-3.315 2.686-6 6-6s6 2.685 6 6c0 3.312-2.686 6-6 6zm0-2c2.21 0 4-1.792 4-4 0-2.21-1.79-4-4-4s-4 1.79-4 4c0 2.208 1.79 4 4 4zM69.798 1119.822c-3.314 0-6-2.686-6-6s2.686-6 6-6 6 2.686 6 6-2.686 6-6 6zm0-2c2.21 0 4-1.79 4-4s-1.79-4-4-4-4 1.79-4 4 1.79 4 4 4zM59.194 1045.678c-3.313 0-6-2.686-6-6s2.687-6 6-6c3.314 0 6 2.686 6 6s-2.686 6-6 6zm0-2c2.21 0 4-1.79 4-4s-1.79-4-4-4-4 1.79-4 4 1.79 4 4 4zM76.992 1004.908c-3.313 0-6-2.687-6-6 0-3.314 2.687-6 6-6 3.314 0 6 2.686 6 6 0 3.313-2.686 6-6 6zm0-2c2.21 0 4-1.79 4-4s-1.79-4-4-4-4 1.79-4 4 1.79 4 4 4zM59.37 915.205c-3.314 0-6-2.687-6-6 0-3.314 2.686-6 6-6 3.313 0 6 2.686 6 6 0 3.313-2.687 6-6 6zm0-2c2.21 0 4-1.79 4-4s-1.79-4-4-4-4 1.79-4 4 1.79 4 4 4zM65.276 853.89c-3.314 0-6-2.686-6-6 0-3.313 2.686-6 6-6 3.313 0 6 2.687 6 6 0 3.314-2.687 6-6 6zm0-2c2.21 0 4-1.79 4-4 0-2.208-1.79-4-4-4s-4 1.792-4 4c0 2.21 1.79 4 4 4zM56.524 800.936c-3.314 0-6-2.686-6-6 0-3.313 2.686-6 6-6s6 2.687 6 6c0 3.314-2.686 6-6 6zm0-2c2.21 0 4-1.79 4-4s-1.79-4-4-4-4 1.79-4 4 1.79 4 4 4zM76.25 749.276c-3.313 0-6-2.686-6-6s2.687-6 6-6c3.315 0 6 2.686 6 6s-2.685 6-6 6zm0-2c2.21 0 4-1.79 4-4s-1.79-4-4-4c-2.208 0-4 1.79-4 4s1.792 4 4 4zM73.545 708.02c-3.313 0-6-2.686-6-6 0-3.313 2.687-6 6-6 3.314 0 6 2.687 6 6 0 3.314-2.686 6-6 6zm0-2c2.21 0 4-1.79 4-4s-1.79-4-4-4-4 1.79-4 4 1.79 4 4 4zM76.365 629.13c-3.314 0-6-2.687-6-6 0-3.314 2.686-6 6-6 3.313 0 6 2.686 6 6 0 3.313-2.687 6-6 6zm0-2c2.21 0 4-1.79 4-4s-1.79-4-4-4-4 1.79-4 4 1.79 4 4 4zM56.097 554.648c-3.314 0-6-2.686-6-6s2.686-6 6-6c3.313 0 6 2.686 6 6s-2.687 6-6 6zm0-2c2.21 0 4-1.79 4-4s-1.79-4-4-4-4 1.79-4 4 1.79 4 4 4zM64.22 518.204c-3.313 0-6-2.686-6-6s2.687-6 6-6c3.314 0 6 2.686 6 6s-2.686 6-6 6zm0-2c2.21 0 4-1.79 4-4s-1.79-4-4-4c-2.208 0-4 1.79-4 4s1.792 4 4 4zM56.4 444.152c-3.313 0-6-2.686-6-6s2.687-6 6-6c3.315 0 6 2.686 6 6s-2.685 6-6 6zm0-2c2.21 0 4-1.79 4-4s-1.79-4-4-4c-2.208 0-4 1.79-4 4s1.792 4 4 4zM61.516 377.836c-3.314 0-6-2.687-6-6 0-3.314 2.686-6 6-6 3.313 0 6 2.686 6 6 0 3.313-2.687 6-6 6zm0-2c2.21 0 4-1.79 4-4s-1.79-4-4-4-4 1.79-4 4 1.79 4 4 4zM70.876 332.298c-3.314 0-6-2.687-6-6 0-3.314 2.686-6 6-6 3.313 0 6 2.686 6 6 0 3.313-2.687 6-6 6zm0-2c2.21 0 4-1.79 4-4s-1.79-4-4-4-4 1.79-4 4 1.79 4 4 4zM67.487 256.446c-3.313 0-6-2.686-6-6s2.687-6 6-6c3.314 0 6 2.686 6 6s-2.686 6-6 6zm0-2c2.21 0 4-1.79 4-4s-1.79-4-4-4-4 1.79-4 4 1.79 4 4 4zM74.392 223.683c-3.314 0-6-2.686-6-6s2.686-6 6-6 6 2.686 6 6-2.686 6-6 6zm0-2c2.21 0 4-1.79 4-4s-1.79-4-4-4-4 1.79-4 4 1.79 4 4 4zM73.092 136.05c-3.313 0-6-2.685-6-6 0-3.312 2.687-6 6-6 3.314 0 6 2.688 6 6 0 3.315-2.686 6-6 6zm0-2c2.21 0 4-1.79 4-4 0-2.208-1.79-4-4-4s-4 1.792-4 4c0 2.21 1.79 4 4 4zM74.62 80.1c-3.315 0-6-2.685-6-6 0-3.312 2.685-6 6-6 3.313 0 6 2.688 6 6 0 3.315-2.687 6-6 6zm0-2c2.208 0 4-1.79 4-4 0-2.208-1.792-4-4-4-2.21 0-4 1.792-4 4 0 2.21 1.79 4 4 4zM65.373 43.443c-3.313 0-6-2.686-6-6 0-3.313 2.687-6 6-6 3.314 0 6 2.687 6 6 0 3.314-2.686 6-6 6zm0-2c2.21 0 4-1.79 4-4s-1.79-4-4-4-4 1.79-4 4 1.79 4 4 4zM27.19 1188.1c-3.315 0-6-2.687-6-6 0-3.314 2.685-6 6-6 3.313 0 6 2.686 6 6 0 3.313-2.687 6-6 6zm0-2c2.208 0 4-1.792 4-4 0-2.21-1.792-4-4-4-2.21 0-4 1.79-4 4 0 2.208 1.79 4 4 4zM13.447 1105.853c-3.314 0-6-2.686-6-6s2.686-6 6-6c3.313 0 6 2.686 6 6s-2.687 6-6 6zm0-2c2.21 0 4-1.79 4-4s-1.79-4-4-4-4 1.79-4 4 1.79 4 4 4zM12.28 1068.342c-3.315 0-6-2.686-6-6s2.685-6 6-6c3.313 0 6 2.686 6 6s-2.687 6-6 6zm0-2c2.208 0 4-1.79 4-4s-1.792-4-4-4c-2.21 0-4 1.79-4 4s1.79 4 4 4zM14.205 976.873c-3.314 0-6-2.686-6-6s2.686-6 6-6 6 2.686 6 6-2.686 6-6 6zm0-2c2.21 0 4-1.79 4-4s-1.79-4-4-4-4 1.79-4 4 1.79 4 4 4zM20.47 938.535c-3.313 0-6-2.686-6-6s2.687-6 6-6c3.315 0 6 2.686 6 6s-2.685 6-6 6zm0-2c2.21 0 4-1.79 4-4s-1.79-4-4-4c-2.208 0-4 1.79-4 4s1.792 4 4 4zM30.765 891.406c-3.313 0-6-2.686-6-6 0-3.313 2.687-6 6-6 3.314 0 6 2.687 6 6 0 3.314-2.686 6-6 6zm0-2c2.21 0 4-1.79 4-4s-1.79-4-4-4-4 1.79-4 4 1.79 4 4 4zM18.123 826.852c-3.313 0-6-2.686-6-6 0-3.313 2.687-6 6-6 3.314 0 6 2.687 6 6 0 3.314-2.686 6-6 6zm0-2c2.21 0 4-1.79 4-4s-1.79-4-4-4-4 1.79-4 4 1.79 4 4 4zM33.12 738.85c-3.315 0-6-2.686-6-6s2.685-6 6-6c3.312 0 6 2.686 6 6s-2.688 6-6 6zm0-2c2.208 0 4-1.79 4-4s-1.792-4-4-4c-2.21 0-4 1.79-4 4s1.79 4 4 4zM21.986 682.376c-3.314 0-6-2.686-6-6 0-3.313 2.686-6 6-6s6 2.687 6 6c0 3.314-2.686 6-6 6zm0-2c2.21 0 4-1.79 4-4s-1.79-4-4-4-4 1.79-4 4 1.79 4 4 4zM21.295 649.298c-3.314 0-6-2.686-6-6s2.686-6 6-6 6 2.686 6 6-2.686 6-6 6zm0-2c2.21 0 4-1.79 4-4s-1.79-4-4-4-4 1.79-4 4 1.79 4 4 4zM10.14 588.747c-3.313 0-6-2.686-6-6s2.687-6 6-6c3.315 0 6 2.686 6 6s-2.685 6-6 6zm0-2c2.21 0 4-1.79 4-4s-1.79-4-4-4c-2.208 0-4 1.79-4 4s1.792 4 4 4zM20.56 492.88c-3.314 0-6-2.688-6-6 0-3.315 2.686-6 6-6 3.313 0 6 2.685 6 6 0 3.312-2.687 6-6 6zm0-2c2.208 0 4-1.792 4-4 0-2.21-1.792-4-4-4-2.21 0-4 1.79-4 4 0 2.208 1.79 4 4 4zM7.888 445.838c-3.313 0-6-2.687-6-6 0-3.314 2.687-6 6-6 3.314 0 6 2.686 6 6 0 3.313-2.686 6-6 6zm0-2c2.21 0 4-1.79 4-4s-1.79-4-4-4-4 1.79-4 4 1.79 4 4 4zM9.496 384.35c-3.314 0-6-2.687-6-6 0-3.314 2.686-6 6-6 3.313 0 6 2.686 6 6 0 3.313-2.687 6-6 6zm0-2c2.21 0 4-1.792 4-4 0-2.21-1.79-4-4-4s-4 1.79-4 4c0 2.208 1.79 4 4 4zM16.252 322.452c-3.314 0-6-2.686-6-6 0-3.313 2.686-6 6-6 3.313 0 6 2.687 6 6 0 3.314-2.687 6-6 6zm0-2c2.21 0 4-1.79 4-4s-1.79-4-4-4-4 1.79-4 4 1.79 4 4 4zM29.006 283.976c-3.314 0-6-2.687-6-6 0-3.314 2.686-6 6-6s6 2.686 6 6c0 3.313-2.686 6-6 6zm0-2c2.21 0 4-1.79 4-4s-1.79-4-4-4-4 1.79-4 4 1.79 4 4 4zM31.773 204.103c-3.314 0-6-2.686-6-6s2.686-6 6-6c3.313 0 6 2.686 6 6s-2.687 6-6 6zm0-2c2.21 0 4-1.79 4-4s-1.79-4-4-4-4 1.79-4 4 1.79 4 4 4zM24.606 168.068c-3.314 0-6-2.686-6-6 0-3.313 2.686-6 6-6s6 2.687 6 6c0 3.314-2.686 6-6 6zm0-2c2.21 0 4-1.79 4-4s-1.79-4-4-4-4 1.79-4 4 1.79 4 4 4zM6.1 96.97c-3.314 0-6-2.687-6-6 0-3.314 2.686-6 6-6 3.313 0 6 2.686 6 6 0 3.313-2.687 6-6 6zm0-2c2.21 0 4-1.79 4-4s-1.79-4-4-4-4 1.79-4 4 1.79 4 4 4zM27.896 23.088c-3.313 0-6-2.686-6-6 0-3.313 2.687-6 6-6 3.314 0 6 2.687 6 6 0 3.314-2.686 6-6 6zm0-2c2.21 0 4-1.79 4-4s-1.79-4-4-4-4 1.79-4 4 1.79 4 4 4z"/>
  </g>
</svg>
