<svg xmlns="http://www.w3.org/2000/svg" width="1200" height="1200">
  <g fill="#FFF" fill-rule="evenodd" opacity=".3">
    <path d="M1173.8 1173.268l-8.484 8.486-8.486-8.486h16.97zm-2.827 0h-11.314l5.656 5.657 5.657-5.657z" opacity=".94"/>
    <path d="M1158.877 1092.842l8.336 8.632-8.632 8.336.297-16.968zm-.05 2.828l-.196 11.312 5.755-5.558-5.557-5.754zM1170.453 1030.25l-1.463 11.912-11.91-1.463 13.373-10.45zm-2.23 1.742l-8.915 6.966 7.94.975.976-7.94z" opacity=".88"/>
    <path d="M1192.492 982.293l-11.818 2.084-2.084-11.818 13.902 9.733zm-2.317-1.622l-9.268-6.488 1.39 7.878 7.878-1.39z" opacity=".74"/>
    <path d="M1155.34 937.403l6.883-9.83 9.83 6.884-16.713 2.946zm2.785-.49l11.142-1.965-6.553-4.59-4.59 6.554z" opacity=".9"/>
    <path d="M1179.9 872.442l-11.82 2.083-2.083-11.817 13.902 9.734zm-2.318-1.623l-9.268-6.49 1.39 7.878 7.878-1.39z" opacity=".76"/>
    <path d="M1165.59 824.062l1.254-11.935 11.934 1.255-13.188 10.68zm2.198-1.78l8.792-7.12-7.956-.836-.836 7.956z"/>
    <path d="M1169.632 762.787l4.495-11.126 11.126 4.496-15.62 6.63zm2.603-1.105l10.415-4.42-7.418-2.997-2.997 7.417z" opacity=".78"/>
    <path d="M1155.1 693.833l10.596 5.634-5.634 10.595-4.962-16.23zm.827 2.705l3.308 10.82 3.756-7.064-7.063-3.756z" opacity=".76"/>
    <path d="M1163.2 616.096l-8.777-8.184 8.184-8.776.593 16.96zm-.1-2.827l-.394-11.308-5.456 5.85 5.85 5.457z"/>
    <path d="M1172.392 582.12l-9.456-7.388 7.388-9.457 2.068 16.844zm-.345-2.808l-1.378-11.23-4.927 6.305 6.304 4.925z" opacity=".74"/>
    <path d="M1161.604 513.668l-8.336-8.632 8.632-8.336-.296 16.968zm.05-2.828l.197-11.312-5.754 5.557 5.557 5.755zM1161.063 471.542l-2.083-11.818 11.817-2.083-9.734 13.902zm1.623-2.317l6.49-9.267-7.88 1.39 1.39 7.877z"/>
    <path d="M1166.927 368.99l9.708 7.053-7.054 9.71-2.653-16.763zm.442 2.793l1.77 11.175 4.7-6.472-6.47-4.703zM1163.528 329.22l-11.535 3.307-3.308-11.535 14.843 8.228zm-2.474-1.372l-9.895-5.485 2.204 7.69 7.69-2.205z" opacity=".79"/>
    <path d="M1172.668 239.183l4.496 11.126-11.127 4.494 6.63-15.62zm-1.105 2.604l-4.42 10.414 7.417-2.996-2.997-7.417z"/>
    <path d="M1164.784 206.02l-11.346-3.907 3.907-11.346 7.44 15.253zm-1.24-2.542l-4.96-10.17-2.604 7.565 7.564 2.605z" opacity=".91"/>
    <path d="M1163.556 124.73l10.495-5.816 5.82 10.495-16.314-4.68zm2.72.78l10.874 3.12-3.878-6.997-6.997 3.878z" opacity=".72"/>
    <path d="M1177.5 90.64l4.495 11.126-11.126 4.495 6.63-15.62zm-1.105 2.603l-4.42 10.414 7.417-2.997-2.997-7.417z" opacity=".99"/>
    <path d="M1167.494 31.332l-11.643 2.904-2.902-11.644 14.546 8.74zm-2.424-1.456l-9.698-5.827 1.935 7.76 7.763-1.934z" opacity=".88"/>
    <path d="M1110.74 1156.756l3.508-11.476 11.475 3.508-14.984 7.968zm2.496-1.328l9.99-5.312-7.65-2.34-2.34 7.652z" opacity=".87"/>
    <path d="M1105.132 1106.353l10.693-5.448 5.447 10.692-16.14-5.244zm2.69.874l10.76 3.496-3.632-7.128-7.128 3.632z" opacity=".96"/>
    <path d="M1117.912 1032.43l-9.456 7.388-7.388-9.456 16.844 2.068zm-2.807-.345l-11.23-1.38 4.926 6.306 6.305-4.925z" opacity=".7"/>
    <path d="M1128.927 996.58l-1.463 11.91-11.91-1.462 13.373-10.448zm-2.23 1.74l-8.914 6.966 7.94.975.975-7.94z" opacity=".92"/>
    <path d="M1121.81 920.45l6.536 10.063-10.064 6.536 3.53-16.6zm-.587 2.766l-2.353 11.066 6.71-4.357-4.357-6.71z" opacity=".97"/>
    <path d="M1106.736 850.088l11.346 3.907-3.907 11.346-7.44-15.252zm1.24 2.543l4.96 10.17 2.604-7.565-7.564-2.604z" opacity=".86"/>
    <path d="M1129.79 806.025l-11.983-.628.628-11.984 11.355 12.612zm-1.892-2.102l-7.57-8.408-.42 7.99 7.99.418z" opacity=".87"/>
    <path d="M1120.55 720.203l11.59 3.106-3.105 11.59-8.486-14.697zm1.413 2.45l5.657 9.798 2.07-7.727-7.727-2.07z" opacity=".88"/>
    <path d="M1138.79 695.5l-3.905 11.347-11.347-3.906 15.253-7.44zm-2.54 1.24l-10.17 4.96 7.565 2.605 2.604-7.564z" opacity=".78"/>
    <path d="M1129.29 628.953l-11.983-.628.628-11.983 11.356 12.61zm-1.892-2.1l-7.57-8.41-.42 7.99 7.99.42z" opacity=".87"/>
    <path d="M1116.367 556.028l-2.084-11.818 11.818-2.084-9.733 13.902zm1.622-2.317l6.49-9.267-7.88 1.39 1.39 7.878z" opacity=".8"/>
    <path d="M1116.764 494.146l6-10.393 10.393 6-16.393 4.393zm2.732-.732l10.93-2.928-6.93-4-4 6.928z" opacity=".77"/>
    <path d="M1112.537 437.88l-.42 11.994-11.992-.42 12.412-11.573zm-2.07 1.93l-8.273 7.716 7.995.28.278-7.996z" opacity=".89"/>
    <path d="M1126.643 372.116l.837 11.97-11.97.838 11.133-12.808zm-1.855 2.134l-7.423 8.54 7.98-.56-.557-7.98z" opacity=".76"/>
    <path d="M1122.016 309.99l10.785-5.26 5.262 10.785-16.046-5.525zm2.674.92l10.697 3.684-3.507-7.19-7.19 3.507z" opacity=".96"/>
    <path d="M1124.12 264.662l-1.046-11.954 11.954-1.046-10.908 13zm1.818-2.167l7.272-8.666-7.97.696.698 7.97zM1124.92 230l-11.97.838-.838-11.97L1124.92 230zm-2.135-1.855l-8.54-7.423.56 7.98 7.98-.557z" opacity=".87"/>
    <path d="M1121.463 168.382l-2.7-11.693 11.694-2.7-8.994 14.392zm1.5-2.4l5.995-9.594-7.795 1.8 1.8 7.795z" opacity=".71"/>
    <path d="M1122.778 104.18l-11.852-1.88 1.877-11.85 9.975 13.73zm-1.662-2.29l-6.65-9.153-1.252 7.902 7.902 1.25z" opacity=".94"/>
    <path d="M1114.424 31.614l-11.993.42-.418-11.994 12.412 11.574zm-2.07-1.93l-8.273-7.715.28 7.994 7.995-.28z"/>
    <path d="M1050.502 1177.313l1.255-11.934 11.934 1.253-13.188 10.68zm2.198-1.78l8.793-7.12-7.956-.836-.837 7.956z" opacity=".78"/>
    <path d="M1071.192 1114.083l-5.817-10.495 10.495-5.818-4.678 16.313zm.78-2.718l3.118-10.876-6.997 3.878 3.88 6.997z" opacity=".72"/>
    <path d="M1055.99 1056.578l-5.073-10.875 10.876-5.072-5.804 15.948zm.966-2.657l3.87-10.63-7.25 3.38 3.38 7.25z" opacity=".82"/>
    <path d="M1082.804 980.075l-10.595 5.634-5.635-10.597 16.23 4.962zm-2.704-.827l-10.82-3.308 3.756 7.064 7.064-3.756z" opacity=".93"/>
    <path d="M1069.155 926.645l11.97-.837.838 11.97-12.808-11.133zm2.135 1.856l8.54 7.423-.56-7.98-7.98.558z" opacity=".9"/>
    <path d="M1066.092 850.19l-5.818 10.495-10.495-5.818 16.312-4.678zm-2.72.78l-10.874 3.117 6.997 3.88 3.878-6.998z" opacity=".96"/>
    <path d="M1083.77 802.542l3.51 11.476-11.476 3.508 7.967-14.984zm-1.327 2.497l-5.31 9.99 7.65-2.34-2.34-7.65z" opacity=".74"/>
    <path d="M1061.502 748.673l-11.883-1.67 1.67-11.883 10.212 13.553zm-1.702-2.26l-6.81-9.034-1.112 7.92 7.922 1.114z" opacity=".94"/>
    <path d="M1066.656 668.015l2.903 11.644-11.645 2.902 8.74-14.547zm-1.457 2.425l-5.828 9.697 7.762-1.935-1.935-7.762z" opacity=".83"/>
    <path d="M1064.307 624.834l11.984.628-.627 11.983-11.356-12.61zm1.893 2.102l7.57 8.407.42-7.99-7.99-.417z" opacity=".92"/>
    <path d="M1075.953 560.88l-6.71 9.95-9.95-6.71 16.66-3.24zm-2.777.54l-11.106 2.16 6.633 4.473 4.473-6.632z" opacity=".89"/>
    <path d="M1061.654 502.36l-8.486-8.487 8.486-8.485v16.97zm0-2.83v-11.314l-5.657 5.657 5.657 5.657z" opacity=".91"/>
    <path d="M1075.338 462.78l-9.948-6.71 6.71-9.948 3.238 16.658zm-.54-2.776l-2.158-11.106-4.474 6.632 6.632 4.474z" opacity=".97"/>
    <path d="M1060.813 399.287l3.907-11.346 11.346 3.908-15.253 7.44zm2.542-1.24l10.17-4.96-7.565-2.604-2.605 7.564z" opacity=".85"/>
    <path d="M1082.426 322.34l-11.346 3.906-3.907-11.347 15.253 7.44zm-2.542-1.24l-10.17-4.96 2.606 7.564 7.564-2.605z" opacity=".84"/>
    <path d="M1067.9 264.26l-1.67 11.883-11.882-1.67 13.553-10.213zm-2.258 1.702l-9.035 6.81 7.922 1.112 1.112-7.922z" opacity=".74"/>
    <path d="M1056.922 224.703l-3.106-11.59 11.59-3.107-8.484 14.697zm1.414-2.45l5.657-9.798-7.728 2.07 2.07 7.728z" opacity=".86"/>
    <path d="M1060.694 129.17l11.046 4.688-4.69 11.046-6.356-15.735zm1.06 2.62l4.238 10.49 3.125-7.363-7.364-3.126z" opacity=".79"/>
    <path d="M1066.542 65.192l11.535 3.308-3.308 11.535-8.228-14.843zm1.37 2.474l5.486 9.895 2.205-7.69-7.69-2.204z" opacity=".85"/>
    <path d="M1092.698 46.014l-10.064 6.535-6.536-10.065 16.6 3.53zm-2.767-.588l-11.065-2.353 4.357 6.71 6.71-4.357z" opacity=".94"/>
    <path d="M1012.047 1155.06l3.907-11.346 11.346 3.906-15.253 7.44zm2.542-1.24l10.168-4.96-7.564-2.604-2.605 7.564z" opacity=".92"/>
    <path d="M1015.724 1123.648l-10.495-5.818 5.816-10.495 4.678 16.313zm-.78-2.72l-3.118-10.875-3.88 6.997 6.998 3.88zM1026.445 1031.752l.837 11.97-11.97.837 11.133-12.808zm-1.856 2.134l-7.423 8.54 7.98-.56-.558-7.98zM1016.952 974.334l-1.255 11.934-11.934-1.254 13.19-10.68zm-2.2 1.78l-8.79 7.12 7.955.836.836-7.956z" opacity=".99"/>
    <path d="M1015.944 924.46l-11.818 2.084-2.084-11.818 13.902 9.734zm-2.317-1.622l-9.268-6.49 1.388 7.88 7.88-1.39z" opacity=".9"/>
    <path d="M1025.22 866.865l8.486 8.486-8.485 8.486v-16.97zm0 2.83v11.312l5.657-5.656-5.656-5.656z" opacity=".73"/>
    <path d="M1026.783 806.822l-5.633-10.595 10.595-5.634-4.962 16.23zm.827-2.705l3.308-10.82-7.063 3.757 3.755 7.063z" opacity=".75"/>
    <path d="M1037.176 733.25l3.708 11.414-11.412 3.708 7.704-15.12zm-1.284 2.52l-5.136 10.082 7.608-2.472-2.472-7.61z" opacity=".84"/>
    <path d="M1001.376 691.995l11.535-3.307 3.31 11.535-14.844-8.228zm2.474 1.372l9.895 5.485-2.205-7.69-7.69 2.205z" opacity=".81"/>
    <path d="M1024.354 622.637l1.67-11.883 11.883 1.67-13.553 10.213zm2.26-1.702l9.034-6.81-7.922-1.112-1.113 7.922zM1030.54 577.57l-11.992.418-.42-11.992 12.413 11.574zm-2.068-1.93l-8.274-7.715.28 7.995 7.994-.28z" opacity=".88"/>
    <path d="M1023.74 491.537l11.346-3.907 3.907 11.346-15.253-7.44zm2.542 1.24l10.17 4.96-2.606-7.565-7.564 2.605z" opacity=".73"/>
    <path d="M1038.107 453.196l1.877 11.852-11.852 1.877 9.975-13.73zm-1.663 2.288l-6.65 9.153 7.902-1.252-1.252-7.9z" opacity=".79"/>
    <path d="M1029.513 380.487l11.046 4.688-4.69 11.046-6.357-15.733zm1.06 2.622l4.238 10.49 3.127-7.365-7.364-3.126z" opacity=".83"/>
    <path d="M1031.192 314.048l-11.644 2.903-2.903-11.642 14.547 8.74zm-2.425-1.456l-9.697-5.827 1.935 7.762 7.762-1.935z" opacity=".92"/>
    <path d="M1020.025 242.584l4.104 11.276-11.277 4.104 7.172-15.38zm-1.195 2.563l-4.782 10.254 7.518-2.735-2.736-7.518z" opacity=".84"/>
    <path d="M1009.442 206.845l-4.88-10.962 10.962-4.88-6.082 15.842zm1.013-2.64l4.055-10.563-7.308 3.254 3.253 7.31z" opacity=".87"/>
    <path d="M1015.344 134.573l-3.508-11.476 11.476-3.508-7.968 14.983zm1.328-2.497l5.312-9.99-7.65 2.34 2.338 7.65z" opacity=".91"/>
    <path d="M1013.578 101.01l-5.448-10.69 10.692-5.45-5.244 16.14zm.874-2.69l3.496-10.76-7.128 3.633 3.632 7.128z" opacity=".93"/>
    <path d="M1030.714 47.463l-5.26-10.786 10.785-5.26-5.526 16.046zm.92-2.675l3.684-10.697-7.19 3.508 3.507 7.19z" opacity=".87"/>
    <path d="M948.27 1160.544l11.047-4.69 4.69 11.047-15.736-6.356zm2.624 1.06l10.49 4.238-3.126-7.364-7.364 3.126z" opacity=".89"/>
    <path d="M959.82 1115.93l11.475-3.51 3.51 11.476-14.986-7.967zm2.497 1.326l9.99 5.312-2.34-7.65-7.65 2.338z" opacity=".88"/>
    <path d="M981.686 1046.62l-11.59-3.105 3.105-11.59 8.486 14.696zm-1.414-2.45l-5.657-9.797-2.07 7.728 7.727 2.07z" opacity=".86"/>
    <path d="M981.61 989.138l-4.302 11.202-11.203-4.3 15.504-6.902zm-2.585 1.15l-10.336 4.602 7.468 2.867 2.867-7.47z" opacity=".75"/>
    <path d="M968.276 914.748l5.818 10.496-10.495 5.817 4.676-16.312zm-.78 2.72l-3.118 10.874 6.997-3.878-3.878-6.997z" opacity=".79"/>
    <path d="M954.66 861.236l5.634-10.596 10.595 5.634-16.23 4.962zm2.705-.827l10.82-3.31-7.064-3.755-3.755 7.064z" opacity=".82"/>
    <path d="M973.046 795.64l-11.413 3.707-3.708-11.412 15.12 7.704zm-2.52-1.285l-10.08-5.136 2.47 7.607 7.61-2.472z" opacity=".88"/>
    <path d="M978.804 732.373l-5.072 10.875-10.876-5.07 15.948-5.805zm-2.658.967l-10.632 3.87 7.25 3.38 3.382-7.25z" opacity=".82"/>
    <path d="M979.66 669.908l11.997.21-.21 11.998-11.788-12.208zm1.963 2.035l7.86 8.138.14-7.998-8-.14z" opacity=".86"/>
    <path d="M972.73 616.656l4.882-10.962 10.962 4.88-15.843 6.082zm2.642-1.013l10.562-4.055-7.308-3.254-3.254 7.31z" opacity=".89"/>
    <path d="M953.704 564.996l1.878-11.853 11.852 1.878-13.73 9.976zm2.29-1.663l9.152-6.65-7.902-1.25-1.25 7.9z" opacity=".81"/>
    <path d="M962.736 512.595l-4.496-11.126 11.127-4.496-6.63 15.62zm1.105-2.603l4.42-10.414-7.416 2.996 2.997 7.418z" opacity=".99"/>
    <path d="M984.97 451.398l9.325 7.552-7.552 9.326-1.774-16.878zm.295 2.813l1.183 11.253 5.034-6.217-6.217-5.035z" opacity=".95"/>
    <path d="M986.194 408.527l-11.643-2.903 2.904-11.643 8.74 14.547zm-1.457-2.424l-5.826-9.698-1.935 7.763 7.762 1.935z" opacity=".93"/>
    <path d="M979.466 329.64l-1.046-11.955 11.954-1.046-10.908 13zm1.818-2.167l7.272-8.667-7.97.697.698 7.97z" opacity=".84"/>
    <path d="M982.253 287.45l-11.346-3.908 3.907-11.346 7.44 15.253zm-1.24-2.543l-4.96-10.17-2.604 7.565 7.563 2.605z" opacity=".8"/>
    <path d="M979.892 195.293l-3.308 11.536-11.535-3.31 14.842-8.227zm-2.474 1.372l-9.895 5.485 7.69 2.205 2.205-7.69z" opacity=".89"/>
    <path d="M982.317 150.653l-5.448-10.692 10.69-5.447-5.243 16.14zm.874-2.69l3.497-10.76-7.128 3.632 3.63 7.128z" opacity=".7"/>
    <path d="M961.92 100.556l-7.222-9.584 9.584-7.222-2.362 16.806zm.394-2.8l1.574-11.205-6.39 4.816 4.816 6.39z" opacity=".97"/>
    <path d="M951.582 38.42l.628-11.984 11.984.628-12.612 11.355zm2.102-1.893l8.408-7.57-7.99-.42-.418 7.99z" opacity=".87"/>
    <path d="M903.705 1162.51l11.91 1.463-1.46 11.91-10.45-13.372zm1.742 2.23l6.965 8.915.975-7.94-7.94-.976z" opacity=".76"/>
    <path d="M900.97 1104.15l-.21-11.997 12-.21-11.79 12.208zm1.965-2.033l7.86-8.14-8 .14.14 8z" opacity=".89"/>
    <path d="M920.456 1028.225l11.955-1.046 1.046 11.953-13-10.908zm2.167 1.818l8.667 7.272-.698-7.97-7.97.698z" opacity=".86"/>
    <path d="M910.003 977.548l-7.713-9.192 9.193-7.714-1.48 16.906zm.247-2.817l.986-11.27-6.128 5.142 5.142 6.13z" opacity=".72"/>
    <path d="M916.12 929.163l3.707 11.413-11.413 3.708 7.705-15.12zm-1.285 2.52l-5.136 10.08 7.607-2.47-2.472-7.61z" opacity=".96"/>
    <path d="M925.815 858.095l10.963 4.88-4.88 10.963-6.083-15.843zm1.014 2.64l4.053 10.563 3.254-7.31-7.308-3.252z" opacity=".92"/>
    <path d="M921.676 804.364l6.18 10.286-10.286 6.18 4.106-16.466zm-.684 2.744l-2.737 10.978 6.857-4.12-4.12-6.858z" opacity=".85"/>
    <path d="M918.07 744.914l-10.787 5.26-5.26-10.785 16.046 5.524zm-2.676-.92l-10.697-3.684 3.507 7.19 7.19-3.507z" opacity=".94"/>
    <path d="M924.592 710.642l-6.71-9.948 9.948-6.71-3.238 16.658zm.54-2.776l2.158-11.106-6.632 4.473 4.473 6.633z" opacity=".71"/>
    <path d="M917.213 641.507l-11.276 4.104-4.104-11.275 15.38 7.172zm-2.563-1.196l-10.254-4.78 2.736 7.518 7.518-2.737zM934.742 575.516l-11.983.628-.63-11.984 12.612 11.356zm-2.102-1.893l-8.407-7.57.418 7.99 7.99-.42z" opacity=".87"/>
    <path d="M906.786 492.99l10.496 5.818-5.818 10.495-4.678-16.313zm.78 2.72l3.118 10.874 3.88-6.997-6.998-3.878z" opacity=".88"/>
    <path d="M921.432 445.727l-9.708-7.053 7.054-9.708 2.654 16.76zm-.442-2.793l-1.77-11.175-4.702 6.47 6.472 4.704z" opacity=".76"/>
    <path d="M934.334 392.45l-8.776 8.185-8.184-8.777 16.96.593zm-2.827-.098l-11.307-.395 5.456 5.85 5.85-5.455z" opacity=".72"/>
    <path d="M934.148 337.075l-10.875 5.07-5.072-10.875 15.948 5.805zm-2.657-.968l-10.63-3.87 3.38 7.25 7.25-3.38z" opacity=".88"/>
    <path d="M919.525 277.292l-8.184-8.776 8.777-8.184-.592 16.96zm.1-2.827l.393-11.307-5.85 5.456 5.456 5.85z"/>
    <path d="M933.6 221.39l-6.71 9.95-9.95-6.71 16.66-3.24zm-2.777.54l-11.106 2.16 6.633 4.473 4.473-6.632z" opacity=".98"/>
    <path d="M935.513 138.38l-3.708 11.413-11.413-3.708 15.12-7.704zm-2.52 1.285l-10.08 5.136 7.608 2.473 2.473-7.608z" opacity=".91"/>
    <path d="M924.25 70.465l11.934 1.255-1.255 11.934-10.68-13.19zm1.78 2.198l7.12 8.793.835-7.956-7.956-.837z" opacity=".83"/>
    <path d="M914.25 30.225l-2.288 11.78-11.78-2.29 14.07-9.49zm-2.343 1.582l-9.38 6.327 7.853 1.526 1.527-7.853z" opacity=".86"/>
    <path d="M880.978 1168.83l-10.177 6.358-6.358-10.176 16.536 3.817zm-2.756-.637l-11.024-2.545 4.24 6.784 6.784-4.24z" opacity=".89"/>
    <path d="M860.638 1080.155l11.817 2.084-2.083 11.817-9.734-13.902zm1.622 2.317l6.49 9.268 1.388-7.88-7.878-1.388z" opacity=".96"/>
    <path d="M886.74 1050.857l-10.693 5.448-5.448-10.692 16.14 5.244zm-2.69-.874l-10.76-3.496 3.63 7.128 7.13-3.632z" opacity=".9"/>
    <path d="M872.905 1001.737l9.326-7.552 7.553 9.326-16.878-1.773zm2.813.296l11.252 1.182-5.035-6.217-6.217 5.035z" opacity=".93"/>
    <path d="M859.172 914.005l-1.255-11.935 11.935-1.254-10.68 13.19zm1.78-2.198l7.12-8.793-7.957.836.837 7.957z" opacity=".9"/>
    <path d="M876.985 855.53l-6 10.393-10.392-6 16.392-4.392zm-2.732.733l-10.928 2.928 6.928 4 4-6.927z" opacity=".74"/>
    <path d="M880.482 795.102l-9.948-6.71 6.71-9.95 3.238 16.66zm-.54-2.776l-2.158-11.106-4.474 6.632 6.633 4.474z"/>
    <path d="M875.07 748.1l8.03-8.917 8.918 8.03-16.947.888zm2.825-.147l11.298-.592-5.945-5.352-5.353 5.945z" opacity=".86"/>
    <path d="M879.068 671.74l-11.97.837-.838-11.97 12.808 11.133zm-2.135-1.856l-8.54-7.422.56 7.98 7.98-.558z" opacity=".83"/>
    <path d="M878.644 637.55l-11.91-1.462 1.462-11.91 10.448 13.372zm-1.74-2.23l-6.966-8.914-.975 7.94 7.94.975z" opacity=".88"/>
    <path d="M862.098 559.804l7.054 9.708-9.71 7.053 2.656-16.76zm-.442 2.793l-1.77 11.175 6.472-4.703-4.702-6.473z" opacity=".83"/>
    <path d="M863.014 514.183l10.064-6.536 6.535 10.064-16.6-3.527zm2.766.588l11.067 2.353-4.357-6.71-6.71 4.358z" opacity=".74"/>
    <path d="M868.417 453.81l2.495 11.738-11.737 2.495 9.242-14.233zm-1.54 2.372l-6.162 9.49 7.825-1.664-1.663-7.826z" opacity=".79"/>
    <path d="M870.105 407.268l-9.708 7.053-7.054-9.707 16.762 2.655zm-2.794-.443l-11.173-1.77 4.702 6.472 6.47-4.702z" opacity=".72"/>
    <path d="M880.065 352.168l-11.476-3.51 3.507-11.474 7.968 14.984zm-1.328-2.497l-5.312-9.99-2.34 7.652 7.652 2.34z" opacity=".7"/>
    <path d="M862.414 264.258l4.495 11.126-11.127 4.496 6.63-15.622zm-1.105 2.604l-4.422 10.414 7.417-2.997-2.996-7.418z" opacity=".74"/>
    <path d="M886.494 201.6l4.88 10.962-10.962 4.88 6.082-15.842zm-1.014 2.64l-4.054 10.563 7.308-3.254-3.254-7.31z" opacity=".94"/>
    <path d="M870.553 147.64l-5.26-10.784 10.785-5.26-5.525 16.045zm.92-2.673l3.684-10.698-7.19 3.506 3.507 7.19z" opacity=".92"/>
    <path d="M873.223 67.88l10.176-6.358 6.358 10.176-16.535-3.817zm2.756.637l11.023 2.545-4.24-6.785-6.784 4.24z" opacity=".86"/>
    <path d="M883.266 13.753l8.918 8.03-8.03 8.917-.888-16.947zm.148 2.824l.592 11.298 5.353-5.945-5.946-5.353z" opacity=".83"/>
    <path d="M799.143 1178.643l7.222-9.584 9.583 7.22-16.805 2.363zm2.8-.394l11.205-1.575-6.39-4.815-4.814 6.39z" opacity=".75"/>
    <path d="M825.182 1098.944l-1.462-11.91 11.91-1.463-10.448 13.374zm1.74-2.23l6.967-8.914-7.942.975.975 7.94z" opacity=".91"/>
    <path d="M818.263 1027.832l8.917-8.03 8.03 8.918-16.947-.888zm2.824.148l11.3.592-5.355-5.945-5.945 5.353z" opacity=".99"/>
    <path d="M832.488 968.826l-4.104 11.276-11.277-4.104 15.38-7.172zm-2.564 1.196l-10.253 4.78 7.518 2.737 2.736-7.518z" opacity=".88"/>
    <path d="M825.7 937.257l9.584-7.22 7.222 9.582-16.806-2.363zm2.8.394l11.205 1.576-4.815-6.39-6.39 4.815z" opacity=".97"/>
    <path d="M822.313 863.345l4.104 11.276-11.276 4.105 7.173-15.38zm-1.195 2.563l-4.782 10.254 7.518-2.736-2.736-7.518z" opacity=".96"/>
    <path d="M825.74 807.16l-10.597 5.633-5.633-10.596 16.23 4.962zm-2.706-.828l-10.82-3.308 3.756 7.064 7.064-3.756z" opacity=".78"/>
    <path d="M841.798 737.983l-5.817 10.495-10.495-5.818 16.313-4.677zm-2.718.78l-10.876 3.118 6.997 3.88 3.88-6.998z" opacity=".86"/>
    <path d="M811.504 712.604l-4.88-10.963 10.962-4.88-6.082 15.844zm1.014-2.64l4.054-10.563-7.308 3.255 3.254 7.308z" opacity=".93"/>
    <path d="M809.462 634.818l5.26 10.786-10.785 5.26 5.525-16.046zm-.92 2.675l-3.684 10.697 7.19-3.507-3.507-7.19z" opacity=".92"/>
    <path d="M809.012 543.912l11.91 1.462-1.462 11.91-10.448-13.372zm1.74 2.228l6.967 8.916.974-7.94-7.94-.976z" opacity=".9"/>
    <path d="M830.632 514.4l10.786 5.26-5.26 10.787-5.526-16.046zm.92 2.675l3.685 10.698 3.507-7.19-7.19-3.508z" opacity=".98"/>
    <path d="M809.912 437.766l9.193 7.713-7.713 9.192-1.48-16.906zm.247 2.817l.985 11.27 5.142-6.127-6.128-5.143z" opacity=".92"/>
    <path d="M820.54 382.326l-11.817 2.084-2.084-11.817 13.9 9.733zm-2.317-1.622l-9.267-6.49 1.39 7.88 7.877-1.39z" opacity=".78"/>
    <path d="M817.105 339.737l10.786-5.26 5.26 10.786-16.045-5.526zm2.674.92l10.697 3.685-3.507-7.19-7.19 3.506z" opacity=".87"/>
    <path d="M818.323 280.347l10.176-6.36 6.358 10.178-16.535-3.818zm2.756.637l11.022 2.545-4.24-6.786-6.783 4.24z" opacity=".79"/>
    <path d="M799.423 217.378l11.852-1.877 1.877 11.853-13.73-9.975zm2.288 1.662l9.154 6.65-1.252-7.9-7.9 1.25z" opacity=".73"/>
    <path d="M823.81 119.643l7.388 9.456-9.456 7.387 2.068-16.844zm-.345 2.807l-1.38 11.23 6.305-4.926-4.925-6.304z" opacity=".76"/>
    <path d="M831.85 72.298l9.83 6.883-6.883 9.83-2.947-16.712zm.49 2.785l1.966 11.142 4.588-6.553-6.553-4.59z" opacity=".87"/>
    <path d="M819.28 32.29l5.448 10.69-10.692 5.45 5.244-16.14zm-.874 2.69l-3.496 10.76 7.128-3.633-3.632-7.128z" opacity=".7"/>
    <path d="M769.636 1149.406l-10.065 6.536-6.534-10.064 16.6 3.528zm-2.767-.588l-11.068-2.352 4.358 6.71 6.71-4.358z" opacity=".75"/>
    <path d="M774.148 1117.587l7.388-9.456 9.456 7.39-16.844 2.067zm2.807-.345l11.23-1.38-6.304-4.924-4.925 6.304z" opacity=".76"/>
    <path d="M778.302 1053.794l-3.708 11.413-11.413-3.71 15.122-7.703zm-2.52 1.284l-10.08 5.136 7.608 2.472 2.472-7.608z" opacity=".75"/>
    <path d="M776.62 979.705l2.904-11.643 11.643 2.903-14.546 8.74zm2.425-1.456l9.698-5.828-7.762-1.936-1.935 7.763z" opacity=".76"/>
    <path d="M777.187 929.454l-8.918 8.03-8.03-8.918 16.947.888zm-2.825-.148l-11.298-.592 5.353 5.945 5.945-5.354z" opacity=".72"/>
    <path d="M780.247 858.585l1.254 11.934-11.933 1.253 10.68-13.188zm-1.78 2.198l-7.12 8.792 7.956-.836-.836-7.957z" opacity=".98"/>
    <path d="M754.962 789.72l9.193-7.714 7.713 9.192-16.906-1.48zm2.818.246l11.27.986-5.142-6.13-6.128 5.144z" opacity=".82"/>
    <path d="M772.213 755.005l-7.873-9.057 9.056-7.872-1.183 16.93zm.197-2.822l.79-11.286-6.04 5.25 5.25 6.036z" opacity=".85"/>
    <path d="M771.132 673.378l9.583 7.222-7.22 9.583-2.363-16.805zm.393 2.8l1.575 11.205 4.814-6.39-6.39-4.814z" opacity=".75"/>
    <path d="M757.817 636.06l-1.046-11.956 11.955-1.045-10.908 13zm1.818-2.168l7.272-8.667-7.97.698.698 7.97z" opacity=".9"/>
    <path d="M763.148 588.71l-11.126-4.497 4.495-11.126 6.63 15.622zm-1.105-2.605l-4.42-10.414-2.998 7.418 7.418 2.997z" opacity=".84"/>
    <path d="M780.076 506.49l2.7 11.69-11.693 2.7 8.993-14.39zm-1.498 2.397l-5.996 9.595 7.795-1.8-1.8-7.795z" opacity=".88"/>
    <path d="M765.91 420.59l1.256 11.934-11.935 1.254 10.68-13.188zm-1.78 2.198l-7.12 8.792 7.958-.836-.837-7.956z" opacity=".91"/>
    <path d="M775.9 361.527l9.457 7.388-7.388 9.456-2.07-16.843zm.345 2.808l1.38 11.23 4.924-6.305-6.305-4.925z" opacity=".74"/>
    <path d="M765.39 319.352l9.193-7.713 7.714 9.19-16.906-1.478zm2.82.247l11.27.985-5.143-6.13-6.128 5.144zM782.038 273.497l-5.07-10.876 10.875-5.07-5.805 15.947zm.968-2.658l3.87-10.632-7.25 3.38 3.38 7.25z" opacity=".96"/>
    <path d="M769.785 216.583l4.69 11.046-11.047 4.688 6.357-15.735zm-1.06 2.623l-4.238 10.49 7.364-3.126-3.125-7.364z" opacity=".87"/>
    <path d="M779.877 157.706l11.535 3.307-3.308 11.535-8.227-14.842zm1.37 2.473l5.486 9.895 2.205-7.69-7.69-2.206z" opacity=".98"/>
    <path d="M789.065 73.878l-11.475 3.51-3.51-11.477 14.985 7.968zm-2.497-1.328l-9.99-5.31 2.34 7.65 7.65-2.34z" opacity=".76"/>
    <path d="M784.726 34.46l4.688 11.047-11.046 4.688 6.358-15.734zm-1.06 2.623l-4.238 10.49 7.364-3.126-3.126-7.364z" opacity=".74"/>
    <path d="M733.797 1165.977l-10.876-5.07 5.073-10.877 5.804 15.947zm-.967-2.658l-3.87-10.632-3.38 7.25 7.25 3.38z" opacity=".81"/>
    <path d="M728.098 1118.65l-11.692 2.7-2.7-11.692 14.392 8.993zm-2.398-1.497l-9.595-5.996 1.8 7.795 7.795-1.8z" opacity=".9"/>
    <path d="M738.274 1019.76l1.877 11.85-11.85 1.878 9.974-13.73zm-1.662 2.287l-6.65 9.153 7.9-1.25-1.25-7.903z" opacity=".88"/>
    <path d="M704.157 978.857l-5.634-10.596 10.596-5.632-4.963 16.23zm.827-2.705l3.308-10.82-7.064 3.756 3.756 7.064z" opacity=".85"/>
    <path d="M742.392 909.585l-8.184 8.776-8.776-8.183 16.96-.592zm-2.827.1l-11.307.393 5.85 5.456 5.457-5.85z" opacity=".96"/>
    <path d="M720.8 877.966l10.497-5.817 5.817 10.494-16.313-4.678zm2.72.78l10.875 3.12-3.878-6.998-6.997 3.878z" opacity=".72"/>
    <path d="M713.677 810.26l-5.07-10.875 10.875-5.072-5.805 15.947zm.968-2.658l3.87-10.63-7.25 3.38 3.38 7.25z" opacity=".73"/>
    <path d="M719.234 769.585l3.307-11.535 11.537 3.308-14.843 8.227zm2.474-1.37l9.895-5.486-7.69-2.206-2.205 7.69z" opacity=".87"/>
    <path d="M732.284 680.732l-2.29 11.78-11.78-2.29 14.07-9.49zm-2.344 1.582l-9.38 6.326 7.853 1.527 1.527-7.853z" opacity=".84"/>
    <path d="M716.218 636.63l-11.276-4.104 4.104-11.276 7.172 15.38zm-1.195-2.563l-4.782-10.253-2.735 7.517 7.518 2.737z" opacity=".88"/>
    <path d="M735.98 556.167l-8.776-8.184 8.184-8.776.592 16.96zm-.1-2.827l-.394-11.306-5.456 5.85 5.85 5.456z" opacity=".79"/>
    <path d="M713.506 497.858l11.91 1.462-1.462 11.91-10.448-13.372zm1.74 2.23l6.967 8.914.975-7.94-7.94-.975z" opacity=".92"/>
    <path d="M739.266 425.758l-5.818 10.495-10.495-5.818 16.313-4.677zm-2.72.78l-10.874 3.118 6.997 3.878 3.877-6.997z" opacity=".74"/>
    <path d="M712.756 378.192l4.495-11.126 11.127 4.495-15.62 6.632zm2.603-1.105l10.414-4.42-7.418-2.998-2.997 7.417z" opacity=".84"/>
    <path d="M718.488 309.896l11.693 2.7-2.7 11.692-8.992-14.392zm1.5 2.398l5.995 9.595 1.8-7.796-7.796-1.8z" opacity=".78"/>
    <path d="M722.59 280.686l-2.698 11.692-11.693-2.7 14.39-8.992zm-2.398 1.5l-9.594 5.994 7.795 1.8 1.8-7.795z" opacity=".71"/>
    <path d="M717.11 188.86l11.934 1.255-1.254 11.934-10.68-13.19zm1.78 2.2l7.12 8.79.836-7.955-7.956-.836z" opacity=".87"/>
    <path d="M730.33 130.148l10.175 6.36-6.36 10.176-3.816-16.536zm.635 2.756l2.545 11.024 4.24-6.785-6.785-4.24z" opacity=".74"/>
    <path d="M727.612 84.268l11.983-.628.628 11.984-12.61-11.356zm2.102 1.893l8.407 7.57-.417-7.988-7.99.42z" opacity=".9"/>
    <path d="M718.03 39.583l11.345-3.907 3.907 11.346-15.253-7.44zm2.54 1.24l10.17 4.96-2.605-7.565-7.564 2.605z" opacity=".72"/>
    <path d="M669.858 1167.683l-3.307-11.535 11.536-3.307-8.228 14.843zm1.372-2.473l5.485-9.896-7.69 2.206 2.205 7.69z" opacity=".88"/>
    <path d="M672.197 1109.03l6.536-10.064 10.064 6.536-16.6 3.528zm2.767-.588l11.066-2.352-6.71-4.357-4.356 6.71z" opacity=".78"/>
    <path d="M659.794 1051.22l11.127 4.495-4.495 11.126-6.63-15.62zm1.105 2.603l4.42 10.415 2.997-7.418-7.418-2.997z" opacity=".94"/>
    <path d="M682.38 976.5l5.072 10.876-10.876 5.07 5.805-15.946zm-.967 2.658l-3.87 10.63 7.25-3.38-3.38-7.25zM667.62 911.017l-.42 11.992-11.993-.42 12.412-11.573zm-2.07 1.93l-8.274 7.714 7.995.28.28-7.994z" opacity=".97"/>
    <path d="M672.01 869.82l-11.592-3.107 3.105-11.59 8.486 14.696zm-1.416-2.45l-5.656-9.8-2.07 7.73 7.726 2.07z" opacity=".8"/>
    <path d="M663.744 802.02l10.785-5.26 5.26 10.786-16.046-5.525zm2.674.922l10.697 3.684-3.507-7.19-7.19 3.506z" opacity=".81"/>
    <path d="M665.777 747.437l10.065 6.535-6.536 10.065-3.53-16.6zm.59 2.766l2.35 11.067 4.358-6.71-6.71-4.357z" opacity=".84"/>
    <path d="M688.277 693.996l.628 11.983-11.984.627 11.357-12.61zm-1.893 2.102l-7.57 8.408 7.99-.42-.42-7.988z" opacity=".86"/>
    <path d="M686.758 614.143l-10.392 6-6-10.392 16.392 4.393zm-2.732-.732l-10.928-2.927 4 6.928 6.928-4z"/>
    <path d="M683.376 561.284l-2.495 11.738-11.736-2.495 14.232-9.243zm-2.372 1.54l-9.488 6.162 7.825 1.663 1.664-7.826z" opacity=".98"/>
    <path d="M666.81 523.605l-9.71-7.053 7.054-9.708 2.655 16.76zm-.443-2.793l-1.77-11.175-4.702 6.472 6.472 4.702z" opacity=".77"/>
    <path d="M682.3 453.244l10.392 6-6 10.392-4.392-16.392zm.732 2.732l2.928 10.928 4-6.928-6.928-4z" opacity=".98"/>
    <path d="M673.83 395.846l-11.74-2.495 2.496-11.737 9.243 14.233zm-1.542-2.372l-6.162-9.49-1.663 7.826 7.825 1.664z" opacity=".93"/>
    <path d="M668.995 327.86l-11.853 1.876-1.877-11.852 13.73 9.975zm-2.29-1.663l-9.152-6.65 1.252 7.9 7.9-1.25z" opacity=".89"/>
    <path d="M676.75 271.72l1.876-11.85 11.853 1.876-13.73 9.975zm2.287-1.66l9.153-6.65-7.9-1.253-1.253 7.902z" opacity=".8"/>
    <path d="M670.377 217.494l6.18 10.286-10.286 6.18 4.107-16.466zm-.684 2.744l-2.737 10.978 6.857-4.12-4.12-6.858z" opacity=".78"/>
    <path d="M665.723 147.256l9.83 6.883-6.883 9.83-2.947-16.714zm.49 2.786l1.966 11.142 4.587-6.553-6.553-4.588z" opacity=".98"/>
    <path d="M665.946 83.77l-10.286-6.18 6.18-10.287 4.106 16.467zm-.684-2.745l-2.737-10.977-4.12 6.857 6.857 4.12z" opacity=".73"/>
    <path d="M671.554 51.72l-8.917-8.03 8.03-8.918.887 16.947zm-.148-2.825l-.592-11.3-5.353 5.946 5.946 5.355z" opacity=".9"/>
    <path d="M627.5 1164.325l-1.878 11.852-11.852-1.877 13.73-9.975zm-2.29 1.663l-9.152 6.65 7.9 1.25 1.253-7.9z"/>
    <path d="M632.04 1117.87l-11.693 2.7-2.7-11.693 14.393 8.993zm-2.4-1.5l-9.594-5.994 1.8 7.795 7.795-1.8z" opacity=".99"/>
    <path d="M622.9 1044.51l-8.776 8.183-8.184-8.777 16.96.593zm-2.826-.1l-11.307-.395 5.456 5.85 5.85-5.455z" opacity=".81"/>
    <path d="M635.15 995.12l-9.055-7.872 7.872-9.057 1.184 16.93zm-.196-2.82l-.79-11.287-5.248 6.038 6.038 5.25z" opacity=".9"/>
    <path d="M624.413 946.46l-5.26-10.785 10.785-5.26-5.525 16.046zm.92-2.674l3.684-10.697-7.19 3.506 3.507 7.19z" opacity=".73"/>
    <path d="M633.218 885.97l-11.276-4.105 4.104-11.276 7.172 15.38zm-1.195-2.564l-4.782-10.254-2.735 7.518 7.518 2.736z" opacity=".71"/>
    <path d="M618.732 794.97l-5.07-10.877 10.875-5.072-5.805 15.95zm.968-2.66l3.87-10.63-7.25 3.38 3.38 7.25z" opacity=".77"/>
    <path d="M614.778 762.856l-2.495-11.738 11.737-2.495-9.242 14.233zm1.54-2.372l6.162-9.49-7.825 1.665 1.663 7.824z" opacity=".91"/>
    <path d="M606.418 682.55l12-.21.208 12-12.208-11.79zm2.035 1.965l8.138 7.86-.138-8-8 .14z" opacity=".86"/>
    <path d="M631.547 600.207l9.057 7.873-7.873 9.057-1.183-16.93zm.198 2.822l.79 11.285 5.247-6.038-6.037-5.248z" opacity=".98"/>
    <path d="M616.568 577.187l-.628 11.984-11.983-.628 12.61-11.355zm-2.102 1.893l-8.407 7.57 7.988.42.418-7.99z" opacity=".95"/>
    <path d="M612.01 514.148l-2.904-11.643 11.644-2.903-8.74 14.546zm1.456-2.424l5.827-9.698-7.762 1.935 1.936 7.764zM600.76 461.57l6.882-9.828 9.83 6.882-16.713 2.947zm2.784-.49l11.142-1.964-6.553-4.59-4.59 6.554z" opacity=".72"/>
    <path d="M625.674 369.26l-8.03 8.917-8.917-8.03 16.947-.888zm-2.825.147l-11.3.593 5.946 5.353 5.353-5.946z" opacity=".74"/>
    <path d="M635.933 351.194l-11.126-4.495 4.495-11.127 6.63 15.62zm-1.105-2.603l-4.42-10.414-2.997 7.418 7.418 2.997z" opacity=".9"/>
    <path d="M618.617 246.31l-7.053 9.71-9.71-7.055 16.763-2.654zm-2.794.443l-11.174 1.77 6.47 4.702 4.703-6.472z" opacity=".88"/>
    <path d="M607.008 208.51l1.67-11.884 11.884 1.67-13.554 10.213zm2.26-1.703l9.035-6.81-7.922-1.112-1.113 7.922z" opacity=".84"/>
    <path d="M622.598 129.05l-9.457 7.388-7.387-9.456 16.845 2.068zm-2.808-.345l-11.23-1.378 4.926 6.304 6.304-4.925z" opacity=".7"/>
    <path d="M622.645 79.75l8.184 8.775-8.777 8.184.592-16.96zm-.098 2.825l-.395 11.307 5.85-5.456-5.455-5.85z" opacity=".88"/>
    <path d="M640.212 32.794l-11.203 4.3-4.3-11.202 15.502 6.902zm-2.584-1.15l-10.335-4.602 2.867 7.47 7.468-2.868z" opacity=".9"/>
    <path d="M568.88 1174.915l-1.67 11.883-11.883-1.67 13.553-10.213zm-2.26 1.702l-9.034 6.81 7.922 1.112 1.113-7.923z" opacity=".91"/>
    <path d="M587.48 1098.22l-8.336 8.634-8.632-8.336 16.968-.297zm-2.828.05l-11.312.198 5.755 5.558 5.557-5.755z" opacity=".79"/>
    <path d="M575.987 1065.487l-5.07-10.876 10.875-5.07-5.805 15.947zm.968-2.658l3.87-10.633-7.25 3.38 3.38 7.252z" opacity=".91"/>
    <path d="M571.15 973.717l-11.998.21-.21-11.998 12.208 11.787zm-2.035-1.964l-8.138-7.86.14 8 7.998-.14z" opacity=".98"/>
    <path d="M583.335 946.113l-9.584 7.222-7.22-9.584 16.805 2.363zm-2.8-.394l-11.205-1.575 4.815 6.39 6.39-4.816z" opacity=".76"/>
    <path d="M577.582 889.623l-8.776-8.184 8.184-8.777.592 16.96zm-.1-2.826l-.394-11.307-5.456 5.85 5.85 5.457z" opacity=".74"/>
    <path d="M582.68 815.123l-11.69-2.7 2.698-11.692 8.993 14.393zm-1.497-2.4l-5.996-9.594-1.8 7.794 7.796 1.8z" opacity=".89"/>
    <path d="M577.467 760.944l-11.97.837-.838-11.97 12.807 11.134zm-2.134-1.856l-8.54-7.423.56 7.98 7.98-.557z" opacity=".86"/>
    <path d="M582.48 686.165l3.306 11.535-11.535 3.308 8.23-14.843zm-1.373 2.474l-5.485 9.894 7.69-2.205-2.205-7.69z" opacity=".71"/>
    <path d="M587.883 610.15l-10.875 5.07-5.072-10.875 15.947 5.804zm-2.658-.968l-10.63-3.87 3.38 7.25 7.25-3.38zM578.107 553.228l-9.83 6.883-6.883-9.83 16.713 2.948zm-2.786-.49l-11.14-1.965 4.588 6.553 6.553-4.59z" opacity=".81"/>
    <path d="M564.03 500.917l1.462-11.91 11.91 1.462-13.372 10.447zm2.23-1.74l8.914-6.967-7.94-.974-.975 7.94z" opacity=".77"/>
    <path d="M567.615 449.484l-9.583-7.222 7.22-9.584 2.363 16.806zm-.393-2.8l-1.575-11.205-4.814 6.388 6.39 4.815z" opacity=".83"/>
    <path d="M561.582 400.515l-11.046-4.688 4.69-11.046 6.356 15.735zm-1.06-2.622l-4.238-10.49-3.126 7.364 7.364 3.126z" opacity=".99"/>
    <path d="M563.156 302.637l5.818 10.496-10.496 5.817 4.678-16.313zm-.78 2.72l-3.118 10.874 6.997-3.877-3.88-6.997z" opacity=".85"/>
    <path d="M570.18 264.39l1.045 11.955-11.954 1.045 10.91-13zm-1.82 2.167l-7.27 8.667 7.97-.698-.7-7.97z" opacity=".93"/>
    <path d="M584.603 203.64l-10.286-6.182 6.18-10.286 4.106 16.467zm-.684-2.746l-2.738-10.977-4.12 6.857 6.857 4.12z" opacity=".7"/>
    <path d="M592.43 133.133l-4.496 11.126-11.126-4.496 15.62-6.63zm-2.604 1.105l-10.415 4.42 7.42 2.998 2.996-7.418z"/>
    <path d="M576.942 76.087l5.448-10.692 10.692 5.448-16.14 5.244zm2.69-.874l10.76-3.496-7.128-3.632-3.632 7.128z" opacity=".79"/>
    <path d="M562.943 16.3l8.03 8.92-8.918 8.028.888-16.947zm-.148 2.825l-.592 11.3 5.945-5.354-5.353-5.945z" opacity=".75"/>
    <path d="M505.526 1164.846l-6.536-10.064 10.064-6.536-3.528 16.6zm.588-2.767l2.352-11.067-6.71 4.357 4.358 6.71z" opacity=".97"/>
    <path d="M504.84 1097.638l10.287-6.18 6.18 10.286-16.466-4.106zm2.745.684l10.978 2.737-4.12-6.858-6.858 4.12z" opacity=".82"/>
    <path d="M537.937 1036.542l-11.78 2.29-2.29-11.78 14.07 9.49zm-2.345-1.58l-9.38-6.328 1.527 7.853 7.852-1.526z" opacity=".86"/>
    <path d="M515.65 985.532l7.874-9.056 9.056 7.873-16.93 1.182zm2.823-.197l11.286-.79-6.04-5.248-5.247 6.038z" opacity=".77"/>
    <path d="M518.322 952.102l-9.708-7.054 7.053-9.708 2.655 16.762zm-.442-2.794l-1.77-11.174-4.702 6.472 6.472 4.702z" opacity=".95"/>
    <path d="M529.27 853.346l-.418-11.993 11.993-.42-11.574 12.413zm1.93-2.07l7.716-8.273-7.995.28.28 7.994z" opacity=".79"/>
    <path d="M523.817 803.113l9.83-6.883 6.883 9.83-16.713-2.947zm2.786.49l11.142 1.965-4.59-6.553-6.552 4.59z"/>
    <path d="M504.124 753.387l-4.88-10.963 10.96-4.88-6.08 15.843zm1.013-2.64l4.055-10.563-7.31 3.254 3.255 7.308z" opacity=".76"/>
    <path d="M528.77 708.23l-6.358-10.177 10.176-6.36-3.817 16.537zm.637-2.756l2.545-11.024-6.784 4.24 4.24 6.784z" opacity=".99"/>
    <path d="M525.89 649.972l-10.287-6.18 6.18-10.287 4.106 16.467zm-.685-2.745l-2.737-10.978-4.12 6.857 6.857 4.12z" opacity=".93"/>
    <path d="M523.246 569.51l-11.817 2.084-2.085-11.818 13.9 9.734zm-2.317-1.622l-9.268-6.49 1.39 7.88 7.877-1.39z" opacity=".94"/>
    <path d="M524.11 511.888l-11.982.628-.628-11.983 12.61 11.355zm-2.1-1.892l-8.408-7.57.418 7.988 7.99-.418z" opacity=".78"/>
    <path d="M503.383 440.667l11.992.418-.418 11.993-11.574-12.41zm1.93 2.068l7.715 8.275.28-7.996-7.996-.28z" opacity=".72"/>
    <path d="M522.643 378.702l-10.286 6.18-6.18-10.286 16.466 4.106zm-2.744-.684l-10.98-2.737 4.122 6.858 6.857-4.12z" opacity=".94"/>
    <path d="M510.08 340.497l-11.126-4.495 4.496-11.127 6.63 15.622zm-1.105-2.604l-4.42-10.414-2.997 7.417 7.417 2.996zM520.736 274.14l-10.286 6.18-6.18-10.286 16.466 4.105zm-2.744-.685l-10.978-2.737 4.12 6.857 6.858-4.12z" opacity=".99"/>
    <path d="M517.793 183.632v12h-12l12-12zm-2 2l-8 8h8v-8z" opacity=".86"/>
    <path d="M521.67 162.3l9.455-7.388 7.388 9.456-16.844-2.068zm2.807.344l11.23 1.38-4.926-6.305-6.303 4.924z" opacity=".78"/>
    <path d="M506.548 59.453l9.193 7.713-7.713 9.193-1.48-16.907zm.247 2.818l.986 11.27 5.143-6.127-6.128-5.142z" opacity=".97"/>
    <path d="M532.756.95l7.713 9.194-9.194 7.713L532.756.95zm-.247 2.82l-.987 11.27 6.128-5.143-5.14-6.128z" opacity=".79"/>
    <path d="M458.524 1177.582l3.708-11.413 11.413 3.707-15.12 7.705zm2.52-1.284l10.08-5.136-7.608-2.473-2.472 7.608z" opacity=".83"/>
    <path d="M475.315 1083.198l-4.88 10.963-10.963-4.88 15.843-6.082zm-2.64 1.014l-10.563 4.054 7.308 3.254 3.254-7.308z" opacity=".85"/>
    <path d="M492.417 1060.933l-9.584 7.222-7.222-9.584 16.807 2.363zm-2.8-.394l-11.205-1.575 4.815 6.39 6.39-4.816z" opacity=".87"/>
    <path d="M476.865 998.57l11.91-1.462 1.463 11.91-13.373-10.447zm2.23 1.742l8.914 6.965-.976-7.94-7.94.975z" opacity=".93"/>
    <path d="M465.033 919.79l1.254-11.936 11.934 1.255-13.187 10.68zm2.198-1.78l8.793-7.12-7.956-.838-.836 7.957z" opacity=".72"/>
    <path d="M461.126 886.17l7.55-9.325 9.327 7.552-16.877 1.774zm2.813-.295l11.25-1.182-6.217-5.035-5.034 6.217z" opacity=".9"/>
    <path d="M472.494 795.128l-7.873 9.057-9.056-7.873 16.93-1.184zm-2.822.198l-11.286.79 6.038 5.247 5.248-6.037z" opacity=".76"/>
    <path d="M478.68 762.355l-10.063-6.536 6.536-10.065 3.528 16.6zm-.587-2.767l-2.352-11.066-4.357 6.71 6.71 4.356z" opacity=".77"/>
    <path d="M464.754 671.588l-3.907 11.346-11.346-3.907 15.254-7.44zm-2.542 1.24l-10.17 4.96 7.566 2.604 2.604-7.564z" opacity=".89"/>
    <path d="M462.706 622.397l10.963 4.88-4.882 10.963-6.082-15.843zm1.014 2.64l4.054 10.562 3.254-7.31-7.308-3.253z" opacity=".82"/>
    <path d="M467.734 556.97l-10.962 4.88-4.88-10.962 15.842 6.082zm-2.64-1.014l-10.563-4.054 3.255 7.308 7.31-3.254z" opacity=".9"/>
    <path d="M455.007 503.95l11.535-3.31 3.308 11.536-14.843-8.227zm2.474 1.37l9.896 5.485-2.205-7.69-7.69 2.205z" opacity=".73"/>
    <path d="M465.18 466.835l-9.326 7.552-7.552-9.326 16.878 1.775zm-2.813-.295l-11.252-1.183 5.035 6.217 6.217-5.034z" opacity=".91"/>
    <path d="M472.7 363.733l-2.7 11.693-11.692-2.7 14.39-8.993zm-2.4 1.5l-9.594 5.994 7.795 1.8 1.8-7.795z" opacity=".85"/>
    <path d="M476.084 318.242l-11.692 2.7-2.7-11.693 14.392 8.992zm-2.398-1.498l-9.595-5.996 1.8 7.795 7.796-1.8z" opacity=".93"/>
    <path d="M481.798 274.263l.837 11.97-11.97.838 11.133-12.807zm-1.856 2.135l-7.422 8.538 7.98-.558-.558-7.98z" opacity=".95"/>
    <path d="M468.746 216.785l4.69 11.046-11.047 4.69 6.356-15.735zm-1.06 2.622l-4.237 10.49 7.363-3.126-3.126-7.363z" opacity=".78"/>
    <path d="M465.09 140.57l-10.178 6.36-6.36-10.176 16.537 3.817zm-2.757-.635l-11.024-2.545 4.24 6.784 6.783-4.24z" opacity=".99"/>
    <path d="M476.143 65.213l1.877 11.852-11.852 1.877 9.975-13.73zM474.48 67.5l-6.65 9.154 7.902-1.252-1.25-7.9z" opacity=".73"/>
    <path d="M453.724 32.116l-4.688-11.047 11.046-4.69-6.358 15.736zm1.06-2.623l4.238-10.49-7.364 3.126 3.126 7.363z" opacity=".72"/>
    <path d="M420.53 1161.397l6.536 10.064-10.064 6.537 3.528-16.6zm-.588 2.767l-2.352 11.066 6.71-4.357-4.358-6.71z" opacity=".82"/>
    <path d="M427.28 1112.372l9.582-7.222 7.222 9.584-16.805-2.362zm2.8.394l11.203 1.574-4.814-6.39-6.39 4.816z" opacity=".75"/>
    <path d="M424.923 1043.193l-8.777 8.184-8.184-8.776 16.96.593zm-2.827-.1l-11.307-.393 5.455 5.85 5.85-5.456z" opacity=".7"/>
    <path d="M418.566 986.206l-9.056-7.872 7.873-9.057 1.183 16.93zm-.197-2.82l-.79-11.287-5.25 6.036 6.04 5.25z" opacity=".77"/>
    <path d="M417.1 937.563l5.817 10.496-10.496 5.816 4.68-16.313zm-.78 2.72l-3.12 10.875 6.998-3.88-3.88-6.996z"/>
    <path d="M406.956 857.414l10.785-5.26 5.262 10.785-16.046-5.526zm2.674.92l10.697 3.684-3.507-7.19-7.19 3.507z" opacity=".74"/>
    <path d="M404.678 814.87l11.883 1.67-1.67 11.884-10.212-13.553zm1.702 2.26l6.81 9.035 1.112-7.922-7.922-1.113z" opacity=".94"/>
    <path d="M430.864 751.05l.628 11.985-11.984.628 11.356-12.612zm-1.893 2.103l-7.57 8.408 7.99-.418-.42-7.99z" opacity=".74"/>
    <path d="M422.082 692.675l-3.308-11.535 11.535-3.308-8.228 14.843zm1.37-2.474l5.486-9.894-7.69 2.205 2.205 7.69zM426.515 640.05l7.054-9.708 9.707 7.054-16.762 2.654zm2.794-.442l11.173-1.77-6.472-4.702-4.7 6.472z" opacity=".8"/>
    <path d="M408.684 575.09l11.046-4.69 4.69 11.047-15.736-6.358zm2.622 1.06l10.49 4.237-3.126-7.364-7.364 3.126z" opacity=".95"/>
    <path d="M432.733 495.57l-11.992-.418.42-11.992 11.573 12.41zm-1.93-2.068l-7.715-8.274-.28 7.995 7.996.28z" opacity=".92"/>
    <path d="M426.997 436.96l11.535-3.31 3.308 11.536-14.843-8.227zm2.474 1.37l9.896 5.485-2.205-7.69-7.69 2.205z" opacity=".85"/>
    <path d="M415.774 390.256l5.634 10.595-10.595 5.635 4.96-16.23zm-.827 2.704l-3.308 10.82 7.063-3.756-3.756-7.064zM405.224 328.6l4.3-11.203 11.204 4.3-15.504 6.903zm2.584-1.15l10.336-4.602-7.47-2.867-2.866 7.47z" opacity=".78"/>
    <path d="M426.568 262.79l-10.962-4.88 4.88-10.963 6.082 15.844zm-1.013-2.64l-4.055-10.562-3.254 7.308 7.31 3.254z" opacity=".88"/>
    <path d="M424.33 231.004l-11.737-2.495 2.495-11.738 9.242 14.232zm-1.54-2.372l-6.162-9.488-1.663 7.825 7.825 1.662z" opacity=".75"/>
    <path d="M423.094 134.907l-11.97-.837.836-11.97 11.134 12.807zm-1.856-2.135l-7.422-8.538-.558 7.98 7.98.558z" opacity=".89"/>
    <path d="M424.376 110.983L425.004 99l11.984.628-12.612 11.355zm2.102-1.892l8.408-7.57-7.99-.418-.418 7.99z" opacity=".77"/>
    <path d="M413.195 37.423l-11.738-2.495 2.495-11.738 9.243 14.233zm-1.54-2.372l-6.162-9.488-1.664 7.826 7.825 1.663z" opacity=".98"/>
    <path d="M379.24 1146.94l-4.88 10.963-10.962-4.88 15.843-6.082zm-2.64 1.014l-10.562 4.055 7.31 3.253 3.253-7.31z" opacity=".7"/>
    <path d="M379.596 1097.823l.21-12 11.997.21-12.207 11.79zm2.034-1.965l8.14-7.86-8-.14-.14 8z" opacity=".96"/>
    <path d="M355.292 1039.654l1.046-11.954 11.955 1.046-13 10.908zm2.167-1.818l8.666-7.272-7.97-.698-.697 7.97z" opacity=".81"/>
    <path d="M372.177 981.806l-11.97.837-.838-11.97 12.807 11.133zm-2.134-1.856l-8.54-7.422.56 7.98 7.98-.558z" opacity=".96"/>
    <path d="M370.8 925.843l-2.29 11.78-11.78-2.29 14.07-9.49zm-2.346 1.58l-9.38 6.328 7.854 1.527 1.526-7.853z" opacity=".84"/>
    <path d="M383.37 851.725l9.193 7.714-7.714 9.19-1.48-16.905zm.247 2.818l.986 11.27 5.142-6.128-6.128-5.142z" opacity=".94"/>
    <path d="M349.596 816.953l11.934-1.254 1.254 11.933-13.188-10.68zm2.198 1.78l8.792 7.12-.836-7.956-7.956.836z" opacity=".88"/>
    <path d="M366.474 756.31l-8.03 8.918-8.917-8.03 16.947-.888zm-2.824.148l-11.3.592 5.947 5.353 5.353-5.945z" opacity=".82"/>
    <path d="M365.96 674.478l-1.462-11.91 11.91-1.463-10.448 13.373zm1.74-2.23l6.967-8.914-7.94.974.974 7.94z" opacity=".76"/>
    <path d="M365.128 606.777h12v12l-12-12zm2 2l8 8v-8h-8z" opacity=".82"/>
    <path d="M374.98 590.534l-3.508-11.476 11.475-3.508-7.967 14.984zm1.328-2.498l5.312-9.99-7.65 2.34 2.338 7.65z" opacity=".91"/>
    <path d="M381.645 518.047l-6.883-9.83 9.83-6.883-2.947 16.713zm.49-2.786l1.965-11.14-6.553 4.588 4.59 6.553z" opacity=".73"/>
    <path d="M373.898 425.71l7.222 9.582-9.584 7.222 2.362-16.805zm-.394 2.8l-1.574 11.203 6.39-4.814-4.816-6.39z" opacity=".91"/>
    <path d="M371.7 384.52h12v12l-12-12zm2 2l8 8v-8h-8z" opacity=".86"/>
    <path d="M376.323 334.137l3.907-11.346 11.346 3.908-15.253 7.44zm2.543-1.24l10.168-4.96-7.564-2.604-2.604 7.565z" opacity=".75"/>
    <path d="M380.487 256.082l-11.127 4.495-4.495-11.126 15.622 6.632zm-2.604-1.105l-10.414-4.42 2.996 7.417 7.417-2.997z" opacity=".81"/>
    <path d="M359.863 207.688l-2.495-11.737 11.737-2.494-9.242 14.232zm1.54-2.372l6.162-9.488-7.825 1.663 1.663 7.826z" opacity=".97"/>
    <path d="M368.138 119.446l3.51 11.476-11.477 3.508 7.968-14.984zm-1.327 2.497l-5.31 9.99 7.65-2.34-2.34-7.65z" opacity=".72"/>
    <path d="M363.375 93.542l11.954-1.046 1.045 11.954-13-10.908zm2.167 1.818l8.666 7.272-.697-7.97-7.968.698z" opacity=".85"/>
    <path d="M365.17 25.6l-10.495 5.82-5.818-10.497L365.17 25.6zm-2.72-.78l-10.874-3.117 3.878 6.997 6.997-3.88zM318.002 1172.012l-1.67 11.883-11.883-1.67L318 1172.012zm-2.26 1.702l-9.035 6.81 7.923 1.112 1.113-7.922z" opacity=".7"/>
    <path d="M300.75 1096.955l-.837-11.97 11.97-.838-11.133 12.808zm1.856-2.135l7.422-8.54-7.98.56.558 7.98z" opacity=".76"/>
    <path d="M324.153 1035.847l-7.713-9.193 9.192-7.713-1.48 16.907zm.247-2.818l.986-11.27-6.13 5.14 5.144 6.13z" opacity=".94"/>
    <path d="M313.15 962.455l9.71 7.053-7.055 9.708-2.655-16.76zm.443 2.793l1.77 11.175 4.702-6.473-6.472-4.702z" opacity=".8"/>
    <path d="M334.548 951.243l-11.476-3.51 3.508-11.474 7.968 14.983zm-1.328-2.498l-5.312-9.99-2.34 7.65 7.652 2.34z" opacity=".72"/>
    <path d="M323.485 857.752l-11.276-4.104 4.103-11.276 7.172 15.38zm-1.195-2.563l-4.78-10.255-2.738 7.518 7.518 2.736z" opacity=".97"/>
    <path d="M331.523 817.416l-8.776 8.184-8.184-8.776 16.96.592zm-2.826-.1l-11.307-.393 5.456 5.85 5.85-5.456z" opacity=".92"/>
    <path d="M309.452 756.614l-10.876-5.07 5.072-10.877 5.804 15.947zm-.967-2.658l-3.87-10.63-3.38 7.25 7.25 3.38z" opacity=".88"/>
    <path d="M307.307 695.02l11.047-4.69 4.688 11.046-15.735-6.357zm2.623 1.058l10.49 4.24-3.126-7.365-7.364 3.125z" opacity=".7"/>
    <path d="M335.424 627.376l-2.7 11.693-11.692-2.7 14.392-8.994zm-2.398 1.5l-9.595 5.994 7.796 1.8 1.8-7.795z" opacity=".88"/>
    <path d="M336.26 578.167l4.494 11.126-11.126 4.495 6.63-15.62zm-1.106 2.604l-4.42 10.415 7.416-2.997-2.996-7.417z" opacity=".9"/>
    <path d="M316.382 495.637l4.3 11.203-11.203 4.3 6.902-15.503zm-1.15 2.584l-4.602 10.336 7.468-2.867-2.867-7.47z" opacity=".72"/>
    <path d="M322.246 471.518l-3.508-11.476 11.476-3.51-7.968 14.986zm1.328-2.498l5.312-9.99-7.65 2.34 2.338 7.65z" opacity=".94"/>
    <path d="M311.284 386.56l5.07 10.876-10.874 5.072 5.804-15.947zm-.968 2.658l-3.87 10.632 7.25-3.38-3.38-7.252z" opacity=".81"/>
    <path d="M313.064 353.34l-4.88-10.964 10.962-4.88-6.082 15.843zm1.013-2.642l4.055-10.562-7.308 3.254 3.253 7.308z" opacity=".84"/>
    <path d="M326.443 287.415l4.69-11.046 11.045 4.687-15.735 6.358zm2.622-1.06l10.49-4.238-7.364-3.126-3.125 7.365z" opacity=".97"/>
    <path d="M336.897 191.19l-8.632 8.335-8.336-8.632 16.967.296zm-2.828-.05l-11.313-.198 5.558 5.755 5.754-5.558z" opacity=".95"/>
    <path d="M322.884 153.693l11.97.838-.836 11.97-11.134-12.807zm1.856 2.135l7.422 8.54.558-7.982-7.98-.558z"/>
    <path d="M303.176 92.26l10.286-6.18 6.18 10.286-16.466-4.106zm2.745.684L316.9 95.68l-4.12-6.856-6.857 4.12z" opacity=".91"/>
    <path d="M321.264 24.554L309.73 27.86l-3.308-11.534 14.842 8.228zm-2.473-1.372l-9.895-5.485 2.206 7.69 7.69-2.205z" opacity=".9"/>
    <path d="M274.3 1171.124l-1.463 11.91-11.91-1.46 13.372-10.45zm-2.23 1.742l-8.915 6.965 7.94.976.976-7.94z" opacity=".95"/>
    <path d="M283.19 1111.734l-4.104 11.276-11.276-4.104 15.38-7.172zm-2.563 1.195l-10.254 4.78 7.518 2.737 2.737-7.518zM267.197 1021.91v12h-12l12-12zm-2 2l-8 8h8v-8z" opacity=".87"/>
    <path d="M282.047 977.897l-9.708 7.053-7.054-9.708 16.76 2.655zm-2.793-.443l-11.175-1.77 4.7 6.473 6.474-4.703z" opacity=".89"/>
    <path d="M285.745 935.307l-11.883 1.67-1.67-11.883 13.553 10.213zm-2.26-1.702l-9.035-6.81 1.114 7.924 7.922-1.115z" opacity=".92"/>
    <path d="M274.105 893.554l-11.046-4.69 4.688-11.045 6.357 15.734zm-1.06-2.623l-4.237-10.488-3.126 7.364 7.364 3.125z" opacity=".78"/>
    <path d="M261.866 794.096l6.535 10.064-10.063 6.536 3.53-16.6zm-.588 2.767l-2.353 11.066 6.71-4.358-4.357-6.71z" opacity=".91"/>
    <path d="M270.844 734.995l4.104 11.276-11.276 4.105 7.172-15.38zm-1.195 2.563l-4.783 10.254 7.518-2.736-2.736-7.518z" opacity=".96"/>
    <path d="M251.18 678.115l-.21-11.998 11.998-.21-11.788 12.208zm1.964-2.035l7.86-8.138-8 .14.14 7.998z"/>
    <path d="M275.166 643.294l-8.918 8.03-8.03-8.918 16.948.888zm-2.825-.148l-11.297-.592 5.353 5.945 5.945-5.354z" opacity=".89"/>
    <path d="M266.09 576.245l-5.634-10.596 10.596-5.634-4.962 16.23zm.827-2.705l3.308-10.82-7.064 3.756 3.757 7.064z" opacity=".93"/>
    <path d="M264.39 517.997l-10.964 4.88-4.88-10.962 15.843 6.082zm-2.642-1.014l-10.562-4.055 3.254 7.31 7.308-3.255z" opacity=".72"/>
    <path d="M260.744 445.23l8.03 8.918-8.918 8.03.888-16.948zm-.148 2.825l-.592 11.298L265.95 454l-5.354-5.945z" opacity=".92"/>
    <path d="M275.146 399.962l-6-10.392 10.392-6-4.392 16.392zm.732-2.732l2.928-10.928-6.928 4 4 6.928z" opacity=".85"/>
    <path d="M281.573 350.747l-11.97-.837.836-11.97 11.133 12.807zm-1.856-2.135l-7.422-8.538-.558 7.98 7.98.558z" opacity=".84"/>
    <path d="M276.56 274.956l7.552 9.326-9.326 7.552 1.774-16.878zm-.296 2.813l-1.183 11.25 6.22-5.034-5.036-6.217z" opacity=".99"/>
    <path d="M267.21 211.926l11.885-1.67 1.67 11.883-13.554-10.214zm2.26 1.702l9.036 6.81-1.114-7.923-7.922 1.113z" opacity=".83"/>
    <path d="M285.55 161.973l-11.984.628-.628-11.982 12.612 11.355zm-2.102-1.893l-8.408-7.57.42 7.99 7.988-.42z" opacity=".7"/>
    <path d="M265.853 95.22l-11.59-3.106 3.105-11.59 8.485 14.696zm-1.414-2.45l-5.658-9.797-2.07 7.727 7.727 2.07z" opacity=".72"/>
    <path d="M255.983 29.564l10.286-6.18 6.18 10.285-16.467-4.106zm2.744.684l10.978 2.737-4.12-6.858-6.858 4.12z" opacity=".93"/>
    <path d="M233.097 1180.427l-3.106 11.59-11.59-3.105 14.697-8.485zm-2.45 1.414l-9.798 5.658 7.727 2.07 2.07-7.727z"/>
    <path d="M211.09 1114.062l-3.71-11.412 11.414-3.71-7.705 15.122zm1.283-2.52l5.137-10.08-7.61 2.472 2.473 7.608z" opacity=".77"/>
    <path d="M219.324 1043.9l-10.876 5.073-5.07-10.876 15.946 5.804zm-2.658-.966l-10.63-3.87 3.38 7.25 7.25-3.38z" opacity=".84"/>
    <path d="M217.396 998.323l-.837 11.97-11.972-.836 12.808-11.134zm-2.135 1.856l-8.537 7.42 7.98.56.558-7.98z" opacity=".72"/>
    <path d="M218.374 939.2l-8.632 8.336-8.336-8.632 16.968.296zm-2.828-.05l-11.312-.196 5.557 5.754 5.756-5.557z" opacity=".84"/>
    <path d="M225.515 890.996l-8.03-8.918 8.918-8.03-.888 16.948zm.148-2.825l.592-11.297-5.945 5.353 5.353 5.945z" opacity=".76"/>
    <path d="M211.946 822.657l5.633-10.595 10.595 5.634-16.23 4.96zm2.705-.827l10.82-3.307-7.064-3.756-3.755 7.063z"/>
    <path d="M205.147 753.887L217 752.01l1.876 11.852-13.73-9.975zm2.288 1.662l9.153 6.65-1.25-7.902-7.903 1.25z" opacity=".79"/>
    <path d="M222.292 708.797l-9.193-7.713 7.713-9.193 1.48 16.907zm-.247-2.817l-.986-11.27-5.143 6.127 6.128 5.143z" opacity=".76"/>
    <path d="M216.01 624.54l9.193 7.714-7.713 9.193-1.48-16.906zm.247 2.818l.986 11.27 5.142-6.127-6.128-5.142z" opacity=".94"/>
    <path d="M203.303 575.13l10.692-5.45 5.448 10.694-16.14-5.245zm2.69.873l10.76 3.497-3.632-7.13-7.127 3.633z" opacity=".97"/>
    <path d="M207.124 495.894l6-10.393 10.392 6-16.392 4.394zm2.732-.732l10.928-2.93-6.928-4-4 6.93z" opacity=".78"/>
    <path d="M211.97 436.98l11.817 2.083-2.083 11.818-9.734-13.9zm1.622 2.316l6.49 9.268 1.39-7.88-7.88-1.388z" opacity=".81"/>
    <path d="M204.982 379.89l11.852-1.878 1.877 11.852-13.728-9.975zm2.288 1.66l9.153 6.652-1.252-7.902-7.9 1.25z" opacity=".85"/>
    <path d="M215.353 306.48l-3.106 11.59-11.59-3.106 14.696-8.485zm-2.45 1.413l-9.797 5.657 7.727 2.07 2.07-7.727z" opacity=".8"/>
    <path d="M227.377 254.875l11.984-.628.63 11.983-12.613-11.355zm2.102 1.892l8.407 7.57-.42-7.988-7.988.417z" opacity=".98"/>
    <path d="M230.895 223.115l-1.877-11.852 11.852-1.877-9.975 13.73zm1.663-2.288l6.65-9.153-7.902 1.25 1.252 7.903z" opacity=".99"/>
    <path d="M199.622 160.767l2.29-11.78 11.78 2.29-14.07 9.49zm2.345-1.582l9.38-6.326-7.853-1.528-1.527 7.853z" opacity=".85"/>
    <path d="M217.956 93.645l-3.51-11.476 11.477-3.51-7.967 14.985zm1.327-2.497l5.312-9.99-7.65 2.34 2.338 7.65z" opacity=".87"/>
    <path d="M229.507 16.75l.418-11.993 11.993.42-12.41 11.573zm2.068-1.93l8.274-7.715-7.996-.28-.28 7.996z" opacity=".83"/>
    <path d="M183.898 1191.626l-8.336-8.632 8.632-8.336-.296 16.968zm.05-2.828l.197-11.312-5.755 5.557 5.558 5.755z" opacity=".78"/>
    <path d="M182.55 1105.185l-11.59-3.106 3.106-11.592 8.485 14.697zm-1.413-2.45l-5.657-9.797-2.07 7.727 7.727 2.07z" opacity=".77"/>
    <path d="M149.77 1044.334l10.176-6.36 6.36 10.177-16.537-3.816zm2.755.636l11.024 2.545-4.24-6.784-6.785 4.24z" opacity=".89"/>
    <path d="M163.77 989.258l5.816 10.495-10.495 5.818 4.68-16.312zm-.78 2.718l-3.12 10.876 6.997-3.88-3.878-6.996z"/>
    <path d="M152.853 905.446l11.984.628-.628 11.984-11.357-12.612zm1.893 2.102l7.57 8.408.42-7.99-7.99-.418z" opacity=".82"/>
    <path d="M178.557 866.296l-6.71 9.948-9.95-6.71 16.66-3.238zm-2.777.54l-11.105 2.158 6.632 4.474 4.473-6.633z" opacity=".75"/>
    <path d="M176.343 794.05l11.346-3.908 3.906 11.346-15.253-7.44zm2.542 1.238l10.17 4.96-2.606-7.564-7.565 2.604z" opacity=".9"/>
    <path d="M154.48 728.574l11.934-1.254 1.255 11.934-13.19-10.68zm2.198 1.78l8.792 7.12-.836-7.956-7.956.836z" opacity=".73"/>
    <path d="M158.308 681.118l7.873-9.057 9.058 7.874-16.93 1.184zm2.822-.197l11.286-.79-6.038-5.247-5.248 6.038z" opacity=".93"/>
    <path d="M170.345 641.934l11.046-4.69 4.69 11.047-15.735-6.356zm2.622 1.06l10.49 4.237-3.126-7.363-7.363 3.126z" opacity=".97"/>
    <path d="M163.233 552.79l5.26 10.786-10.785 5.26 5.525-16.046zm-.92 2.675l-3.684 10.697 7.19-3.507-3.508-7.19z" opacity=".84"/>
    <path d="M174.01 485.368l11.993.42-.42 11.992-11.573-12.412zm1.93 2.07l7.715 8.273.28-7.994-7.996-.28z" opacity=".79"/>
    <path d="M192.984 448.734l-10.786 5.26-5.26-10.785 16.046 5.524zm-2.674-.92l-10.698-3.684 3.507 7.19 7.19-3.507z" opacity=".71"/>
    <path d="M169.387 396.372l6.36-10.177 10.176 6.36-16.536 3.817zm2.756-.636l11.024-2.545-6.785-4.24-4.24 6.786z" opacity=".81"/>
    <path d="M161.45 334.39l-4.105-11.277 11.276-4.104-7.17 15.38zm1.194-2.564l4.78-10.253-7.516 2.736 2.736 7.516z" opacity=".71"/>
    <path d="M156.836 278.286l7.872-9.056 9.057 7.872-16.93 1.184zm2.82-.197l11.287-.79-6.037-5.25-5.25 6.04z" opacity=".75"/>
    <path d="M187.242 215.573l-3.907 11.346-11.346-3.908 15.252-7.44zm-2.542 1.24l-10.17 4.96 7.565 2.604 2.605-7.564z" opacity=".86"/>
    <path d="M164.958 153.2l10.786 5.262-5.26 10.785-5.526-16.046zm.92 2.676l3.685 10.697 3.507-7.19-7.19-3.507z" opacity=".85"/>
    <path d="M160.674 92.674l10.692-5.448 5.448 10.692-16.14-5.244zm2.69.874l10.76 3.496-3.632-7.128-7.128 3.632z" opacity=".83"/>
    <path d="M166.253 45.1l-11.984.628-.63-11.983L166.254 45.1zm-2.102-1.892l-8.407-7.57.42 7.988 7.988-.418z" opacity=".94"/>
    <path d="M124.57 1160.66l-2.494 11.74-11.738-2.496 14.233-9.243zm-2.37 1.54l-9.49 6.163 7.826 1.664 1.663-7.826zM130.737 1104.652l11.91 1.463-1.46 11.91-10.45-13.373zm1.742 2.23l6.964 8.915.975-7.94-7.94-.976z" opacity=".89"/>
    <path d="M131.795 1057.82l-11.955-1.046 1.046-11.954 10.91 13zm-1.818-2.167l-7.273-8.666-.697 7.97 7.97.696z" opacity=".71"/>
    <path d="M124.195 984.72l-11.934 1.254-1.254-11.935 13.19 10.68zm-2.198-1.78l-8.793-7.12.837 7.955 7.957-.836z" opacity=".83"/>
    <path d="M131.09 936.32l-4.106-11.276 11.277-4.105-7.17 15.38zm1.194-2.563l4.78-10.254-7.516 2.736 2.736 7.517z" opacity=".86"/>
    <path d="M122.363 875.412l-2.7-11.692 11.693-2.7-8.993 14.392zm1.5-2.398l5.995-9.595-7.795 1.8 1.8 7.794z" opacity=".8"/>
    <path d="M121.763 812.253l10.595 5.634-5.633 10.595-4.962-16.23zm.827 2.705l3.308 10.82 3.755-7.064-7.063-3.756z" opacity=".7"/>
    <path d="M140.515 724.915l-3.708 11.413-11.413-3.708 15.12-7.705zm-2.52 1.284l-10.08 5.136 7.608 2.472 2.472-7.61z" opacity=".85"/>
    <path d="M116.038 690.49l7.713-9.193 9.194 7.713-16.906 1.48zm2.817-.247l11.27-.986-6.127-5.143-5.143 6.13z" opacity=".91"/>
    <path d="M109.794 627.474l5.26 10.785-10.785 5.26 5.524-16.046zm-.92 2.674l-3.684 10.697 7.19-3.507-3.507-7.19z"/>
    <path d="M113.064 575.016l-6.71-9.948 9.948-6.71-3.238 16.658zm.54-2.776l2.16-11.106-6.634 4.473 4.474 6.633z" opacity=".77"/>
    <path d="M123.01 523.9l-11.127-4.495 4.495-11.127 6.63 15.622zm-1.106-2.604l-4.42-10.414-2.998 7.417 7.418 2.996z" opacity=".79"/>
    <path d="M133.963 454.714l-9.192 7.714-7.713-9.193 16.906 1.48zm-2.817-.246l-11.27-.986 5.14 6.128 6.13-5.142z" opacity=".75"/>
    <path d="M118.98 382.283l1.67 11.883-11.883 1.67 10.213-13.553zm-1.702 2.26l-6.808 9.035 7.922-1.114-1.114-7.922z" opacity=".7"/>
    <path d="M129.542 325.324l-3.308 11.535-11.535-3.31 14.842-8.226zm-2.474 1.37l-9.895 5.486 7.69 2.205 2.205-7.69z" opacity=".85"/>
    <path d="M139.785 268.178l-11.203 4.3-4.3-11.202 15.503 6.902zm-2.584-1.15l-10.335-4.602 2.867 7.47 7.47-2.868z" opacity=".99"/>
    <path d="M115.62 202.662l-1.046 11.955-11.954-1.046 13-10.908zm-2.167 1.818l-8.666 7.273 7.97.697.696-7.97z" opacity=".95"/>
    <path d="M118.554 152.024l10.064 6.536-6.536 10.064-3.528-16.6zm.588 2.767l2.352 11.067 4.357-6.71-6.708-4.356z" opacity=".98"/>
    <path d="M118.028 58.065l9.95 6.71-6.712 9.95-3.238-16.66zm.54 2.777l2.16 11.106 4.472-6.633-6.632-4.473z" opacity=".89"/>
    <path d="M124.598 35.037l2.7 11.693-11.693 2.7 8.993-14.393zm-1.5 2.4l-5.995 9.594 7.795-1.8-1.8-7.794z" opacity=".85"/>
    <path d="M69.548 1164.202l9.71 7.054-7.055 9.708-2.655-16.762zm.443 2.794l1.77 11.174 4.703-6.472-6.472-4.702z" opacity=".77"/>
    <path d="M73.35 1082.483l2.29 11.78-11.778 2.29 9.49-14.07zm-1.58 2.345l-6.327 9.38 7.853-1.527-1.526-7.852z" opacity=".99"/>
    <path d="M65.02 1049.526l11.933 1.255-1.254 11.935-10.68-13.19zm1.78 2.198l7.12 8.793.835-7.956-7.956-.836z" opacity=".92"/>
    <path d="M51.108 969.823l11.955 1.046-1.046 11.954-10.91-13zm1.82 2.167l7.27 8.667.698-7.97-7.97-.697z" opacity=".95"/>
    <path d="M70.028 921.405l-3.708-11.412 11.413-3.71-7.705 15.122zm1.284-2.52l5.137-10.08-7.61 2.472 2.472 7.608z" opacity=".73"/>
    <path d="M67.752 877.5l-2.083 11.82-11.82-2.085 13.902-9.734zm-2.317 1.624l-9.267 6.49L64.046 887l1.39-7.878z" opacity=".82"/>
    <path d="M75.253 796.857l-11.998-.21.21-11.997 11.788 12.207zm-1.964-2.034l-7.86-8.14-.14 8 8 .14z" opacity=".79"/>
    <path d="M79.11 726.442l-7.39 9.456-9.455-7.388 16.844-2.068zm-2.808.345l-11.23 1.38 6.304 4.924 4.926-6.303z" opacity=".93"/>
    <path d="M68.155 700.774l-4.3-11.203 11.203-4.3-6.903 15.504zm1.15-2.584l4.603-10.336-7.47 2.867 2.868 7.47z"/>
    <path d="M69.452 610.912l11.203 4.3-4.3 11.203-6.903-15.503zm1.15 2.584l4.603 10.335 2.866-7.468-7.467-2.866z" opacity=".99"/>
    <path d="M71.163 577.932l-4.88-10.963 10.96-4.88-6.08 15.842zm1.013-2.64l4.055-10.563-7.308 3.253 3.254 7.308z" opacity=".81"/>
    <path d="M86.603 508.91l-11.535 3.307-3.308-11.535 14.843 8.227zm-2.474-1.372l-9.896-5.485 2.205 7.69 7.69-2.205z" opacity=".89"/>
    <path d="M56.743 449.91l1.67-11.883 11.883 1.67-13.553 10.213zm2.26-1.702l9.034-6.81-7.922-1.112-1.113 7.922z" opacity=".7"/>
    <path d="M71.55 400.33l-2.288 11.78-11.78-2.29 14.07-9.49zm-2.343 1.582l-9.38 6.327 7.853 1.525 1.527-7.853z" opacity=".77"/>
    <path d="M62.216 337.242l3.907 11.346-11.346 3.907 7.44-15.253zm-1.24 2.542l-4.96 10.17 7.565-2.606-2.603-7.564z" opacity=".83"/>
    <path d="M74.13 261.248l-4.3-11.203 11.202-4.3-6.902 15.503zm1.15-2.584l4.602-10.336-7.47 2.867 2.868 7.47z" opacity=".85"/>
    <path d="M71.466 194.32l10.064 6.535-6.536 10.064-3.528-16.6zm.588 2.766l2.352 11.066 4.357-6.71-6.71-4.356z" opacity=".7"/>
    <path d="M63.762 158.438l-4.88-10.962 10.962-4.88-6.082 15.842zm1.014-2.64l4.054-10.562-7.308 3.253 3.254 7.308z" opacity=".95"/>
    <path d="M71.51 107.218l-9.95-6.71 6.712-9.95 3.238 16.66zm-.54-2.776l-2.16-11.106-4.472 6.632 6.632 4.474z" opacity=".77"/>
    <path d="M52.94 5.227l11.992.418-.42 11.993L52.94 5.228zm1.928 2.068l7.716 8.274.28-7.996-7.996-.28z" opacity=".82"/>
    <path d="M30.464 1156.84l-11.046-4.688 4.69-11.046 6.356 15.735zm-1.06-2.62l-4.238-10.49-3.126 7.363 7.364 3.126z" opacity=".88"/>
    <path d="M28.565 1099.92l-7.552-9.327 9.326-7.55-1.775 16.876zm.296-2.814l1.183-11.25-6.217 5.033 5.035 6.216z" opacity=".96"/>
    <path d="M33.255 1073.28l-11.412-3.71 3.708-11.412 7.705 15.12zm-1.284-2.52l-5.135-10.082-2.472 7.608 7.608 2.473z" opacity=".88"/>
    <path d="M31.93 1003.57l-6.71 9.95-9.95-6.71 16.66-3.24zm-2.776.54l-11.106 2.16 6.632 4.473 4.474-6.632z" opacity=".7"/>
    <path d="M21.724 899.917l5.072 10.875-10.876 5.072 5.804-15.947zm-.967 2.658l-3.87 10.63 7.25-3.38-3.38-7.25z" opacity=".91"/>
    <path d="M27.13 852.225l8.777 8.184-8.184 8.776-.592-16.96zm.1 2.827l.394 11.307 5.456-5.852-5.85-5.456z" opacity=".99"/>
    <path d="M32.068 801.383l-9.948-6.71 6.71-9.95 3.238 16.66zm-.54-2.776L29.37 787.5l-4.474 6.633 6.633 4.474z" opacity=".82"/>
    <path d="M22.434 732.95l3.106-11.592 11.59 3.106-14.696 8.486zm2.45-1.415l9.798-5.656-7.728-2.072-2.07 7.727z" opacity=".75"/>
    <path d="M11.043 665.39l10.392 6-6 10.39-4.392-16.39zm.732 2.73l2.928 10.93 4-6.93-6.928-4z" opacity=".78"/>
    <path d="M9.79 631.18l-6.358-10.177 10.176-6.36L9.79 631.18zm.637-2.756l2.545-11.024-6.785 4.24 4.24 6.784z" opacity=".81"/>
    <path d="M29.76 540.754l6.882 9.83-9.83 6.882 2.948-16.712zm-.492 2.785l-1.964 11.14 6.553-4.588-4.59-6.553z" opacity=".71"/>
    <path d="M36.15 521.085l-11.693-2.7 2.7-11.69 8.993 14.39zm-1.5-2.398l-5.994-9.595-1.8 7.795 7.795 1.8z" opacity=".92"/>
    <path d="M11.493 443.685l7.872-9.057 9.057 7.873-16.93 1.185zm2.82-.198l11.287-.79-6.037-5.247-5.25 6.037z" opacity=".85"/>
    <path d="M32.858 375.4l1.877 11.85-11.852 1.878 9.975-13.73zm-1.663 2.287l-6.65 9.153 7.902-1.25-1.252-7.903z" opacity=".9"/>
    <path d="M26.194 319.55l-6.71 9.95-9.95-6.71 16.66-3.24zm-2.776.54l-11.106 2.16 6.632 4.473 4.474-6.632z" opacity=".94"/>
    <path d="M29.253 243.792l11.955-1.046 1.045 11.955-13-10.908zm2.167 1.818l8.667 7.273-.698-7.97-7.97.697z" opacity=".83"/>
    <path d="M39.22 202.112l-10.877 5.07-5.07-10.875 15.946 5.805zm-2.66-.968l-10.63-3.87 3.38 7.25 7.25-3.38z" opacity=".72"/>
    <path d="M2.04 154.934l8.03-8.918 8.917 8.03-16.947.888zm2.824-.148l11.3-.593-5.947-5.353-5.353 5.946z" opacity=".78"/>
    <path d="M.937 85.107L12.283 81.2l3.907 11.346-15.253-7.44zm2.542 1.24l10.168 4.96-2.605-7.565-7.564 2.605z" opacity=".91"/>
    <path d="M1.35 1.218l11.984.628-.628 11.983L1.35 1.217zM3.244 3.32l7.57 8.407.42-7.99-7.99-.417z" opacity=".78"/>
  </g>
</svg>
