<svg xmlns="http://www.w3.org/2000/svg" width="1200" height="1200">
  <path d="M1175.475 1174.094c-3.314 0-6-2.687-6-6 0-3.314 2.686-6 6-6s6 2.686 6 6c0 3.313-2.686 6-6 6zm0-2c2.21 0 4-1.79 4-4s-1.79-4-4-4-4 1.79-4 4 1.79 4 4 4zm-14.144-69.685c-3.313 0-6-2.687-6-6 0-3.315 2.687-6 6-6 3.315 0 6 2.685 6 6 0 3.313-2.685 6-6 6zm0-2c2.21 0 4-1.792 4-4 0-2.21-1.79-4-4-4-2.208 0-4 1.79-4 4 0 2.208 1.792 4 4 4zm-1.057-32.47c-3.313 0-6-2.686-6-6s2.687-6 6-6c3.314 0 6 2.686 6 6s-2.686 6-6 6zm0-2c2.21 0 4-1.79 4-4s-1.79-4-4-4-4 1.79-4 4 1.79 4 4 4zm15.06-84.728c-3.314 0-6-2.686-6-6s2.686-6 6-6 6 2.686 6 6-2.686 6-6 6zm0-2c2.21 0 4-1.79 4-4s-1.79-4-4-4-4 1.79-4 4 1.79 4 4 4zm-5.798-51.008c-3.314 0-6-2.686-6-6 0-3.313 2.686-6 6-6 3.313 0 6 2.687 6 6 0 3.314-2.687 6-6 6zm0-2c2.21 0 4-1.79 4-4s-1.79-4-4-4-4 1.79-4 4 1.79 4 4 4zm12.25-64.066c-3.314 0-6-2.686-6-6s2.686-6 6-6c3.313 0 6 2.686 6 6s-2.687 6-6 6zm0-2c2.21 0 4-1.79 4-4s-1.79-4-4-4-4 1.79-4 4 1.79 4 4 4zm-3.902-46.715c-3.314 0-6-2.687-6-6 0-3.314 2.686-6 6-6 3.313 0 6 2.686 6 6 0 3.313-2.687 6-6 6zm0-2c2.21 0 4-1.79 4-4s-1.79-4-4-4-4 1.79-4 4 1.79 4 4 4zm-3.394-54.96c-3.315 0-6-2.687-6-6 0-3.315 2.685-6 6-6 3.312 0 6 2.685 6 6 0 3.313-2.688 6-6 6zm0-2c2.208 0 4-1.792 4-4 0-2.21-1.792-4-4-4-2.21 0-4 1.79-4 4 0 2.208 1.79 4 4 4zm-13.493-68.075c-3.314 0-6-2.687-6-6 0-3.314 2.686-6 6-6s6 2.686 6 6c0 3.313-2.686 6-6 6zm0-2c2.21 0 4-1.79 4-4s-1.79-4-4-4-4 1.79-4 4 1.79 4 4 4zm.935-68.32c-3.313 0-6-2.686-6-6 0-3.313 2.687-6 6-6 3.314 0 6 2.687 6 6 0 3.314-2.686 6-6 6zm0-2c2.21 0 4-1.79 4-4s-1.79-4-4-4-4 1.79-4 4 1.79 4 4 4zm11.54-47.853c-3.315 0-6-2.686-6-6 0-3.313 2.685-6 6-6 3.313 0 6 2.687 6 6 0 3.314-2.687 6-6 6zm0-2c2.208 0 4-1.79 4-4s-1.792-4-4-4c-2.21 0-4 1.79-4 4s1.79 4 4 4zm-16.92-33.715c-3.314 0-6-2.686-6-6 0-3.313 2.686-6 6-6 3.313 0 6 2.687 6 6 0 3.314-2.687 6-6 6zm0-2c2.21 0 4-1.79 4-4s-1.79-4-4-4-4 1.79-4 4 1.79 4 4 4zm12.023-79.806c-3.314 0-6-2.686-6-6s2.686-6 6-6c3.313 0 6 2.686 6 6s-2.687 6-6 6zm0-2c2.21 0 4-1.79 4-4s-1.79-4-4-4-4 1.79-4 4 1.79 4 4 4zm-9.587-73.808c-3.313 0-6-2.686-6-6s2.687-6 6-6c3.314 0 6 2.686 6 6s-2.686 6-6 6zm0-2c2.21 0 4-1.79 4-4s-1.79-4-4-4-4 1.79-4 4 1.79 4 4 4zm19.04-26.86c-3.313 0-6-2.685-6-6 0-3.312 2.687-6 6-6 3.314 0 6 2.688 6 6 0 3.315-2.686 6-6 6zm0-2c2.21 0 4-1.79 4-4 0-2.208-1.79-4-4-4s-4 1.792-4 4c0 2.21 1.79 4 4 4zm-14.046-51.588c-3.314 0-6-2.687-6-6 0-3.314 2.686-6 6-6 3.313 0 6 2.686 6 6 0 3.313-2.687 6-6 6zm0-2c2.21 0 4-1.79 4-4s-1.79-4-4-4-4 1.79-4 4 1.79 4 4 4zm19.865-60.328c-3.314 0-6-2.686-6-6 0-3.313 2.686-6 6-6 3.313 0 6 2.687 6 6 0 3.314-2.687 6-6 6zm0-2c2.21 0 4-1.79 4-4s-1.79-4-4-4-4 1.79-4 4 1.79 4 4 4zm-17.225-83.752c-3.314 0-6-2.686-6-6s2.686-6 6-6 6 2.686 6 6-2.686 6-6 6zm0-2c2.21 0 4-1.79 4-4s-1.79-4-4-4-4 1.79-4 4 1.79 4 4 4zm6.588-52.25c-3.314 0-6-2.685-6-6 0-3.312 2.686-6 6-6s6 2.688 6 6c0 3.315-2.686 6-6 6zm0-2c2.21 0 4-1.79 4-4 0-2.208-1.79-4-4-4s-4 1.792-4 4c0 2.21 1.79 4 4 4zm8.51-52.438c-3.315 0-6-2.686-6-6s2.685-6 6-6c3.313 0 6 2.686 6 6s-2.687 6-6 6zm0-2c2.208 0 4-1.79 4-4s-1.792-4-4-4c-2.21 0-4 1.79-4 4s1.79 4 4 4zm-60.38 1153.458c-3.313 0-6-2.687-6-6 0-3.314 2.687-6 6-6 3.314 0 6 2.686 6 6 0 3.313-2.686 6-6 6zm0-2c2.21 0 4-1.79 4-4s-1.79-4-4-4-4 1.79-4 4 1.79 4 4 4zm2.465-73.013c-3.314 0-6-2.687-6-6 0-3.314 2.686-6 6-6s6 2.686 6 6c0 3.313-2.686 6-6 6zm0-2c2.21 0 4-1.79 4-4s-1.79-4-4-4-4 1.79-4 4 1.79 4 4 4zm10.78-38.744c-3.315 0-6-2.685-6-6 0-3.313 2.685-6 6-6 3.313 0 6 2.687 6 6 0 3.315-2.687 6-6 6zm0-2c2.208 0 4-1.79 4-4 0-2.208-1.792-4-4-4-2.21 0-4 1.792-4 4 0 2.21 1.79 4 4 4zm-17.09-81.997c-3.315 0-6-2.687-6-6 0-3.314 2.685-6 6-6 3.313 0 6 2.686 6 6 0 3.313-2.687 6-6 6zm0-2c2.208 0 4-1.79 4-4s-1.792-4-4-4c-2.21 0-4 1.79-4 4s1.79 4 4 4zm2.642-58.093c-3.314 0-6-2.686-6-6s2.686-6 6-6 6 2.686 6 6-2.686 6-6 6zm0-2c2.21 0 4-1.79 4-4s-1.79-4-4-4-4 1.79-4 4 1.79 4 4 4zm2.332-56.69c-3.315 0-6-2.686-6-6s2.685-6 6-6c3.313 0 6 2.686 6 6s-2.687 6-6 6zm0-2c2.208 0 4-1.79 4-4s-1.792-4-4-4c-2.21 0-4 1.79-4 4s1.79 4 4 4zm.2-36.95c-3.312 0-6-2.687-6-6 0-3.314 2.688-6 6-6 3.315 0 6 2.686 6 6 0 3.313-2.685 6-6 6zm0-2c2.21 0 4-1.79 4-4s-1.79-4-4-4c-2.208 0-4 1.79-4 4s1.792 4 4 4zm1.607-68.17c-3.314 0-6-2.685-6-6 0-3.312 2.686-6 6-6s6 2.688 6 6c0 3.315-2.686 6-6 6zm0-2c2.21 0 4-1.79 4-4 0-2.208-1.79-4-4-4s-4 1.792-4 4c0 2.21 1.79 4 4 4zm-14.085-51.063c-3.314 0-6-2.686-6-6s2.686-6 6-6 6 2.686 6 6-2.686 6-6 6zm0-2c2.21 0 4-1.79 4-4s-1.79-4-4-4-4 1.79-4 4 1.79 4 4 4zm5.326-54.958c-3.313 0-6-2.687-6-6 0-3.315 2.687-6 6-6 3.314 0 6 2.685 6 6 0 3.313-2.686 6-6 6zm0-2c2.21 0 4-1.792 4-4 0-2.21-1.79-4-4-4s-4 1.79-4 4c0 2.208 1.79 4 4 4zm-2.667-93.326c-3.313 0-6-2.686-6-6s2.687-6 6-6c3.314 0 6 2.686 6 6s-2.686 6-6 6zm0-2c2.21 0 4-1.79 4-4s-1.79-4-4-4-4 1.79-4 4 1.79 4 4 4zm7.173-29.514c-3.314 0-6-2.686-6-6s2.686-6 6-6 6 2.686 6 6-2.686 6-6 6zm0-2c2.21 0 4-1.79 4-4s-1.79-4-4-4-4 1.79-4 4 1.79 4 4 4zm6.846-52.035c-3.315 0-6-2.687-6-6 0-3.314 2.685-6 6-6 3.312 0 6 2.686 6 6 0 3.313-2.688 6-6 6zm0-2c2.208 0 4-1.79 4-4s-1.792-4-4-4c-2.21 0-4 1.79-4 4s1.79 4 4 4zm-4.997-86.538c-3.314 0-6-2.686-6-6s2.686-6 6-6 6 2.686 6 6-2.686 6-6 6zm0-2c2.21 0 4-1.79 4-4s-1.79-4-4-4-4 1.79-4 4 1.79 4 4 4zm-9.85-47.696c-3.313 0-6-2.686-6-6 0-3.313 2.687-6 6-6 3.314 0 6 2.687 6 6 0 3.314-2.686 6-6 6zm0-2c2.21 0 4-1.79 4-4 0-2.208-1.79-4-4-4-2.208 0-4 1.792-4 4 0 2.21 1.792 4 4 4zm23.807-52.018c-3.314 0-6-2.686-6-6 0-3.313 2.686-6 6-6 3.313 0 6 2.687 6 6 0 3.314-2.687 6-6 6zm0-2c2.21 0 4-1.79 4-4s-1.79-4-4-4-4 1.79-4 4 1.79 4 4 4zm-25.737-55.343c-3.314 0-6-2.687-6-6 0-3.315 2.686-6 6-6 3.313 0 6 2.685 6 6 0 3.313-2.687 6-6 6zm0-2c2.21 0 4-1.792 4-4 0-2.21-1.79-4-4-4s-4 1.79-4 4c0 2.208 1.79 4 4 4zm.635-50.14c-3.313 0-6-2.686-6-6 0-3.313 2.687-6 6-6 3.314 0 6 2.687 6 6 0 3.314-2.686 6-6 6zm0-2c2.21 0 4-1.79 4-4s-1.79-4-4-4-4 1.79-4 4 1.79 4 4 4zm23.42-74.243c-3.312 0-6-2.686-6-6 0-3.313 2.688-6 6-6 3.315 0 6 2.687 6 6 0 3.314-2.685 6-6 6zm0-2c2.21 0 4-1.79 4-4s-1.79-4-4-4c-2.208 0-4 1.79-4 4s1.792 4 4 4zm-21.96-38.53c-3.312 0-6-2.685-6-6 0-3.313 2.688-6 6-6 3.315 0 6 2.687 6 6 0 3.315-2.685 6-6 6zm0-2c2.21 0 4-1.79 4-4 0-2.208-1.79-4-4-4-2.208 0-4 1.792-4 4 0 2.21 1.792 4 4 4zm-49.153 1137.92c-3.313 0-6-2.685-6-6 0-3.313 2.687-6 6-6 3.314 0 6 2.687 6 6 0 3.315-2.686 6-6 6zm0-2c2.21 0 4-1.79 4-4 0-2.208-1.79-4-4-4s-4 1.792-4 4c0 2.21 1.79 4 4 4zm4.363-88.076c-3.314 0-6-2.685-6-6 0-3.312 2.686-6 6-6 3.313 0 6 2.688 6 6 0 3.315-2.687 6-6 6zm0-2c2.21 0 4-1.79 4-4 0-2.208-1.79-4-4-4s-4 1.792-4 4c0 2.21 1.79 4 4 4zm2.968-25.716c-3.313 0-6-2.687-6-6 0-3.314 2.687-6 6-6 3.314 0 6 2.686 6 6 0 3.313-2.686 6-6 6zm0-2c2.21 0 4-1.79 4-4s-1.79-4-4-4-4 1.79-4 4 1.79 4 4 4zm8.562-54.52c-3.313 0-6-2.687-6-6 0-3.315 2.687-6 6-6 3.314 0 6 2.685 6 6 0 3.313-2.686 6-6 6zm0-2c2.21 0 4-1.792 4-4 0-2.21-1.79-4-4-4s-4 1.79-4 4c0 2.208 1.79 4 4 4zm3.865-58.447c-3.314 0-6-2.686-6-6 0-3.313 2.686-6 6-6s6 2.687 6 6c0 3.314-2.686 6-6 6zm0-2c2.21 0 4-1.79 4-4s-1.79-4-4-4-4 1.79-4 4 1.79 4 4 4zm-24.296-81.25c-3.314 0-6-2.687-6-6 0-3.314 2.686-6 6-6s6 2.686 6 6c0 3.313-2.686 6-6 6zm0-2c2.21 0 4-1.79 4-4s-1.79-4-4-4-4 1.79-4 4 1.79 4 4 4zm.34-54.4c-3.314 0-6-2.687-6-6 0-3.315 2.686-6 6-6s6 2.685 6 6c0 3.313-2.686 6-6 6zm0-2c2.21 0 4-1.792 4-4 0-2.21-1.79-4-4-4s-4 1.79-4 4c0 2.208 1.79 4 4 4zm10.936-52.552c-3.314 0-6-2.686-6-6 0-3.313 2.686-6 6-6s6 2.687 6 6c0 3.314-2.686 6-6 6zm0-2c2.21 0 4-1.79 4-4s-1.79-4-4-4-4 1.79-4 4 1.79 4 4 4zm-6.565-80.84c-3.314 0-6-2.687-6-6 0-3.315 2.686-6 6-6 3.313 0 6 2.685 6 6 0 3.313-2.687 6-6 6zm0-2c2.21 0 4-1.792 4-4 0-2.21-1.79-4-4-4s-4 1.79-4 4c0 2.208 1.79 4 4 4zm20.022-32.496c-3.314 0-6-2.687-6-6 0-3.315 2.686-6 6-6 3.313 0 6 2.685 6 6 0 3.313-2.687 6-6 6zm0-2c2.21 0 4-1.792 4-4 0-2.21-1.79-4-4-4s-4 1.79-4 4c0 2.208 1.79 4 4 4zm2.357-77.785c-3.314 0-6-2.686-6-6 0-3.313 2.686-6 6-6 3.313 0 6 2.687 6 6 0 3.314-2.687 6-6 6zm0-2c2.21 0 4-1.79 4-4s-1.79-4-4-4-4 1.79-4 4 1.79 4 4 4zm-29.273-50.705c-3.313 0-6-2.686-6-6s2.687-6 6-6c3.314 0 6 2.686 6 6s-2.686 6-6 6zm0-2c2.21 0 4-1.79 4-4s-1.79-4-4-4-4 1.79-4 4 1.79 4 4 4zm14.442-42.3c-3.314 0-6-2.686-6-6s2.686-6 6-6 6 2.686 6 6-2.686 6-6 6zm0-2c2.21 0 4-1.79 4-4s-1.79-4-4-4-4 1.79-4 4 1.79 4 4 4zm-12.616-53.597c-3.314 0-6-2.686-6-6s2.686-6 6-6 6 2.686 6 6-2.686 6-6 6zm0-2c2.21 0 4-1.79 4-4s-1.79-4-4-4-4 1.79-4 4 1.79 4 4 4zm14.95-85.342c-3.315 0-6-2.685-6-6 0-3.313 2.685-6 6-6 3.313 0 6 2.687 6 6 0 3.315-2.687 6-6 6zm0-2c2.208 0 4-1.79 4-4 0-2.208-1.792-4-4-4-2.21 0-4 1.792-4 4 0 2.21 1.79 4 4 4zm-6.383-48.427c-3.314 0-6-2.686-6-6 0-3.313 2.686-6 6-6s6 2.687 6 6c0 3.314-2.686 6-6 6zm0-2c2.21 0 4-1.79 4-4s-1.79-4-4-4-4 1.79-4 4 1.79 4 4 4zm-9.33-35.823c-3.314 0-6-2.686-6-6s2.686-6 6-6c3.313 0 6 2.686 6 6s-2.687 6-6 6zm0-2c2.21 0 4-1.79 4-4s-1.79-4-4-4-4 1.79-4 4 1.79 4 4 4zm3.193-58.012c-3.313 0-6-2.686-6-6s2.687-6 6-6c3.314 0 6 2.686 6 6s-2.686 6-6 6zm0-2c2.21 0 4-1.79 4-4s-1.79-4-4-4-4 1.79-4 4 1.79 4 4 4zm-3.982-71.895c-3.314 0-6-2.686-6-6s2.686-6 6-6c3.313 0 6 2.686 6 6s-2.687 6-6 6zm0-2c2.21 0 4-1.79 4-4s-1.79-4-4-4-4 1.79-4 4 1.79 4 4 4zm11.1-73.26c-3.315 0-6-2.686-6-6 0-3.313 2.685-6 6-6 3.313 0 6 2.687 6 6 0 3.314-2.687 6-6 6zm0-2c2.208 0 4-1.79 4-4 0-2.208-1.792-4-4-4-2.21 0-4 1.792-4 4 0 2.21 1.79 4 4 4zm-52.698 1149.952c-3.314 0-6-2.687-6-6 0-3.314 2.686-6 6-6s6 2.686 6 6c0 3.313-2.686 6-6 6zm0-2c2.21 0 4-1.79 4-4s-1.79-4-4-4-4 1.79-4 4 1.79 4 4 4zm9.54-42.824c-3.313 0-6-2.685-6-6 0-3.312 2.687-6 6-6 3.314 0 6 2.688 6 6 0 3.315-2.686 6-6 6zm0-2c2.21 0 4-1.79 4-4 0-2.208-1.79-4-4-4-2.208 0-4 1.792-4 4 0 2.21 1.792 4 4 4zm10.59-51.116c-3.313 0-6-2.686-6-6 0-3.313 2.687-6 6-6 3.315 0 6 2.687 6 6 0 3.314-2.685 6-6 6zm0-2c2.21 0 4-1.79 4-4s-1.79-4-4-4c-2.208 0-4 1.79-4 4s1.792 4 4 4zm-12.762-76.613c-3.313 0-6-2.685-6-6 0-3.313 2.687-6 6-6 3.314 0 6 2.687 6 6 0 3.315-2.686 6-6 6zm0-2c2.21 0 4-1.79 4-4 0-2.208-1.79-4-4-4s-4 1.792-4 4c0 2.21 1.79 4 4 4zm3.928-43.02c-3.314 0-6-2.687-6-6 0-3.314 2.686-6 6-6s6 2.686 6 6c0 3.313-2.686 6-6 6zm0-2c2.21 0 4-1.79 4-4s-1.79-4-4-4-4 1.79-4 4 1.79 4 4 4zm1.916-61.825c-3.314 0-6-2.686-6-6s2.686-6 6-6c3.313 0 6 2.686 6 6s-2.687 6-6 6zm0-2c2.21 0 4-1.79 4-4s-1.79-4-4-4-4 1.79-4 4 1.79 4 4 4zm2.946-75.252c-3.313 0-6-2.687-6-6 0-3.314 2.687-6 6-6 3.314 0 6 2.686 6 6 0 3.313-2.686 6-6 6zm0-2c2.21 0 4-1.79 4-4s-1.79-4-4-4-4 1.79-4 4 1.79 4 4 4zm-5.63-40.996c-3.314 0-6-2.686-6-6 0-3.313 2.686-6 6-6 3.313 0 6 2.687 6 6 0 3.314-2.687 6-6 6zm0-2c2.21 0 4-1.79 4-4s-1.79-4-4-4-4 1.79-4 4 1.79 4 4 4zm-11.845-82.986c-3.314 0-6-2.685-6-6 0-3.313 2.686-6 6-6s6 2.687 6 6c0 3.315-2.686 6-6 6zm0-2c2.21 0 4-1.79 4-4 0-2.208-1.79-4-4-4s-4 1.792-4 4c0 2.21 1.79 4 4 4zm-3.708-27.075c-3.314 0-6-2.686-6-6 0-3.313 2.686-6 6-6s6 2.687 6 6c0 3.314-2.686 6-6 6zm0-2c2.21 0 4-1.79 4-4s-1.79-4-4-4-4 1.79-4 4 1.79 4 4 4zm20.723-68.498c-3.313 0-6-2.686-6-6 0-3.313 2.687-6 6-6 3.314 0 6 2.687 6 6 0 3.314-2.686 6-6 6zm0-2c2.21 0 4-1.79 4-4s-1.79-4-4-4-4 1.79-4 4 1.79 4 4 4zm-13.052-55.838c-3.314 0-6-2.688-6-6 0-3.315 2.686-6 6-6s6 2.685 6 6c0 3.312-2.686 6-6 6zm0-2c2.21 0 4-1.792 4-4 0-2.21-1.79-4-4-4s-4 1.79-4 4c0 2.208 1.79 4 4 4zm-11.007-73.01c-3.315 0-6-2.686-6-6 0-3.313 2.685-6 6-6 3.312 0 6 2.687 6 6 0 3.314-2.688 6-6 6zm0-2c2.208 0 4-1.79 4-4 0-2.208-1.792-4-4-4-2.21 0-4 1.792-4 4 0 2.21 1.79 4 4 4zm28.19-62.844c-3.313 0-6-2.686-6-6 0-3.313 2.687-6 6-6 3.314 0 6 2.687 6 6 0 3.314-2.686 6-6 6zm0-2c2.21 0 4-1.79 4-4s-1.79-4-4-4-4 1.79-4 4 1.79 4 4 4zm-17.077-42.474c-3.314 0-6-2.686-6-6s2.686-6 6-6c3.313 0 6 2.686 6 6s-2.687 6-6 6zm0-2c2.21 0 4-1.79 4-4s-1.79-4-4-4-4 1.79-4 4 1.79 4 4 4zm-1.538-47.394c-3.314 0-6-2.687-6-6 0-3.314 2.686-6 6-6s6 2.686 6 6c0 3.313-2.686 6-6 6zm0-2c2.21 0 4-1.79 4-4s-1.79-4-4-4-4 1.79-4 4 1.79 4 4 4zm19.06-68.18c-3.315 0-6-2.685-6-6 0-3.312 2.685-6 6-6 3.313 0 6 2.688 6 6 0 3.315-2.687 6-6 6zm0-2c2.208 0 4-1.79 4-4 0-2.208-1.792-4-4-4-2.21 0-4 1.792-4 4 0 2.21 1.79 4 4 4zm-26.907-71.708c-3.314 0-6-2.686-6-6s2.686-6 6-6 6 2.686 6 6-2.686 6-6 6zm0-2c2.21 0 4-1.79 4-4s-1.79-4-4-4-4 1.79-4 4 1.79 4 4 4zm11.07-46.464c-3.313 0-6-2.686-6-6 0-3.313 2.687-6 6-6 3.315 0 6 2.687 6 6 0 3.314-2.685 6-6 6zm0-2c2.21 0 4-1.79 4-4s-1.79-4-4-4c-2.208 0-4 1.79-4 4s1.792 4 4 4zm8.847-57.04c-3.314 0-6-2.688-6-6 0-3.315 2.686-6 6-6 3.313 0 6 2.685 6 6 0 3.312-2.687 6-6 6zm0-2c2.21 0 4-1.792 4-4 0-2.21-1.79-4-4-4s-4 1.79-4 4c0 2.208 1.79 4 4 4zm-67.808 1119.9c-3.314 0-6-2.685-6-6 0-3.313 2.686-6 6-6s6 2.687 6 6c0 3.315-2.686 6-6 6zm0-2c2.21 0 4-1.79 4-4 0-2.208-1.79-4-4-4s-4 1.792-4 4c0 2.21 1.79 4 4 4zm22.905-24.776c-3.313 0-6-2.686-6-6 0-3.313 2.687-6 6-6 3.314 0 6 2.687 6 6 0 3.314-2.686 6-6 6zm0-2c2.21 0 4-1.79 4-4s-1.79-4-4-4-4 1.79-4 4 1.79 4 4 4zm-1.34-55.76c-3.313 0-6-2.687-6-6 0-3.315 2.687-6 6-6 3.315 0 6 2.685 6 6 0 3.313-2.685 6-6 6zm0-2c2.21 0 4-1.792 4-4 0-2.21-1.79-4-4-4-2.208 0-4 1.79-4 4 0 2.208 1.792 4 4 4zm-17.915-90.027c-3.314 0-6-2.687-6-6 0-3.314 2.686-6 6-6s6 2.686 6 6c0 3.313-2.686 6-6 6zm0-2c2.21 0 4-1.79 4-4s-1.79-4-4-4-4 1.79-4 4 1.79 4 4 4zm11.687-46.487c-3.313 0-6-2.687-6-6 0-3.314 2.687-6 6-6 3.314 0 6 2.686 6 6 0 3.313-2.686 6-6 6zm0-2c2.21 0 4-1.79 4-4s-1.79-4-4-4-4 1.79-4 4 1.79 4 4 4zm6.4-57.418c-3.314 0-6-2.686-6-6 0-3.313 2.686-6 6-6s6 2.687 6 6c0 3.314-2.686 6-6 6zm0-2c2.21 0 4-1.79 4-4s-1.79-4-4-4-4 1.79-4 4 1.79 4 4 4zm-19.945-55.925c-3.315 0-6-2.687-6-6 0-3.314 2.685-6 6-6 3.313 0 6 2.686 6 6 0 3.313-2.687 6-6 6zm0-2c2.208 0 4-1.79 4-4s-1.792-4-4-4c-2.21 0-4 1.79-4 4s1.79 4 4 4zm21.33-66.566c-3.315 0-6-2.686-6-6 0-3.313 2.685-6 6-6 3.312 0 6 2.687 6 6 0 3.314-2.688 6-6 6zm0-2c2.208 0 4-1.79 4-4s-1.792-4-4-4c-2.21 0-4 1.79-4 4s1.79 4 4 4zm-15.346-41.567c-3.314 0-6-2.687-6-6 0-3.314 2.686-6 6-6s6 2.686 6 6c0 3.313-2.686 6-6 6zm0-2c2.21 0 4-1.79 4-4s-1.79-4-4-4-4 1.79-4 4 1.79 4 4 4zm-11.602-74.846c-3.313 0-6-2.686-6-6s2.687-6 6-6c3.314 0 6 2.686 6 6s-2.686 6-6 6zm0-2c2.21 0 4-1.79 4-4s-1.79-4-4-4-4 1.79-4 4 1.79 4 4 4zm29.148-47.63c-3.314 0-6-2.685-6-6 0-3.312 2.686-6 6-6s6 2.688 6 6c0 3.315-2.686 6-6 6zm0-2c2.21 0 4-1.79 4-4 0-2.208-1.79-4-4-4s-4 1.792-4 4c0 2.21 1.79 4 4 4zm-3.356-61.972c-3.314 0-6-2.686-6-6s2.686-6 6-6c3.313 0 6 2.686 6 6s-2.687 6-6 6zm0-2c2.21 0 4-1.79 4-4s-1.79-4-4-4-4 1.79-4 4 1.79 4 4 4zm-19.84-54.846c-3.314 0-6-2.687-6-6 0-3.314 2.686-6 6-6s6 2.686 6 6c0 3.313-2.686 6-6 6zm0-2c2.21 0 4-1.79 4-4s-1.79-4-4-4-4 1.79-4 4 1.79 4 4 4zm14.783-41.484c-3.314 0-6-2.686-6-6s2.686-6 6-6 6 2.686 6 6-2.686 6-6 6zm0-2c2.21 0 4-1.79 4-4s-1.79-4-4-4-4 1.79-4 4 1.79 4 4 4zm4.377-69.152c-3.314 0-6-2.687-6-6 0-3.314 2.686-6 6-6 3.313 0 6 2.686 6 6 0 3.313-2.687 6-6 6zm0-2c2.21 0 4-1.79 4-4s-1.79-4-4-4-4 1.79-4 4 1.79 4 4 4zm1.538-57.18c-3.313 0-6-2.687-6-6 0-3.315 2.687-6 6-6 3.314 0 6 2.685 6 6 0 3.313-2.686 6-6 6zm0-2c2.21 0 4-1.792 4-4 0-2.21-1.79-4-4-4s-4 1.79-4 4c0 2.208 1.79 4 4 4zm-8.622-82.755c-3.314 0-6-2.686-6-6 0-3.313 2.686-6 6-6 3.313 0 6 2.687 6 6 0 3.314-2.687 6-6 6zm0-2c2.21 0 4-1.79 4-4s-1.79-4-4-4-4 1.79-4 4 1.79 4 4 4zm-7.597-35.627c-3.314 0-6-2.687-6-6 0-3.314 2.686-6 6-6 3.313 0 6 2.686 6 6 0 3.313-2.687 6-6 6zm0-2c2.21 0 4-1.79 4-4s-1.79-4-4-4-4 1.79-4 4 1.79 4 4 4zm11.638-68.266c-3.313 0-6-2.686-6-6 0-3.313 2.687-6 6-6 3.315 0 6 2.687 6 6 0 3.314-2.685 6-6 6zm0-2c2.21 0 4-1.79 4-4s-1.79-4-4-4c-2.208 0-4 1.79-4 4s1.792 4 4 4zm-7.905-33.423c-3.314 0-6-2.688-6-6 0-3.315 2.686-6 6-6 3.313 0 6 2.685 6 6 0 3.312-2.687 6-6 6zm0-2c2.21 0 4-1.792 4-4 0-2.21-1.79-4-4-4s-4 1.79-4 4c0 2.208 1.79 4 4 4zM919.43 1178.375c-3.314 0-6-2.686-6-6s2.686-6 6-6c3.313 0 6 2.686 6 6s-2.687 6-6 6zm0-2c2.208 0 4-1.79 4-4s-1.792-4-4-4c-2.21 0-4 1.79-4 4s1.79 4 4 4zm-10.964-77.453c-3.314 0-6-2.686-6-6s2.686-6 6-6 6 2.686 6 6-2.686 6-6 6zm0-2c2.21 0 4-1.79 4-4s-1.79-4-4-4-4 1.79-4 4 1.79 4 4 4zm18.135-53.134c-3.312 0-6-2.687-6-6 0-3.315 2.688-6 6-6 3.315 0 6 2.685 6 6 0 3.313-2.685 6-6 6zm0-2c2.21 0 4-1.792 4-4 0-2.21-1.79-4-4-4-2.208 0-4 1.79-4 4 0 2.208 1.792 4 4 4zm8.046-56.4c-3.313 0-6-2.687-6-6 0-3.315 2.687-6 6-6 3.314 0 6 2.685 6 6 0 3.313-2.686 6-6 6zm0-2c2.21 0 4-1.792 4-4 0-2.21-1.79-4-4-4s-4 1.79-4 4c0 2.208 1.79 4 4 4zm-16.122-70.83c-3.314 0-6-2.686-6-6 0-3.313 2.686-6 6-6 3.313 0 6 2.687 6 6 0 3.314-2.687 6-6 6zm0-2c2.21 0 4-1.79 4-4s-1.79-4-4-4-4 1.79-4 4 1.79 4 4 4zm3.684-40.79c-3.314 0-6-2.687-6-6 0-3.314 2.686-6 6-6s6 2.686 6 6c0 3.313-2.686 6-6 6zm0-2c2.21 0 4-1.792 4-4 0-2.21-1.79-4-4-4s-4 1.79-4 4c0 2.208 1.79 4 4 4zm-4.602-64.78c-3.314 0-6-2.686-6-6 0-3.313 2.686-6 6-6s6 2.687 6 6c0 3.314-2.686 6-6 6zm0-2c2.21 0 4-1.79 4-4s-1.79-4-4-4-4 1.79-4 4 1.79 4 4 4zm17.957-35.864c-3.314 0-6-2.687-6-6 0-3.314 2.686-6 6-6 3.313 0 6 2.686 6 6 0 3.313-2.687 6-6 6zm0-2c2.21 0 4-1.79 4-4s-1.79-4-4-4-4 1.79-4 4 1.79 4 4 4zm-20.75-58.718c-3.312 0-6-2.686-6-6s2.688-6 6-6c3.315 0 6 2.686 6 6s-2.685 6-6 6zm0-2c2.21 0 4-1.79 4-4s-1.79-4-4-4c-2.208 0-4 1.79-4 4s1.792 4 4 4zm8.508-81.187c-3.313 0-6-2.685-6-6 0-3.312 2.687-6 6-6 3.315 0 6 2.688 6 6 0 3.315-2.685 6-6 6zm0-2c2.21 0 4-1.79 4-4 0-2.208-1.79-4-4-4-2.208 0-4 1.792-4 4 0 2.21 1.792 4 4 4zm10.82-60.423c-3.315 0-6-2.686-6-6s2.685-6 6-6c3.313 0 6 2.686 6 6s-2.687 6-6 6zm0-2c2.208 0 4-1.79 4-4s-1.792-4-4-4c-2.21 0-4 1.79-4 4s1.79 4 4 4zm-9.492-38.22c-3.314 0-6-2.687-6-6 0-3.315 2.686-6 6-6s6 2.685 6 6c0 3.313-2.686 6-6 6zm0-2c2.21 0 4-1.792 4-4 0-2.21-1.79-4-4-4s-4 1.79-4 4c0 2.208 1.79 4 4 4zm-6.005-59.197c-3.314 0-6-2.687-6-6 0-3.314 2.686-6 6-6s6 2.686 6 6c0 3.313-2.686 6-6 6zm0-2c2.21 0 4-1.79 4-4s-1.79-4-4-4-4 1.79-4 4 1.79 4 4 4zm10.867-57.036c-3.313 0-6-2.687-6-6 0-3.314 2.687-6 6-6 3.314 0 6 2.686 6 6 0 3.313-2.686 6-6 6zm0-2c2.21 0 4-1.79 4-4s-1.79-4-4-4-4 1.79-4 4 1.79 4 4 4zm-1.323-49.832c-3.314 0-6-2.686-6-6 0-3.313 2.686-6 6-6 3.313 0 6 2.687 6 6 0 3.314-2.687 6-6 6zm0-2c2.21 0 4-1.79 4-4s-1.79-4-4-4-4 1.79-4 4 1.79 4 4 4zm-2.666-72.23c-3.313 0-6-2.685-6-6 0-3.313 2.687-6 6-6 3.315 0 6 2.687 6 6 0 3.315-2.685 6-6 6zm0-2c2.21 0 4-1.79 4-4 0-2.208-1.79-4-4-4-2.208 0-4 1.792-4 4 0 2.21 1.792 4 4 4zm7.883-57.698c-3.314 0-6-2.687-6-6 0-3.314 2.686-6 6-6s6 2.686 6 6c0 3.313-2.686 6-6 6zm0-2c2.21 0 4-1.79 4-4s-1.79-4-4-4-4 1.79-4 4 1.79 4 4 4zm-24.67-74.084c-3.314 0-6-2.686-6-6 0-3.313 2.686-6 6-6s6 2.687 6 6c0 3.314-2.686 6-6 6zm0-2c2.21 0 4-1.79 4-4s-1.79-4-4-4-4 1.79-4 4 1.79 4 4 4zm-1.65-27.354c-3.313 0-6-2.687-6-6 0-3.314 2.687-6 6-6 3.315 0 6 2.686 6 6 0 3.313-2.685 6-6 6zm0-2c2.21 0 4-1.79 4-4s-1.79-4-4-4c-2.208 0-4 1.79-4 4s1.792 4 4 4zm6.643-54.853c-3.314 0-6-2.686-6-6s2.686-6 6-6c3.313 0 6 2.686 6 6s-2.687 6-6 6zm0-2c2.21 0 4-1.79 4-4s-1.79-4-4-4-4 1.79-4 4 1.79 4 4 4zM873.486 1169.9c-3.313 0-6-2.686-6-6s2.687-6 6-6c3.314 0 6 2.686 6 6s-2.686 6-6 6zm0-2c2.21 0 4-1.79 4-4s-1.79-4-4-4-4 1.79-4 4 1.79 4 4 4zm3.023-69.33c-3.315 0-6-2.685-6-6 0-3.313 2.685-6 6-6 3.312 0 6 2.687 6 6 0 3.315-2.688 6-6 6zm0-2c2.208 0 4-1.79 4-4 0-2.208-1.792-4-4-4-2.21 0-4 1.792-4 4 0 2.21 1.79 4 4 4zm-17.802-61.793c-3.314 0-6-2.687-6-6 0-3.314 2.686-6 6-6s6 2.686 6 6c0 3.313-2.686 6-6 6zm0-2c2.21 0 4-1.79 4-4s-1.79-4-4-4-4 1.79-4 4 1.79 4 4 4zm19.396-40.503c-3.314 0-6-2.686-6-6s2.686-6 6-6 6 2.686 6 6-2.686 6-6 6zm0-2c2.21 0 4-1.79 4-4s-1.79-4-4-4-4 1.79-4 4 1.79 4 4 4zm-6.68-56.63c-3.312 0-6-2.687-6-6 0-3.314 2.688-6 6-6 3.315 0 6 2.686 6 6 0 3.313-2.685 6-6 6zm0-2c2.21 0 4-1.79 4-4s-1.79-4-4-4c-2.208 0-4 1.79-4 4s1.792 4 4 4zm-7.91-55.54c-3.313 0-6-2.687-6-6 0-3.314 2.687-6 6-6 3.314 0 6 2.686 6 6 0 3.313-2.686 6-6 6zm0-2c2.21 0 4-1.79 4-4s-1.79-4-4-4-4 1.79-4 4 1.79 4 4 4zm11.273-56.65c-3.314 0-6-2.686-6-6s2.686-6 6-6 6 2.686 6 6-2.686 6-6 6zm0-2c2.21 0 4-1.79 4-4s-1.79-4-4-4-4 1.79-4 4 1.79 4 4 4zm4.92-81.09c-3.314 0-6-2.685-6-6 0-3.312 2.686-6 6-6s6 2.688 6 6c0 3.315-2.686 6-6 6zm0-2c2.21 0 4-1.79 4-4 0-2.208-1.79-4-4-4s-4 1.792-4 4c0 2.21 1.79 4 4 4zm-17.62-45.185c-3.314 0-6-2.687-6-6 0-3.315 2.686-6 6-6 3.313 0 6 2.685 6 6 0 3.313-2.687 6-6 6zm0-2c2.208 0 4-1.792 4-4 0-2.21-1.792-4-4-4-2.21 0-4 1.79-4 4 0 2.208 1.79 4 4 4zm-5.185-71.195c-3.314 0-6-2.686-6-6 0-3.313 2.686-6 6-6s6 2.687 6 6c0 3.314-2.686 6-6 6zm0-2c2.21 0 4-1.79 4-4s-1.79-4-4-4-4 1.79-4 4 1.79 4 4 4zm5.882-38.766c-3.314 0-6-2.687-6-6 0-3.314 2.686-6 6-6s6 2.686 6 6c0 3.313-2.686 6-6 6zm0-2c2.21 0 4-1.79 4-4s-1.79-4-4-4-4 1.79-4 4 1.79 4 4 4zm2.51-39.35c-3.314 0-6-2.685-6-6 0-3.312 2.686-6 6-6s6 2.688 6 6c0 3.315-2.686 6-6 6zm0-2c2.21 0 4-1.79 4-4 0-2.208-1.79-4-4-4s-4 1.792-4 4c0 2.21 1.79 4 4 4zm-9.29-67.658c-3.313 0-6-2.686-6-6 0-3.313 2.687-6 6-6 3.315 0 6 2.687 6 6 0 3.314-2.685 6-6 6zm0-2c2.21 0 4-1.79 4-4s-1.79-4-4-4c-2.208 0-4 1.79-4 4s1.792 4 4 4zm11.31-53.764c-3.313 0-6-2.687-6-6 0-3.314 2.687-6 6-6 3.314 0 6 2.686 6 6 0 3.313-2.686 6-6 6zm0-2c2.21 0 4-1.79 4-4s-1.79-4-4-4-4 1.79-4 4 1.79 4 4 4zm-5.83-69.42c-3.313 0-6-2.687-6-6 0-3.315 2.687-6 6-6 3.314 0 6 2.685 6 6 0 3.313-2.686 6-6 6zm0-2c2.21 0 4-1.792 4-4 0-2.21-1.79-4-4-4s-4 1.79-4 4c0 2.208 1.79 4 4 4zm-.462-73.146c-3.313 0-6-2.687-6-6 0-3.314 2.687-6 6-6 3.314 0 6 2.686 6 6 0 3.313-2.686 6-6 6zm0-2c2.21 0 4-1.79 4-4s-1.79-4-4-4-4 1.79-4 4 1.79 4 4 4zm20.214-45.055c-3.314 0-6-2.686-6-6s2.686-6 6-6 6 2.686 6 6-2.686 6-6 6zm0-2c2.21 0 4-1.79 4-4s-1.79-4-4-4-4 1.79-4 4 1.79 4 4 4zm.84-43.326c-3.314 0-6-2.685-6-6 0-3.313 2.686-6 6-6s6 2.687 6 6c0 3.315-2.686 6-6 6zm0-2c2.21 0 4-1.79 4-4 0-2.208-1.79-4-4-4s-4 1.792-4 4c0 2.21 1.79 4 4 4zm-6.797-84.05c-3.315 0-6-2.685-6-6 0-3.312 2.685-6 6-6 3.313 0 6 2.688 6 6 0 3.315-2.687 6-6 6zm0-2c2.208 0 4-1.79 4-4 0-2.208-1.792-4-4-4-2.21 0-4 1.792-4 4 0 2.21 1.79 4 4 4zm1.042-46.28c-3.314 0-6-2.686-6-6s2.686-6 6-6 6 2.686 6 6-2.686 6-6 6zm0-2c2.21 0 4-1.79 4-4s-1.79-4-4-4-4 1.79-4 4 1.79 4 4 4zm-69.71 1124.704c-3.313 0-6-2.687-6-6 0-3.314 2.687-6 6-6 3.314 0 6 2.686 6 6 0 3.313-2.686 6-6 6zm0-2c2.21 0 4-1.79 4-4s-1.79-4-4-4c-2.208 0-4 1.79-4 4s1.792 4 4 4zm29.065-22.618c-3.313 0-6-2.686-6-6 0-3.313 2.687-6 6-6 3.314 0 6 2.687 6 6 0 3.314-2.686 6-6 6zm0-2c2.21 0 4-1.79 4-4s-1.79-4-4-4-4 1.79-4 4 1.79 4 4 4zm-17.068-80.33c-3.315 0-6-2.685-6-6 0-3.313 2.685-6 6-6 3.313 0 6 2.687 6 6 0 3.315-2.687 6-6 6zm0-2c2.208 0 4-1.79 4-4 0-2.208-1.792-4-4-4-2.21 0-4 1.792-4 4 0 2.21 1.79 4 4 4zm9.9-62.625c-3.313 0-6-2.685-6-6 0-3.312 2.687-6 6-6 3.314 0 6 2.688 6 6 0 3.315-2.686 6-6 6zm0-2c2.21 0 4-1.79 4-4 0-2.208-1.79-4-4-4s-4 1.792-4 4c0 2.21 1.79 4 4 4zm-20.417-57.26c-3.313 0-6-2.685-6-6 0-3.313 2.687-6 6-6 3.314 0 6 2.687 6 6 0 3.315-2.686 6-6 6zm0-2c2.21 0 4-1.79 4-4 0-2.208-1.79-4-4-4s-4 1.792-4 4c0 2.21 1.79 4 4 4zm19.395-58.753c-3.314 0-6-2.686-6-6s2.686-6 6-6 6 2.686 6 6-2.686 6-6 6zm0-2c2.21 0 4-1.79 4-4s-1.79-4-4-4-4 1.79-4 4 1.79 4 4 4zm-17.53-61.604c-3.315 0-6-2.687-6-6 0-3.314 2.685-6 6-6 3.312 0 6 2.686 6 6 0 3.313-2.688 6-6 6zm0-2c2.208 0 4-1.79 4-4s-1.792-4-4-4c-2.21 0-4 1.79-4 4s1.79 4 4 4zm-3.025-27.778c-3.314 0-6-2.686-6-6s2.686-6 6-6 6 2.686 6 6-2.686 6-6 6zm0-2c2.21 0 4-1.79 4-4s-1.79-4-4-4-4 1.79-4 4 1.79 4 4 4zm13.767-94.563c-3.313 0-6-2.687-6-6 0-3.314 2.687-6 6-6 3.314 0 6 2.686 6 6 0 3.313-2.686 6-6 6zm0-2c2.21 0 4-1.79 4-4s-1.79-4-4-4-4 1.79-4 4 1.79 4 4 4zm1.523-54.443c-3.314 0-6-2.687-6-6 0-3.314 2.686-6 6-6s6 2.686 6 6c0 3.313-2.686 6-6 6zm0-2c2.21 0 4-1.792 4-4 0-2.21-1.79-4-4-4s-4 1.79-4 4c0 2.208 1.79 4 4 4zm-8.21-32.335c-3.314 0-6-2.686-6-6s2.686-6 6-6c3.313 0 6 2.686 6 6s-2.687 6-6 6zm0-2c2.21 0 4-1.79 4-4s-1.79-4-4-4-4 1.79-4 4 1.79 4 4 4zm.592-60.135c-3.314 0-6-2.686-6-6s2.686-6 6-6 6 2.686 6 6-2.686 6-6 6zm0-2c2.21 0 4-1.79 4-4s-1.79-4-4-4-4 1.79-4 4 1.79 4 4 4zm10.708-76.408c-3.314 0-6-2.686-6-6s2.686-6 6-6c3.313 0 6 2.686 6 6s-2.687 6-6 6zm0-2c2.21 0 4-1.79 4-4s-1.79-4-4-4-4 1.79-4 4 1.79 4 4 4zm7.014-56.885c-3.314 0-6-2.686-6-6s2.686-6 6-6c3.313 0 6 2.686 6 6s-2.687 6-6 6zm0-2c2.21 0 4-1.79 4-4s-1.79-4-4-4-4 1.79-4 4 1.79 4 4 4zm-14.862-54.67c-3.313 0-6-2.686-6-6s2.687-6 6-6c3.314 0 6 2.686 6 6s-2.686 6-6 6zm0-2c2.21 0 4-1.79 4-4s-1.79-4-4-4-4 1.79-4 4 1.79 4 4 4zm12.495-55.706c-3.313 0-6-2.685-6-6 0-3.312 2.687-6 6-6 3.314 0 6 2.688 6 6 0 3.315-2.686 6-6 6zm0-2c2.21 0 4-1.79 4-4 0-2.208-1.79-4-4-4s-4 1.792-4 4c0 2.21 1.79 4 4 4zm-4.64-70.076c-3.313 0-6-2.686-6-6 0-3.313 2.687-6 6-6 3.314 0 6 2.687 6 6 0 3.314-2.686 6-6 6zm0-2c2.21 0 4-1.79 4-4s-1.79-4-4-4c-2.208 0-4 1.79-4 4s1.792 4 4 4zm-12.434-32.912c-3.314 0-6-2.686-6-6s2.686-6 6-6c3.313 0 6 2.686 6 6s-2.687 6-6 6zm0-2c2.21 0 4-1.79 4-4s-1.79-4-4-4-4 1.79-4 4 1.79 4 4 4zm20.263-75.64c-3.314 0-6-2.688-6-6 0-3.315 2.686-6 6-6 3.313 0 6 2.685 6 6 0 3.312-2.687 6-6 6zm0-2c2.21 0 4-1.792 4-4 0-2.21-1.79-4-4-4s-4 1.79-4 4c0 2.208 1.79 4 4 4zm-1.44-42.58c-3.313 0-6-2.686-6-6 0-3.313 2.687-6 6-6 3.315 0 6 2.687 6 6 0 3.314-2.685 6-6 6zm0-2c2.21 0 4-1.79 4-4s-1.79-4-4-4c-2.208 0-4 1.79-4 4s1.792 4 4 4zM757.926 1159.39c-3.313 0-6-2.688-6-6 0-3.315 2.687-6 6-6 3.314 0 6 2.685 6 6 0 3.312-2.686 6-6 6zm0-2c2.21 0 4-1.792 4-4 0-2.21-1.79-4-4-4s-4 1.79-4 4c0 2.208 1.79 4 4 4zm23-28.714c-3.315 0-6-2.686-6-6s2.685-6 6-6c3.313 0 6 2.686 6 6s-2.687 6-6 6zm0-2c2.208 0 4-1.79 4-4s-1.792-4-4-4c-2.21 0-4 1.79-4 4s1.79 4 4 4zm-21.612-93.788c-3.314 0-6-2.686-6-6s2.686-6 6-6 6 2.686 6 6-2.686 6-6 6zm0-2c2.21 0 4-1.79 4-4s-1.79-4-4-4-4 1.79-4 4 1.79 4 4 4zm4.08-46.67c-3.314 0-6-2.686-6-6s2.686-6 6-6c3.313 0 6 2.686 6 6s-2.687 6-6 6zm0-2c2.21 0 4-1.79 4-4s-1.79-4-4-4-4 1.79-4 4 1.79 4 4 4zm21.442-44.364c-3.314 0-6-2.687-6-6 0-3.314 2.686-6 6-6 3.313 0 6 2.686 6 6 0 3.313-2.687 6-6 6zm0-2c2.21 0 4-1.79 4-4s-1.79-4-4-4-4 1.79-4 4 1.79 4 4 4zm-20.288-52.527c-3.314 0-6-2.686-6-6 0-3.313 2.686-6 6-6s6 2.687 6 6c0 3.314-2.686 6-6 6zm0-2c2.21 0 4-1.79 4-4s-1.79-4-4-4-4 1.79-4 4 1.79 4 4 4zm3.522-57.817c-3.315 0-6-2.686-6-6 0-3.313 2.685-6 6-6 3.313 0 6 2.687 6 6 0 3.314-2.687 6-6 6zm0-2c2.208 0 4-1.79 4-4s-1.792-4-4-4c-2.21 0-4 1.79-4 4s1.79 4 4 4zm16.675-63.075c-3.313 0-6-2.686-6-6s2.687-6 6-6c3.314 0 6 2.686 6 6s-2.686 6-6 6zm0-2c2.21 0 4-1.79 4-4s-1.79-4-4-4-4 1.79-4 4 1.79 4 4 4zm-6.59-56.893c-3.314 0-6-2.686-6-6 0-3.313 2.686-6 6-6s6 2.687 6 6c0 3.314-2.686 6-6 6zm0-2c2.21 0 4-1.79 4-4s-1.79-4-4-4-4 1.79-4 4 1.79 4 4 4zm-12.846-57.98c-3.314 0-6-2.687-6-6 0-3.314 2.686-6 6-6 3.313 0 6 2.686 6 6 0 3.313-2.687 6-6 6zm0-2c2.208 0 4-1.79 4-4s-1.792-4-4-4c-2.21 0-4 1.79-4 4s1.79 4 4 4zm19.572-79.725c-3.314 0-6-2.687-6-6 0-3.314 2.686-6 6-6 3.313 0 6 2.686 6 6 0 3.313-2.687 6-6 6zm0-2c2.21 0 4-1.79 4-4s-1.79-4-4-4-4 1.79-4 4 1.79 4 4 4zm-25.12-54.978c-3.315 0-6-2.688-6-6 0-3.315 2.685-6 6-6 3.312 0 6 2.685 6 6 0 3.312-2.688 6-6 6zm0-2c2.208 0 4-1.792 4-4 0-2.21-1.792-4-4-4-2.21 0-4 1.79-4 4 0 2.208 1.79 4 4 4zm3.39-36.46c-3.313 0-6-2.687-6-6 0-3.314 2.687-6 6-6 3.314 0 6 2.686 6 6 0 3.313-2.686 6-6 6zm0-2c2.21 0 4-1.79 4-4s-1.79-4-4-4c-2.208 0-4 1.79-4 4s1.792 4 4 4zm14.414-75.156c-3.313 0-6-2.687-6-6 0-3.314 2.687-6 6-6 3.314 0 6 2.686 6 6 0 3.313-2.686 6-6 6zm0-2c2.21 0 4-1.79 4-4s-1.79-4-4-4-4 1.79-4 4 1.79 4 4 4zm2.767-35.59c-3.314 0-6-2.686-6-6 0-3.313 2.686-6 6-6s6 2.687 6 6c0 3.314-2.686 6-6 6zm0-2c2.21 0 4-1.79 4-4s-1.79-4-4-4-4 1.79-4 4 1.79 4 4 4zm1.695-86.31c-3.314 0-6-2.687-6-6 0-3.314 2.686-6 6-6s6 2.686 6 6c0 3.313-2.686 6-6 6zm0-2c2.21 0 4-1.79 4-4s-1.79-4-4-4-4 1.79-4 4 1.79 4 4 4zm-15.386-45c-3.314 0-6-2.688-6-6 0-3.315 2.686-6 6-6s6 2.685 6 6c0 3.312-2.686 6-6 6zm0-2c2.21 0 4-1.792 4-4 0-2.21-1.79-4-4-4s-4 1.79-4 4c0 2.208 1.79 4 4 4zm-4.338-70.463c-3.314 0-6-2.685-6-6 0-3.312 2.686-6 6-6s6 2.688 6 6c0 3.315-2.686 6-6 6zm0-2c2.21 0 4-1.79 4-4 0-2.208-1.79-4-4-4s-4 1.792-4 4c0 2.21 1.79 4 4 4zm13.416-32.838c-3.313 0-6-2.687-6-6 0-3.314 2.687-6 6-6 3.314 0 6 2.686 6 6 0 3.313-2.686 6-6 6zm0-2c2.21 0 4-1.79 4-4s-1.79-4-4-4-4 1.79-4 4 1.79 4 4 4zm-11.86-73.64c-3.312 0-6-2.685-6-6 0-3.312 2.688-6 6-6 3.315 0 6 2.688 6 6 0 3.315-2.685 6-6 6zm0-2c2.21 0 4-1.79 4-4 0-2.208-1.79-4-4-4-2.208 0-4 1.792-4 4 0 2.21 1.792 4 4 4zm-33.448 1127.17c-3.314 0-6-2.686-6-6 0-3.313 2.686-6 6-6s6 2.687 6 6c0 3.314-2.686 6-6 6zm0-2c2.21 0 4-1.79 4-4s-1.79-4-4-4-4 1.79-4 4 1.79 4 4 4zm5.564-58.46c-3.313 0-6-2.686-6-6 0-3.313 2.687-6 6-6 3.314 0 6 2.687 6 6 0 3.314-2.686 6-6 6zm0-2c2.21 0 4-1.79 4-4 0-2.208-1.79-4-4-4s-4 1.792-4 4c0 2.21 1.79 4 4 4zm-8.635-23.473c-3.313 0-6-2.688-6-6 0-3.315 2.687-6 6-6 3.315 0 6 2.685 6 6 0 3.312-2.685 6-6 6zm0-2c2.21 0 4-1.792 4-4 0-2.21-1.79-4-4-4-2.208 0-4 1.79-4 4 0 2.208 1.792 4 4 4zm1.51-88.987c-3.315 0-6-2.687-6-6 0-3.314 2.685-6 6-6 3.313 0 6 2.686 6 6 0 3.313-2.687 6-6 6zm0-2c2.208 0 4-1.79 4-4s-1.792-4-4-4c-2.21 0-4 1.79-4 4s1.79 4 4 4zm2.41-24.483c-3.313 0-6-2.687-6-6 0-3.314 2.687-6 6-6 3.314 0 6 2.686 6 6 0 3.313-2.686 6-6 6zm0-2c2.21 0 4-1.79 4-4s-1.79-4-4-4-4 1.79-4 4 1.79 4 4 4zm-12.524-83.427c-3.313 0-6-2.687-6-6 0-3.314 2.687-6 6-6 3.314 0 6 2.686 6 6 0 3.313-2.686 6-6 6zm0-2c2.21 0 4-1.79 4-4s-1.79-4-4-4-4 1.79-4 4 1.79 4 4 4zm7.328-34.33c-3.314 0-6-2.688-6-6 0-3.315 2.686-6 6-6s6 2.685 6 6c0 3.312-2.686 6-6 6zm0-2c2.21 0 4-1.792 4-4 0-2.21-1.79-4-4-4s-4 1.79-4 4c0 2.208 1.79 4 4 4zm-16.418-95.01c-3.314 0-6-2.685-6-6 0-3.312 2.686-6 6-6 3.313 0 6 2.688 6 6 0 3.315-2.687 6-6 6zm0-2c2.21 0 4-1.79 4-4 0-2.208-1.79-4-4-4s-4 1.792-4 4c0 2.21 1.79 4 4 4zm2.24-25.994c-3.313 0-6-2.687-6-6 0-3.315 2.687-6 6-6 3.314 0 6 2.685 6 6 0 3.313-2.686 6-6 6zm0-2c2.21 0 4-1.792 4-4 0-2.21-1.79-4-4-4-2.208 0-4 1.79-4 4 0 2.208 1.792 4 4 4zm23.226-82.483c-3.314 0-6-2.686-6-6s2.686-6 6-6 6 2.686 6 6-2.686 6-6 6zm0-2c2.21 0 4-1.79 4-4s-1.79-4-4-4-4 1.79-4 4 1.79 4 4 4zm.28-28.183c-3.314 0-6-2.686-6-6 0-3.313 2.686-6 6-6 3.313 0 6 2.687 6 6 0 3.314-2.687 6-6 6zm0-2c2.21 0 4-1.79 4-4s-1.79-4-4-4-4 1.79-4 4 1.79 4 4 4zM720.61 494.56c-3.315 0-6-2.685-6-6 0-3.313 2.685-6 6-6 3.313 0 6 2.687 6 6 0 3.315-2.687 6-6 6zm0-2c2.208 0 4-1.79 4-4 0-2.208-1.792-4-4-4-2.21 0-4 1.792-4 4 0 2.21 1.79 4 4 4zM707.5 468.883c-3.314 0-6-2.686-6-6s2.686-6 6-6c3.313 0 6 2.686 6 6s-2.687 6-6 6zm0-2c2.21 0 4-1.79 4-4s-1.79-4-4-4-4 1.79-4 4 1.79 4 4 4zm11.817-59.918c-3.315 0-6-2.686-6-6s2.685-6 6-6c3.313 0 6 2.686 6 6s-2.687 6-6 6zm0-2c2.208 0 4-1.79 4-4s-1.792-4-4-4c-2.21 0-4 1.79-4 4s1.79 4 4 4zm-1.634-74.873c-3.314 0-6-2.685-6-6 0-3.313 2.686-6 6-6s6 2.687 6 6c0 3.315-2.686 6-6 6zm0-2c2.21 0 4-1.79 4-4 0-2.208-1.79-4-4-4s-4 1.792-4 4c0 2.21 1.79 4 4 4zm10.895-39.72c-3.313 0-6-2.686-6-6 0-3.313 2.687-6 6-6 3.315 0 6 2.687 6 6 0 3.314-2.685 6-6 6zm0-2c2.21 0 4-1.79 4-4 0-2.208-1.79-4-4-4-2.208 0-4 1.792-4 4 0 2.21 1.792 4 4 4zm1.945-76.85c-3.314 0-6-2.686-6-6 0-3.313 2.686-6 6-6s6 2.687 6 6c0 3.314-2.686 6-6 6zm0-2c2.21 0 4-1.79 4-4s-1.79-4-4-4-4 1.79-4 4 1.79 4 4 4zm-15.112-60.116c-3.314 0-6-2.686-6-6s2.686-6 6-6c3.313 0 6 2.686 6 6s-2.687 6-6 6zm0-2c2.21 0 4-1.79 4-4s-1.79-4-4-4-4 1.79-4 4 1.79 4 4 4zm8.423-54.853c-3.314 0-6-2.686-6-6 0-3.313 2.686-6 6-6s6 2.687 6 6c0 3.314-2.686 6-6 6zm0-2c2.21 0 4-1.79 4-4s-1.79-4-4-4-4 1.79-4 4 1.79 4 4 4zm10.844-49.006c-3.314 0-6-2.687-6-6 0-3.314 2.686-6 6-6 3.313 0 6 2.686 6 6 0 3.313-2.687 6-6 6zm0-2c2.21 0 4-1.79 4-4s-1.79-4-4-4-4 1.79-4 4 1.79 4 4 4zm-53.92 1153.93c-3.314 0-6-2.685-6-6 0-3.313 2.686-6 6-6 3.313 0 6 2.687 6 6 0 3.315-2.687 6-6 6zm0-2c2.21 0 4-1.79 4-4 0-2.208-1.79-4-4-4s-4 1.792-4 4c0 2.21 1.79 4 4 4zm4.122-90.507c-3.314 0-6-2.686-6-6 0-3.313 2.686-6 6-6s6 2.687 6 6c0 3.314-2.686 6-6 6zm0-2c2.21 0 4-1.79 4-4s-1.79-4-4-4-4 1.79-4 4 1.79 4 4 4zm-2.2-48.183c-3.314 0-6-2.687-6-6 0-3.314 2.686-6 6-6s6 2.686 6 6c0 3.313-2.686 6-6 6zm0-2c2.21 0 4-1.79 4-4s-1.79-4-4-4-4 1.79-4 4 1.79 4 4 4zm-20.803-39.987c-3.315 0-6-2.686-6-6s2.685-6 6-6c3.313 0 6 2.686 6 6s-2.687 6-6 6zm0-2c2.208 0 4-1.79 4-4s-1.792-4-4-4c-2.21 0-4 1.79-4 4s1.79 4 4 4zm10.958-79.555c-3.313 0-6-2.686-6-6s2.687-6 6-6c3.314 0 6 2.686 6 6s-2.686 6-6 6zm0-2c2.21 0 4-1.79 4-4s-1.79-4-4-4-4 1.79-4 4 1.79 4 4 4zm-8.167-54.12c-3.313 0-6-2.685-6-6 0-3.313 2.687-6 6-6 3.314 0 6 2.687 6 6 0 3.315-2.686 6-6 6zm0-2c2.21 0 4-1.79 4-4 0-2.208-1.79-4-4-4s-4 1.792-4 4c0 2.21 1.79 4 4 4zm5.885-50.545c-3.313 0-6-2.686-6-6 0-3.313 2.687-6 6-6 3.314 0 6 2.687 6 6 0 3.314-2.686 6-6 6zm0-2c2.21 0 4-1.79 4-4s-1.79-4-4-4-4 1.79-4 4 1.79 4 4 4zm8.577-66.274c-3.314 0-6-2.686-6-6s2.686-6 6-6 6 2.686 6 6-2.686 6-6 6zm0-2c2.21 0 4-1.79 4-4s-1.79-4-4-4-4 1.79-4 4 1.79 4 4 4zm3.27-46.355c-3.313 0-6-2.686-6-6s2.687-6 6-6c3.314 0 6 2.686 6 6s-2.686 6-6 6zm0-2c2.21 0 4-1.79 4-4s-1.79-4-4-4-4 1.79-4 4 1.79 4 4 4zm-16.492-75.43c-3.314 0-6-2.688-6-6 0-3.315 2.686-6 6-6 3.313 0 6 2.685 6 6 0 3.312-2.687 6-6 6zm0-2c2.21 0 4-1.792 4-4 0-2.21-1.79-4-4-4s-4 1.79-4 4c0 2.208 1.79 4 4 4zm15.567-51.703c-3.313 0-6-2.686-6-6s2.687-6 6-6c3.314 0 6 2.686 6 6s-2.686 6-6 6zm0-2c2.21 0 4-1.79 4-4s-1.79-4-4-4-4 1.79-4 4 1.79 4 4 4zm-10.474-71.25c-3.314 0-6-2.685-6-6 0-3.313 2.686-6 6-6 3.313 0 6 2.687 6 6 0 3.315-2.687 6-6 6zm0-2c2.21 0 4-1.79 4-4 0-2.208-1.79-4-4-4s-4 1.792-4 4c0 2.21 1.79 4 4 4zm.13-35.813c-3.313 0-6-2.687-6-6 0-3.314 2.687-6 6-6 3.314 0 6 2.686 6 6 0 3.313-2.686 6-6 6zm0-2c2.21 0 4-1.79 4-4s-1.79-4-4-4-4 1.79-4 4 1.79 4 4 4zm-11.95-49.022c-3.313 0-6-2.686-6-6s2.687-6 6-6c3.314 0 6 2.686 6 6s-2.686 6-6 6zm0-2c2.21 0 4-1.79 4-4s-1.79-4-4-4-4 1.79-4 4 1.79 4 4 4zm21.62-89.9c-3.313 0-6-2.688-6-6 0-3.315 2.687-6 6-6 3.314 0 6 2.685 6 6 0 3.312-2.686 6-6 6zm0-2c2.21 0 4-1.792 4-4 0-2.21-1.79-4-4-4-2.208 0-4 1.79-4 4 0 2.208 1.792 4 4 4zm-4.544-45.344c-3.315 0-6-2.687-6-6 0-3.314 2.685-6 6-6 3.313 0 6 2.686 6 6 0 3.313-2.687 6-6 6zm0-2c2.208 0 4-1.79 4-4s-1.792-4-4-4c-2.21 0-4 1.79-4 4s1.79 4 4 4zm1.135-44.14c-3.314 0-6-2.686-6-6s2.686-6 6-6c3.313 0 6 2.686 6 6s-2.687 6-6 6zm0-2c2.21 0 4-1.79 4-4s-1.79-4-4-4-4 1.79-4 4 1.79 4 4 4zm-20.502-75.416c-3.314 0-6-2.686-6-6s2.686-6 6-6 6 2.686 6 6-2.686 6-6 6zm0-2c2.21 0 4-1.79 4-4s-1.79-4-4-4-4 1.79-4 4 1.79 4 4 4zm15.215-59.12c-3.313 0-6-2.686-6-6 0-3.313 2.687-6 6-6 3.314 0 6 2.687 6 6 0 3.314-2.686 6-6 6zm0-2c2.21 0 4-1.79 4-4s-1.79-4-4-4-4 1.79-4 4 1.79 4 4 4zm-3.905-61.54c-3.314 0-6-2.686-6-6 0-3.313 2.686-6 6-6s6 2.687 6 6c0 3.314-2.686 6-6 6zm0-2c2.21 0 4-1.79 4-4s-1.79-4-4-4-4 1.79-4 4 1.79 4 4 4zm-51.047 1156.472c-3.314 0-6-2.686-6-6 0-3.313 2.686-6 6-6s6 2.687 6 6c0 3.314-2.686 6-6 6zm0-2c2.21 0 4-1.79 4-4s-1.79-4-4-4-4 1.79-4 4 1.79 4 4 4zm15.817-71.66c-3.314 0-6-2.686-6-6 0-3.313 2.686-6 6-6 3.313 0 6 2.687 6 6 0 3.314-2.687 6-6 6zm0-2c2.21 0 4-1.79 4-4s-1.79-4-4-4-4 1.79-4 4 1.79 4 4 4zm1.594-65.828c-3.314 0-6-2.686-6-6s2.686-6 6-6c3.313 0 6 2.686 6 6s-2.687 6-6 6zm0-2c2.21 0 4-1.79 4-4s-1.79-4-4-4-4 1.79-4 4 1.79 4 4 4zm-10.86-21.397c-3.313 0-6-2.687-6-6 0-3.314 2.687-6 6-6 3.314 0 6 2.686 6 6 0 3.313-2.686 6-6 6zm0-2c2.21 0 4-1.79 4-4s-1.79-4-4-4-4 1.79-4 4 1.79 4 4 4zm10.8-58.623c-3.313 0-6-2.686-6-6s2.687-6 6-6c3.315 0 6 2.686 6 6s-2.685 6-6 6zm0-2c2.21 0 4-1.79 4-4s-1.79-4-4-4c-2.208 0-4 1.79-4 4s1.792 4 4 4zm.52-88.732c-3.315 0-6-2.687-6-6 0-3.314 2.685-6 6-6 3.313 0 6 2.686 6 6 0 3.313-2.687 6-6 6zm0-2c2.208 0 4-1.79 4-4s-1.792-4-4-4c-2.21 0-4 1.79-4 4s1.79 4 4 4zm-25.198-35.262c-3.314 0-6-2.686-6-6s2.686-6 6-6c3.313 0 6 2.686 6 6s-2.687 6-6 6zm0-2c2.208 0 4-1.79 4-4s-1.792-4-4-4c-2.21 0-4 1.79-4 4s1.79 4 4 4zm8.572-54.538c-3.314 0-6-2.686-6-6s2.686-6 6-6c3.313 0 6 2.686 6 6s-2.687 6-6 6zm0-2c2.21 0 4-1.79 4-4s-1.79-4-4-4-4 1.79-4 4 1.79 4 4 4zm.34-79.1c-3.312 0-6-2.687-6-6 0-3.314 2.688-6 6-6 3.315 0 6 2.686 6 6 0 3.313-2.685 6-6 6zm0-2c2.21 0 4-1.792 4-4 0-2.21-1.79-4-4-4-2.208 0-4 1.79-4 4 0 2.208 1.792 4 4 4zm-12.334-59.484c-3.314 0-6-2.686-6-6s2.686-6 6-6 6 2.686 6 6-2.686 6-6 6zm0-2c2.21 0 4-1.79 4-4s-1.79-4-4-4-4 1.79-4 4 1.79 4 4 4zm12.347-28.47c-3.314 0-6-2.687-6-6 0-3.314 2.686-6 6-6 3.313 0 6 2.686 6 6 0 3.313-2.687 6-6 6zm0-2c2.21 0 4-1.792 4-4 0-2.21-1.79-4-4-4s-4 1.79-4 4c0 2.208 1.79 4 4 4zm16.83-84.824c-3.314 0-6-2.686-6-6s2.686-6 6-6 6 2.686 6 6-2.686 6-6 6zm0-2c2.21 0 4-1.79 4-4s-1.79-4-4-4-4 1.79-4 4 1.79 4 4 4zm-23.83-46.087c-3.315 0-6-2.686-6-6s2.685-6 6-6c3.313 0 6 2.686 6 6s-2.687 6-6 6zm0-2c2.208 0 4-1.79 4-4s-1.792-4-4-4c-2.21 0-4 1.79-4 4s1.79 4 4 4zm2.972-72.602c-3.314 0-6-2.686-6-6s2.686-6 6-6c3.313 0 6 2.686 6 6s-2.687 6-6 6zm0-2c2.21 0 4-1.79 4-4s-1.79-4-4-4-4 1.79-4 4 1.79 4 4 4zm14.82-54.916c-3.313 0-6-2.688-6-6 0-3.315 2.687-6 6-6 3.314 0 6 2.685 6 6 0 3.312-2.686 6-6 6zm0-2c2.21 0 4-1.792 4-4 0-2.21-1.79-4-4-4-2.208 0-4 1.79-4 4 0 2.208 1.792 4 4 4zm6.04-54.954c-3.313 0-6-2.686-6-6 0-3.313 2.687-6 6-6 3.314 0 6 2.687 6 6 0 3.314-2.686 6-6 6zm0-2c2.21 0 4-1.79 4-4s-1.79-4-4-4-4 1.79-4 4 1.79 4 4 4zm-10.654-69.593c-3.314 0-6-2.687-6-6 0-3.314 2.686-6 6-6s6 2.686 6 6c0 3.313-2.686 6-6 6zm0-2c2.21 0 4-1.79 4-4s-1.79-4-4-4-4 1.79-4 4 1.79 4 4 4zm-6.336-56.587c-3.314 0-6-2.686-6-6s2.686-6 6-6 6 2.686 6 6-2.686 6-6 6zm0-2c2.21 0 4-1.79 4-4s-1.79-4-4-4-4 1.79-4 4 1.79 4 4 4zm-.73-53.46c-3.312 0-6-2.686-6-6s2.688-6 6-6c3.315 0 6 2.686 6 6s-2.685 6-6 6zm0-2c2.21 0 4-1.79 4-4s-1.79-4-4-4c-2.208 0-4 1.79-4 4s1.792 4 4 4zm6.346-54.413c-3.314 0-6-2.686-6-6s2.686-6 6-6 6 2.686 6 6-2.686 6-6 6zm0-2c2.21 0 4-1.79 4-4s-1.79-4-4-4-4 1.79-4 4 1.79 4 4 4zM566.96 1164.716c-3.314 0-6-2.686-6-6 0-3.313 2.686-6 6-6 3.313 0 6 2.687 6 6 0 3.314-2.687 6-6 6zm0-2c2.21 0 4-1.79 4-4s-1.79-4-4-4-4 1.79-4 4 1.79 4 4 4zm-6.2-31.173c-3.312 0-6-2.686-6-6s2.688-6 6-6c3.315 0 6 2.686 6 6s-2.685 6-6 6zm0-2c2.21 0 4-1.79 4-4s-1.79-4-4-4c-2.208 0-4 1.79-4 4s1.792 4 4 4zm6.758-96.556c-3.314 0-6-2.687-6-6 0-3.314 2.686-6 6-6 3.313 0 6 2.686 6 6 0 3.313-2.687 6-6 6zm0-2c2.21 0 4-1.79 4-4s-1.79-4-4-4-4 1.79-4 4 1.79 4 4 4zm-2.436-52.347c-3.314 0-6-2.687-6-6 0-3.314 2.686-6 6-6 3.313 0 6 2.686 6 6 0 3.313-2.687 6-6 6zm0-2c2.21 0 4-1.79 4-4s-1.79-4-4-4-4 1.79-4 4 1.79 4 4 4zm2.703-57.06c-3.313 0-6-2.685-6-6 0-3.313 2.687-6 6-6 3.314 0 6 2.687 6 6 0 3.315-2.686 6-6 6zm0-2c2.21 0 4-1.79 4-4 0-2.208-1.79-4-4-4s-4 1.792-4 4c0 2.21 1.79 4 4 4zm4.785-28.13c-3.314 0-6-2.687-6-6 0-3.314 2.686-6 6-6s6 2.686 6 6c0 3.313-2.686 6-6 6zm0-2c2.21 0 4-1.79 4-4s-1.79-4-4-4-4 1.79-4 4 1.79 4 4 4zm.106-91.525c-3.313 0-6-2.687-6-6 0-3.314 2.687-6 6-6 3.314 0 6 2.686 6 6 0 3.313-2.686 6-6 6zm0-2c2.21 0 4-1.79 4-4s-1.79-4-4-4-4 1.79-4 4 1.79 4 4 4zm6.924-29.238c-3.314 0-6-2.686-6-6s2.686-6 6-6c3.313 0 6 2.686 6 6s-2.687 6-6 6zm0-2c2.21 0 4-1.79 4-4s-1.79-4-4-4-4 1.79-4 4 1.79 4 4 4zm-15.138-80.043c-3.314 0-6-2.686-6-6s2.686-6 6-6c3.313 0 6 2.686 6 6s-2.687 6-6 6zm0-2c2.21 0 4-1.79 4-4s-1.79-4-4-4-4 1.79-4 4 1.79 4 4 4zm2.063-50.693c-3.313 0-6-2.685-6-6 0-3.313 2.687-6 6-6 3.314 0 6 2.687 6 6 0 3.315-2.686 6-6 6zm0-2c2.21 0 4-1.79 4-4 0-2.208-1.79-4-4-4s-4 1.792-4 4c0 2.21 1.79 4 4 4zm16.01-60.27c-3.315 0-6-2.686-6-6s2.685-6 6-6c3.312 0 6 2.686 6 6s-2.688 6-6 6zm0-2c2.208 0 4-1.79 4-4s-1.792-4-4-4c-2.21 0-4 1.79-4 4s1.79 4 4 4zm-2.532-41.813c-3.314 0-6-2.687-6-6 0-3.314 2.686-6 6-6 3.313 0 6 2.686 6 6 0 3.313-2.687 6-6 6zm0-2c2.21 0 4-1.79 4-4s-1.79-4-4-4-4 1.79-4 4 1.79 4 4 4zm-22.524-53.782c-3.315 0-6-2.686-6-6s2.685-6 6-6c3.313 0 6 2.686 6 6s-2.687 6-6 6zm0-2c2.208 0 4-1.79 4-4s-1.792-4-4-4c-2.21 0-4 1.79-4 4s1.79 4 4 4zm8.61-88.284c-3.313 0-6-2.685-6-6 0-3.313 2.687-6 6-6 3.314 0 6 2.687 6 6 0 3.315-2.686 6-6 6zm0-2c2.21 0 4-1.79 4-4 0-2.208-1.79-4-4-4s-4 1.792-4 4c0 2.21 1.79 4 4 4zm-6.018-36.44c-3.314 0-6-2.685-6-6 0-3.313 2.686-6 6-6 3.313 0 6 2.687 6 6 0 3.315-2.687 6-6 6zm0-2c2.21 0 4-1.79 4-4 0-2.208-1.79-4-4-4s-4 1.792-4 4c0 2.21 1.79 4 4 4zm8.738-60.236c-3.314 0-6-2.686-6-6s2.686-6 6-6 6 2.686 6 6-2.686 6-6 6zm0-2c2.21 0 4-1.79 4-4s-1.79-4-4-4-4 1.79-4 4 1.79 4 4 4zm9.878-49.244c-3.314 0-6-2.687-6-6 0-3.314 2.686-6 6-6 3.313 0 6 2.686 6 6 0 3.313-2.687 6-6 6zm0-2c2.21 0 4-1.79 4-4s-1.79-4-4-4-4 1.79-4 4 1.79 4 4 4zm-9.707-89.56c-3.313 0-6-2.686-6-6 0-3.313 2.687-6 6-6 3.315 0 6 2.687 6 6 0 3.314-2.685 6-6 6zm0-2c2.21 0 4-1.79 4-4s-1.79-4-4-4c-2.208 0-4 1.79-4 4s1.792 4 4 4zm2.96-42.264c-3.315 0-6-2.686-6-6s2.685-6 6-6c3.313 0 6 2.686 6 6s-2.687 6-6 6zm0-2c2.208 0 4-1.79 4-4s-1.792-4-4-4c-2.21 0-4 1.79-4 4s1.79 4 4 4zm-3.806-46.82c-3.313 0-6-2.688-6-6 0-3.315 2.687-6 6-6 3.314 0 6 2.685 6 6 0 3.312-2.686 6-6 6zm0-2c2.21 0 4-1.792 4-4 0-2.21-1.79-4-4-4s-4 1.79-4 4c0 2.208 1.79 4 4 4zm-43.086 1129.76c-3.314 0-6-2.687-6-6 0-3.314 2.686-6 6-6 3.313 0 6 2.686 6 6 0 3.313-2.687 6-6 6zm0-2c2.21 0 4-1.79 4-4s-1.79-4-4-4-4 1.79-4 4 1.79 4 4 4zM512.573 1131c-3.314 0-6-2.685-6-6 0-3.313 2.686-6 6-6 3.313 0 6 2.687 6 6 0 3.315-2.687 6-6 6zm0-2c2.21 0 4-1.79 4-4 0-2.208-1.79-4-4-4s-4 1.792-4 4c0 2.21 1.79 4 4 4zm-5.458-88.58c-3.314 0-6-2.686-6-6s2.686-6 6-6 6 2.686 6 6-2.686 6-6 6zm0-2c2.21 0 4-1.79 4-4s-1.79-4-4-4-4 1.79-4 4 1.79 4 4 4zm-.035-42.288c-3.314 0-6-2.686-6-6 0-3.313 2.686-6 6-6 3.313 0 6 2.687 6 6 0 3.314-2.687 6-6 6zm0-2c2.21 0 4-1.79 4-4s-1.79-4-4-4-4 1.79-4 4 1.79 4 4 4zm1.86-42.867c-3.315 0-6-2.687-6-6 0-3.314 2.685-6 6-6 3.312 0 6 2.686 6 6 0 3.313-2.688 6-6 6zm0-2c2.208 0 4-1.79 4-4s-1.792-4-4-4c-2.21 0-4 1.79-4 4s1.79 4 4 4zm4.67-63.32c-3.313 0-6-2.686-6-6s2.687-6 6-6c3.314 0 6 2.686 6 6s-2.686 6-6 6zm0-2c2.21 0 4-1.79 4-4s-1.79-4-4-4-4 1.79-4 4 1.79 4 4 4zm-3.4-57.85c-3.313 0-6-2.686-6-6 0-3.313 2.687-6 6-6 3.314 0 6 2.687 6 6 0 3.314-2.686 6-6 6zm0-2c2.21 0 4-1.79 4-4s-1.79-4-4-4-4 1.79-4 4 1.79 4 4 4zm-.413-80.207c-3.314 0-6-2.687-6-6 0-3.314 2.686-6 6-6 3.313 0 6 2.686 6 6 0 3.313-2.687 6-6 6zm0-2c2.21 0 4-1.79 4-4s-1.79-4-4-4-4 1.79-4 4 1.79 4 4 4zm14.962-35.352c-3.315 0-6-2.686-6-6s2.685-6 6-6c3.312 0 6 2.686 6 6s-2.688 6-6 6zm0-2c2.208 0 4-1.79 4-4s-1.792-4-4-4c-2.21 0-4 1.79-4 4s1.79 4 4 4zm-15.165-81.057c-3.314 0-6-2.687-6-6 0-3.315 2.686-6 6-6s6 2.685 6 6c0 3.313-2.686 6-6 6zm0-2c2.21 0 4-1.792 4-4 0-2.21-1.79-4-4-4s-4 1.79-4 4c0 2.208 1.79 4 4 4zm4.196-41.88c-3.313 0-6-2.685-6-6 0-3.313 2.687-6 6-6 3.314 0 6 2.687 6 6 0 3.315-2.686 6-6 6zm0-2c2.21 0 4-1.79 4-4 0-2.208-1.79-4-4-4s-4 1.792-4 4c0 2.21 1.79 4 4 4zm-3.633-84.824c-3.314 0-6-2.687-6-6 0-3.314 2.686-6 6-6s6 2.686 6 6c0 3.313-2.686 6-6 6zm0-2c2.21 0 4-1.79 4-4s-1.79-4-4-4-4 1.79-4 4 1.79 4 4 4zm14.472-41.972c-3.315 0-6-2.686-6-6s2.685-6 6-6c3.312 0 6 2.686 6 6s-2.688 6-6 6zm0-2c2.208 0 4-1.79 4-4s-1.792-4-4-4c-2.21 0-4 1.79-4 4s1.79 4 4 4zm-7.473-51.207c-3.314 0-6-2.687-6-6 0-3.314 2.686-6 6-6 3.313 0 6 2.686 6 6 0 3.313-2.687 6-6 6zm0-2c2.21 0 4-1.79 4-4s-1.79-4-4-4-4 1.79-4 4 1.79 4 4 4zm9.617-60.885c-3.314 0-6-2.686-6-6s2.686-6 6-6c3.313 0 6 2.686 6 6s-2.687 6-6 6zm0-2c2.21 0 4-1.79 4-4s-1.79-4-4-4-4 1.79-4 4 1.79 4 4 4zm-7.947-46.92c-3.313 0-6-2.686-6-6 0-3.313 2.687-6 6-6 3.314 0 6 2.687 6 6 0 3.314-2.686 6-6 6zm0-2c2.21 0 4-1.79 4-4s-1.79-4-4-4-4 1.79-4 4 1.79 4 4 4zm13.1-75.414c-3.313 0-6-2.686-6-6s2.687-6 6-6c3.314 0 6 2.686 6 6s-2.686 6-6 6zm0-2c2.21 0 4-1.79 4-4s-1.79-4-4-4-4 1.79-4 4 1.79 4 4 4zm-23.895-70.613c-3.313 0-6-2.686-6-6s2.687-6 6-6c3.314 0 6 2.686 6 6s-2.686 6-6 6zm0-2c2.21 0 4-1.79 4-4s-1.79-4-4-4-4 1.79-4 4 1.79 4 4 4zm1.848-38.226c-3.314 0-6-2.687-6-6 0-3.315 2.686-6 6-6s6 2.685 6 6c0 3.313-2.686 6-6 6zm0-2c2.21 0 4-1.792 4-4 0-2.21-1.79-4-4-4s-4 1.79-4 4c0 2.208 1.79 4 4 4zm4.358-60.584c-3.313 0-6-2.687-6-6 0-3.314 2.687-6 6-6 3.314 0 6 2.686 6 6 0 3.313-2.686 6-6 6zm0-2c2.21 0 4-1.79 4-4s-1.79-4-4-4-4 1.79-4 4 1.79 4 4 4zm-39.988 1152.18c-3.314 0-6-2.685-6-6 0-3.312 2.686-6 6-6s6 2.688 6 6c0 3.315-2.686 6-6 6zm0-2c2.21 0 4-1.79 4-4 0-2.208-1.79-4-4-4s-4 1.792-4 4c0 2.21 1.79 4 4 4zm-12.475-47.808c-3.313 0-6-2.686-6-6s2.687-6 6-6c3.314 0 6 2.686 6 6s-2.686 6-6 6zm0-2c2.21 0 4-1.79 4-4s-1.79-4-4-4-4 1.79-4 4 1.79 4 4 4zm24.183-66.044c-3.313 0-6-2.687-6-6 0-3.314 2.687-6 6-6 3.314 0 6 2.686 6 6 0 3.313-2.686 6-6 6zm0-2c2.21 0 4-1.79 4-4s-1.79-4-4-4-4 1.79-4 4 1.79 4 4 4zm-28.612-57.14c-3.314 0-6-2.687-6-6 0-3.314 2.686-6 6-6 3.313 0 6 2.686 6 6 0 3.313-2.687 6-6 6zm0-2c2.21 0 4-1.79 4-4s-1.79-4-4-4-4 1.79-4 4 1.79 4 4 4zm7.05-83.625c-3.313 0-6-2.687-6-6 0-3.315 2.687-6 6-6 3.315 0 6 2.685 6 6 0 3.313-2.685 6-6 6zm0-2c2.21 0 4-1.792 4-4 0-2.21-1.79-4-4-4-2.208 0-4 1.79-4 4 0 2.208 1.792 4 4 4zm-3.31-57.482c-3.315 0-6-2.686-6-6s2.685-6 6-6c3.312 0 6 2.686 6 6s-2.688 6-6 6zm0-2c2.208 0 4-1.79 4-4s-1.792-4-4-4c-2.21 0-4 1.79-4 4s1.79 4 4 4zm19.13-63.326c-3.314 0-6-2.686-6-6 0-3.313 2.686-6 6-6s6 2.687 6 6c0 3.314-2.686 6-6 6zm0-2c2.21 0 4-1.79 4-4s-1.79-4-4-4-4 1.79-4 4 1.79 4 4 4zm-9.803-43.902c-3.313 0-6-2.687-6-6 0-3.314 2.687-6 6-6 3.314 0 6 2.686 6 6 0 3.313-2.686 6-6 6zm0-2c2.21 0 4-1.79 4-4s-1.79-4-4-4-4 1.79-4 4 1.79 4 4 4zm-8.4-67.184c-3.315 0-6-2.686-6-6 0-3.313 2.685-6 6-6 3.313 0 6 2.687 6 6 0 3.314-2.687 6-6 6zm0-2c2.208 0 4-1.79 4-4s-1.792-4-4-4c-2.21 0-4 1.79-4 4s1.79 4 4 4zm-.792-34.535c-3.313 0-6-2.685-6-6 0-3.313 2.687-6 6-6 3.315 0 6 2.687 6 6 0 3.315-2.685 6-6 6zm0-2c2.21 0 4-1.79 4-4 0-2.208-1.79-4-4-4-2.208 0-4 1.792-4 4 0 2.21 1.792 4 4 4zm6.93-64.824c-3.314 0-6-2.687-6-6 0-3.314 2.686-6 6-6s6 2.686 6 6c0 3.313-2.686 6-6 6zm0-2c2.21 0 4-1.79 4-4s-1.79-4-4-4-4 1.79-4 4 1.79 4 4 4zm-3.74-71.26c-3.313 0-6-2.686-6-6 0-3.313 2.687-6 6-6 3.315 0 6 2.687 6 6 0 3.314-2.685 6-6 6zm0-2c2.21 0 4-1.79 4-4s-1.79-4-4-4c-2.208 0-4 1.79-4 4s1.792 4 4 4zm16.622-38.453c-3.314 0-6-2.686-6-6 0-3.313 2.686-6 6-6s6 2.687 6 6c0 3.314-2.686 6-6 6zm0-2c2.21 0 4-1.79 4-4s-1.79-4-4-4-4 1.79-4 4 1.79 4 4 4zm-23.09-87.356c-3.315 0-6-2.686-6-6s2.685-6 6-6c3.312 0 6 2.686 6 6s-2.688 6-6 6zm0-2c2.208 0 4-1.79 4-4s-1.792-4-4-4c-2.21 0-4 1.79-4 4s1.79 4 4 4zm14.5-36.29c-3.312 0-6-2.688-6-6 0-3.315 2.688-6 6-6 3.315 0 6 2.685 6 6 0 3.312-2.685 6-6 6zm0-2c2.21 0 4-1.792 4-4 0-2.21-1.79-4-4-4-2.208 0-4 1.79-4 4 0 2.208 1.792 4 4 4zm-4.977-64.742c-3.314 0-6-2.686-6-6 0-3.313 2.686-6 6-6 3.313 0 6 2.687 6 6 0 3.314-2.687 6-6 6zm0-2c2.21 0 4-1.79 4-4s-1.79-4-4-4-4 1.79-4 4 1.79 4 4 4zm-10.868-66.617c-3.314 0-6-2.686-6-6 0-3.313 2.686-6 6-6 3.313 0 6 2.687 6 6 0 3.314-2.687 6-6 6zm0-2c2.21 0 4-1.79 4-4s-1.79-4-4-4-4 1.79-4 4 1.79 4 4 4zm10.545-40.75c-3.313 0-6-2.686-6-6 0-3.313 2.687-6 6-6 3.314 0 6 2.687 6 6 0 3.314-2.686 6-6 6zm0-2c2.21 0 4-1.79 4-4 0-2.208-1.79-4-4-4s-4 1.792-4 4c0 2.21 1.79 4 4 4zm9.735-48.8c-3.314 0-6-2.685-6-6 0-3.313 2.686-6 6-6 3.313 0 6 2.687 6 6 0 3.315-2.687 6-6 6zm0-2c2.21 0 4-1.79 4-4 0-2.208-1.79-4-4-4s-4 1.792-4 4c0 2.21 1.79 4 4 4zM466.13 46.23c-3.314 0-6-2.685-6-6 0-3.313 2.686-6 6-6s6 2.687 6 6c0 3.315-2.686 6-6 6zm0-2c2.21 0 4-1.79 4-4 0-2.208-1.79-4-4-4s-4 1.792-4 4c0 2.21 1.79 4 4 4zM435.257 1171.71c-3.314 0-6-2.686-6-6 0-3.313 2.686-6 6-6s6 2.687 6 6c0 3.314-2.686 6-6 6zm0-2c2.21 0 4-1.79 4-4s-1.79-4-4-4-4 1.79-4 4 1.79 4 4 4zm-10.15-63.094c-3.315 0-6-2.686-6-6s2.685-6 6-6c3.313 0 6 2.686 6 6s-2.687 6-6 6zm0-2c2.208 0 4-1.79 4-4s-1.792-4-4-4c-2.21 0-4 1.79-4 4s1.79 4 4 4zm7.212-45.278c-3.315 0-6-2.686-6-6s2.685-6 6-6c3.312 0 6 2.686 6 6s-2.688 6-6 6zm0-2c2.208 0 4-1.79 4-4s-1.792-4-4-4c-2.21 0-4 1.79-4 4s1.79 4 4 4zM409.597 985.1c-3.313 0-6-2.685-6-6 0-3.313 2.687-6 6-6 3.314 0 6 2.687 6 6 0 3.315-2.686 6-6 6zm0-2c2.21 0 4-1.79 4-4 0-2.208-1.79-4-4-4s-4 1.792-4 4c0 2.21 1.79 4 4 4zm24.234-65.305c-3.314 0-6-2.686-6-6s2.686-6 6-6c3.313 0 6 2.686 6 6s-2.687 6-6 6zm0-2c2.21 0 4-1.79 4-4s-1.79-4-4-4-4 1.79-4 4 1.79 4 4 4zm-8.01-41.646c-3.314 0-6-2.688-6-6 0-3.315 2.686-6 6-6 3.313 0 6 2.685 6 6 0 3.312-2.687 6-6 6zm0-2c2.208 0 4-1.792 4-4 0-2.21-1.792-4-4-4-2.21 0-4 1.79-4 4 0 2.208 1.79 4 4 4zm-10.303-60.288c-3.315 0-6-2.687-6-6 0-3.314 2.685-6 6-6 3.313 0 6 2.686 6 6 0 3.313-2.687 6-6 6zm0-2c2.208 0 4-1.79 4-4s-1.792-4-4-4c-2.21 0-4 1.79-4 4s1.79 4 4 4zm-1.26-65.51c-3.314 0-6-2.685-6-6 0-3.313 2.686-6 6-6 3.313 0 6 2.687 6 6 0 3.315-2.687 6-6 6zm0-2c2.21 0 4-1.79 4-4 0-2.208-1.79-4-4-4s-4 1.792-4 4c0 2.21 1.79 4 4 4zm14.832-54.394c-3.314 0-6-2.686-6-6 0-3.313 2.686-6 6-6s6 2.687 6 6c0 3.314-2.686 6-6 6zm0-2c2.21 0 4-1.79 4-4s-1.79-4-4-4-4 1.79-4 4 1.79 4 4 4zm.938-35.048c-3.313 0-6-2.686-6-6 0-3.313 2.687-6 6-6 3.314 0 6 2.687 6 6 0 3.314-2.686 6-6 6zm0-2c2.21 0 4-1.79 4-4s-1.79-4-4-4-4 1.79-4 4 1.79 4 4 4zm4.982-92.676c-3.314 0-6-2.686-6-6 0-3.313 2.686-6 6-6 3.313 0 6 2.687 6 6 0 3.314-2.687 6-6 6zm0-2c2.21 0 4-1.79 4-4s-1.79-4-4-4-4 1.79-4 4 1.79 4 4 4zm-11.275-27.33c-3.314 0-6-2.686-6-6 0-3.313 2.686-6 6-6s6 2.687 6 6c0 3.314-2.686 6-6 6zm0-2c2.21 0 4-1.79 4-4s-1.79-4-4-4-4 1.79-4 4 1.79 4 4 4zm-14.7-56.1c-3.314 0-6-2.685-6-6 0-3.313 2.686-6 6-6s6 2.687 6 6c0 3.315-2.686 6-6 6zm0-2c2.21 0 4-1.79 4-4 0-2.208-1.79-4-4-4s-4 1.792-4 4c0 2.21 1.79 4 4 4zm9.083-71.23c-3.314 0-6-2.685-6-6 0-3.313 2.686-6 6-6s6 2.687 6 6c0 3.315-2.686 6-6 6zm0-2c2.21 0 4-1.79 4-4 0-2.208-1.79-4-4-4s-4 1.792-4 4c0 2.21 1.79 4 4 4zm5.292-54.06c-3.314 0-6-2.685-6-6 0-3.312 2.686-6 6-6 3.313 0 6 2.688 6 6 0 3.315-2.687 6-6 6zm0-2c2.21 0 4-1.79 4-4 0-2.208-1.79-4-4-4s-4 1.792-4 4c0 2.21 1.79 4 4 4zm3.693-75.43c-3.314 0-6-2.686-6-6 0-3.313 2.686-6 6-6 3.313 0 6 2.687 6 6 0 3.314-2.687 6-6 6zm0-2c2.21 0 4-1.79 4-4s-1.79-4-4-4-4 1.79-4 4 1.79 4 4 4zm3.272-28.474c-3.314 0-6-2.686-6-6s2.686-6 6-6 6 2.686 6 6-2.686 6-6 6zm0-2c2.21 0 4-1.79 4-4s-1.79-4-4-4-4 1.79-4 4 1.79 4 4 4zm2.606-70.294c-3.313 0-6-2.686-6-6 0-3.313 2.687-6 6-6 3.314 0 6 2.687 6 6 0 3.314-2.686 6-6 6zm0-2c2.21 0 4-1.79 4-4s-1.79-4-4-4-4 1.79-4 4 1.79 4 4 4zm.22-68.815c-3.312 0-6-2.685-6-6 0-3.312 2.688-6 6-6 3.315 0 6 2.688 6 6 0 3.315-2.685 6-6 6zm0-2c2.21 0 4-1.79 4-4 0-2.208-1.79-4-4-4-2.208 0-4 1.792-4 4 0 2.21 1.792 4 4 4zm-14.662-63.944c-3.313 0-6-2.687-6-6 0-3.314 2.687-6 6-6 3.314 0 6 2.686 6 6 0 3.313-2.686 6-6 6zm0-2c2.21 0 4-1.79 4-4s-1.79-4-4-4c-2.208 0-4 1.79-4 4s1.792 4 4 4zm-55.285 1167.46c-3.314 0-6-2.685-6-6 0-3.313 2.686-6 6-6s6 2.687 6 6c0 3.315-2.686 6-6 6zm0-2c2.21 0 4-1.79 4-4 0-2.208-1.79-4-4-4s-4 1.792-4 4c0 2.21 1.79 4 4 4zm15.63-62.898c-3.313 0-6-2.687-6-6 0-3.314 2.687-6 6-6 3.315 0 6 2.686 6 6 0 3.313-2.685 6-6 6zm0-2c2.21 0 4-1.79 4-4s-1.79-4-4-4c-2.208 0-4 1.79-4 4s1.792 4 4 4zm-.19-51.407c-3.314 0-6-2.686-6-6 0-3.313 2.686-6 6-6 3.313 0 6 2.687 6 6 0 3.314-2.687 6-6 6zm0-2c2.21 0 4-1.79 4-4s-1.79-4-4-4-4 1.79-4 4 1.79 4 4 4zm-.81-88.31c-3.315 0-6-2.688-6-6 0-3.315 2.685-6 6-6 3.312 0 6 2.685 6 6 0 3.312-2.688 6-6 6zm0-2c2.208 0 4-1.792 4-4 0-2.21-1.792-4-4-4-2.21 0-4 1.79-4 4 0 2.208 1.79 4 4 4zM364.32 938.58c-3.313 0-6-2.686-6-6s2.687-6 6-6c3.315 0 6 2.686 6 6s-2.685 6-6 6zm0-2c2.21 0 4-1.79 4-4s-1.79-4-4-4c-2.208 0-4 1.79-4 4s1.792 4 4 4zm20.76-75.123c-3.314 0-6-2.687-6-6 0-3.315 2.686-6 6-6 3.313 0 6 2.685 6 6 0 3.313-2.687 6-6 6zm0-2c2.21 0 4-1.792 4-4 0-2.21-1.79-4-4-4s-4 1.79-4 4c0 2.208 1.79 4 4 4zm-24.96-57.796c-3.313 0-6-2.687-6-6 0-3.314 2.687-6 6-6 3.314 0 6 2.686 6 6 0 3.313-2.686 6-6 6zm0-2c2.21 0 4-1.79 4-4s-1.79-4-4-4-4 1.79-4 4 1.79 4 4 4zm14.423-49.283c-3.313 0-6-2.685-6-6 0-3.312 2.687-6 6-6 3.314 0 6 2.688 6 6 0 3.315-2.686 6-6 6zm0-2c2.21 0 4-1.79 4-4 0-2.208-1.79-4-4-4s-4 1.792-4 4c0 2.21 1.79 4 4 4zm-14.627-40.935c-3.314 0-6-2.686-6-6s2.686-6 6-6 6 2.686 6 6-2.686 6-6 6zm0-2c2.21 0 4-1.79 4-4s-1.79-4-4-4-4 1.79-4 4 1.79 4 4 4zm23.876-65.085c-3.314 0-6-2.686-6-6s2.686-6 6-6 6 2.686 6 6-2.686 6-6 6zm0-2c2.21 0 4-1.79 4-4s-1.79-4-4-4-4 1.79-4 4 1.79 4 4 4zm-6.198-68.63c-3.314 0-6-2.686-6-6 0-3.313 2.686-6 6-6s6 2.687 6 6c0 3.314-2.686 6-6 6zm0-2c2.21 0 4-1.79 4-4s-1.79-4-4-4-4 1.79-4 4 1.79 4 4 4zm-9.945-75.473c-3.314 0-6-2.686-6-6s2.686-6 6-6c3.313 0 6 2.686 6 6s-2.687 6-6 6zm0-2c2.208 0 4-1.79 4-4s-1.792-4-4-4c-2.21 0-4 1.79-4 4s1.79 4 4 4zm3.484-48.233c-3.314 0-6-2.687-6-6 0-3.314 2.686-6 6-6 3.313 0 6 2.686 6 6 0 3.313-2.687 6-6 6zm0-2c2.21 0 4-1.79 4-4s-1.79-4-4-4-4 1.79-4 4 1.79 4 4 4zm10.524-54.324c-3.314 0-6-2.687-6-6 0-3.314 2.686-6 6-6 3.313 0 6 2.686 6 6 0 3.313-2.687 6-6 6zm0-2c2.21 0 4-1.79 4-4s-1.79-4-4-4-4 1.79-4 4 1.79 4 4 4zm2.184-35.072c-3.314 0-6-2.686-6-6s2.686-6 6-6 6 2.686 6 6-2.686 6-6 6zm0-2c2.21 0 4-1.79 4-4s-1.79-4-4-4-4 1.79-4 4 1.79 4 4 4zm-23.43-80.875c-3.314 0-6-2.686-6-6s2.686-6 6-6c3.313 0 6 2.686 6 6s-2.687 6-6 6zm0-2c2.21 0 4-1.79 4-4s-1.79-4-4-4-4 1.79-4 4 1.79 4 4 4zm6.825-55.85c-3.313 0-6-2.686-6-6s2.687-6 6-6c3.314 0 6 2.686 6 6s-2.686 6-6 6zm0-2c2.21 0 4-1.79 4-4s-1.79-4-4-4-4 1.79-4 4 1.79 4 4 4zm11.573-61.997c-3.314 0-6-2.686-6-6 0-3.313 2.686-6 6-6s6 2.687 6 6c0 3.314-2.686 6-6 6zm0-2c2.21 0 4-1.79 4-4s-1.79-4-4-4-4 1.79-4 4 1.79 4 4 4zm-2.715-41.08c-3.313 0-6-2.687-6-6 0-3.314 2.687-6 6-6 3.314 0 6 2.686 6 6 0 3.313-2.686 6-6 6zm0-2c2.21 0 4-1.792 4-4 0-2.21-1.79-4-4-4s-4 1.79-4 4c0 2.208 1.79 4 4 4zm-18.91-51.176c-3.313 0-6-2.686-6-6s2.687-6 6-6c3.314 0 6 2.686 6 6s-2.686 6-6 6zm0-2c2.21 0 4-1.79 4-4s-1.79-4-4-4-4 1.79-4 4 1.79 4 4 4zm-41.54 1128.85c-3.312 0-6-2.686-6-6s2.688-6 6-6c3.315 0 6 2.686 6 6s-2.685 6-6 6zm0-2c2.21 0 4-1.79 4-4s-1.79-4-4-4c-2.208 0-4 1.79-4 4s1.792 4 4 4zm-6.558-66.494c-3.314 0-6-2.686-6-6 0-3.313 2.686-6 6-6 3.313 0 6 2.687 6 6 0 3.314-2.687 6-6 6zm0-2c2.21 0 4-1.79 4-4s-1.79-4-4-4-4 1.79-4 4 1.79 4 4 4zm10.672-47.814c-3.315 0-6-2.686-6-6s2.685-6 6-6c3.313 0 6 2.686 6 6s-2.687 6-6 6zm0-2c2.208 0 4-1.79 4-4s-1.792-4-4-4c-2.21 0-4 1.79-4 4s1.79 4 4 4zm-3.052-53.48c-3.313 0-6-2.685-6-6 0-3.313 2.687-6 6-6 3.314 0 6 2.687 6 6 0 3.315-2.686 6-6 6zm0-2c2.21 0 4-1.79 4-4 0-2.208-1.79-4-4-4s-4 1.792-4 4c0 2.21 1.79 4 4 4zm11.723-73.928c-3.312 0-6-2.686-6-6s2.688-6 6-6c3.315 0 6 2.686 6 6s-2.685 6-6 6zm0-2c2.21 0 4-1.79 4-4s-1.79-4-4-4c-2.208 0-4 1.79-4 4s1.792 4 4 4zm-19.936-39.764c-3.314 0-6-2.686-6-6 0-3.313 2.686-6 6-6s6 2.687 6 6c0 3.314-2.686 6-6 6zm0-2c2.21 0 4-1.79 4-4s-1.79-4-4-4-4 1.79-4 4 1.79 4 4 4zm25.025-66.143c-3.315 0-6-2.687-6-6 0-3.314 2.685-6 6-6 3.313 0 6 2.686 6 6 0 3.313-2.687 6-6 6zm0-2c2.208 0 4-1.79 4-4s-1.792-4-4-4c-2.21 0-4 1.79-4 4s1.79 4 4 4zm-14.315-46.542c-3.314 0-6-2.686-6-6s2.686-6 6-6 6 2.686 6 6-2.686 6-6 6zm0-2c2.21 0 4-1.79 4-4s-1.79-4-4-4-4 1.79-4 4 1.79 4 4 4zm13.4-67.625c-3.314 0-6-2.687-6-6 0-3.314 2.686-6 6-6s6 2.686 6 6c0 3.313-2.686 6-6 6zm0-2c2.21 0 4-1.79 4-4s-1.79-4-4-4-4 1.79-4 4 1.79 4 4 4zm-15.763-66.897c-3.313 0-6-2.686-6-6 0-3.313 2.687-6 6-6 3.314 0 6 2.687 6 6 0 3.314-2.686 6-6 6zm0-2c2.21 0 4-1.79 4-4s-1.79-4-4-4-4 1.79-4 4 1.79 4 4 4zm18.253-46.823c-3.314 0-6-2.687-6-6 0-3.314 2.686-6 6-6 3.313 0 6 2.686 6 6 0 3.313-2.687 6-6 6zm0-2c2.21 0 4-1.79 4-4s-1.79-4-4-4-4 1.79-4 4 1.79 4 4 4zm-29.086-56.807c-3.314 0-6-2.687-6-6 0-3.314 2.686-6 6-6 3.313 0 6 2.686 6 6 0 3.313-2.687 6-6 6zm0-2c2.208 0 4-1.79 4-4s-1.792-4-4-4c-2.21 0-4 1.79-4 4s1.79 4 4 4zm24.256-77.568c-3.314 0-6-2.686-6-6s2.686-6 6-6c3.313 0 6 2.686 6 6s-2.687 6-6 6zm0-2c2.21 0 4-1.79 4-4s-1.79-4-4-4-4 1.79-4 4 1.79 4 4 4zm4.964-30.874c-3.314 0-6-2.686-6-6 0-3.313 2.686-6 6-6 3.313 0 6 2.687 6 6 0 3.314-2.687 6-6 6zm0-2c2.21 0 4-1.79 4-4 0-2.208-1.79-4-4-4s-4 1.792-4 4c0 2.21 1.79 4 4 4zm-19.05-88.73c-3.314 0-6-2.686-6-6s2.686-6 6-6c3.313 0 6 2.686 6 6s-2.687 6-6 6zm0-2c2.208 0 4-1.79 4-4s-1.792-4-4-4c-2.21 0-4 1.79-4 4s1.79 4 4 4zm16.946-32.902c-3.314 0-6-2.686-6-6 0-3.313 2.686-6 6-6s6 2.687 6 6c0 3.314-2.686 6-6 6zm0-2c2.21 0 4-1.79 4-4s-1.79-4-4-4-4 1.79-4 4 1.79 4 4 4zm-8.633-78.725c-3.314 0-6-2.686-6-6 0-3.313 2.686-6 6-6s6 2.687 6 6c0 3.314-2.686 6-6 6zm0-2c2.21 0 4-1.79 4-4s-1.79-4-4-4-4 1.79-4 4 1.79 4 4 4zm.555-27.793c-3.314 0-6-2.687-6-6 0-3.314 2.686-6 6-6 3.313 0 6 2.686 6 6 0 3.313-2.687 6-6 6zm0-2c2.21 0 4-1.79 4-4s-1.79-4-4-4-4 1.79-4 4 1.79 4 4 4zm-8.784-63.067c-3.314 0-6-2.687-6-6 0-3.314 2.686-6 6-6s6 2.686 6 6c0 3.313-2.686 6-6 6zm0-2c2.21 0 4-1.79 4-4s-1.79-4-4-4-4 1.79-4 4 1.79 4 4 4zm8.096-80.625c-3.313 0-6-2.687-6-6 0-3.314 2.687-6 6-6 3.314 0 6 2.686 6 6 0 3.313-2.686 6-6 6zm0-2c2.21 0 4-1.79 4-4s-1.79-4-4-4-4 1.79-4 4 1.79 4 4 4zm-66.326 1130.238c-3.313 0-6-2.687-6-6 0-3.314 2.687-6 6-6 3.314 0 6 2.686 6 6 0 3.313-2.686 6-6 6zm0-2c2.21 0 4-1.79 4-4s-1.79-4-4-4-4 1.79-4 4 1.79 4 4 4zm25.744-31.832c-3.314 0-6-2.686-6-6s2.686-6 6-6 6 2.686 6 6-2.686 6-6 6zm0-2c2.21 0 4-1.79 4-4s-1.79-4-4-4-4 1.79-4 4 1.79 4 4 4zm-7.953-70.777c-3.314 0-6-2.686-6-6 0-3.313 2.686-6 6-6s6 2.687 6 6c0 3.314-2.686 6-6 6zm0-2c2.21 0 4-1.79 4-4s-1.79-4-4-4-4 1.79-4 4 1.79 4 4 4zm2.782-59.482c-3.314 0-6-2.686-6-6s2.686-6 6-6c3.313 0 6 2.686 6 6s-2.687 6-6 6zm0-2c2.21 0 4-1.79 4-4s-1.79-4-4-4-4 1.79-4 4 1.79 4 4 4zm-14.163-58.133c-3.314 0-6-2.686-6-6s2.686-6 6-6 6 2.686 6 6-2.686 6-6 6zm0-2c2.21 0 4-1.79 4-4s-1.79-4-4-4-4 1.79-4 4 1.79 4 4 4zm5.97-48.654c-3.314 0-6-2.686-6-6 0-3.313 2.686-6 6-6 3.313 0 6 2.687 6 6 0 3.314-2.687 6-6 6zm0-2c2.21 0 4-1.79 4-4s-1.79-4-4-4-4 1.79-4 4 1.79 4 4 4zm9.834-40.648c-3.314 0-6-2.686-6-6s2.686-6 6-6c3.313 0 6 2.686 6 6s-2.687 6-6 6zm0-2c2.21 0 4-1.79 4-4s-1.79-4-4-4-4 1.79-4 4 1.79 4 4 4zm3.832-66.446c-3.314 0-6-2.687-6-6 0-3.314 2.686-6 6-6 3.313 0 6 2.686 6 6 0 3.313-2.687 6-6 6zm0-2c2.21 0 4-1.79 4-4s-1.79-4-4-4-4 1.79-4 4 1.79 4 4 4zm1.827-81.818c-3.314 0-6-2.687-6-6 0-3.314 2.686-6 6-6s6 2.686 6 6c0 3.313-2.686 6-6 6zm0-2c2.21 0 4-1.79 4-4s-1.79-4-4-4-4 1.79-4 4 1.79 4 4 4zm-29.456-31.824c-3.313 0-6-2.687-6-6 0-3.314 2.687-6 6-6 3.315 0 6 2.686 6 6 0 3.313-2.685 6-6 6zm0-2c2.21 0 4-1.79 4-4s-1.79-4-4-4c-2.208 0-4 1.79-4 4s1.792 4 4 4zm23.62-68c-3.313 0-6-2.688-6-6 0-3.315 2.687-6 6-6 3.314 0 6 2.685 6 6 0 3.312-2.686 6-6 6zm0-2c2.21 0 4-1.792 4-4 0-2.21-1.79-4-4-4-2.208 0-4 1.79-4 4 0 2.208 1.792 4 4 4zm.328-59.72c-3.313 0-6-2.687-6-6 0-3.314 2.687-6 6-6 3.314 0 6 2.686 6 6 0 3.313-2.686 6-6 6zm0-2c2.21 0 4-1.79 4-4s-1.79-4-4-4-4 1.79-4 4 1.79 4 4 4zm-21.34-57.48c-3.313 0-6-2.687-6-6 0-3.314 2.687-6 6-6 3.314 0 6 2.686 6 6 0 3.313-2.686 6-6 6zm0-2c2.21 0 4-1.792 4-4 0-2.21-1.79-4-4-4s-4 1.79-4 4c0 2.208 1.79 4 4 4zm3.71-65.855c-3.314 0-6-2.686-6-6s2.686-6 6-6c3.313 0 6 2.686 6 6s-2.687 6-6 6zm0-2c2.21 0 4-1.79 4-4s-1.79-4-4-4-4 1.79-4 4 1.79 4 4 4zm18.153-68.24c-3.313 0-6-2.685-6-6 0-3.313 2.687-6 6-6 3.315 0 6 2.687 6 6 0 3.315-2.685 6-6 6zm0-2c2.21 0 4-1.79 4-4 0-2.208-1.79-4-4-4-2.208 0-4 1.792-4 4 0 2.21 1.792 4 4 4zm-24.246-37.136c-3.313 0-6-2.686-6-6 0-3.313 2.687-6 6-6 3.314 0 6 2.687 6 6 0 3.314-2.686 6-6 6zm0-2c2.21 0 4-1.79 4-4 0-2.208-1.79-4-4-4s-4 1.792-4 4c0 2.21 1.79 4 4 4zm15.84-78.722c-3.312 0-6-2.686-6-6 0-3.313 2.688-6 6-6 3.315 0 6 2.687 6 6 0 3.314-2.685 6-6 6zm0-2c2.21 0 4-1.79 4-4s-1.79-4-4-4c-2.208 0-4 1.79-4 4s1.792 4 4 4zm-13.587-45.94c-3.314 0-6-2.688-6-6 0-3.315 2.686-6 6-6s6 2.685 6 6c0 3.312-2.686 6-6 6zm0-2c2.21 0 4-1.792 4-4 0-2.21-1.79-4-4-4s-4 1.79-4 4c0 2.208 1.79 4 4 4zm1.085-69.732c-3.314 0-6-2.686-6-6s2.686-6 6-6c3.313 0 6 2.686 6 6s-2.687 6-6 6zm0-2c2.21 0 4-1.79 4-4s-1.79-4-4-4-4 1.79-4 4 1.79 4 4 4zm6.123-46.097c-3.314 0-6-2.688-6-6 0-3.315 2.686-6 6-6s6 2.685 6 6c0 3.312-2.686 6-6 6zm0-2c2.21 0 4-1.792 4-4 0-2.21-1.79-4-4-4s-4 1.79-4 4c0 2.208 1.79 4 4 4zm-34.247 1127.25c-3.313 0-6-2.686-6-6s2.687-6 6-6c3.314 0 6 2.686 6 6s-2.686 6-6 6zm0-2c2.21 0 4-1.79 4-4s-1.79-4-4-4-4 1.79-4 4 1.79 4 4 4zm-.77-57.678c-3.314 0-6-2.686-6-6s2.686-6 6-6c3.313 0 6 2.686 6 6s-2.687 6-6 6zm0-2c2.208 0 4-1.79 4-4s-1.792-4-4-4c-2.21 0-4 1.79-4 4s1.79 4 4 4zm-2.357-40.916c-3.312 0-6-2.686-6-6 0-3.313 2.688-6 6-6 3.315 0 6 2.687 6 6 0 3.314-2.685 6-6 6zm0-2c2.21 0 4-1.79 4-4s-1.79-4-4-4c-2.208 0-4 1.79-4 4s1.792 4 4 4zm-19.413-65.076c-3.314 0-6-2.687-6-6 0-3.314 2.686-6 6-6 3.313 0 6 2.686 6 6 0 3.313-2.687 6-6 6zm0-2c2.21 0 4-1.79 4-4s-1.79-4-4-4-4 1.79-4 4 1.79 4 4 4zm3.388-62.098c-3.314 0-6-2.687-6-6 0-3.314 2.686-6 6-6s6 2.686 6 6c0 3.313-2.686 6-6 6zm0-2c2.21 0 4-1.79 4-4s-1.79-4-4-4-4 1.79-4 4 1.79 4 4 4zm10.86-54.332c-3.313 0-6-2.686-6-6s2.687-6 6-6c3.314 0 6 2.686 6 6s-2.686 6-6 6zm0-2c2.21 0 4-1.79 4-4s-1.79-4-4-4c-2.208 0-4 1.79-4 4s1.792 4 4 4zm5.635-59.898c-3.313 0-6-2.686-6-6s2.687-6 6-6c3.314 0 6 2.686 6 6s-2.686 6-6 6zm0-2c2.21 0 4-1.79 4-4s-1.79-4-4-4-4 1.79-4 4 1.79 4 4 4zm-6.8-44.095c-3.313 0-6-2.687-6-6 0-3.314 2.687-6 6-6 3.314 0 6 2.686 6 6 0 3.313-2.686 6-6 6zm0-2c2.21 0 4-1.79 4-4s-1.79-4-4-4-4 1.79-4 4 1.79 4 4 4zm6.913-80.618c-3.314 0-6-2.687-6-6 0-3.314 2.686-6 6-6s6 2.686 6 6c0 3.313-2.686 6-6 6zm0-2c2.21 0 4-1.79 4-4s-1.79-4-4-4-4 1.79-4 4 1.79 4 4 4zm-14.273-25.303c-3.313 0-6-2.686-6-6s2.687-6 6-6c3.314 0 6 2.686 6 6s-2.686 6-6 6zm0-2c2.21 0 4-1.79 4-4s-1.79-4-4-4-4 1.79-4 4 1.79 4 4 4zm11.825-51.416c-3.314 0-6-2.686-6-6 0-3.313 2.686-6 6-6 3.313 0 6 2.687 6 6 0 3.314-2.687 6-6 6zm0-2c2.21 0 4-1.79 4-4 0-2.208-1.79-4-4-4s-4 1.792-4 4c0 2.21 1.79 4 4 4zm-6.663-66.934c-3.314 0-6-2.686-6-6s2.686-6 6-6 6 2.686 6 6-2.686 6-6 6zm0-2c2.21 0 4-1.79 4-4s-1.79-4-4-4-4 1.79-4 4 1.79 4 4 4zM233.5 459.96c-3.314 0-6-2.685-6-6 0-3.312 2.686-6 6-6s6 2.688 6 6c0 3.315-2.686 6-6 6zm0-2c2.21 0 4-1.79 4-4 0-2.208-1.79-4-4-4s-4 1.792-4 4c0 2.21 1.79 4 4 4zm-26.85-82.35c-3.313 0-6-2.687-6-6 0-3.315 2.687-6 6-6 3.314 0 6 2.685 6 6 0 3.313-2.686 6-6 6zm0-2c2.21 0 4-1.792 4-4 0-2.21-1.79-4-4-4-2.208 0-4 1.79-4 4 0 2.208 1.792 4 4 4zm23-60.474c-3.313 0-6-2.686-6-6 0-3.313 2.687-6 6-6 3.315 0 6 2.687 6 6 0 3.314-2.685 6-6 6zm0-2c2.21 0 4-1.79 4-4s-1.79-4-4-4c-2.208 0-4 1.79-4 4s1.792 4 4 4zm-21.608-53.404c-3.314 0-6-2.687-6-6 0-3.314 2.686-6 6-6 3.313 0 6 2.686 6 6 0 3.313-2.687 6-6 6zm0-2c2.21 0 4-1.79 4-4s-1.79-4-4-4-4 1.79-4 4 1.79 4 4 4zm-.287-28.1c-3.314 0-6-2.688-6-6 0-3.315 2.686-6 6-6s6 2.685 6 6c0 3.312-2.686 6-6 6zm0-2c2.21 0 4-1.792 4-4 0-2.21-1.79-4-4-4s-4 1.79-4 4c0 2.208 1.79 4 4 4zm15.38-91.25c-3.313 0-6-2.686-6-6 0-3.313 2.687-6 6-6 3.314 0 6 2.687 6 6 0 3.314-2.686 6-6 6zm0-2c2.21 0 4-1.79 4-4s-1.79-4-4-4c-2.208 0-4 1.79-4 4s1.792 4 4 4zm-7.36-56.793c-3.313 0-6-2.687-6-6 0-3.314 2.687-6 6-6 3.314 0 6 2.686 6 6 0 3.313-2.686 6-6 6zm0-2c2.21 0 4-1.792 4-4 0-2.21-1.79-4-4-4-2.208 0-4 1.79-4 4 0 2.208 1.792 4 4 4zm-8.63-25.55c-3.312 0-6-2.687-6-6 0-3.315 2.688-6 6-6 3.315 0 6 2.685 6 6 0 3.313-2.685 6-6 6zm0-2c2.21 0 4-1.792 4-4 0-2.21-1.79-4-4-4-2.208 0-4 1.79-4 4 0 2.208 1.792 4 4 4zm-34.66 1117.228c-3.314 0-6-2.687-6-6 0-3.314 2.686-6 6-6 3.313 0 6 2.686 6 6 0 3.313-2.687 6-6 6zm0-2c2.21 0 4-1.79 4-4s-1.79-4-4-4-4 1.79-4 4 1.79 4 4 4zm3.91-60.432c-3.315 0-6-2.686-6-6 0-3.313 2.685-6 6-6 3.313 0 6 2.687 6 6 0 3.314-2.687 6-6 6zm0-2c2.208 0 4-1.79 4-4s-1.792-4-4-4c-2.21 0-4 1.79-4 4s1.79 4 4 4zm-9.91-61.857c-3.314 0-6-2.688-6-6 0-3.315 2.686-6 6-6 3.313 0 6 2.685 6 6 0 3.312-2.687 6-6 6zm0-2c2.21 0 4-1.792 4-4 0-2.21-1.79-4-4-4s-4 1.79-4 4c0 2.208 1.79 4 4 4zm9.488-57.225c-3.313 0-6-2.687-6-6 0-3.314 2.687-6 6-6 3.314 0 6 2.686 6 6 0 3.313-2.686 6-6 6zm0-2c2.21 0 4-1.79 4-4s-1.79-4-4-4-4 1.79-4 4 1.79 4 4 4zm7.298-26.333c-3.313 0-6-2.686-6-6s2.687-6 6-6c3.315 0 6 2.686 6 6s-2.685 6-6 6zm0-2c2.21 0 4-1.79 4-4s-1.79-4-4-4c-2.208 0-4 1.79-4 4s1.792 4 4 4zm-19.082-56.355c-3.313 0-6-2.686-6-6s2.687-6 6-6c3.314 0 6 2.686 6 6s-2.686 6-6 6zm0-2c2.21 0 4-1.79 4-4s-1.79-4-4-4-4 1.79-4 4 1.79 4 4 4zm17.662-82.422c-3.314 0-6-2.687-6-6 0-3.314 2.686-6 6-6 3.313 0 6 2.686 6 6 0 3.313-2.687 6-6 6zm0-2c2.21 0 4-1.79 4-4s-1.79-4-4-4-4 1.79-4 4 1.79 4 4 4zm-22.234-45.252c-3.313 0-6-2.686-6-6s2.687-6 6-6c3.314 0 6 2.686 6 6s-2.686 6-6 6zm0-2c2.21 0 4-1.79 4-4s-1.79-4-4-4-4 1.79-4 4 1.79 4 4 4zm25.042-62.778c-3.314 0-6-2.686-6-6s2.686-6 6-6 6 2.686 6 6-2.686 6-6 6zm0-2c2.21 0 4-1.79 4-4s-1.79-4-4-4-4 1.79-4 4 1.79 4 4 4zm-17.08-75.213c-3.315 0-6-2.686-6-6s2.685-6 6-6c3.312 0 6 2.686 6 6s-2.688 6-6 6zm0-2c2.208 0 4-1.79 4-4s-1.792-4-4-4c-2.21 0-4 1.79-4 4s1.79 4 4 4zm1.983-54.06c-3.312 0-6-2.686-6-6 0-3.313 2.688-6 6-6 3.315 0 6 2.687 6 6 0 3.314-2.685 6-6 6zm0-2c2.21 0 4-1.79 4-4s-1.79-4-4-4c-2.208 0-4 1.79-4 4s1.792 4 4 4zm-5.942-56.81c-3.314 0-6-2.686-6-6s2.686-6 6-6 6 2.686 6 6-2.686 6-6 6zm0-2c2.21 0 4-1.79 4-4s-1.79-4-4-4-4 1.79-4 4 1.79 4 4 4zm-.5-55.93c-3.315 0-6-2.686-6-6 0-3.313 2.685-6 6-6 3.312 0 6 2.687 6 6 0 3.314-2.688 6-6 6zm0-2c2.208 0 4-1.79 4-4s-1.792-4-4-4c-2.21 0-4 1.79-4 4s1.79 4 4 4zm-1.378-69.158c-3.314 0-6-2.686-6-6 0-3.313 2.686-6 6-6s6 2.687 6 6c0 3.314-2.686 6-6 6zm0-2c2.21 0 4-1.79 4-4s-1.79-4-4-4-4 1.79-4 4 1.79 4 4 4zm17.77-39.505c-3.314 0-6-2.687-6-6 0-3.315 2.686-6 6-6s6 2.685 6 6c0 3.313-2.686 6-6 6zm0-2c2.21 0 4-1.792 4-4 0-2.21-1.79-4-4-4s-4 1.79-4 4c0 2.208 1.79 4 4 4zm-2.686-48.462c-3.313 0-6-2.686-6-6 0-3.313 2.687-6 6-6 3.314 0 6 2.687 6 6 0 3.314-2.686 6-6 6zm0-2c2.21 0 4-1.79 4-4s-1.79-4-4-4-4 1.79-4 4 1.79 4 4 4zm-8.1-71.296c-3.313 0-6-2.686-6-6 0-3.313 2.687-6 6-6 3.314 0 6 2.687 6 6 0 3.314-2.686 6-6 6zm0-2c2.21 0 4-1.79 4-4s-1.79-4-4-4c-2.208 0-4 1.79-4 4s1.792 4 4 4zm-9.41-53.76c-3.314 0-6-2.687-6-6 0-3.314 2.686-6 6-6 3.313 0 6 2.686 6 6 0 3.313-2.687 6-6 6zm0-2c2.208 0 4-1.79 4-4s-1.792-4-4-4c-2.21 0-4 1.79-4 4s1.79 4 4 4zM164.8 79.94c-3.314 0-6-2.686-6-6s2.686-6 6-6 6 2.686 6 6-2.686 6-6 6zm0-2c2.21 0 4-1.79 4-4s-1.79-4-4-4-4 1.79-4 4 1.79 4 4 4zm-3.682-43.245c-3.314 0-6-2.686-6-6 0-3.313 2.686-6 6-6s6 2.687 6 6c0 3.314-2.686 6-6 6zm0-2c2.21 0 4-1.79 4-4s-1.79-4-4-4-4 1.79-4 4 1.79 4 4 4zm-28.42 1153.88c-3.313 0-6-2.686-6-6s2.687-6 6-6c3.314 0 6 2.686 6 6s-2.686 6-6 6zm0-2c2.21 0 4-1.79 4-4s-1.79-4-4-4-4 1.79-4 4 1.79 4 4 4zm-25.973-60.628c-3.314 0-6-2.686-6-6s2.686-6 6-6c3.313 0 6 2.686 6 6s-2.687 6-6 6zm0-2c2.21 0 4-1.79 4-4s-1.79-4-4-4-4 1.79-4 4 1.79 4 4 4zm16.078-63.87c-3.314 0-6-2.687-6-6 0-3.314 2.686-6 6-6s6 2.686 6 6c0 3.313-2.686 6-6 6zm0-2c2.21 0 4-1.792 4-4 0-2.21-1.79-4-4-4s-4 1.79-4 4c0 2.208 1.79 4 4 4zm-13.71-58.568c-3.313 0-6-2.687-6-6 0-3.314 2.687-6 6-6 3.315 0 6 2.686 6 6 0 3.313-2.685 6-6 6zm0-2c2.21 0 4-1.79 4-4s-1.79-4-4-4c-2.208 0-4 1.79-4 4s1.792 4 4 4zm18.964-71.612c-3.315 0-6-2.686-6-6 0-3.313 2.685-6 6-6 3.312 0 6 2.687 6 6 0 3.314-2.688 6-6 6zm0-2c2.208 0 4-1.79 4-4s-1.792-4-4-4c-2.21 0-4 1.79-4 4s1.79 4 4 4zM117 875.16c-3.314 0-6-2.685-6-6 0-3.313 2.686-6 6-6 3.313 0 6 2.687 6 6 0 3.315-2.687 6-6 6zm0-2c2.21 0 4-1.79 4-4 0-2.208-1.79-4-4-4s-4 1.792-4 4c0 2.21 1.79 4 4 4zm4.697-43.76c-3.314 0-6-2.687-6-6 0-3.314 2.686-6 6-6 3.313 0 6 2.686 6 6 0 3.313-2.687 6-6 6zm0-2c2.208 0 4-1.79 4-4s-1.792-4-4-4c-2.21 0-4 1.79-4 4s1.79 4 4 4zm7.35-62.327c-3.315 0-6-2.686-6-6s2.685-6 6-6c3.312 0 6 2.686 6 6s-2.688 6-6 6zm0-2c2.208 0 4-1.79 4-4s-1.792-4-4-4c-2.21 0-4 1.79-4 4s1.79 4 4 4zm-10.45-80.05c-3.314 0-6-2.686-6-6 0-3.313 2.686-6 6-6 3.313 0 6 2.687 6 6 0 3.314-2.687 6-6 6zm0-2c2.21 0 4-1.79 4-4s-1.79-4-4-4-4 1.79-4 4 1.79 4 4 4zm-8.972-58.37c-3.314 0-6-2.687-6-6 0-3.315 2.686-6 6-6s6 2.685 6 6c0 3.313-2.686 6-6 6zm0-2c2.21 0 4-1.792 4-4 0-2.21-1.79-4-4-4s-4 1.79-4 4c0 2.208 1.79 4 4 4zm12.568-58.04c-3.314 0-6-2.688-6-6 0-3.315 2.686-6 6-6s6 2.685 6 6c0 3.312-2.686 6-6 6zm0-2c2.21 0 4-1.792 4-4 0-2.21-1.79-4-4-4s-4 1.79-4 4c0 2.208 1.79 4 4 4zm-14.038-62.142c-3.313 0-6-2.685-6-6 0-3.312 2.687-6 6-6 3.314 0 6 2.688 6 6 0 3.315-2.686 6-6 6zm0-2c2.21 0 4-1.79 4-4 0-2.208-1.79-4-4-4s-4 1.792-4 4c0 2.21 1.79 4 4 4zm11.22-36.92c-3.312 0-6-2.686-6-6s2.688-6 6-6c3.315 0 6 2.686 6 6s-2.685 6-6 6zm0-2c2.21 0 4-1.79 4-4s-1.79-4-4-4c-2.208 0-4 1.79-4 4s1.792 4 4 4zm-11.425-67.658c-3.314 0-6-2.686-6-6s2.686-6 6-6c3.313 0 6 2.686 6 6s-2.687 6-6 6zm0-2c2.21 0 4-1.79 4-4s-1.79-4-4-4-4 1.79-4 4 1.79 4 4 4zm26.687-48.977c-3.314 0-6-2.686-6-6 0-3.313 2.686-6 6-6 3.313 0 6 2.687 6 6 0 3.314-2.687 6-6 6zm0-2c2.21 0 4-1.79 4-4s-1.79-4-4-4-4 1.79-4 4 1.79 4 4 4zm-2.035-48.097c-3.313 0-6-2.687-6-6 0-3.314 2.687-6 6-6 3.314 0 6 2.686 6 6 0 3.313-2.686 6-6 6zm0-2c2.21 0 4-1.79 4-4s-1.79-4-4-4-4 1.79-4 4 1.79 4 4 4zm-1.102-82.434c-3.314 0-6-2.687-6-6 0-3.314 2.686-6 6-6s6 2.686 6 6c0 3.313-2.686 6-6 6zm0-2c2.21 0 4-1.79 4-4s-1.79-4-4-4-4 1.79-4 4 1.79 4 4 4zm.172-37.174c-3.313 0-6-2.686-6-6s2.687-6 6-6c3.314 0 6 2.686 6 6s-2.686 6-6 6zm0-2c2.21 0 4-1.79 4-4s-1.79-4-4-4-4 1.79-4 4 1.79 4 4 4zm-9.29-69.683c-3.313 0-6-2.686-6-6 0-3.313 2.687-6 6-6 3.314 0 6 2.687 6 6 0 3.314-2.686 6-6 6zm0-2c2.21 0 4-1.79 4-4s-1.79-4-4-4-4 1.79-4 4 1.79 4 4 4zm.14-51.146c-3.314 0-6-2.686-6-6 0-3.313 2.686-6 6-6 3.313 0 6 2.687 6 6 0 3.314-2.687 6-6 6zm0-2c2.21 0 4-1.79 4-4s-1.79-4-4-4-4 1.79-4 4 1.79 4 4 4zm-56.81 1127.98c-3.314 0-6-2.688-6-6 0-3.315 2.686-6 6-6s6 2.685 6 6c0 3.312-2.686 6-6 6zm0-2c2.21 0 4-1.792 4-4 0-2.21-1.79-4-4-4s-4 1.79-4 4c0 2.208 1.79 4 4 4zm4.083-44.538c-3.314 0-6-2.686-6-6s2.686-6 6-6 6 2.686 6 6-2.686 6-6 6zm0-2c2.21 0 4-1.79 4-4s-1.79-4-4-4-4 1.79-4 4 1.79 4 4 4zm-10.604-72.144c-3.313 0-6-2.686-6-6s2.687-6 6-6c3.314 0 6 2.686 6 6s-2.686 6-6 6zm0-2c2.21 0 4-1.79 4-4s-1.79-4-4-4-4 1.79-4 4 1.79 4 4 4zm17.798-38.77c-3.313 0-6-2.687-6-6 0-3.314 2.687-6 6-6 3.314 0 6 2.686 6 6 0 3.313-2.686 6-6 6zm0-2c2.21 0 4-1.79 4-4s-1.79-4-4-4-4 1.79-4 4 1.79 4 4 4zM59.37 915.205c-3.314 0-6-2.687-6-6 0-3.314 2.686-6 6-6 3.313 0 6 2.686 6 6 0 3.313-2.687 6-6 6zm0-2c2.21 0 4-1.79 4-4s-1.79-4-4-4-4 1.79-4 4 1.79 4 4 4zm5.906-59.314c-3.314 0-6-2.686-6-6 0-3.313 2.686-6 6-6 3.313 0 6 2.687 6 6 0 3.314-2.687 6-6 6zm0-2c2.21 0 4-1.79 4-4 0-2.208-1.79-4-4-4s-4 1.792-4 4c0 2.21 1.79 4 4 4zm-8.752-50.954c-3.314 0-6-2.686-6-6 0-3.313 2.686-6 6-6s6 2.687 6 6c0 3.314-2.686 6-6 6zm0-2c2.21 0 4-1.79 4-4s-1.79-4-4-4-4 1.79-4 4 1.79 4 4 4zm19.727-49.66c-3.313 0-6-2.686-6-6s2.687-6 6-6c3.315 0 6 2.686 6 6s-2.685 6-6 6zm0-2c2.21 0 4-1.79 4-4s-1.79-4-4-4c-2.208 0-4 1.79-4 4s1.792 4 4 4zm-2.705-39.256c-3.313 0-6-2.686-6-6 0-3.313 2.687-6 6-6 3.314 0 6 2.687 6 6 0 3.314-2.686 6-6 6zm0-2c2.21 0 4-1.79 4-4s-1.79-4-4-4-4 1.79-4 4 1.79 4 4 4zm2.82-76.89c-3.314 0-6-2.687-6-6 0-3.314 2.686-6 6-6 3.313 0 6 2.686 6 6 0 3.313-2.687 6-6 6zm0-2c2.21 0 4-1.79 4-4s-1.79-4-4-4-4 1.79-4 4 1.79 4 4 4zm-20.268-72.482c-3.314 0-6-2.686-6-6s2.686-6 6-6c3.313 0 6 2.686 6 6s-2.687 6-6 6zm0-2c2.21 0 4-1.79 4-4s-1.79-4-4-4-4 1.79-4 4 1.79 4 4 4zm8.124-34.444c-3.313 0-6-2.686-6-6s2.687-6 6-6c3.314 0 6 2.686 6 6s-2.686 6-6 6zm0-2c2.21 0 4-1.79 4-4s-1.79-4-4-4c-2.208 0-4 1.79-4 4s1.792 4 4 4zm-7.82-72.052c-3.313 0-6-2.686-6-6s2.687-6 6-6c3.315 0 6 2.686 6 6s-2.685 6-6 6zm0-2c2.21 0 4-1.79 4-4s-1.79-4-4-4c-2.208 0-4 1.79-4 4s1.792 4 4 4zm5.116-64.316c-3.314 0-6-2.687-6-6 0-3.314 2.686-6 6-6 3.313 0 6 2.686 6 6 0 3.313-2.687 6-6 6zm0-2c2.21 0 4-1.79 4-4s-1.79-4-4-4-4 1.79-4 4 1.79 4 4 4zm9.36-43.538c-3.314 0-6-2.687-6-6 0-3.314 2.686-6 6-6 3.313 0 6 2.686 6 6 0 3.313-2.687 6-6 6zm0-2c2.21 0 4-1.79 4-4s-1.79-4-4-4-4 1.79-4 4 1.79 4 4 4zm-3.39-73.852c-3.312 0-6-2.686-6-6s2.688-6 6-6c3.315 0 6 2.686 6 6s-2.685 6-6 6zm0-2c2.21 0 4-1.79 4-4s-1.79-4-4-4c-2.208 0-4 1.79-4 4s1.792 4 4 4zm6.906-30.763c-3.314 0-6-2.686-6-6s2.686-6 6-6 6 2.686 6 6-2.686 6-6 6zm0-2c2.21 0 4-1.79 4-4s-1.79-4-4-4-4 1.79-4 4 1.79 4 4 4zm-1.3-85.632c-3.313 0-6-2.685-6-6 0-3.312 2.687-6 6-6 3.314 0 6 2.688 6 6 0 3.315-2.686 6-6 6zm0-2c2.21 0 4-1.79 4-4 0-2.208-1.79-4-4-4s-4 1.792-4 4c0 2.21 1.79 4 4 4zM74.62 80.1c-3.315 0-6-2.685-6-6 0-3.312 2.685-6 6-6 3.313 0 6 2.688 6 6 0 3.315-2.687 6-6 6zm0-2c2.208 0 4-1.79 4-4 0-2.208-1.792-4-4-4-2.21 0-4 1.792-4 4 0 2.21 1.79 4 4 4zm-9.247-34.657c-3.313 0-6-2.686-6-6 0-3.313 2.687-6 6-6 3.314 0 6 2.687 6 6 0 3.314-2.686 6-6 6zm0-2c2.21 0 4-1.79 4-4s-1.79-4-4-4-4 1.79-4 4 1.79 4 4 4zM27.19 1188.1c-3.315 0-6-2.687-6-6 0-3.314 2.685-6 6-6 3.313 0 6 2.686 6 6 0 3.313-2.687 6-6 6zm0-2c2.208 0 4-1.792 4-4 0-2.21-1.792-4-4-4-2.21 0-4 1.79-4 4 0 2.208 1.79 4 4 4zm-13.743-80.247c-3.314 0-6-2.686-6-6s2.686-6 6-6c3.313 0 6 2.686 6 6s-2.687 6-6 6zm0-2c2.21 0 4-1.79 4-4s-1.79-4-4-4-4 1.79-4 4 1.79 4 4 4zm-1.168-35.51c-3.315 0-6-2.687-6-6 0-3.315 2.685-6 6-6 3.313 0 6 2.685 6 6 0 3.313-2.687 6-6 6zm0-2c2.208 0 4-1.792 4-4 0-2.21-1.792-4-4-4-2.21 0-4 1.79-4 4 0 2.208 1.79 4 4 4zm1.925-89.47c-3.314 0-6-2.686-6-6s2.686-6 6-6 6 2.686 6 6-2.686 6-6 6zm0-2c2.21 0 4-1.79 4-4s-1.79-4-4-4-4 1.79-4 4 1.79 4 4 4zm6.266-36.338c-3.313 0-6-2.686-6-6s2.687-6 6-6c3.315 0 6 2.686 6 6s-2.685 6-6 6zm0-2c2.21 0 4-1.79 4-4s-1.79-4-4-4c-2.208 0-4 1.79-4 4s1.792 4 4 4zm10.295-45.13c-3.313 0-6-2.685-6-6 0-3.313 2.687-6 6-6 3.314 0 6 2.687 6 6 0 3.315-2.686 6-6 6zm0-2c2.21 0 4-1.79 4-4 0-2.208-1.79-4-4-4s-4 1.792-4 4c0 2.21 1.79 4 4 4zm-12.642-62.553c-3.313 0-6-2.686-6-6 0-3.313 2.687-6 6-6 3.314 0 6 2.687 6 6 0 3.314-2.686 6-6 6zm0-2c2.21 0 4-1.79 4-4s-1.79-4-4-4-4 1.79-4 4 1.79 4 4 4zM33.12 738.85c-3.315 0-6-2.686-6-6s2.685-6 6-6c3.312 0 6 2.686 6 6s-2.688 6-6 6zm0-2c2.208 0 4-1.79 4-4s-1.792-4-4-4c-2.21 0-4 1.79-4 4s1.79 4 4 4zm-11.134-54.474c-3.314 0-6-2.686-6-6 0-3.313 2.686-6 6-6s6 2.687 6 6c0 3.314-2.686 6-6 6zm0-2c2.21 0 4-1.79 4-4s-1.79-4-4-4-4 1.79-4 4 1.79 4 4 4zm-.69-31.078c-3.315 0-6-2.686-6-6s2.685-6 6-6c3.313 0 6 2.686 6 6s-2.687 6-6 6zm0-2c2.208 0 4-1.79 4-4s-1.792-4-4-4c-2.21 0-4 1.79-4 4s1.79 4 4 4zm-11.155-58.55c-3.313 0-6-2.687-6-6 0-3.315 2.687-6 6-6 3.315 0 6 2.685 6 6 0 3.313-2.685 6-6 6zm0-2c2.21 0 4-1.792 4-4 0-2.21-1.79-4-4-4-2.208 0-4 1.79-4 4 0 2.208 1.792 4 4 4zm10.42-93.87c-3.314 0-6-2.686-6-6 0-3.313 2.686-6 6-6 3.313 0 6 2.687 6 6 0 3.314-2.687 6-6 6zm0-2c2.208 0 4-1.79 4-4s-1.792-4-4-4c-2.21 0-4 1.79-4 4s1.79 4 4 4zM7.887 445.84c-3.313 0-6-2.687-6-6 0-3.314 2.687-6 6-6 3.314 0 6 2.686 6 6 0 3.313-2.686 6-6 6zm0-2c2.21 0 4-1.79 4-4s-1.79-4-4-4-4 1.79-4 4 1.79 4 4 4zm1.608-59.49c-3.314 0-6-2.685-6-6 0-3.312 2.686-6 6-6 3.313 0 6 2.688 6 6 0 3.315-2.687 6-6 6zm0-2c2.21 0 4-1.79 4-4 0-2.208-1.79-4-4-4s-4 1.792-4 4c0 2.21 1.79 4 4 4zm6.756-59.896c-3.314 0-6-2.686-6-6 0-3.313 2.686-6 6-6 3.313 0 6 2.687 6 6 0 3.314-2.687 6-6 6zm0-2c2.21 0 4-1.79 4-4s-1.79-4-4-4-4 1.79-4 4 1.79 4 4 4zm12.754-36.476c-3.314 0-6-2.687-6-6 0-3.314 2.686-6 6-6s6 2.686 6 6c0 3.313-2.686 6-6 6zm0-2c2.21 0 4-1.79 4-4s-1.79-4-4-4-4 1.79-4 4 1.79 4 4 4zm2.767-77.873c-3.314 0-6-2.686-6-6s2.686-6 6-6c3.313 0 6 2.686 6 6s-2.687 6-6 6zm0-2c2.21 0 4-1.79 4-4s-1.79-4-4-4-4 1.79-4 4 1.79 4 4 4zm-7.167-34.035c-3.314 0-6-2.686-6-6 0-3.313 2.686-6 6-6s6 2.687 6 6c0 3.314-2.686 6-6 6zm0-2c2.21 0 4-1.79 4-4s-1.79-4-4-4-4 1.79-4 4 1.79 4 4 4zM6.1 96.97c-3.314 0-6-2.687-6-6 0-3.314 2.686-6 6-6 3.313 0 6 2.686 6 6 0 3.313-2.687 6-6 6zm0-2c2.21 0 4-1.79 4-4s-1.79-4-4-4-4 1.79-4 4 1.79 4 4 4zm21.796-71.882c-3.313 0-6-2.686-6-6 0-3.313 2.687-6 6-6 3.314 0 6 2.687 6 6 0 3.314-2.686 6-6 6zm0-2c2.21 0 4-1.79 4-4s-1.79-4-4-4-4 1.79-4 4 1.79 4 4 4z" fill="#F5D547" fill-rule="evenodd"/>
</svg>
