<svg xmlns="http://www.w3.org/2000/svg" width="20" height="15">
  <path fill="#FFF" d="M10.938 7.438h2.187c0 .845-.34 1.653-.946 2.242-.606.588-1.424.907-2.267.883-1.65-.062-2.975-1.386-3.038-3.037-.024-.844.295-1.66.884-2.266.587-.606 1.396-.947 2.24-.947V6.5c0 .52.42.938.938.938zm8.94-.36l.122.36c-1.48 4.94-5.744 7.438-10 7.438-4.49.062-8.494-2.808-9.878-7.078L0 7.438C1.48 2.498 5.744 0 10 0c4.49-.06 8.494 2.81 9.878 7.08zm-2.525.36C15.91 3.81 12.647 2.5 10 2.5c-2.647 0-5.938 1.31-7.353 4.938 1.444 3.63 4.706 4.938 7.353 4.938 2.647 0 5.938-1.31 7.353-4.938z"/>
</svg>
