<svg xmlns="http://www.w3.org/2000/svg" width="19" height="17">
  <path fill="#FFF" d="M11.317 0H6.81C3.53.01.73 2.38.174 5.614c-.556 3.236 1.294 6.403 4.386 7.508v3.07c-.003.29.176.553.45.657.27.104.58.03.774-.19l2.83-3.144h2.703c3.732 0 6.758-3.026 6.758-6.758S15.05 0 11.317 0zM5.685 7.884c-.622 0-1.126-.504-1.126-1.126 0-.622.503-1.126 1.125-1.126s1.126.504 1.126 1.126c0 .622-.503 1.126-1.125 1.126zm3.38 0c-.623 0-1.127-.504-1.127-1.126 0-.622.504-1.126 1.126-1.126.622 0 1.126.504 1.126 1.126 0 .622-.504 1.126-1.126 1.126zm3.378 0c-.622 0-1.126-.504-1.126-1.126 0-.622.504-1.126 1.126-1.126.622 0 1.126.504 1.126 1.126 0 .622-.505 1.126-1.127 1.126z"/>
</svg>
