<svg xmlns="http://www.w3.org/2000/svg" width="79" height="79">
  <defs>
    <radialGradient id="a" cx="51.498%" r="39.666%" fx="51.498%" fy="50%" gradientTransform="matrix(0 1 -1.02194 0 1.026 -.015)">
      <stop offset="0%"/>
      <stop offset="100%" stop-color="#DDD"/>
    </radialGradient>
  </defs>
  <g fill="none">
    <path fill="url(#a)" d="M8.7 13.932c-1.2 1.008-3.003.837-4.025-.38-1.023-1.22-.877-3.023.324-4.032 1.2-1.008 3.003-.838 4.025.38 1.022 1.22.877 3.023-.324 4.032zm65.41 55.49c-1.2 1.007-3.004.837-4.026-.38-1.022-1.22-.877-3.024.324-4.032 1.202-1.01 3.004-.838 4.026.38 1.023 1.218.877 3.023-.324 4.03zm-65.812.436c-1.358.784-3.104.304-3.9-1.074-.794-1.377-.338-3.13 1.02-3.913 1.36-.783 3.104-.302 3.9 1.075.795 1.377.338 3.13-1.02 3.913zm65.304-55.723c-1.358.784-3.104.304-3.9-1.073-.794-1.377-.338-3.13 1.02-3.914 1.36-.784 3.104-.303 3.9 1.074.794 1.377.338 3.13-1.02 3.913zm-40.21-7.37c-1.267 0-2.294-1.04-2.294-2.326 0-1.285 1.027-2.326 2.294-2.326 1.266 0 2.293 1.04 2.293 2.325 0 1.284-1.027 2.325-2.293 2.325zm12.342 70.1c-1.267 0-2.294-1.04-2.294-2.325 0-1.285 1.027-2.326 2.294-2.326 1.267 0 2.293 1.04 2.293 2.326 0 1.284-1.026 2.325-2.293 2.325zm-23.02-66.03c-1.192.434-2.513-.193-2.952-1.4-.44-1.207.17-2.536 1.36-2.97 1.19-.433 2.51.194 2.95 1.4.44 1.208-.17 2.538-1.36 2.97zM57.997 72.5c-1.19.433-2.51-.195-2.95-1.4-.44-1.208.17-2.538 1.36-2.97 1.19-.435 2.51.193 2.95 1.4.44 1.207-.17 2.536-1.36 2.97zM14.115 18.37c-.97.816-2.426.678-3.25-.306-.827-.983-.71-2.44.26-3.255.97-.816 2.427-.678 3.252.306.826.983.71 2.44-.262 3.255zm53.868 45.762c-.97.815-2.426.677-3.252-.307-.824-.983-.707-2.44.263-3.255s2.427-.677 3.252.307c.826.984.71 2.44-.262 3.255zM5.323 29.356c-.438-.22-.657-.553-.875-.996-.328-.665-.328-1.55.11-2.215.654-1.108 2.074-1.55 3.166-.886.328.22.656.553.874.996.328.664.328 1.55-.11 2.214-.654 1.108-2.074 1.55-3.166.886zm68.372 20.156c.437.332.764.664.873.996.328.665.328 1.55-.11 2.215-.654 1.108-2.074 1.55-3.166.886-.328-.222-.656-.555-.874-.998-.328-.664-.328-1.55.11-2.214.655-1.108 2.074-1.55 3.167-.886zM6.703 39.9c-.22 1.247-1.424 2.078-2.688 1.855-1.265-.223-2.112-1.415-1.892-2.663.22-1.247 1.423-2.078 2.688-1.855 1.266.223 2.113 1.415 1.893 2.663zm70.25-.065c-.22 1.247-1.422 2.078-2.687 1.855-1.265-.223-2.112-1.415-1.892-2.663.22-1.247 1.423-2.078 2.688-1.855 1.265.223 2.112 1.415 1.892 2.663zM6.932 54.018c-1.247.22-2.44-.627-2.662-1.892-.223-1.265.607-2.468 1.855-2.688 1.247-.22 2.44.627 2.663 1.89.223 1.266-.608 2.47-1.855 2.69zM72.9 29.546c-1.247.22-2.44-.627-2.663-1.892-.223-1.265.608-2.47 1.855-2.69 1.248-.22 2.44.628 2.663 1.893.223 1.265-.607 2.47-1.855 2.69zM13.824 64.484c-1.097.633-2.507.245-3.15-.868-.642-1.112-.273-2.527.824-3.16 1.097-.634 2.507-.246 3.15.867.64 1.112.273 2.527-.824 3.16zM67.522 18.55c-1.097.634-2.507.246-3.15-.866-.64-1.113-.272-2.528.825-3.16 1.097-.635 2.507-.246 3.15.866.64 1.112.272 2.527-.825 3.16zM23.777 71.83c-.814.97-2.272 1.088-3.256.262-.982-.825-1.12-2.28-.306-3.252.815-.97 2.272-1.087 3.256-.262.984.826 1.12 2.282.307 3.252zm35.112-61.72c-.816.972-2.273 1.09-3.257.264-.984-.826-1.122-2.282-.307-3.252.814-.97 2.272-1.088 3.255-.262.985.825 1.123 2.28.31 3.25zM35.637 75.35c-.434 1.19-1.763 1.8-2.97 1.36-1.207-.44-1.834-1.76-1.4-2.95.432-1.192 1.762-1.8 2.97-1.36 1.206.438 1.833 1.76 1.4 2.95zM47.823 5.173c-.434 1.19-1.763 1.8-2.97 1.36-1.207-.44-1.834-1.76-1.4-2.95.432-1.19 1.762-1.8 2.97-1.36 1.206.44 1.833 1.76 1.4 2.95zm-13.12 8.57c-1.026 0-1.857-.844-1.857-1.884s.83-1.884 1.856-1.884c1.026 0 1.857.843 1.857 1.883s-.832 1.882-1.858 1.882zm9.72 55.26c-1.025 0-1.857-.843-1.857-1.883s.832-1.883 1.857-1.883c1.026 0 1.857.843 1.857 1.883s-.83 1.882-1.857 1.882zM26.28 16.956c-.963.35-2.033-.157-2.388-1.134-.356-.977.137-2.054 1.1-2.404.964-.352 2.034.156 2.39 1.133.355.977-.138 2.053-1.102 2.404zm27.745 48.627c-.964.35-2.033-.157-2.39-1.134-.354-.977.14-2.053 1.102-2.404.964-.35 2.033.157 2.39 1.134.355.977-.138 2.054-1.102 2.404zM19.54 22.908c-.787.66-1.965.548-2.634-.25-.668-.795-.573-1.975.213-2.634.784-.66 1.963-.548 2.63.248.67.797.574 1.977-.21 2.636zm42.45 36.01c-.785.66-1.964.547-2.632-.25-.67-.796-.574-1.976.212-2.635.785-.66 1.964-.548 2.632.25.67.795.574 1.975-.212 2.634zM12.53 31.46c-.327-.11-.546-.442-.764-.775-.328-.553-.328-1.218 0-1.772.546-.886 1.638-1.218 2.512-.664.327.11.655.442.764.774.328.554.328 1.218 0 1.772-.546.886-1.638 1.218-2.512.665zM66.486 47.41c.328.22.546.553.765.775.328.553.328 1.218 0 1.772-.546.886-1.638 1.218-2.512.664-.327-.112-.655-.444-.764-.776-.328-.554-.328-1.218 0-1.772.546-.886 1.638-1.218 2.512-.664zm-52.78-7.59c-.177 1.01-1.152 1.68-2.176 1.5-1.024-.18-1.71-1.145-1.53-2.155.177-1.01 1.15-1.682 2.175-1.5 1.024.18 1.71 1.144 1.532 2.154zm55.372-.054c-.178 1.01-1.152 1.682-2.176 1.502-1.024-.18-1.71-1.146-1.532-2.156.178-1.01 1.153-1.682 2.177-1.5 1.024.18 1.71 1.144 1.53 2.154zM13.85 51.032c-1.01.178-1.974-.508-2.155-1.532-.18-1.024.492-1.998 1.5-2.176 1.01-.178 1.976.507 2.157 1.53.18 1.025-.492 2-1.502 2.178zM65.932 31.64c-1.01.18-1.975-.507-2.156-1.53-.18-1.025.492-2 1.502-2.178 1.01-.178 1.975.508 2.156 1.532.18 1.024-.492 1.998-1.502 2.176zm-46.66 27.593c-.89.513-2.03.198-2.55-.702-.52-.9-.22-2.045.667-2.558.887-.512 2.028-.198 2.548.702.52.9.222 2.046-.667 2.56zm42.36-36.2c-.888.514-2.03.2-2.55-.7-.52-.9-.22-2.047.667-2.56.887-.512 2.028-.198 2.548.702.52.9.222 2.046-.666 2.56zM27.146 65.006c-.66.786-1.84.88-2.636.212s-.908-1.847-.248-2.632c.66-.786 1.84-.88 2.635-.212.797.668.908 1.847.25 2.632zM54.84 16.363c-.658.786-1.838.88-2.634.212-.797-.668-.908-1.847-.25-2.632.66-.786 1.84-.88 2.637-.212.796.67.907 1.848.248 2.633zM36.514 67.746c-.35.964-1.427 1.457-2.405 1.1-.977-.355-1.484-1.424-1.134-2.388.35-.963 1.427-1.456 2.404-1.1.978.355 1.485 1.424 1.135 2.388zm9.602-55.274c-.35.963-1.427 1.456-2.404 1.1-.976-.355-1.484-1.424-1.133-2.388.35-.964 1.427-1.457 2.404-1.1.978.355 1.486 1.424 1.135 2.388zM35.795 19.5c-.785 0-1.42-.644-1.42-1.44 0-.795.635-1.44 1.42-1.44.784 0 1.42.645 1.42 1.44 0 .796-.636 1.44-1.42 1.44zm7.536 42.858c-.783 0-1.42-.645-1.42-1.44 0-.795.637-1.44 1.42-1.44.785 0 1.42.645 1.42 1.44 0 .795-.635 1.44-1.42 1.44zM29.28 21.954c-.736.268-1.554-.12-1.826-.868-.272-.747.105-1.57.842-1.838s1.555.12 1.827.867c.27.747-.106 1.57-.842 1.84zm21.544 37.763c-.736.268-1.554-.12-1.826-.867s.105-1.57.842-1.84c.737-.267 1.554.122 1.826.87.272.746-.105 1.57-.842 1.837zM23.928 26.623c-.6.504-1.502.42-2.013-.19-.51-.61-.44-1.51.162-2.016.6-.504 1.502-.42 2.013.19.51.61.44 1.512-.162 2.016zm33.02 27.972c-.6.504-1.502.42-2.013-.19-.51-.61-.438-1.512.162-2.016.6-.505 1.502-.42 2.013.19.512.608.44 1.51-.162 2.015zm-38.3-21.252c-.22-.22-.438-.443-.547-.664-.218-.444-.218-.887 0-1.33.437-.665 1.31-.997 1.967-.554.218.222.436.443.546.665.218.443.218.886 0 1.33-.437.664-1.31.996-1.966.553zM60.37 45.636c.327.11.546.332.546.664.218.443.218.886 0 1.33-.437.663-1.31.996-1.966.553-.22-.222-.437-.443-.546-.665-.22-.443-.22-.886 0-1.33.436-.663 1.31-.995 1.966-.552zm-40.863-5.9c-.136.772-.88 1.286-1.664 1.148-.783-.138-1.308-.876-1.172-1.648.137-.773.883-1.287 1.666-1.15.783.14 1.307.877 1.17 1.65zm42.898-.044c-.136.772-.88 1.286-1.664 1.148-.782-.138-1.306-.876-1.17-1.648.136-.772.88-1.287 1.664-1.148.783.138 1.308.875 1.17 1.648zm-42.742 8.68c-.772.137-1.51-.388-1.65-1.17-.137-.784.377-1.53 1.15-1.665.772-.136 1.51.388 1.648 1.17.14.784-.375 1.53-1.147 1.666zm40.303-14.945c-.772.136-1.51-.388-1.648-1.17-.14-.784.376-1.53 1.148-1.665.772-.137 1.51.388 1.648 1.17.138.784-.376 1.53-1.148 1.665zm-36.13 21.31c-.68.39-1.553.15-1.95-.538-.398-.69-.17-1.566.51-1.958.678-.392 1.55-.152 1.95.537.396.688.168 1.564-.51 1.956zM56.72 26.708c-.68.39-1.552.15-1.95-.538-.397-.69-.17-1.565.51-1.957.68-.392 1.552-.152 1.95.537.397.69.17 1.565-.51 1.957zM29.918 59.314c-.504.6-1.407.673-2.016.162-.61-.51-.694-1.412-.19-2.013.504-.6 1.407-.673 2.016-.162.61.51.694 1.412.19 2.013zM51.32 21.57c-.504.6-1.406.672-2.015.16-.61-.51-.694-1.41-.19-2.012.504-.6 1.406-.673 2.015-.162.61.51.694 1.412.19 2.013zM37.156 61.465c-.268.737-1.09 1.114-1.838.842-.748-.272-1.136-1.09-.868-1.827.27-.736 1.092-1.113 1.84-.84.746.27 1.134 1.09.866 1.826zm7.446-42.913c-.27.737-1.092 1.114-1.84.842-.746-.272-1.134-1.09-.866-1.827.268-.737 1.09-1.114 1.838-.842.748.272 1.136 1.09.868 1.827zm-7.934 5.488c-.603 0-1.092-.495-1.092-1.107 0-.61.49-1.107 1.092-1.107.604 0 1.093.496 1.093 1.107 0 .612-.488 1.108-1.092 1.108zm5.79 33.113c-.604 0-1.093-.496-1.093-1.107 0-.612.49-1.108 1.092-1.108.603 0 1.092.496 1.092 1.108 0 .61-.49 1.107-1.093 1.107zM31.587 25.97c-.566.206-1.195-.092-1.404-.667-.21-.575.08-1.208.647-1.414.568-.207 1.197.09 1.406.666.21.575-.08 1.208-.647 1.414zm16.598 29.144c-.566.206-1.195-.092-1.405-.667-.208-.575.082-1.208.65-1.414.566-.206 1.195.092 1.404.667.21.575-.08 1.208-.648 1.414zM27.546 29.51c-.463.388-1.157.322-1.55-.146-.393-.47-.337-1.163.125-1.55.463-.388 1.156-.323 1.55.146.393.468.337 1.162-.125 1.55zm25.442 21.617c-.462.388-1.155.323-1.548-.146-.394-.467-.338-1.16.124-1.55.462-.387 1.156-.32 1.55.147.392.47.336 1.163-.126 1.55zm-25.62.12c-.524.3-1.195.116-1.5-.414-.307-.53-.13-1.203.39-1.505.523-.302 1.195-.117 1.5.413.306.53.13 1.205-.39 1.506zm25.488-21.624c-.522.302-1.194.117-1.5-.413-.305-.53-.13-1.203.393-1.505.52-.302 1.192-.117 1.498.413.306.53.13 1.203-.392 1.505zM32.043 54.816c-.388.462-1.082.518-1.55.125-.47-.392-.534-1.086-.146-1.548.387-.462 1.08-.518 1.55-.125.468.394.534 1.087.146 1.55zM48.686 25.64c-.388.462-1.082.518-1.55.125-.47-.393-.534-1.086-.146-1.548.387-.462 1.08-.518 1.55-.125.468.393.534 1.086.146 1.548zM37.683 56.454c-.207.567-.84.857-1.415.647-.574-.208-.873-.837-.667-1.404.208-.566.84-.856 1.416-.647.574.208.873.837.667 1.404zm5.768-33.116c-.206.567-.84.857-1.413.647-.575-.21-.874-.838-.668-1.405.206-.567.84-.856 1.414-.647.574.21.873.838.667 1.405z"/>
    <path fill="#FFF" d="M40.503 30c-7.302 0-13.73 3.572-17.366 9.017-.183.263-.183.673 0 .95C26.774 45.4 33.2 49 40.503 49c7.287 0 13.728-3.6 17.365-9.032.17-.263.183-.673 0-.95C54.23 33.57 47.79 30 40.503 30zm0 2.064c3.96 0 7.16 3.323 7.16 7.436 0 4.113-3.2 7.436-7.16 7.436-3.975 0-7.16-3.323-7.16-7.436 0-4.113 3.185-7.436 7.16-7.436zm-5.47.366c-2 1.67-3.283 4.216-3.283 7.07s1.282 5.4 3.284 7.07c-4.23-1.2-7.823-3.733-10.22-7.07 2.397-3.337 5.99-5.87 10.22-7.07zm10.94 0c4.227 1.2 7.82 3.733 10.217 7.07-2.41 3.337-5.99 5.87-10.218 7.07 1.987-1.67 3.284-4.216 3.284-7.07s-1.297-5.4-3.284-7.07zm-5.47 3.352c1.96 0 3.58 1.67 3.58 3.718 0 2.05-1.62 3.718-3.58 3.718-1.974 0-3.58-1.67-3.58-3.718 0-2.05 1.606-3.718 3.58-3.718z"/>
  </g>
</svg>
