<svg xmlns="http://www.w3.org/2000/svg" width="119" height="20" viewBox="0 0 119 20">
  <path fill="#FFFFFF" fill-rule="evenodd" d="M118.95091,19.3699546 L119,19.3699546 L119,0 L-1,0 L1.83385837,0 L7.19892855,13.1522984 L12.2888679,0 L18.2592284,0 L18.2592284,19.3699546 L23.190919,19.3699546 L30.5000938,0 L35.5350065,0 L42.7620556,19.3699546 L50.3070847,19.3699546 L50.3070847,4.14613122 L44.3092104,4.14613122 L44.3092104,0 L60.6795546,0 L60.6795546,4.14613122 L54.6541674,4.14613122 L54.6541674,19.3699546 L70.7743926,19.3699546 L70.7743926,4.14613122 L64.7765183,4.14613122 L64.7765183,0 L81.1468625,0 L81.1468625,4.14613122 L75.1214753,4.14613122 L75.1214753,19.3699546 L86.2893265,19.3699546 L86.2893265,0 L98.6427456,0 L98.6427456,4.09121598 L90.6364092,4.09121598 L90.6364092,7.79802246 L97.8998899,7.79802246 L97.8998899,11.6146604 L90.6364092,11.6146604 L90.6364092,15.348924 L98.6702594,15.348924 L98.6702594,19.3699546 L104.830711,19.3699546 L104.830711,0 L112.561916,0 C113.515711,0 114.382367,0.155592704 115.161912,0.466782835 C115.941456,0.777972966 116.606351,1.20814186 117.156617,1.75730086 C117.706884,2.30645986 118.133333,2.95171273 118.43598,3.69307743 C118.738627,4.43444213 118.889947,5.2352877 118.889947,6.09563684 C118.889947,7.41361957 118.550622,8.5531077 117.87196,9.51413618 C117.193298,10.4751647 116.248688,11.1661798 115.038102,11.5872023 L118.95091,19.3699546 L118.95091,19.3699546 Z M114.165639,19.3699546 L109.177794,19.3699546 L109.177794,12.2187318 L110.718532,12.2187318 L114.165639,19.3699546 L114.165639,19.3699546 Z M38.0315678,19.3699546 L27.7559146,19.3699546 L29.124435,15.5136716 L36.6630474,15.5136716 L38.0315678,19.3699546 L38.0315678,19.3699546 Z M13.9946853,19.3699546 L8.94325721,19.3699546 L13.9946853,6.56242062 L13.9946853,19.3699546 L13.9946853,19.3699546 Z M5.34404942,19.3699546 L0.293119271,19.3699546 L0.293119271,6.72716728 L5.34404942,19.3699546 L5.34404942,19.3699546 Z"/>
</svg>
